<svg xmlns="http://www.w3.org/2000/svg" xmlns:xlink="http://www.w3.org/1999/xlink" width="40" height="240" version="1.1" viewBox="0 0 40 240"><title>sprites</title><desc>Created with Sketch.</desc><g id="Page-1" fill="none" fill-rule="evenodd" stroke="none" stroke-width="1"><g id="sprites"><path id="✭" fill="#B70000" d="M36.6396484,16.5981445 L26.2026367,24.2006836 L30.2456055,36.5493164 L19.7646484,28.9248047 L9.23974609,36.5493164 L13.2827148,24.2006836 L2.84570312,16.5981445 L15.765625,16.5981445 L19.7207031,4.31542969 L23.7197266,16.5981445 L36.6396484,16.5981445 Z M33.0361328,17.784668 L22.9067383,17.784668 L19.7646484,8.09472656 L16.5786133,17.784668 L6.44921875,17.784668 L14.6450195,23.7612305 L11.480957,33.4731445 L19.7207031,27.4526367 L28.0043945,33.4731445 L24.840332,23.7612305 L33.0361328,17.784668 Z M29.4765625,18.9492188 L23.4560547,23.2998047 L25.7412109,30.4189453 L19.7646484,26.0024414 L13.7441406,30.4189453 L16.0292969,23.2998047 L10.0087891,18.9492188 L17.4355469,18.9492188 L19.7207031,11.8740234 L22.0498047,18.9492188 L29.4765625,18.9492188 Z"/><path id="globe" fill="#5D5D5D" d="M24.2066607,98.7706071 C22.4131964,96.9839286 20.0320893,96 17.5003393,96 C17.2139821,96 16.9303393,96.0162857 16.6480536,96.0407143 C16.447875,96.5014643 15.6885536,97.0775714 15.9511607,97.5783571 C16.3318393,98.299 17.2750536,97.2757143 17.7201964,97.1379643 C18.2915536,96.9608571 19.2985536,96.68875 19.3372321,97.5030357 C19.3664107,98.0940714 18.7543393,98.5677143 18.8350893,99.2313571 C19.5218036,99.41525 19.8950179,98.3213929 20.5009821,98.8988571 C21.0865893,99.4546071 20.361875,100.184071 20.0029107,100.561357 C19.4200179,101.175464 19.4607321,101.499143 19.1920179,102.215036 C18.761125,103.358429 18.7624821,102.177036 18.4788393,101.830964 C18.1327679,101.41025 17.2187321,101.434 16.789875,101.653179 C16.1418393,101.985 16.1377679,102.567214 16.3976607,103.226786 C17.1067679,105.017536 19.2205179,103.682107 20.532875,104.437357 C21.7617679,105.145107 22.0331964,107.644964 21.0309464,108.522357 C20.6760536,108.832464 19.996125,109.184643 19.7097679,109.698321 C19.5598036,109.967036 19.6195179,110.357893 19.4912679,110.664607 C19.3996607,110.881071 18.480875,112.839429 18.0893393,112.066536 L17.6482679,111.7035 C16.6860536,110.701929 17.3103393,108.599714 16.2395536,107.448857 C15.7197679,106.89175 15.0900536,106.728893 15.1497679,105.835214 C15.1952321,105.141036 15.6376607,105.043321 15.958625,104.526929 C16.5259107,103.612214 14.7548393,102.704964 13.8075536,102.590964 C13.1289821,102.508179 12.8826607,103.194893 12.5786607,102.36025 C12.3825536,101.821464 12.533875,101.12525 12.5033393,100.546429 C12.4599107,99.7368929 12.1341964,98.7305714 11.4142321,98.20875 C11.2025179,98.3878929 10.9941964,98.5717857 10.7940179,98.7699286 C7.06866071,102.481036 7.06866071,108.518964 10.7940179,112.229393 C12.5874821,114.016071 14.9692679,115 17.5003393,115 C20.0314107,115 22.4131964,114.016071 24.2066607,112.229393 C27.9320179,108.518964 27.9320179,102.481714 24.2066607,98.7706071"/><path id="Shape" fill="#717171" d="M8,160 L1,160 L1,178 L14,178 L14,166 L8,166 L8,160 Z M12,170 L3,170 L3,169 L12,169 L12,170 L12,170 Z M12,172 L3,172 L3,171 L12,171 L12,172 L12,172 Z M12,174 L3,174 L3,173 L12,173 L12,174 L12,174 Z M12,176 L3,176 L3,175 L12,175 L12,176 L12,176 Z M9,160 L9,165 L14,165 L9,160 Z"/><path id="Shape" fill="#717171" d="M10,221 C5.02942857,221 1,225.029429 1,230 C1,234.969929 5.02942857,239 10,239 C14.9705714,239 19,234.969929 19,230 C19,225.030071 14.9705714,221 10,221 L10,221 Z M8.07142857,234.498714 L8.07142857,225.498714 L14.0718571,229.998714 L8.07142857,234.498714 L8.07142857,234.498714 Z"/></g></g></svg>