<?xml version="1.0" encoding="UTF-8" standalone="no"?>
<svg width="100px" height="100px" viewBox="0 0 100 100" version="1.1" xmlns="http://www.w3.org/2000/svg" xmlns:xlink="http://www.w3.org/1999/xlink">
    <!-- Generator: Sketch 3.6.1 (26313) - http://www.bohemiancoding.com/sketch -->
    <title>human-rights</title>
    <desc>Created with Sketch.</desc>
    <defs></defs>
    <g id="Page-1" stroke="none" stroke-width="1" fill="none" fill-rule="evenodd">
        <g id="ethical-design-manifesto-icons" fill="#5B5C5A">
            <path d="M47.8707067,-7.10542736e-15 C49.9342354,1.1450541 56.9550956,5.80183158 56.9550956,14.2059648 C56.9550956,21.6409275 44.9613847,43.8371817 49.6016084,49.6043538 L79.3748255,12.4960139 C79.3748255,12.4960139 86.7696971,21.5030658 82.3332914,29.121413 C77.72333,37.0385038 66.3276234,46.3280041 61.7624088,53.2301429 C58.9402527,57.4966139 60.3124036,59.783877 60.3124036,59.783877 L96.3931176,40.022835 C96.3931176,40.022835 99.2905416,48.6196642 92.4235795,54.8024907 C85.176657,61.3280317 68.1125834,63.9197285 68.1125834,70.7207343 L92.8938095,70.7207343 C92.8938095,70.7207343 90.3610854,78.2301889 85.5726538,79.2867839 C81.3491191,80.2192257 72.3115462,77.7519406 68.0523174,81.5885314 C63.5559044,85.6390277 58.4982158,98.9583321 43.4081771,98.9583321 C33.2555538,98.9583321 25.387607,91.6413149 20.5003703,82.0261712 C14.8529542,70.9154995 8.52476499,65.5678615 2,64.2057981 C2,64.2057981 5.54715877,55.8076139 14.9124442,55.8076139 C27.7866079,55.8076139 33.2935757,76.9025262 43.0080419,76.9025262 C45.8079539,76.9025262 48.7803871,75.445796 48.7803871,71.3202905 C48.7803871,66.8419832 42.324941,63.1323907 40.5280829,61.8815478 C36.2491965,58.902131 32.8375716,54.1690511 35.0361168,46.2248018 L47.8707067,-7.10542736e-15" id="Shape"></path>
        </g>
    </g>
</svg>