<?xml version="1.0" encoding="UTF-8" standalone="no"?>
<svg width="200px" height="110px" viewBox="0 0 200 110" version="1.1" xmlns="http://www.w3.org/2000/svg" xmlns:xlink="http://www.w3.org/1999/xlink">
    <!-- Generator: Sketch 3.6.1 (26313) - http://www.bohemiancoding.com/sketch -->
    <title>human-rights-print</title>
    <desc>Created with Sketch.</desc>
    <defs></defs>
    <g id="Page-1" stroke="none" stroke-width="1" fill="none" fill-rule="evenodd">
        <g id="ethical-design-manifesto-icons-for-print">
            <path d="M99.3852204,21 C100.797108,21.7834581 105.600855,24.9696742 105.600855,30.7198706 C105.600855,35.8069504 97.3946316,50.9938611 100.569522,54.939821 L120.94067,29.5499042 C120.94067,29.5499042 126.000319,35.712624 122.964884,40.9251773 C119.810699,46.3421342 112.013637,52.6981081 108.890069,57.4206241 C106.95912,60.3397885 107.89796,61.9047579 107.89796,61.9047579 L132.584765,48.384045 C132.584765,48.384045 134.567213,54.266086 129.868765,58.496441 C124.910344,62.9612848 113.234926,64.7345511 113.234926,69.3878708 L130.190501,69.3878708 C130.190501,69.3878708 128.457585,74.5259187 125.181289,75.2488521 C122.291503,75.8868386 116.1079,74.1986962 113.193691,76.823732 C110.117198,79.5951242 106.656674,88.7083325 96.3319107,88.7083325 C89.3853789,88.7083325 84.0020469,83.7019523 80.6581481,77.1231698 C76.7941265,69.5211313 72.4643129,65.862221 68,64.9302829 C68,64.9302829 70.4270034,59.1841569 76.8348303,59.1841569 C85.6434685,59.1841569 89.4113939,73.6175179 96.0581339,73.6175179 C97.9738632,73.6175179 100.007633,72.6208078 100.007633,69.7980935 C100.007633,66.7339885 95.5907491,64.1958463 94.3613199,63.3400064 C91.4336608,61.301458 89.0993911,58.0630349 90.6036589,52.627496 L99.3852204,21" id="Shape" fill="#676767"></path>
            <rect id="Rectangle-12" fill="#CCCCCC" x="0" y="104" width="200" height="6"></rect>
        </g>
    </g>
</svg>