<svg xmlns="http://www.w3.org/2000/svg" xmlns:xlink="http://www.w3.org/1999/xlink" width="200" height="100" version="1.1" viewBox="0 0 200 100"><title>human-effort-print</title><desc>Created with Sketch.</desc><g id="Page-1" fill="none" fill-rule="evenodd" stroke="none" stroke-width="1"><g id="ethical-design-manifesto-icons-for-print" transform="translate(-212.000000, 0.000000)"><g id="effort" fill="#676767" transform="translate(278.000000, 22.000000)"><path id="Combined-Shape" d="M15.2742755,23.3606224 L26.6893375,45.4056071 C27.706967,47.3708726 26.9457847,49.7811211 24.9773533,50.7951449 L25.0187655,50.7738117 C23.0556333,51.7851058 20.51166,51.0881705 19.3327931,49.2110342 L14.9987703,42.3098722 C14.8383432,42.5244606 14.6576696,42.7208371 14.4603337,42.8969232 C14.2786156,43.5232211 13.941436,44.1133644 13.4494593,44.6053411 L8.01443199,50.0403684 C6.45321109,51.6015893 3.92520548,51.6048229 2.36596029,50.0455778 L2.12466149,49.8042789 C0.566317617,48.2459351 0.575046147,45.7106319 2.12987081,44.1558073 L7.56489816,38.7207799 C7.59779612,38.6878819 7.63112337,38.6556758 7.66486178,38.6241614 L9.16592796,33.0221061 L2.04955947,21.6905525 C0.436974266,19.1227968 1.25560425,15.8138372 3.895917,14.2894519 L4.27325776,14.0715941 C5.66117559,13.2702794 7.22530887,13.1568596 8.59862171,13.6239061 L8.66530981,13.5232926 L9.70678339,13.4299816 L25.0625862,24.0950664 L26.2649226,29.154297 L15.2742755,23.3606224 Z"/><ellipse id="Oval" cx="6.065" cy="5.721" rx="5.721" ry="5.721"/><path id="Oval-12" d="M36.0531801,50.8787879 L68.7480428,50.8787879 C68.7480428,50.8787879 69,48.8412295 69,47.8516508 C69,38.6593945 61.5482039,31.2075984 52.3559475,31.2075984 C43.1636912,31.2075984 35.7118951,38.6593945 35.7118951,47.8516508 C35.7118951,49.0060901 36.0531801,50.8787879 36.0531801,50.8787879 Z"/><rect id="Rectangle-6" width="29.273" height="2.091" x="16.848" y="29.749" transform="translate(31.484694, 30.794438) rotate(28.000000) translate(-31.484694, -30.794438)"/></g><rect id="Rectangle-12-Copy" width="200" height="6" x="212" y="94" fill="#CCC"/></g></g></svg>