<svg xmlns="http://www.w3.org/2000/svg" xmlns:xlink="http://www.w3.org/1999/xlink" width="100" height="100" version="1.1" viewBox="0 0 100 100"><title>human-experience</title><desc>Created with Sketch.</desc><g id="Page-1" fill="none" fill-rule="evenodd" stroke="none" stroke-width="1"><g id="ethical-design-manifesto-icons" fill="#676767" transform="translate(0.000000, -240.000000)"><g id="delight" transform="translate(7.000000, 242.000000)"><path id="Rectangle-7" d="M62.9283035,24.4100135 L71.4219849,32.903695 C72.2007139,33.6824239 72.203092,34.942615 71.4167437,35.7289633 L12.7289633,94.4167437 C11.9473397,95.1983673 10.6811918,95.1994817 9.90369495,94.4219849 L1.41001354,85.9283035 C0.631284567,85.1495745 0.628906482,83.8893835 1.41525479,83.1030352 L60.1030352,24.4152548 C60.8846588,23.6336312 62.1508067,23.6325167 62.9283035,24.4100135 Z M61.5258674,27.4254151 L45.4304637,43.4679851 L52.5196497,50.4193213 L68.614204,34.3385548 L61.5258674,27.4254151 Z"/><polygon id="Star-1" points="56 14.618 51.056 17.217 52 11.711 48 7.812 53.528 7.009 56 2 58.472 7.009 64 7.812 60 11.711 60.944 17.217"/><polygon id="Star-1" points="79 53.618 74.056 56.217 75 50.711 71 46.812 76.528 46.009 79 41 81.472 46.009 87 46.812 83 50.711 83.944 56.217"/><polygon id="Star-1-Copy-3" points="61.5 63.52 59.337 64.657 59.75 62.249 58 60.543 60.418 60.191 61.5 58 62.582 60.191 65 60.543 63.25 62.249 63.663 64.657"/><polygon id="Star-1-Copy-4" points="74.5 5.52 72.337 6.657 72.75 4.249 71 2.543 73.418 2.191 74.5 0 75.582 2.191 78 2.543 76.25 4.249 76.663 6.657"/><polygon id="Star-1-Copy" points="36 30.463 32.292 32.413 33 28.284 30 25.359 34.146 24.757 36 21 37.854 24.757 42 25.359 39 28.284 39.708 32.413"/><polygon id="Star-1-Copy-2" points="81 24.463 77.292 26.413 78 22.284 75 19.359 79.146 18.757 81 15 82.854 18.757 87 19.359 84 22.284 84.708 26.413"/></g></g></g></svg>