<svg xmlns="http://www.w3.org/2000/svg" xmlns:xlink="http://www.w3.org/1999/xlink" width="100" height="100" version="1.1" viewBox="0 0 100 100"><title>human-effort</title><desc>Created with Sketch.</desc><g id="Page-1" fill="none" fill-rule="evenodd" stroke="none" stroke-width="1"><g id="ethical-design-manifesto-icons" fill="#676767" transform="translate(0.000000, -120.000000)"><g id="effort" transform="translate(0.000000, 135.000000)"><path id="Combined-Shape" d="M21.9152648,33.5174148 L39.1020788,66.7089166 C40.1155335,68.6661195 39.3526259,71.0689773 37.3761497,72.0871454 L34.3574122,73.6422272 C32.3907532,74.655338 29.8461081,73.9633582 28.6690735,72.0891395 L21.7699658,61.1035351 C21.5721694,61.5241046 21.3060793,61.8983828 20.9889398,62.2162701 C20.8542083,62.4106587 20.7002066,62.5958114 20.5269161,62.7691019 L10.2691019,73.0269161 C8.70832539,74.5876926 6.17905375,74.5889397 4.60815968,73.0180456 L1.83490636,70.2447923 C0.269230811,68.6791167 0.261720562,66.1481654 1.82603584,64.5838501 L10.9991671,55.4107188 L13.151114,47.3795436 L1.68007362,29.1139479 C0.0625738302,26.5383666 0.879958466,23.2214819 3.51548681,21.6998589 L8.20550306,18.9920767 C10.0913386,17.9032891 12.3022489,18.0842796 13.9190501,19.2698274 L13.927124,19.269104 L35.9593628,34.5711822 L37.6844542,41.8300782 L21.9152648,33.5174148 Z"/><circle id="Oval" cx="8.701" cy="8.209" r="8.209"/><path id="Oval-12" d="M51.7284758,73 L98.6384962,73 C98.6384962,73 99,70.0765467 99,68.6567164 C99,55.4678269 88.3082925,44.7761194 75.119403,44.7761194 C61.9305134,44.7761194 51.238806,55.4678269 51.238806,68.6567164 C51.238806,70.3130857 51.7284758,73 51.7284758,73 Z"/><rect id="Rectangle-6" width="42" height="3" x="24.174" y="42.683" transform="translate(45.173691, 44.183324) rotate(28.000000) translate(-45.173691, -44.183324)"/></g></g></g></svg>