<?xml version="1.0" encoding="UTF-8" standalone="no"?>
<svg width="200px" height="100px" viewBox="0 0 200 100" version="1.1" xmlns="http://www.w3.org/2000/svg" xmlns:xlink="http://www.w3.org/1999/xlink">
    <!-- Generator: Sketch 3.6.1 (26313) - http://www.bohemiancoding.com/sketch -->
    <title>human-experience-print</title>
    <desc>Created with Sketch.</desc>
    <defs></defs>
    <g id="Page-1" stroke="none" stroke-width="1" fill="none" fill-rule="evenodd">
        <g id="ethical-design-manifesto-icons-for-print" transform="translate(-422.000000, 0.000000)">
            <g id="delight" transform="translate(494.000000, 16.000000)" fill="#676767">
                <path d="M41.2288885,15.9927675 L46.7937143,21.5575932 C47.303916,22.067795 47.3054741,22.8934374 46.7902803,23.4086311 L8.3396656,61.8592459 C7.82756736,62.3713441 6.99802219,62.3720742 6.48862773,61.8626798 L0.923801978,56.297854 C0.413600233,55.7876523 0.412042178,54.9620099 0.927235899,54.4468161 L39.3778506,15.9962014 C39.8899489,15.4841032 40.719494,15.483373 41.2288885,15.9927675 Z M40.3100511,17.9683754 L29.7647865,28.4790247 L34.4094257,33.0333485 L44.9541337,22.4976738 L40.3100511,17.9683754 Z" id="Rectangle-7"></path>
                <polygon id="Star-1" points="36.6896552 9.57701335 33.4503046 11.2800407 34.0689655 7.67297086 31.4482759 5.1184298 35.0699799 4.5921654 36.6896552 1.31034483 38.3093305 4.5921654 41.9310345 5.1184298 39.3103448 7.67297086 39.9290057 11.2800407 "></polygon>
                <polygon id="Star-1" points="51.7586207 35.1287375 48.5192701 36.8317649 49.137931 33.224695 46.5172414 30.6701539 50.1389454 30.1438895 51.7586207 26.862069 53.378296 30.1438895 57 30.6701539 54.3793103 33.224695 54.9979713 36.8317649 "></polygon>
                <polygon id="Star-1-Copy-3" points="40.2931034 41.6166675 38.8758876 42.361742 39.1465517 40.7836489 38 39.6660372 39.5844955 39.4357965 40.2931034 38 41.0017114 39.4357965 42.5862069 39.6660372 41.4396552 40.7836489 41.7103193 42.361742 "></polygon>
                <polygon id="Star-1-Copy-4" points="48.8103448 3.61666748 47.393129 4.36174195 47.6637931 2.78364889 46.5172414 1.66603718 48.1017369 1.4357965 48.8103448 0 49.5189528 1.4357965 51.1034483 1.66603718 49.9568966 2.78364889 50.2275607 4.36174195 "></polygon>
                <polygon id="Star-1-Copy" points="23.5862069 19.9586221 21.156694 21.2358926 21.6206897 18.5305902 19.6551724 16.6146844 22.3714504 16.2199861 23.5862069 13.7586207 24.8009634 16.2199861 27.5172414 16.6146844 25.5517241 18.5305902 26.0157198 21.2358926 "></polygon>
                <polygon id="Star-1-Copy-2" points="53.0689655 16.0275876 50.6394526 17.3048581 51.1034483 14.5995557 49.137931 12.6836499 51.8542091 12.2889516 53.0689655 9.82758621 54.283722 12.2889516 57 12.6836499 55.0344828 14.5995557 55.4984784 17.3048581 "></polygon>
            </g>
            <rect id="Rectangle-12-Copy-2" fill="#CCCCCC" x="422" y="94" width="200" height="6"></rect>
        </g>
    </g>
</svg>