<svg xmlns="http://www.w3.org/2000/svg" xmlns:xlink="http://www.w3.org/1999/xlink" width="200" height="100" version="1.1" viewBox="0 0 200 100"><title>human-experience-print</title><desc>Created with Sketch.</desc><g id="Page-1" fill="none" fill-rule="evenodd" stroke="none" stroke-width="1"><g id="ethical-design-manifesto-icons-for-print" transform="translate(-422.000000, 0.000000)"><g id="delight" fill="#676767" transform="translate(494.000000, 16.000000)"><path id="Rectangle-7" d="M41.2288885,15.9927675 L46.7937143,21.5575932 C47.303916,22.067795 47.3054741,22.8934374 46.7902803,23.4086311 L8.3396656,61.8592459 C7.82756736,62.3713441 6.99802219,62.3720742 6.48862773,61.8626798 L0.923801978,56.297854 C0.413600233,55.7876523 0.412042178,54.9620099 0.927235899,54.4468161 L39.3778506,15.9962014 C39.8899489,15.4841032 40.719494,15.483373 41.2288885,15.9927675 Z M40.3100511,17.9683754 L29.7647865,28.4790247 L34.4094257,33.0333485 L44.9541337,22.4976738 L40.3100511,17.9683754 Z"/><polygon id="Star-1" points="36.69 9.577 33.45 11.28 34.069 7.673 31.448 5.118 35.07 4.592 36.69 1.31 38.309 4.592 41.931 5.118 39.31 7.673 39.929 11.28"/><polygon id="Star-1" points="51.759 35.129 48.519 36.832 49.138 33.225 46.517 30.67 50.139 30.144 51.759 26.862 53.378 30.144 57 30.67 54.379 33.225 54.998 36.832"/><polygon id="Star-1-Copy-3" points="40.293 41.617 38.876 42.362 39.147 40.784 38 39.666 39.584 39.436 40.293 38 41.002 39.436 42.586 39.666 41.44 40.784 41.71 42.362"/><polygon id="Star-1-Copy-4" points="48.81 3.617 47.393 4.362 47.664 2.784 46.517 1.666 48.102 1.436 48.81 0 49.519 1.436 51.103 1.666 49.957 2.784 50.228 4.362"/><polygon id="Star-1-Copy" points="23.586 19.959 21.157 21.236 21.621 18.531 19.655 16.615 22.371 16.22 23.586 13.759 24.801 16.22 27.517 16.615 25.552 18.531 26.016 21.236"/><polygon id="Star-1-Copy-2" points="53.069 16.028 50.639 17.305 51.103 14.6 49.138 12.684 51.854 12.289 53.069 9.828 54.284 12.289 57 12.684 55.034 14.6 55.498 17.305"/></g><rect id="Rectangle-12-Copy-2" width="200" height="6" x="422" y="94" fill="#CCC"/></g></g></svg>