<?xml version="1.0" encoding="UTF-8" standalone="no"?>
<svg width="100px" height="100px" viewBox="0 0 100 100" version="1.1" xmlns="http://www.w3.org/2000/svg" xmlns:xlink="http://www.w3.org/1999/xlink">
    <!-- Generator: Sketch 3.6.1 (26313) - http://www.bohemiancoding.com/sketch -->
    <title>human-experience</title>
    <desc>Created with Sketch.</desc>
    <defs></defs>
    <g id="Page-1" stroke="none" stroke-width="1" fill="none" fill-rule="evenodd">
        <g id="ethical-design-manifesto-icons" transform="translate(0.000000, -240.000000)" fill="#676767">
            <g id="delight" transform="translate(7.000000, 242.000000)">
                <path d="M62.2243555,26.5365751 L62.2243555,26.5365751 L62.2243555,26.5365751 L3.53657514,85.2243555 C3.92276639,84.8381643 3.92321442,84.1988637 3.53133389,83.8069832 L12.0250153,92.3006646 C11.6298869,91.9055362 10.9965463,91.90652 10.6076429,92.2954233 L69.2954233,33.6076429 C68.9092321,33.9938342 68.908784,34.6331348 69.3006646,35.0250153 L60.8069832,26.5313339 C61.2021116,26.9264623 61.8354522,26.9254784 62.2243555,26.5365751 L62.2243555,26.5365751 Z M60.1030352,24.4152548 C60.8846588,23.6336312 62.1508067,23.6325167 62.9283035,24.4100135 L71.4219849,32.903695 C72.2007139,33.6824239 72.203092,34.942615 71.4167437,35.7289633 L12.7289633,94.4167437 C11.9473397,95.1983673 10.6811918,95.1994817 9.90369495,94.4219849 L1.41001354,85.9283035 C0.631284567,85.1495745 0.628906482,83.8893835 1.41525479,83.1030352 L60.1030352,24.4152548 L60.1030352,24.4152548 Z" id="Rectangle-7"></path>
                <rect id="Rectangle-7-Copy" transform="translate(27.915999, 67.915999) rotate(-315.000000) translate(-27.915999, -67.915999) " x="19.9159992" y="38.2175144" width="16" height="59.3969696"></rect>
                <polygon id="Star-1" points="56 14.6175467 51.0557281 17.2169043 52 11.7113766 48 7.81234022 53.527864 7.00909456 56 2 58.472136 7.00909456 64 7.81234022 60 11.7113766 60.9442719 17.2169043 "></polygon>
                <polygon id="Star-1" points="79 53.6175467 74.0557281 56.2169043 75 50.7113766 71 46.8123402 76.527864 46.0090946 79 41 81.472136 46.0090946 87 46.8123402 83 50.7113766 83.9442719 56.2169043 "></polygon>
                <polygon id="Star-1-Copy-3" points="61.5 63.5201767 59.336881 64.6573956 59.75 62.2487273 58 60.5428988 60.4184405 60.1914789 61.5 58 62.5815595 60.1914789 65 60.5428988 63.25 62.2487273 63.663119 64.6573956 "></polygon>
                <polygon id="Star-1-Copy-4" points="74.5 5.52017668 72.336881 6.65739561 72.75 4.24872725 71 2.54289885 73.4184405 2.19147887 74.5 0 75.5815595 2.19147887 78 2.54289885 76.25 4.24872725 76.663119 6.65739561 "></polygon>
                <polygon id="Star-1-Copy" points="36 30.46316 32.2917961 32.4126782 33 28.2835324 30 25.3592552 34.145898 24.7568209 36 21 37.854102 24.7568209 42 25.3592552 39 28.2835324 39.7082039 32.4126782 "></polygon>
                <polygon id="Star-1-Copy-2" points="81 24.46316 77.2917961 26.4126782 78 22.2835324 75 19.3592552 79.145898 18.7568209 81 15 82.854102 18.7568209 87 19.3592552 84 22.2835324 84.7082039 26.4126782 "></polygon>
            </g>
        </g>
    </g>
</svg>