<svg xmlns="http://www.w3.org/2000/svg" xmlns:xlink="http://www.w3.org/1999/xlink" width="97" height="125" version="1.1" viewBox="0 0 97 125"><title>manifesto-document-icon</title><desc>Created with Sketch.</desc><defs><linearGradient id="linearGradient-1" x1="50%" x2="50%" y1="100%" y2="0%"><stop offset="0%" stop-color="#676767"/><stop offset="35.624%" stop-color="#676767"/><stop offset="35.763%" stop-color="#B3B3B3"/><stop offset="66.624%" stop-color="#B3B3B3"/><stop offset="66.67%" stop-color="#CCC"/><stop offset="100%" stop-color="#E5E5E5"/></linearGradient></defs><g id="Page-1" fill="none" fill-rule="evenodd" stroke="none" stroke-width="1"><g id="icons" transform="translate(-43.000000, -142.000000)"><g id="document" stroke="#343434" stroke-width="2" transform="translate(45.000000, 144.000000)"><g id="Layer_1"><path id="Shape" d="M93,17 L76,17 L76,0"/><path id="Shape" d="M93,120 L0,120 L0,0 L76.2235294,0 L93,16.7272727 L93,120 Z"/></g></g><g id="Badge-Tiny" transform="translate(68.000000, 180.000000)"><g id="triangle-copy-+-logo"><polygon id="triangle-copy" fill="url(#linearGradient-1)" points="23.497 6.934 46.725 45 .269 45"/><g id="logo" transform="translate(41.770646, 0.174628)"><g id="strings" fill="#050505" stroke="#050505" stroke-width=".3" transform="translate(0.000000, 12.154016)"><path id="string" d="M8.22491545,2.16772698 C7.80960989,2.69883472 7.31643057,3.16663203 6.04882755,4.27097903 C5.3271474,4.89971318 4.9322857,5.60353985 4.66296861,6.56456464 C4.59783843,6.79697365 4.56073662,6.95283313 4.45830961,7.4061231 C4.16957344,8.68392284 3.94483718,9.22770845 3.33656802,9.78116243 C2.59742178,10.4536993 2.16026968,10.6244796 1.28679193,10.7492036 C0.892475259,10.8055081 0.702170772,10.852022 0.474396913,10.9732241 C0.327524391,11.0513773 0.188889123,11.1550599 0.0528404996,11.2909136 C0.00196577691,11.3417154 0.00167723685,11.4243716 0.0521960274,11.4755313 C0.102714818,11.5266911 0.184910501,11.5269812 0.235785224,11.4761794 C0.353982402,11.3581516 0.471993818,11.2698932 0.595830682,11.2039976 C0.789460928,11.1009639 0.957099763,11.0599899 1.32329269,11.0077012 C2.24373638,10.8762709 2.72781913,10.6871564 3.51076677,9.97476535 C4.17052261,9.37446449 4.41160224,8.79113347 4.7114915,7.4639758 C4.81287525,7.01530279 4.84939259,6.86189855 4.9128709,6.63538403 C5.16943161,5.71987883 5.53959763,5.06007132 6.21883614,4.4683127 C7.49976485,3.35235624 7.99963914,2.87820852 8.4290097,2.32911396 C8.93099972,1.68715103 9.20613349,1.04880778 9.35765704,0.167693045 C9.36987428,0.0966493554 9.32250688,0.0290975477 9.25185899,0.0168118595 C9.1812111,0.00452617127 9.11403563,0.0521589427 9.10181839,0.123202632 C8.957491,0.962471438 8.69972114,1.56052835 8.22491545,2.16772698 Z"/><path id="string" d="M8.63916454,2.49062987 C8.57263556,2.62196969 8.50275168,2.75051828 8.42158048,2.89292279 C8.37851647,2.9684731 8.24939459,3.19023341 8.23552901,3.21439217 C7.71709331,4.11769116 7.6215797,4.59705515 7.74890018,5.34818237 C7.8300561,5.82696176 7.8300561,6.11734488 7.78645432,6.26043536 C7.78183896,6.27558183 7.77773274,6.28528742 7.77482198,6.29038576 C7.77588702,6.2885203 7.77943676,6.28385471 7.78596425,6.27741571 C7.73478195,6.32790414 7.73399143,6.41055701 7.78419858,6.46202605 C7.83440573,6.51349509 7.91659812,6.51429004 7.96778042,6.46380161 C7.99252813,6.4393894 8.01600756,6.39826405 8.03469737,6.33692862 C8.09220611,6.14819886 8.09220611,5.81970076 8.00484449,5.30431083 C7.88802562,4.61513784 7.97133393,4.19702981 8.46039969,3.34490368 C8.47364451,3.3218265 8.60303118,3.09961144 8.64683572,3.02276196 C8.72998088,2.8768944 8.80184397,2.74470513 8.87051559,2.60913537 C9.29338538,1.77431658 9.50193036,0.986549917 9.41250693,0.184670228 C9.40451682,0.113021189 9.34028013,0.0614517145 9.26903026,0.0694865836 C9.19778039,0.0775214528 9.14649822,0.142118024 9.15448833,0.213767063 C9.23726785,0.956069374 9.04106842,1.69720147 8.63916454,2.49062987 Z"/></g><path id="balloon" fill="#C62C1F" d="M9.34093386,12.2888954 C8.87394484,12.4199801 5.99669036,9.1636117 4.89367662,6.87746297 C3.79066287,4.59131424 3.74366923,0.88513299 6.54951262,0.254959447 C9.35535601,-0.375214095 10.286872,2.23356704 10.8063177,2.23286979 C11.3257634,2.23217254 13.4066838,-0.119648674 15.6944182,1.41940412 C17.9821526,2.95845691 16.9530277,6.40897724 15.2446076,8.56764471 C13.5361875,10.7263122 9.90201366,12.1313991 9.34093386,12.2888954 L9.34093386,12.2888954 Z"/></g></g></g></g></g></svg>