<?xml version="1.0" encoding="UTF-8" standalone="no"?>
<svg width="100px" height="100px" viewBox="0 0 100 100" version="1.1" xmlns="http://www.w3.org/2000/svg" xmlns:xlink="http://www.w3.org/1999/xlink" xmlns:sketch="http://www.bohemiancoding.com/sketch/ns">
    <!-- Generator: Sketch 3.4 (15575) - http://www.bohemiancoding.com/sketch -->
    <title>print</title>
    <desc>Created with Sketch.</desc>
    <defs></defs>
    <g id="Page-1" stroke="none" stroke-width="1" fill="none" fill-rule="evenodd" sketch:type="MSPage">
        <g id="icons" sketch:type="MSArtboardGroup" transform="translate(-20.000000, 0.000000)">
            <g id="print_filled" sketch:type="MSLayerGroup" transform="translate(45.000000, 38.000000)">
                <g id="Слой_1" sketch:type="MSShapeGroup">
                    <path d="M47,13 L3,13 C1.3,13 0,14.3 0,16 L0,37 C0,38.7 1.3,40 3,40 L9,40 L9,49 L41,49 L41,40 L47,40 C48.7,40 50,38.7 50,37 L50,16 C50,14.3 48.7,13 47,13 L47,13 Z M39,47 L11,47 L11,29 L39,29 L39,47 L39,47 Z M43,22 C41.9,22 41,21.1 41,20 C41,18.9 41.9,18 43,18 C44.1,18 45,18.9 45,20 C45,21.1 44.1,22 43,22 L43,22 Z" id="Shape" fill="#343434"></path>
                    <path d="M35,35 L15,35 C14.4,35 14,34.6 14,34 C14,33.4 14.4,33 15,33 L35,33 C35.6,33 36,33.4 36,34 C36,34.6 35.6,35 35,35 L35,35 Z" id="Shape" fill="#343434"></path>
                    <path d="M31,39 L15,39 C14.4,39 14,38.6 14,38 C14,37.4 14.4,37 15,37 L31,37 C31.6,37 32,37.4 32,38 C32,38.6 31.6,39 31,39 L31,39 Z" id="Shape" fill="#343434"></path>
                    <path d="M35,43 L15,43 C14.4,43 14,42.6 14,42 C14,41.4 14.4,41 15,41 L35,41 C35.6,41 36,41.4 36,42 C36,42.6 35.6,43 35,43 L35,43 Z" id="Shape" fill="#343434"></path>
                    <path d="M40,14 L40,0 L10,0 L10,14" id="Shape" stroke="#343434" stroke-width="2"></path>
                </g>
            </g>
        </g>
    </g>
</svg>