<?xml version="1.0" encoding="UTF-8" standalone="no"?>
<svg width="330px" height="610px" viewBox="0 0 330 610" version="1.1" xmlns="http://www.w3.org/2000/svg" xmlns:xlink="http://www.w3.org/1999/xlink" xmlns:sketch="http://www.bohemiancoding.com/sketch/ns">
    <!-- Generator: Sketch 3.1.1 (8761) - http://www.bohemiancoding.com/sketch -->
    <title>girl-with-cage</title>
    <desc>Created with Sketch.</desc>
    <defs></defs>
    <g id="Page-1" stroke="none" stroke-width="1" fill="none" fill-rule="evenodd" sketch:type="MSPage">
        <g id="Girl-with-cage" sketch:type="MSLayerGroup" transform="translate(3.000000, 153.000000)" fill="#0A0B09">
            <g id="Group-5" transform="translate(0.000000, 22.000000)" sketch:type="MSShapeGroup">
                <path d="M217.305494,84.8907592 L201.276,41.5722571 L202.043647,41.0917714 L218.151953,84.6243918 L217.305494,84.8907592 L217.305494,84.8907592 Z M213.265624,86.1764939 L197.611765,43.8671143 L199.721259,42.544498 L215.589035,85.4398857 L213.265624,86.1764939 L213.265624,86.1764939 Z M208.422282,87.7173265 L193.216729,46.6137714 L196.056,44.8383306 L211.553259,86.7245959 L208.422282,87.7173265 L208.422282,87.7173265 Z M204.788753,88.877049 L189.916871,48.6781184 L191.661988,47.5921592 L206.709918,88.2664531 L204.788753,88.877049 L204.788753,88.877049 Z M212.630012,125.8222 C212.060929,125.749461 211.476494,125.733069 210.953471,125.733069 C209.905376,125.733069 208.656671,125.8222 207.242153,125.994314 L196.646576,97.3577755 C198.1962,96.4490531 199.6578,95.4440286 200.895247,94.3631918 C204.815365,104.853967 208.976012,115.994269 212.630012,125.8222 L212.630012,125.8222 Z M214.153024,128.084273 C214.137671,127.797416 214.361824,127.550514 214.649435,127.536171 C214.931929,127.524902 215.181671,127.744143 215.198047,128.032024 C215.427318,132.739555 191.796071,144.087829 169.4514,152.36878 C151.348235,159.082261 131.461059,164.767155 122.911518,164.767155 C120.770294,164.767155 119.340424,164.411657 118.828659,163.6228 C118.673082,163.382045 118.738588,163.058306 118.980141,162.901559 C119.225788,162.744812 119.549224,162.812429 119.705824,163.054208 C119.929976,163.402535 121.730365,164.971029 135.218435,161.883216 C144.587824,159.741008 156.614294,156.015963 169.084976,151.391416 C196.233071,141.328878 214.305529,131.21409 214.153024,128.084273 L214.153024,128.084273 Z M110.445953,137.723698 C109.318024,134.667645 108.186,131.61569 107.058071,128.564759 C107.992553,128.455139 109.333376,128.187747 111.045741,127.77078 L122.217565,157.964543 C120.598341,159.149878 119.606541,160.095482 119.010847,160.847457 L110.445953,137.723698 L110.445953,137.723698 Z M105.387671,124.040612 L103.732624,119.552322 C102.725471,116.825131 101.718318,114.102037 100.710141,111.374845 C99.3897882,107.822939 98.0694353,104.276155 96.7490824,100.728347 L96.4727294,99.9753469 C95.6006824,97.6343878 94.7286353,95.2934286 93.8770588,92.9483714 C93.5966118,92.1636122 93.3243529,91.380902 93.0531176,90.5961429 C92.6979529,89.5880449 92.3479059,88.5799469 91.9773882,87.5769714 C91.6171059,86.5996082 91.2885529,85.612 90.9907059,84.6243918 C91.8688941,84.4317878 93.1257882,84.0865347 94.7020235,83.6173184 L109.568788,123.779367 C107.893271,124.631743 106.7766,125.278196 106.034541,125.795563 C105.820624,125.209555 105.601588,124.625596 105.387671,124.040612 L105.387671,124.040612 Z M90.3376941,82.2680653 C87.6140824,71.3439306 88.6693412,59.8901347 93.4543412,49.5038571 C95.7368118,44.546351 98.7644118,40.082649 102.3918,36.2121265 C100.5126,38.620702 97.9384235,42.3928735 95.7470471,47.2889102 C92.3172,54.9531184 89.3008588,66.8187592 93.6846353,80.6801061 C92.1032824,81.3859796 91.0490471,81.8920776 90.3376941,82.2680653 L90.3376941,82.2680653 Z M106.019188,34.7122735 C106.040682,34.6928082 106.061153,34.6702694 106.076506,34.654902 C104.510506,42.3518939 102.782788,57.7438286 108.826729,74.4471102 C106.901471,75.2093306 105.058094,75.9459388 103.3314,76.6415673 C102.736729,76.881298 102.172765,77.1107837 101.625176,77.3361714 C99.4788353,70.9833102 96.2485765,55.3649633 106.019188,34.7122735 L106.019188,34.7122735 Z M109.005847,30.3131143 C109.489976,29.9535184 109.981271,29.5918735 110.481776,29.2527673 C108.826729,44.6231878 114.511412,63.3959388 117.195106,71.1810367 C114.877835,72.0743918 112.642447,72.9472571 110.508388,73.7832408 C102.657918,52.0066857 108.294494,32.5700653 109.005847,30.3131143 L109.005847,30.3131143 Z M112.455141,27.9670327 C113.103035,27.5654327 113.765259,27.183298 114.433624,26.8124327 C114.339459,32.0844571 115.494,44.7594449 124.798906,68.2766082 C122.780506,69.0388286 120.813282,69.7908041 118.885976,70.5284367 C116.171576,62.5558571 110.3262,43.0096163 112.455141,27.9670327 L112.455141,27.9670327 Z M113.796988,12.9715755 C111.823624,12.8209755 110.085671,11.5301184 109.396835,9.67066939 C108.420388,7.03773061 109.787824,4.09539592 112.438765,3.10778776 C113.019106,2.89469388 113.618894,2.78507347 114.229941,2.78507347 C116.358882,2.78507347 118.286188,4.11588571 119.016988,6.10134694 C119.491906,7.37786122 119.434588,8.76092245 118.860388,9.99953061 C118.708906,10.3181469 118.530812,10.6213959 118.322012,10.9031306 C118.030306,10.8406367 117.732459,10.8047796 117.429494,10.8047796 C116.939224,10.8047796 116.459188,10.8928857 115.999624,11.060902 C115.066165,11.4102531 114.308753,12.0751469 113.796988,12.9715755 L113.796988,12.9715755 Z M133.970753,64.8281755 C131.430353,65.7748041 128.928847,66.7142612 126.481588,67.638351 C116.599412,42.6643633 116.073318,30.0252327 116.281094,25.8360939 C117.195106,25.3812204 118.118329,24.9365918 119.057929,24.5349918 L133.970753,64.8281755 L133.970753,64.8281755 Z M121.443776,23.5781184 C122.169459,23.3127755 122.900259,23.0617755 123.631059,22.8261429 C126.3342,25.5963633 134.326941,35.3822898 143.295106,61.3838408 C140.987047,62.2321184 138.674894,63.0834694 136.371953,63.9348204 C136.132447,64.0249755 135.898059,64.1120571 135.652412,64.2011878 L120.729353,23.866 C120.968859,23.7717469 121.204271,23.667249 121.443776,23.5781184 L121.443776,23.5781184 Z M129.273776,21.3734163 C140.820212,31.5568449 149.167094,50.5642041 152.183435,58.1669429 C149.819082,59.0131714 147.406624,59.8850122 144.985976,60.7691469 C136.508082,36.1865143 128.950341,25.9293224 125.577812,22.2462816 C126.805024,21.906151 128.035306,21.6192939 129.273776,21.3734163 L129.273776,21.3734163 Z M133.031153,20.7833102 L133.309553,20.8304367 C135.041365,21.9010286 152.398376,33.0823102 160.651094,55.1621143 C158.467906,55.9253592 156.202835,56.7295837 153.890682,57.5553224 C150.956224,50.072449 142.965529,31.7238367 131.523494,20.9871837 C132.024,20.9093224 132.525529,20.8468286 133.031153,20.7833102 L133.031153,20.7833102 Z M136.142682,20.5169429 L136.127329,20.5528 C136.110953,20.5425551 136.0956,20.5323102 136.080247,20.5169429 L136.142682,20.5169429 L136.142682,20.5169429 Z M169.414553,52.0374204 C168.543529,52.3509143 167.733918,52.6592857 167.012329,52.9522898 C165.515929,53.4645347 163.959141,54.0023918 162.3522,54.5607388 C155.696188,36.7294939 143.235741,25.8207265 137.338165,21.4256653 C159.088165,31.0661143 166.950918,45.7839347 169.414553,52.0374204 L169.414553,52.0374204 Z M176.842306,49.5878653 C174.968224,50.1677265 172.975412,50.8049592 171.126918,51.4370694 C170.223141,49.0909878 168.599824,45.6323102 165.839365,41.6767551 C161.740129,35.8207714 154.328753,27.8584367 141.655412,21.4891837 C149.317553,22.9777673 168.521012,28.7200327 176.842306,49.5878653 L176.842306,49.5878653 Z M159.553871,25.0001102 C169.894588,29.7394 178.105341,37.6904653 183.158506,47.6905102 C182.052071,48.010151 180.423635,48.4896122 178.559788,49.0541061 C172.964153,34.905902 162.591706,27.5603102 154.778082,23.8823918 C152.616388,22.8630245 150.539647,22.0639224 148.638953,21.4359102 C152.360506,22.1889102 156.019624,23.3814163 159.553871,25.0001102 L159.553871,25.0001102 Z M195.335435,93.8099673 C196.563671,93.4964735 197.616882,93.2567429 198.463341,93.0979469 C197.736635,93.5118408 196.7868,94.0076939 195.624071,94.5834571 L195.335435,93.8099673 L195.335435,93.8099673 Z M189.547376,100.810306 C191.279188,100.100335 193.196259,99.2387388 195.060106,98.2460082 L205.420271,126.245314 C203.619882,126.520902 201.594318,126.907135 199.386565,127.394792 C196.552412,119.734682 193.065247,110.314498 189.547376,100.810306 L189.547376,100.810306 Z M180.617082,103.193269 C181.055153,103.01091 181.482988,102.831624 181.915941,102.655412 C182.123718,102.952514 182.463529,103.135898 182.823812,103.135898 C182.928212,103.135898 183.038753,103.126678 183.142129,103.093894 C183.340694,103.036522 185.220918,102.478176 187.782812,101.50491 C191.259741,110.905629 194.703918,120.215167 197.5176,127.823029 C195.299612,128.345518 192.919906,128.952016 190.403047,129.645596 C187.610859,122.085886 184.128812,112.682094 180.617082,103.193269 L180.617082,103.193269 Z M172.327518,106.542327 C174.587471,105.648971 176.774753,104.772008 178.862753,103.91451 C182.343776,113.319327 185.793071,122.645257 188.571953,130.157841 C186.400024,130.774584 184.140071,131.448698 181.811541,132.175061 L172.327518,106.542327 L172.327518,106.542327 Z M163.458635,109.995882 C165.916129,109.056424 168.328588,108.121065 170.656094,107.206196 L180.094059,132.712918 C177.708212,133.472065 175.254812,134.281412 172.760471,135.137886 C170.098271,127.953139 166.803529,119.046224 163.458635,109.995882 L163.458635,109.995882 Z M153.926506,113.585694 C154.140424,113.501686 154.355365,113.423824 154.5744,113.344939 C157.011424,112.440314 159.418765,111.536714 161.778,110.639261 C165.1188,119.667065 168.4074,128.554514 171.059365,135.727992 C168.799412,136.510702 166.511824,137.336441 164.198647,138.193939 C163.859859,138.318927 163.515953,138.450061 163.176141,138.575049 L153.926506,113.585694 L153.926506,113.585694 Z M144.802765,116.904016 C147.229553,116.035249 149.709565,115.137796 152.240753,114.206535 L161.495506,139.207159 C158.984788,140.15891 156.526271,141.119882 154.126094,142.092122 L144.802765,116.904016 L144.802765,116.904016 Z M137.019847,119.640429 C138.993212,118.956069 141.030035,118.245073 143.111894,117.504367 L152.459788,142.766237 C150.423988,143.601196 148.435271,144.443327 146.503871,145.27931 L137.019847,119.640429 L137.019847,119.640429 Z M128.599271,122.493633 C130.740494,121.788784 132.985094,121.029637 135.323859,120.225412 L144.854965,145.999527 C142.605247,146.993282 140.443553,147.979865 138.3924,148.952106 L128.599271,122.493633 L128.599271,122.493633 Z M119.522612,125.383718 C121.766188,124.69731 124.235965,123.919722 126.893047,123.053004 L136.763965,149.735841 C134.7384,150.718327 132.818259,151.683396 131.043459,152.630024 C130.630976,152.849265 130.233847,153.064408 129.842859,153.277502 L119.522612,125.383718 L119.522612,125.383718 Z M117.800012,125.905184 L128.255365,154.160612 C126.454976,155.173833 124.962671,156.089727 123.740576,156.904196 L112.794953,127.322053 C114.270882,126.929673 115.947424,126.45431 117.800012,125.905184 L117.800012,125.905184 Z M116.536976,122.493633 L117.178729,124.222971 C115.310788,124.781318 113.634247,125.257706 112.172647,125.644963 L111.818506,124.683992 C113.154212,124.040612 114.730447,123.304004 116.536976,122.493633 L116.536976,122.493633 Z M102.349835,79.2683592 C102.318106,79.190498 102.281259,79.1075143 102.245435,79.0183837 C104.396894,78.1465429 106.812424,77.1732776 109.464388,76.1293224 C109.547294,76.3383184 109.637365,76.5462898 109.720271,76.7614327 C107.021224,77.6906449 104.557588,78.5327755 102.349835,79.2683592 L102.349835,79.2683592 Z M124.664824,117.034127 C122.492894,117.937727 120.437647,118.810592 118.525694,119.640429 C118.191,119.786931 117.873706,119.92831 117.554365,120.06969 L103.0704,80.9300816 C105.320118,80.1781061 107.773518,79.337 110.382494,78.4334 L124.664824,117.034127 L124.664824,117.034127 Z M111.421376,76.1651796 C111.327212,75.9356939 111.228953,75.7010857 111.139906,75.4654531 C113.222788,74.6458612 115.446918,73.7781184 117.794894,72.8745184 C117.921812,73.2300163 118.035424,73.5435102 118.134706,73.8037306 C115.774447,74.6407388 113.530871,75.4336939 111.421376,76.1651796 L111.421376,76.1651796 Z M126.266647,121.369767 C123.609565,122.23751 121.141835,123.021245 118.902353,123.705604 L118.181788,121.767269 C120.285141,120.837033 122.659729,119.823812 125.291224,118.721461 L126.266647,121.369767 L126.266647,121.369767 Z M132.901165,113.678922 C130.619718,114.593792 128.4222,115.482024 126.324988,116.344645 L112.079506,77.8432939 C114.224824,77.0902939 116.469424,76.3014367 118.766224,75.4859429 L132.901165,113.678922 L132.901165,113.678922 Z M119.830694,73.1982571 C119.731412,72.9267673 119.611659,72.6030286 119.475529,72.2260163 C121.396694,71.4894082 123.395647,70.7271878 125.463176,69.9434531 C125.609541,70.298951 125.754882,70.6534245 125.901247,71.0140449 C123.803012,71.7721673 121.777447,72.5026286 119.830694,73.1982571 L119.830694,73.1982571 Z M134.697459,118.538078 C132.358694,119.343327 130.114094,120.100424 127.973894,120.805273 L126.950365,118.037102 C128.997424,117.189849 131.1888,116.296494 133.522447,115.367282 L134.697459,118.538078 L134.697459,118.538078 Z M140.579682,110.665898 C138.527506,111.458853 136.523435,112.24771 134.566447,113.0212 L120.457094,74.8804694 C122.450929,74.170498 124.482635,73.4390122 126.533788,72.6962571 L140.579682,110.665898 L140.579682,110.665898 Z M127.587,70.403449 C127.441659,70.0325837 127.290176,69.6709388 127.142788,69.3062204 C129.538871,68.4015959 132.024,67.4723837 134.592035,66.5155102 L135.027035,67.6762571 C132.463094,68.6218612 129.983082,69.5305837 127.587,70.403449 L127.587,70.403449 Z M142.490612,115.821131 C140.406706,116.557739 138.370906,117.268735 136.393447,117.953094 L135.193871,114.703412 C137.109918,113.946314 139.113988,113.161555 141.207106,112.352208 L142.490612,115.821131 L142.490612,115.821131 Z M149.657365,107.222588 C147.146647,108.156922 144.671753,109.092282 142.260318,110.022518 L128.218518,72.0856612 C130.682153,71.1861592 133.173424,70.2764122 135.647294,69.3625673 L149.657365,107.222588 L149.657365,107.222588 Z M137.431306,66.7880245 C137.186682,66.8761306 136.951271,66.9652612 136.711765,67.0543918 L136.278812,65.8885224 L136.998353,65.6221551 C139.358612,64.7451918 141.649271,63.9030612 143.878518,63.0875673 C144.004412,63.469702 144.135424,63.8508122 144.259271,64.2380694 C142.057659,65.0679061 139.775188,65.9141347 137.431306,66.7880245 L137.431306,66.7880245 Z M151.619471,112.5192 C149.094424,113.445339 146.608271,114.347914 144.182506,115.215657 L142.8816,111.708829 C145.246976,110.800106 147.710612,109.865771 150.283765,108.903776 L151.619471,112.5192 L151.619471,112.5192 Z M159.214059,103.711661 C156.850729,104.561988 154.438271,105.445098 151.991012,106.354845 C151.770953,106.431682 151.558059,106.510567 151.343118,106.594576 L137.333047,68.7417265 L138.054635,68.4743347 C140.465047,67.5758571 142.850894,66.6876245 145.189659,65.8106612 C146.578588,69.5674653 152.706459,86.1303918 159.214059,103.711661 L159.214059,103.711661 Z M145.946047,63.6049347 C145.816059,63.2238245 145.690165,62.8427143 145.563247,62.471849 C148.080106,61.5518571 150.513035,60.6738694 152.836447,59.8389102 C152.992024,60.2507551 153.117918,60.5908857 153.212082,60.8470082 C150.893788,61.7352408 148.467,62.6552327 145.946047,63.6049347 L145.946047,63.6049347 Z M161.1516,108.951927 C158.843541,109.834012 156.443365,110.731465 153.948,111.657604 C153.734082,111.741612 153.520165,111.819473 153.306247,111.897335 L151.963376,108.276788 C152.183435,108.198927 152.391212,108.121065 152.611271,108.036033 C155.059553,107.132433 157.470988,106.249322 159.836365,105.392849 L161.1516,108.951927 L161.1516,108.951927 Z M168.188365,100.523449 C165.828106,101.344065 163.400294,102.200539 160.900835,103.099016 C154.391188,85.5023796 148.252059,68.9189633 146.870294,65.178551 C149.333929,64.2483143 151.750482,63.3293469 154.088224,62.4359918 L168.188365,100.523449 L168.188365,100.523449 Z M154.892718,60.2046531 C154.798553,59.9423837 154.6788,59.6186449 154.532435,59.2324122 C156.886553,58.3913061 159.131153,57.596302 161.254976,56.8504735 C161.344024,57.1106939 161.432047,57.3719388 161.515976,57.6342082 C159.427976,58.4486776 157.220224,59.305151 154.892718,60.2046531 L154.892718,60.2046531 Z M170.035835,105.517837 C167.754388,106.417339 165.348071,107.352698 162.832235,108.313669 C162.399282,107.13858 161.960188,105.962465 161.527235,104.7884 C164.017482,103.89402 166.455529,103.0314 168.8076,102.210784 L170.035835,105.517837 L170.035835,105.517837 Z M176.549576,97.6702449 C174.420635,98.3822653 172.191388,99.1393633 169.884353,99.9323184 L155.769882,61.7874898 C158.034953,60.9197469 160.231447,60.0683959 162.330706,59.2426571 C163.583506,62.6234735 169.858765,79.588 176.549576,97.6702449 L176.549576,97.6702449 Z M163.196612,56.9754612 C163.118824,56.7347061 163.041035,56.4949755 162.957106,56.2542204 C163.479106,56.0708367 163.990871,55.8936 164.502635,55.7214857 L164.743165,56.3699878 C164.236518,56.5677143 163.719635,56.7705633 163.196612,56.9754612 L163.196612,56.9754612 Z M178.235329,102.227176 C176.188271,103.063159 174.012247,103.940122 171.704188,104.860114 L170.505635,101.621702 C172.816765,100.825673 175.047035,100.068576 177.175976,99.3586041 C177.527047,100.313429 177.881188,101.270302 178.235329,102.227176 L178.235329,102.227176 Z M179.644729,96.651902 C179.216894,96.7881592 178.788035,96.9295388 178.350988,97.0739918 C171.622306,78.8821265 165.307129,61.8233469 164.095271,58.5531755 C164.523106,58.3861837 164.945824,58.2191918 165.363424,58.0511755 L179.644729,96.651902 L179.644729,96.651902 Z M166.825024,55.544249 L166.803529,55.4766327 C167.686835,55.0781061 168.850588,54.6293796 170.166847,54.1540163 C170.166847,54.1683592 170.170941,54.184751 170.176059,54.2011429 C169.111588,54.6293796 167.999012,55.0729837 166.825024,55.544249 L166.825024,55.544249 Z M181.2486,100.984469 C180.835094,101.156584 180.417494,101.328698 179.988635,101.50491 C179.650871,100.585943 179.316176,99.672098 178.977388,98.7582531 C179.411365,98.615849 179.844318,98.4744694 180.267035,98.3351388 L181.2486,100.984469 L181.2486,100.984469 Z M185.313035,94.8395796 C184.187153,95.1879061 183.007024,95.5649184 181.779812,95.9562735 L167.451424,57.2264612 C168.635647,56.751098 169.785071,56.291102 170.887412,55.8464735 C172.488212,60.1728939 178.700012,76.9550612 185.313035,94.8395796 L185.313035,94.8395796 Z M186.728576,98.6537551 C185.648753,99.117849 184.5198,99.6044816 183.320224,100.11058 L182.407235,97.6395102 C183.633424,97.2471306 184.807412,96.8772898 185.940459,96.5207673 C186.201459,97.2327878 186.462459,97.9427592 186.728576,98.6537551 L186.728576,98.6537551 Z M193.587247,94.2699633 L193.999729,95.3723143 C192.432706,96.1140449 190.5924,96.9541265 188.466529,97.8905102 C188.232141,97.2471306 187.992635,96.6047755 187.751082,95.9613959 C189.933247,95.2995755 191.891259,94.7299592 193.587247,94.2699633 L193.587247,94.2699633 Z M187.130824,94.2802082 C180.475835,76.2901673 174.222071,59.3942816 172.644812,55.136502 C174.8628,54.2318776 176.711294,53.4706816 178.251706,52.8160327 L192.972106,92.587751 C191.2536,93.0569673 189.296612,93.6214612 187.130824,94.2802082 L187.130824,94.2802082 Z M100.5648,79.7078653 C100.585271,79.7560163 100.601647,79.8021184 100.621094,79.8441224 C99.9844588,80.0531184 99.3744353,80.2569918 98.7889765,80.445498 C99.3529412,80.2088408 99.9486353,79.9639878 100.5648,79.7078653 L100.5648,79.7078653 Z M95.3386588,79.9578408 C89.8586824,62.3929633 96.6344471,47.9312653 101.701941,40.2977918 C94.8647647,58.6105469 97.8411882,72.1215184 99.9230471,78.0307755 C98.1103765,78.7786531 96.5976,79.4158857 95.3386588,79.9578408 L95.3386588,79.9578408 Z M110.419341,126.089592 C109.531941,126.302686 108.755082,126.4748 108.096953,126.600812 C108.660918,126.276049 109.365106,125.905184 110.201329,125.482069 L110.419341,126.089592 L110.419341,126.089592 Z M96.4256471,83.0886816 C97.8862235,82.6348327 99.5453647,82.095951 101.369294,81.4945755 L115.905459,120.796053 C114.046729,121.62589 112.490965,122.347131 111.186988,122.979241 L96.4256471,83.0886816 L96.4256471,83.0886816 Z M198.915741,91.2128857 C197.872765,91.3757796 196.453129,91.684151 194.715176,92.1277551 L179.906753,52.1060612 C181.429765,51.4421918 182.573047,50.9145796 183.419506,50.4863429 L198.915741,91.2128857 L198.915741,91.2128857 Z M188.362129,49.6503592 L203.077412,89.4220776 L202.617847,89.5665306 L187.605741,50.124698 L188.362129,49.6503592 L188.362129,49.6503592 Z M204.971965,37.3605796 C204.757024,36.7868653 204.3036,36.3432612 203.730424,36.1506571 C203.1552,35.9508816 202.523682,36.0225959 202.0068,36.3473592 L185.319176,46.7858857 C180.041859,36.2377388 171.408388,27.8584367 160.5252,22.8691714 C153.322624,19.5662163 145.622612,17.9721102 137.918506,18.1083673 C135.666741,17.1258816 131.626871,15.731551 126.840847,15.731551 C125.410976,15.731551 124.001576,15.8626857 122.639259,16.1126612 C122.587059,15.578902 122.467306,15.0512898 122.277953,14.5410939 C121.929953,13.5944653 121.381341,12.7840939 120.701718,12.1632531 C120.921776,11.8333673 121.121365,11.4881143 121.293318,11.1233959 C122.169459,9.23628571 122.253388,7.12173878 121.532824,5.17213469 C120.410012,2.14169388 117.4776,0.103983673 114.229941,0.103983673 C113.3016,0.103983673 112.386565,0.264828571 111.510424,0.594714286 C107.470553,2.0894449 105.392788,6.58285714 106.879976,10.6009061 C107.877918,13.2912163 110.304706,15.1977918 113.107129,15.5901714 C113.103035,16.3216571 113.227906,17.0726082 113.494024,17.7999959 C113.729435,18.4167388 114.042635,18.9812327 114.444882,19.4822082 C110.7264,21.9850367 107.502282,25.7356939 104.824729,30.6481224 C99.1502824,35.4970327 94.5413294,41.5466449 91.3305176,48.5223959 C85.5004941,61.1820163 84.9529059,75.3363673 89.7849882,88.3863184 C90.1503882,89.379049 90.4963412,90.3717796 90.8402471,91.3696327 C91.1166,92.1574653 91.3939765,92.9534939 91.6805647,93.7413265 C92.5311176,96.0976531 93.4082824,98.4437347 94.2803294,100.789816 L94.5556588,101.547939 C95.8780588,105.094722 97.1984118,108.636384 98.5136471,112.190339 C99.5259176,114.911384 100.533071,117.640624 101.535106,120.367816 L103.195271,124.849959 C104.881024,129.417135 106.566776,133.973041 108.253553,138.538167 L117.549247,163.64329 C117.560506,163.727298 117.763165,164.223151 117.763165,164.223151 C118.077388,165.074502 119.219647,167.787351 120.431506,170.66002 C121.526682,173.262224 122.659729,175.952535 122.873647,176.527273 C123.020012,176.909408 123.343447,177.165531 123.720106,177.248514 C124.659706,178.037371 126.3342,178.153139 127.635106,178.153139 C128.150965,178.153139 128.719024,178.127527 129.331094,178.085522 C129.785541,178.104988 130.245106,178.12138 130.725141,178.12138 C140.120118,178.12138 151.499718,173.84311 152.513012,173.455853 C158.390118,172.024641 179.223035,164.071527 180.072565,163.742665 C188.988529,160.703004 197.148106,156.73618 203.082529,153.528502 C204.643412,152.756037 206.135718,151.997914 207.534882,151.250037 C207.681247,151.1732 207.817376,151.099437 207.956576,151.025673 C208.417165,150.879171 209.434553,150.42942 212.212412,149.029967 C216.658624,146.783261 219.296259,144.527335 220.062882,142.306241 C220.536776,141.433376 220.417024,140.889371 220.292153,140.534898 C220.3812,140.283898 220.392459,140.007286 220.292153,139.739894 C215.8398,127.698041 209.200165,109.897531 203.124494,93.648098 L221.393471,87.8382163 C221.920588,87.6712245 222.353541,87.2942122 222.598165,86.7983592 C222.839718,86.3025061 222.866329,85.7267429 222.676976,85.2042531 L204.971965,37.3605796 Z" id="Fill-1"></path>
                <path d="M171.514471,149.735456 C170.192578,149.679281 165.946016,149.197509 166.249115,149.182735 C167.344051,149.128148 154.531108,142.560705 154.659432,142.306671 C154.950106,141.728016 155.551675,141.218208 156.557012,140.626913 C156.915564,140.415711 159.064622,139.137161 159.385111,138.94754 C161.077048,137.936854 161.860417,135.95384 160.993246,134.444835 C160.761585,134.037797 160.459736,133.952988 160.122641,133.959481 C159.787793,134.010032 159.128795,134.240204 158.811399,134.368384 C158.26885,134.587492 153.59638,136.647334 153.105083,136.783813 C152.608911,136.921616 150.002294,138.707208 150.002294,138.707208 C146.160055,138.403831 141.674886,140.784497 140.564555,144.172119 L141.448001,143.516196 C134.529235,143.67706 120.33449,143.308617 116.731311,143.049183 C110.498344,142.600842 105.435469,141.394691 95.0185811,138.271326 C92.8240555,137.613098 92.8781051,137.600968 92.8781051,137.600968 C92.8781051,137.600968 104.10042,128.534744 104.555889,128.164937 C108.357482,125.078324 110.747718,123.14698 113.248692,121.14812 C118.855957,116.666958 124.672444,112.018115 131.920971,106.224352 C131.920971,106.224352 132.981235,106.339799 134.014507,106.117603 C134.257962,106.065069 138.297002,105.161598 139.538291,104.588043 C140.492018,104.14722 141.51589,103.546255 142.594206,102.819831 C143.046223,102.514334 143.39015,102.243111 144.093371,101.658925 C145.126514,100.800739 145.59364,100.457722 146.192695,100.159469 C146.82739,99.8442018 147.366665,99.5494583 148.400575,98.9648577 C149.375532,98.4134706 154.27103,95.9454896 154.361758,95.9024639 C155.283726,95.4652432 155.883164,95.0866334 156.277011,94.584771 C157.024032,93.6364962 156.768101,92.0343623 155.539897,91.614314 C155.122232,91.4667592 154.685141,91.4802604 154.22188,91.6044044 C153.983237,91.6683554 153.764542,91.7519189 153.469436,91.8812501 C152.59312,92.2526442 146.286176,95.0397204 146.385783,94.9858061 C147.384566,94.363175 155.417757,89.0991087 155.571471,89.0076068 C156.557564,88.4206151 157.180937,87.9345146 157.550287,87.3301479 C158.095405,86.4509094 157.902475,85.2280623 157.114511,84.5813252 C156.526271,84.0979708 155.855196,84.0438996 155.120007,84.2596873 C154.93419,84.3142271 154.774165,84.3740745 154.517768,84.4786011 C153.527181,84.8884518 152.682274,85.3374881 151.666661,85.961188 C151.432457,86.1050159 148.036881,88.2430142 147.525813,88.5066696 C147.328513,88.6084547 147.139417,88.6995314 146.957303,88.7801735 C146.395744,89.0296154 154.877287,82.6596983 154.98675,82.5820427 C155.997789,81.8647905 156.616113,81.2894215 156.940261,80.5960423 C157.391141,79.6271765 157.049847,78.3731755 156.188071,77.7552311 C155.29817,77.1124251 154.587449,77.2530273 153.404606,77.847126 C152.426864,78.3358213 151.556341,78.8944806 150.490609,79.6834921 C150.130795,79.9498797 143.553654,84.717444 143.482584,84.7749757 C144.303182,83.7544106 150.443017,78.4836171 150.773245,78.0353911 C151.72925,76.0123422 150.655169,74.2942287 149.120197,74.449687 C147.913936,74.6857537 146.932338,75.1955544 146.169399,75.876081 C145.557069,76.4230223 138.903494,81.5702227 138.246143,82.159658 C136.049082,84.1325742 135.103007,84.8552697 133.873868,85.407635 C132.076386,85.7716772 131.8152,85.7297804 131.757005,85.4781783 C131.617991,84.8724482 131.750421,84.1181152 132.131864,83.0550385 C132.300976,82.5887272 133.085968,80.3682113 133.202942,80.0407114 C133.847204,78.2192847 133.195706,76.2289596 131.59144,75.6368703 C131.314553,75.5337416 131.020661,75.4802189 130.724329,75.4785618 C130.33822,75.4764028 129.988964,75.7074331 129.839891,76.0636108 L127.452131,81.8222541 C126.830864,82.7186584 125.426146,84.7895183 125.180859,85.2262819 C125.180859,85.2262819 121.044758,92.4293521 122.327498,95.6660584 C122.608137,96.1917333 104.07137,109.446796 103.808352,109.635626 C98.800486,113.228494 94.3844848,115.406531 84.212441,119.742169 C80.6058683,121.279481 70.7952031,125.277338 70.7952031,125.277338 C70.7952031,125.277338 70.6117871,123.488966 70.7881721,122.407559 C70.8672767,121.922573 70.9203675,121.67019 71.1670094,120.55822 C71.5429125,118.863484 71.6983419,117.899294 71.7236753,116.68415 C71.7749856,114.227875 72.5591336,113.298703 75.0799275,112.090544 C75.345942,111.963049 77.3770418,111.004303 77.8184047,110.770046 C81.9149694,108.592698 84.5974152,106.108756 83.9177849,103.259999 C83.620541,102.018582 82.5395012,101.056859 80.8213908,100.103602 C80.5093793,99.9304888 80.1842087,99.7624405 79.8153548,99.5810499 C80.4452604,98.484553 80.6203813,97.8901644 80.3340254,97.175452 C79.8070191,95.8517174 78.9918366,95.8183737 78.9918366,95.8183737 C78.9918366,95.8183737 80.164181,93.8945353 80.1970605,92.9848427 C80.2520475,91.512389 79.5769735,90.8366352 78.0217045,90.0725593 C77.1477351,89.6412354 76.8484253,89.4359802 76.6599038,89.1657357 C76.4938647,88.3024727 76.6893888,87.883944 76.7487383,87.747336 C76.8931227,87.4149986 77.3000122,85.5768502 77.2792609,84.9898876 C77.239417,83.8628804 76.8046428,82.994573 75.7290923,82.8509628 C72.5191004,82.4272237 69.1107406,80.1130825 69.1107406,80.1130825 C69.1107406,80.1130825 69.8967355,79.5142785 70.140486,79.1865632 C70.6943326,78.4419329 69.965431,77.4254246 69.0824688,77.7110784 C68.9211949,77.7632533 67.1948959,78.3193103 67.1163296,78.2630598 C66.8130076,78.0458931 66.0891871,76.8608593 65.7315675,75.9337943 C65.3260689,74.874832 65.3473372,74.9063638 65.3473372,74.9063638 C65.3473372,74.9063638 65.6929583,74.571125 65.8478966,74.3852613 C66.1257139,74.0519923 66.1433508,73.5731333 65.8908022,73.2203304 C62.7445258,68.8250744 59.8738511,66.0795075 55.4559855,63.3362513 C48.924493,59.2798358 37.8143189,57.8881487 30.9971845,60.5654369 C30.0239131,60.9481341 29.3121739,61.4300955 28.178428,62.3629737 C27.0644083,63.2778492 26.6226529,63.5901873 26.131597,63.8281911 C24.6615932,64.5402656 24.2196075,64.7109569 21.0024467,65.8802324 C18.3123729,66.8579383 16.8158486,67.5530359 15.1672761,68.7363597 C14.4058316,69.2829146 13.674343,69.9056721 12.9568011,70.624612 C9.66914392,73.9197504 7.61300462,77.0270065 6.16701414,81.0304816 C3.73413732,87.7598436 3.06858194,94.521443 3.10116873,105.734725 C3.12015349,112.557768 2.07906837,118.736556 -0.166366639,123.812869 C-0.582665439,124.754006 0.581818703,125.595537 1.34474674,124.904895 C4.57570366,121.980069 6.64629457,116.745654 6.64629457,116.745654 C6.64629457,116.745654 7.01010899,121.874053 6.21038511,125.911598 C6.11015826,126.417611 6.43074508,126.911517 6.93372461,127.025998 C7.58306351,127.173791 12.920427,128.515256 14.3342446,128.679053 C14.8047093,128.733558 15.2610851,128.768432 15.7072681,128.782712 C16.1603066,128.797212 16.560871,128.490609 16.6651769,128.049503 C17.129727,126.084937 17.4839871,125.555859 17.4839871,125.555859 C17.4839871,125.555859 18.0917609,127.875293 18.8516386,128.451685 C19.8992531,129.246335 20.6837031,129.265506 24.849721,128.95368 C25.9011302,128.907829 34.7104709,128.786057 35.568293,128.763681 C38.869932,128.677558 41.5293935,127.925648 41.5293935,127.925648 C41.0385732,129.582225 40.6539146,130.882194 40.2834047,132.13721 C39.3079163,135.441681 38.6997047,137.522573 38.5696225,138.013242 C37.6175912,141.590276 37.3639091,145.04174 37.3566478,151.013245 C37.3520869,155.02902 38.2906653,158.473801 40.6539187,164.689394 C40.7470105,164.934235 44.9915517,174.604056 45.2233893,175.085661 C47.2530877,179.302023 48.3849541,182.010997 49.155296,184.807099 C50.5950114,190.032819 48.4721141,202.500003 47.5919452,207.000003 C46.7117763,211.500003 38.9999996,234.414706 34.9999996,251.500003 C31.0776024,268.253833 22.9999996,269.500003 33.4999996,271.500003 C36.7382831,272.116819 51.9999996,274.000003 51.9999996,274.000003 C51.9999996,274.000003 52.4556204,274.192013 52.6616185,275.777425 C53.9929353,286.057563 54.2893511,290.85397 53.6185978,296.249397 C53.0693686,300.660716 52.2020822,304.280803 50.0732371,311.860066 C47.2085232,322.057295 46.2235871,326.532763 45.9603926,332.329435 C45.680838,338.466451 48.590213,360.938418 49.3801671,366.406209 C49.5646304,367.683001 51.1604082,378.341805 51.4866888,381.151985 C51.172297,385.947624 50.0812803,390.583184 48.0579834,395.100927 C47.8456247,395.575444 44.2148027,401.837874 43.7366581,402.953139 C42.293989,406.318145 42.2713425,409.044507 44.2479405,411.094171 C45.1942973,412.077571 47.5919435,412.637769 47.5919435,412.637769 C47.5919435,412.637769 44.2994433,418.20834 43.8112161,419.336474 C42.3737907,422.657894 42.3454944,425.363684 44.2930934,427.414192 C46.0018499,429.213019 49.6365163,429.621081 55.6898458,429.308051 C56.7207367,429.254742 64.1803247,428.718969 65.2933102,428.771205 C68.7569588,428.937667 71.5408979,429.413342 78.288863,430.82179 C80.3760126,431.257424 81.4377963,431.473967 82.6704711,431.709301 C88.6983175,432.860097 93.095739,433.242661 97.340349,432.743833 C100.78402,432.339325 103.039961,431.70127 104.230645,430.789679 C105.619899,429.726061 105.630064,428.251864 104.477158,426.944165 C102.888389,425.142084 98.7652869,423.265995 94.3020782,422.100512 C86.3783376,420.028603 76.6244127,413.923076 78.2601327,414.251847 C78.4635446,414.292732 78.8411046,414.36847 78.8411046,414.36847 C78.8411046,414.36847 81.3978347,414.876108 82.4588539,415.072112 C88.6109746,416.208603 93.0451286,416.570396 97.3319606,416.034585 C100.772739,415.604981 103.024089,414.950579 104.208194,414.030489 C105.589849,412.956896 105.589407,411.482699 104.426997,410.18344 C102.825408,408.393299 98.6894607,406.547297 94.2167568,405.412971 C84.8830333,403.04757 78.7417979,399.360095 73.4865956,392.619866 C72.962813,391.94803 70.8830845,389.419273 70.4041554,388.797701 C70.128882,388.440442 69.8834735,388.107812 69.6588883,387.785964 C71.276885,374.700106 72.5598954,364.310408 74.1321591,354.212855 C74.3609841,352.739683 75.1603829,345.58155 75.3064947,344.413113 C75.932762,339.404938 76.7093506,335.906512 78.0166059,332.979507 C81.9303777,324.21928 83.280374,318.858496 85.5868693,305.038382 C85.9023846,303.147386 87.1349582,296.068292 87.1487513,295.988032 C88.1494749,290.164949 89.2818732,282.734338 89.2818732,282.734338 C89.2818732,282.734338 92.8351452,283.789651 94.1007113,284.146201 C94.8674033,284.360997 95.550756,284.597273 96.1546544,284.858587 C96.8558821,285.162018 97.6111732,284.558238 97.4696201,283.807403 C97.050687,281.585271 97.3169731,278.752573 98.1740479,274.691834 C98.3397641,273.906686 98.5166851,273.118623 98.7748875,272.002054 C99.7578847,267.751187 100.510401,262.282207 100.629736,260.703575 C100.937485,256.622066 100.982221,252.327803 100.816552,247.326951 C100.718696,244.37308 100.093235,233.607001 100.027102,232.414711 C99.7199769,226.891364 99.2357112,221.38273 98.4898685,214.438176 C97.0986264,201.495438 96.5169036,194.533584 96.3292284,186.561391 C96.3192594,186.137921 96.3107829,185.715994 96.3038102,185.29545 C96.1079053,173.476496 95.3808308,166.412334 92.9556012,160.625598 C92.4167231,159.342269 91.8070467,158.022582 91.0779657,156.542495 L90.2041308,157.916428 C93.8944452,157.989738 96.8377813,158.0311 103.485771,158.111676 C110.055593,158.191305 112.985739,158.232456 116.633763,158.304711 C123.47259,158.442523 129.069357,158.554252 141.190193,158.79544 L140.588509,158.565823 C141.207589,159.097117 141.964099,159.585672 142.925527,160.090838 C143.13628,160.200952 143.333663,160.305657 143.660434,160.480118 C145.904507,161.678506 178.001221,150.54437 176.888354,150.28416 C176.125674,150.105211 171.669994,149.742084 171.514471,149.735456 Z" id="Stroke-4"></path>
            </g>
            <path d="M207.172553,-0.147934694 C207.224753,-0.0680244898 206.120365,0.0815510204 203.541071,1.99017551 C201.131682,3.83015918 196.758141,8.2866898 196.291412,17.3216653 C196.122529,21.7259469 196.613824,27.095298 199.040612,32.916449 C201.466376,38.7345265 205.893141,44.4972816 210.8112,51.0734816 C215.693435,57.5451837 221.117118,65.7574939 221.153965,76.5515184 C221.293165,86.9634082 215.986165,99.5502898 203.902376,106.187959 C213.344435,101.460963 219.815188,91.9383306 221.488659,81.6452816 C223.346365,71.2262204 219.4068,60.5807469 213.196024,52.4555184 C207.379306,44.0936327 200.172635,36.2491143 198.147071,26.2132122 C197.1174,21.2833673 196.854353,16.0963755 198.2136,11.2771755 C199.513482,6.43953469 202.827671,2.3221102 207.172553,-0.147934694" id="Fill-15" sketch:type="MSShapeGroup"></path>
            <path d="M194.751,8.45470612 C192.938329,10.2209265 190.029459,14.9622653 191.784812,22.6654041 C192.640482,26.3884 194.257659,30.7865347 197.603576,35.1385673 C200.902412,39.4916245 205.689459,43.4768898 211.011812,48.0235755 C216.2748,52.5323551 222.319765,58.0369388 224.960471,66.7809592 C227.5326,75.080351 226.465059,87.2738286 216.410929,94.7259673 C224.543894,89.6537184 228.133412,79.8339837 227.239871,70.7938857 C226.424118,61.5704041 220.755812,53.5056204 214.128459,47.7817959 C207.694553,41.8172163 200.4408,36.5779755 196.479741,29.0940776 C192.467506,21.8632286 190.881035,11.834498 197.650659,6.42211837 C197.706953,6.4887102 196.716176,6.58091429 194.751,8.45470612 Z" id="Fill-17" sketch:type="MSShapeGroup"></path>
        </g>
        <g id="balloon" sketch:type="MSLayerGroup" transform="translate(229.000000, -6.000000)">
            <g id="strings" transform="translate(0.000000, 77.391157)" fill="#050505" sketch:type="MSShapeGroup">
                <path d="M47.7718661,12.3800726 C45.3596928,15.4132739 42.4952139,18.084904 35.1327356,24.3919233 C30.9410806,27.9826773 28.6476491,32.0022911 27.0834045,37.4907851 C26.705116,38.8180927 26.4896217,39.7082194 25.8947063,42.2969969 C24.2176719,49.5946195 22.9123612,52.7002252 19.3794188,55.8610478 C15.0863174,59.7019628 12.5472553,60.6773038 7.47393115,61.389613 C5.18366527,61.7111729 4.07834078,61.9768178 2.75538709,62.6690131 C1.90232367,63.1153526 1.09710378,63.7074928 0.306907626,64.4833645 C0.0114176045,64.773498 0.00974170914,65.2455544 0.303164409,65.5377321 C0.596587109,65.8299097 1.0739952,65.8315668 1.36948522,65.5414333 C2.05599681,64.8673666 2.74142946,64.3633152 3.46069741,63.9869801 C4.58533853,63.3985458 5.55901662,63.1645397 7.68593447,62.8659144 C13.0320457,62.1153052 15.8436899,61.035256 20.391198,56.9667305 C24.2231849,53.5383614 25.623421,50.2069085 27.3652346,42.6273985 C27.9540906,40.0649889 28.1661903,39.1888843 28.5348843,37.8952407 C30.0250375,32.6667129 32.1750318,28.8984962 36.1201777,25.5189126 C43.5600541,19.1455907 46.4634187,16.4376928 48.9572841,13.3017673 C51.8729372,9.63546253 53.4709662,5.98983012 54.3510437,0.957709195 C54.4220038,0.551972661 54.1468849,0.166178561 53.7365486,0.0960139546 C53.3262123,0.0258493478 52.9360445,0.297884144 52.8650844,0.703620677 C52.0268036,5.49675597 50.5296274,8.91230969 47.7718661,12.3800726 Z" id="string"></path>
                <path d="M50.1779032,14.2241983 C49.7914903,14.9742912 49.3855915,15.7084431 48.9141338,16.5217273 C48.6640099,16.9532015 47.9140456,18.2196934 47.8335117,18.3576661 C44.822339,23.5164833 44.2675778,26.2541716 45.0070793,30.5439229 C45.4784482,33.2782725 45.4784482,34.9366752 45.2252008,35.753877 C45.198394,35.8403798 45.1745443,35.8958092 45.157638,35.9249263 C45.1638239,35.9142725 45.1844415,35.8876269 45.2223544,35.8508533 C44.9250779,36.139197 44.9204865,36.6112345 45.2120991,36.9051786 C45.5037117,37.1991226 45.9811007,37.2036626 46.2783771,36.9153189 C46.4221165,36.7758987 46.5584895,36.5410284 46.6670434,36.1907365 C47.0010651,35.1128849 47.0010651,33.2368044 46.4936523,30.2933688 C45.8151462,26.3574434 46.2990166,23.969593 49.1396032,19.1030284 C49.2165316,18.9712327 49.9680338,17.7021437 50.2224589,17.2632498 C50.7053817,16.4301878 51.1227762,15.6752437 51.5216339,14.9009933 C53.9777417,10.1332724 55.1890105,5.6342702 54.6696222,1.05466733 C54.6232142,0.645473589 54.2501153,0.350955951 53.8362826,0.396843769 C53.4224499,0.442731588 53.1245933,0.811648081 53.1710013,1.22084182 C53.6518005,5.46019324 52.512237,9.69286146 50.1779032,14.2241983 Z" id="string"></path>
            </g>
            <path d="M63.0233472,78.0992722 C60.5757678,79.470804 39.7843838,65.4006828 30.3554626,54.2559092 C20.9265415,43.1111356 15.4534299,22.6384708 30.3806343,15.270201 C45.3078386,7.90193116 54.2236496,21.071473 57.1500899,20.3500083 C60.0765302,19.6285437 68.4988942,3.72132708 83.5546106,9.08945155 C98.610327,14.457576 97.6595206,35.0001409 91.0650045,49.3224078 C84.4704885,63.6446747 65.9640746,76.4513988 63.0233472,78.0992722 Z" fill="#AD0B00" sketch:type="MSShapeGroup" transform="translate(58.381038, 43.020864) rotate(14.000000) translate(-58.381038, -43.020864) "></path>
        </g>
    </g>
</svg>