<?xml version="1.0" encoding="UTF-8" standalone="no"?>
<svg width="200px" height="200px" viewBox="0 0 200 200" version="1.1" xmlns="http://www.w3.org/2000/svg" xmlns:xlink="http://www.w3.org/1999/xlink" xmlns:sketch="http://www.bohemiancoding.com/sketch/ns">
    <!-- Generator: Sketch 3.1.1 (8761) - http://www.bohemiancoding.com/sketch -->
    <title>phoenix-logo</title>
    <desc>Created with Sketch.</desc>
    <defs></defs>
    <g id="Page-1" stroke="none" stroke-width="1" fill="none" fill-rule="evenodd" sketch:type="MSPage">
        <g id="Artboard-10" sketch:type="MSArtboardGroup" transform="translate(-37.000000, -41.000000)" fill="#AD0B00">
            <path d="M65.02678,172.745599 C62.9609225,171.755903 61.175812,170.801358 59.8103086,169.927172 C51.5577594,164.643946 47.4314848,156.425594 46.2525492,152.316418 C45.0736136,148.207243 47.4314848,151.729393 47.4314848,151.729393 C47.4314848,151.729393 50.9682916,155.838569 56.2735018,159.947745 C61.578712,164.056921 68.6523256,163.469895 68.6523256,163.469895 C68.6523256,163.469895 59.2208408,159.947745 49.1998882,149.381293 C39.1789356,138.814841 38,122.965163 38,117.094912 C38,111.224661 39.7684034,107.70251 40.3578712,110.050611 C40.9473389,112.398711 40.947339,114.159787 43.3052102,121.791113 C45.6630813,129.422439 51.5577594,134.705665 51.5577594,134.705665 C51.5577594,134.705665 43.894678,124.139213 42.7157424,110.050611 C41.5368068,95.9620084 48.6104204,83.0474561 50.3788238,78.9382803 C52.1472272,74.8291046 54.5050984,73.6550544 53.9156306,75.4161297 C53.3261628,77.177205 51.5577593,88.330682 51.5577594,98.3101088 C51.5577594,108.289536 56.2735018,118.268962 56.2735018,118.268962 C56.2735018,118.268962 55.0945662,114.159787 54.5050984,112.398711 C53.9156306,110.637636 50.9682916,97.1360586 54.5050984,82.460431 C58.0419052,67.7848033 72.7786002,57.8053766 77.4943425,54.870251 C82.2100849,51.9351255 79.2627459,55.4572762 79.2627459,55.4572762 C79.2627459,55.4572762 73.9575358,61.3275272 71.0101968,65.4367029 C68.0628578,69.5458787 66.8839222,81.2863808 66.8839222,81.2863808 C66.8839222,81.2863808 72.1891323,67.7848033 78.6732781,58.9794268 C85.157424,50.1740502 101.073054,49 104.020394,49 C106.967733,49 102.251991,50.7610753 98.1257155,52.5221506 C93.9994399,54.2832259 89.2836985,61.3275272 89.2836985,61.3275272 C89.2836985,61.3275272 93.9994409,58.3924017 102.841458,54.2832259 C111.683475,50.1740502 120.892215,51.4006698 123.839554,52.57472 C126.786893,53.7487702 124.695813,52.2417804 109.692327,61.9671217 C94.6888403,71.692463 78.6732799,98.3101073 81.0779555,113.295312 C83.482631,128.280516 95.1151921,138.148962 108.072645,138.148962 C121.030099,138.148962 121.704427,127.821568 122.293895,125.313264 C122.883363,122.804959 122.293895,122.965162 120.525492,122.965163 C118.757089,122.965165 114.041346,122.965164 112.272943,121.204088 C110.504539,119.443012 114.630814,118.855987 121.11496,115.920862 C127.599105,112.985737 129.367509,111.224661 133.493783,106.52846 C137.620058,101.832259 144.104204,101.83226 147.051543,102.419285 C149.998882,103.006309 149.998882,104.767385 151.767285,104.767385 C153.535689,104.767385 154.714624,104.18036 158.840899,104.767385 C162.967174,105.35441 167.682916,108.876561 169.451319,112.398711 C171.219723,115.920862 171.80919,114.746812 161.19877,114.159787 C151.642624,113.63109 146.389791,122.149519 144.148363,131.995743 C144.160031,132.082955 144.151061,132.178452 144.119608,132.282794 C143.687976,133.714677 142.968751,138.58439 145.667003,143.458717 C148.506219,147.507621 153.365597,150.489651 156.485545,152.107661 L156.485542,152.107659 C157.057336,152.328241 157.653857,152.539303 158.276122,152.739904 C174.773638,158.058245 185.090593,152.395865 191.759621,140.844772 C198.428649,129.293678 200.363707,108.195474 193.492899,91.7426531 C186.62209,75.2898321 182.367587,70.3498109 185.507082,70.8067231 C188.646578,71.2636353 197.194185,74.8429219 202.797008,82.822581 C208.399832,90.8022401 211.016222,95.7020045 211.016222,95.7020045 C211.016222,95.7020045 210.454421,87.24359 207.761499,83.6553162 C205.068577,80.0670424 201.865163,76.1840358 204.417633,77.6577053 C206.970104,79.1313748 220.166419,88.1059474 221.379165,98.9737001 C222.591912,109.841453 220.43557,124.186767 220.43557,124.186767 C220.43557,124.186767 225.284833,113.429726 224.786951,108.397406 C224.289068,103.365086 222.629747,95.6286943 222.629747,95.6286943 C222.629747,95.6286943 221.838352,91.1047528 224.454742,96.0045173 C227.071131,100.904282 234.84377,116.915066 230.568921,131.392936 C226.294072,145.870806 216.990813,156.089845 215.599781,157.320247 C214.208749,158.550649 211.133173,161.519832 211.133173,161.519832 C211.133173,161.519832 220.206839,155.235266 225.196553,146.592829 C230.186266,137.950392 234.231522,127.406996 234.601566,125.587126 C234.971609,123.767256 236.426561,125.962949 235.903455,130.405801 C235.380349,134.848654 235.049002,149.569791 226.983713,161.181411 C218.918423,172.793031 206.998774,178.112306 206.998774,178.112306 C206.998774,178.112306 214.745328,176.484237 220.602968,171.05425 C226.460607,165.624263 227.341145,164.099127 229.025689,162.360346 C230.710233,160.621566 230.48064,164.556039 227.545515,169.639826 C224.610389,174.723612 215.664562,187.860368 201.702937,192.000708 C187.741311,196.141047 177.812331,194.475577 177.812331,194.475577 C177.812331,194.475577 183.644747,198.520762 190.293782,197.614717 C196.942817,196.708671 202.060369,194.918424 202.060369,194.918424 C202.060369,194.918424 205.863421,193.047088 202.787845,196.01627 C199.712269,198.985453 191.807837,203.601707 182.019307,204.05084 C180.0023,204.143387 177.622336,204.022289 175.046972,203.744457 C168.255137,203.332871 166.53103,203.209665 146.718087,205.054106 C123.502657,207.215293 96.5079714,227.206272 90.0292468,234.770426 C83.5505222,242.334581 91.648928,213.158557 86.2499908,197.489951 C81.8726785,184.78627 69.5381099,175.721369 65.02678,172.745599 Z" id="-3" sketch:type="MSShapeGroup"></path>
        </g>
    </g>
</svg>