<svg xmlns="http://www.w3.org/2000/svg" xmlns:xlink="http://www.w3.org/1999/xlink" width="335" height="122" version="1.1" viewBox="0 0 335 122"><title>set-logo</title><desc>Created with Sketch.</desc><g id="Page-1" fill="none" fill-rule="evenodd" stroke="none" stroke-width="1"><g id="set-logo" transform="translate(63.000000, 1.000000)"><g id="Page-1"><g id="Artboard-1"><g id="set-logo"><g id="Page-1"><g id="set-logo"><g id="Rectangle-5-+-Rectangle-6-+-Rectangle-7-+-Rectangle-3-+-Rectangle-4-+-Rectangle-2" transform="translate(0.000000, 99.909502)"><path id="Rectangle-5" fill="#D8D8D8" d="M78.8306363,5.97285068 L78.8306363,13.5746606 L136.812312,13.5746606 L136.812312,5.97285068 L78.8306363,5.97285068 L78.8306363,5.97285068 Z"/><path id="Rectangle-6" fill="#D8D8D8" d="M0.160872055,5.97285068 L0.160872532,13.5746606 L70.6058982,13.5746606 L70.6058966,5.97285068 L0.160872055,5.97285068 L0.160872055,5.97285068 Z"/><g id="Rectangle-7-+-Rectangle-3-+-Rectangle-4-+-Rectangle-2" transform="translate(145.225131, 0.000000)"><path id="Rectangle-7" fill="#D8D8D8" d="M0,6.24434389 L0,13.5746606 L50.6662304,13.5746606 L50.6662304,6.24434389 L0,6.24434389 L0,6.24434389 Z"/><g id="Rectangle-3-+-Rectangle-4-+-Rectangle-2" transform="translate(41.725131, 0.000000)"><rect id="Rectangle-3" width="20.05" height="20.09" x="0" y="0" fill="#D8D8D8"/><rect id="Rectangle-4" width="14.631" height="14.661" x="2.709" y="2.715" fill="#FFF"/><rect id="Rectangle-2" width="10.296" height="10.317" x="4.877" y="4.887" fill="#C62C1F"/></g></g></g><path id="Set" fill="#343434" d="M61.1472354,72.0938791 C61.1472354,75.948505 60.3992566,79.3962027 58.9032768,82.4370744 C57.4072965,85.4779461 55.4198098,88.0476581 52.9407571,90.1462881 C50.4617044,92.2449182 47.5339016,93.8295736 44.1572608,94.9003032 C40.78062,95.9710328 37.2544341,96.5063897 33.5785973,96.5063897 C27.9366153,96.5063897 22.7862467,95.4999187 18.1273373,93.4869475 C13.4684279,91.4739757 9.6003088,88.7543636 6.52286403,85.3280297 L8.70270988,83.400726 C11.9511238,86.9127187 15.7337596,89.5466737 20.0507307,91.30267 C24.3677018,93.0586664 28.8342039,93.9366516 33.4503711,93.9366516 C36.7842696,93.9366516 39.9471515,93.4441233 42.9391117,92.4590525 C45.9310719,91.4739812 48.581054,90.0606396 50.8891376,88.2189844 C53.1972212,86.3773298 55.0137414,84.1074174 56.3387522,81.4091788 C57.663763,78.7109408 58.3262583,75.6058719 58.3262583,72.0938791 C58.3262583,68.5818863 57.5996504,65.6267169 56.1464129,63.2282829 C54.6931748,60.8298489 52.8125425,58.7740789 50.5044589,57.0609117 C48.1963753,55.347745 45.567764,53.9129887 42.6185461,52.7566009 C39.6693282,51.600213 36.6987837,50.5509138 33.7068235,49.6086719 C29.9455022,48.4094548 26.5047996,47.146013 23.3846125,45.8183084 C20.2644255,44.4906038 17.5717017,42.8631194 15.3063604,40.9358063 C13.0410191,39.0084932 11.2886116,36.6957521 10.0490852,33.9975138 C8.80955883,31.2992755 8.18980495,28.0228923 8.18980495,24.1682661 C8.18980495,20.3992983 8.93778379,17.0372581 10.4337639,14.0820446 C11.929744,11.1268312 13.9599722,8.64277607 16.5245095,6.62980458 C19.0890468,4.61683312 22.0595913,3.07500577 25.4362321,2.00427627 C28.8128729,0.933546766 32.3818004,0.398190045 36.1431218,0.398190045 C40.7592889,0.398190045 45.1403078,1.27617507 49.2863098,3.03217145 C53.4323118,4.78816783 56.8302726,7.2936373 59.4802947,10.548655 L57.3004487,12.4759584 C54.9068806,9.4779158 51.8508528,7.14376051 48.1322737,5.4734225 C44.4136947,3.80308448 40.374609,2.967928 36.0148956,2.967928 C32.9374508,2.967928 29.9241647,3.39621338 26.9749468,4.25279698 C24.0257289,5.10938058 21.3543759,6.41565095 18.9608078,8.17164733 C16.5672396,9.92764376 14.6438655,12.1333134 13.1906277,14.7887226 C11.7373899,17.4441318 11.0107819,20.570615 11.0107819,24.1682661 C11.0107819,27.6802589 11.6519066,30.6568423 12.9341753,33.0981055 C14.2164439,35.5393688 15.9261098,37.6165529 18.0632242,39.32972 C20.2003386,41.0428873 22.6152417,42.456229 25.3080059,43.5697877 C28.00077,44.6833463 30.7576063,45.7112313 33.5785973,46.6534732 C37.4254033,47.9383486 41.0157016,49.244619 44.3496001,50.5723236 C47.6834987,51.9000282 50.6113015,53.5060984 53.1330965,55.3905823 C55.6548914,57.2750661 57.6210072,59.5663928 59.031503,62.2646313 C60.4419983,64.9628699 61.1472354,68.2392527 61.1472354,72.0938791 L61.1472354,72.0938791 L61.1472354,72.0938791 Z M81.1505265,63.7422304 C81.1505265,67.339882 81.6847973,70.8946501 82.753354,74.4066429 C83.8219113,77.9186357 85.446094,81.0665332 87.6259509,83.85043 C89.8058077,86.6343269 92.5626435,88.882825 95.8965421,90.5959922 C99.2304408,92.3091595 103.162672,93.1657303 107.693355,93.1657303 C112.309522,93.1657303 116.41272,92.2449166 120.003072,90.4032619 C123.593424,88.5616072 126.713565,85.8848237 129.363587,82.372831 L131.415206,84.1716472 C128.50873,87.9406154 125.11077,90.8101271 121.221221,92.7802697 C117.331673,94.7504118 112.822429,95.7354684 107.693355,95.7354684 C103.333641,95.7354684 99.358668,94.9431405 95.7683159,93.3584606 C92.1779638,91.7737808 89.0791944,89.5681113 86.4719145,86.7413853 C83.8646351,83.9146594 81.8557776,80.5312051 80.4452823,76.5909204 C79.0347865,72.6506357 78.3295494,68.3677819 78.3295494,63.7422304 C78.3295494,59.287996 79.0561574,55.1764561 80.5093954,51.4074885 C81.962633,47.6385206 83.9501196,44.3835517 86.4719145,41.6424842 C88.9937099,38.9014167 91.9642541,36.7814041 95.3836373,35.2823828 C98.8030204,33.7833615 102.478802,33.033862 106.411092,33.033862 C111.02726,33.033862 115.044975,33.8476043 118.464358,35.4751131 C121.88374,37.102622 124.72606,39.2440488 126.991402,41.899458 C129.256743,44.5548672 130.945038,47.5742791 132.056337,50.9577843 C133.167637,54.3412895 133.723278,57.788987 133.723278,61.3009797 L133.723278,63.7422304 L81.1505265,63.7422304 L81.1505265,63.7422304 Z M131.030527,61.3009797 C130.945043,57.4463533 130.282548,53.9344133 129.043021,50.765054 C127.803495,47.5956946 126.1152,44.8760825 123.978085,42.606136 C121.840971,40.3361894 119.276472,38.5802194 116.284512,37.3381732 C113.292552,36.0961269 109.958703,35.4751131 106.282866,35.4751131 C101.837669,35.4751131 98.0336616,36.3959267 94.8707325,38.2375814 C91.7078028,40.0792362 89.1219334,42.3491486 87.113046,45.047387 C85.1041582,47.7456254 83.6295715,50.5723088 82.6892409,53.5275223 C81.7489109,56.4827359 81.2787527,59.0738623 81.2787527,61.3009797 L131.030527,61.3009797 L131.030527,61.3009797 Z M177.576647,94.0651385 C176.550832,94.4934304 175.354066,94.8360586 173.986312,95.0930335 C172.618559,95.3500089 171.293569,95.4784941 170.0113,95.4784941 C165.395132,95.4784941 162.082655,94.1722241 160.073768,91.5596438 C158.06488,88.9470641 157.060451,85.6706807 157.060451,81.7303966 L157.060451,37.2739297 L144.237829,37.2739297 L144.237829,34.8326787 L156.932225,34.8326787 L156.932225,17.4869474 L159.881428,17.4869474 L159.881428,34.8326787 L177.191968,34.8326787 L177.191968,37.2739297 L159.881428,37.2739297 L159.881428,81.7303966 C159.881428,85.756339 160.864486,88.6472655 162.830631,90.4032619 C164.796777,92.1592583 167.404017,93.0372434 170.652431,93.0372434 C173.045999,93.0372434 175.225823,92.6517866 177.191968,91.880861 L177.576647,94.0651385 L177.576647,94.0651385 Z"/></g></g></g></g></g></g></g></svg>