<?xml version="1.0" encoding="UTF-8" standalone="no"?>
<svg width="382px" height="221px" viewBox="0 0 382 221" version="1.1" xmlns="http://www.w3.org/2000/svg" xmlns:xlink="http://www.w3.org/1999/xlink" xmlns:sketch="http://www.bohemiancoding.com/sketch/ns">
    <!-- Generator: Sketch 3.1.1 (8761) - http://www.bohemiancoding.com/sketch -->
    <title>set-logo</title>
    <desc>Created with Sketch.</desc>
    <defs></defs>
    <g id="Page-1" stroke="none" stroke-width="1" fill="none" fill-rule="evenodd" sketch:type="MSPage">
        <g id="set-logo" sketch:type="MSLayerGroup" transform="translate(0.000000, 1.000000)">
            <g id="Rectangle-5-+-Rectangle-6-+-Rectangle-7-+-Rectangle-3-+-Rectangle-4-+-Rectangle-2" transform="translate(0.000000, 154.000000)" sketch:type="MSShapeGroup">
                <path d="M145.474894,40 L145.474894,54 L252.474894,54 L252.474894,40 L145.474894,40 Z" id="Rectangle-5" fill="#D8D8D8"></path>
                <path d="M0.296875,40 L0.29687588,54 L130.296875,54 L130.296872,40 L0.296875,40 Z" id="Rectangle-6" fill="#D8D8D8"></path>
                <g id="Rectangle-7-+-Rectangle-3-+-Rectangle-4-+-Rectangle-2" transform="translate(268.000000, 29.000000)">
                    <path d="M0,11.5 L0,25 L93.5,25 L93.5,11.5 L0,11.5 Z" id="Rectangle-7" fill="#D8D8D8"></path>
                    <g id="Rectangle-3-+-Rectangle-4-+-Rectangle-2" transform="translate(77.000000, 0.000000)">
                        <rect id="Rectangle-3" fill="#D8D8D8" x="0" y="0" width="37" height="37"></rect>
                        <rect id="Rectangle-4" fill="#FFFFFF" x="5" y="5" width="27" height="27"></rect>
                        <rect id="Rectangle-2" fill="#AD0B00" x="9" y="9" width="19" height="19"></rect>
                    </g>
                </g>
            </g>
            <path d="M112.841758,131.772894 C112.841758,138.87183 111.46143,145.22134 108.700733,150.821612 C105.940035,156.421884 102.272306,161.154437 97.6974359,165.019414 C93.1225656,168.884391 87.7195672,171.802798 81.4882784,173.774725 C75.2569896,175.746652 68.7497287,176.732601 61.9663004,176.732601 C51.5545267,176.732601 42.0499819,174.879017 33.452381,171.171795 C24.85478,167.464572 17.7165119,162.455953 12.0373626,156.145788 L16.0600733,152.596337 C22.0547308,159.064257 29.0352471,163.915124 37.0018315,167.149084 C44.9684159,170.383044 53.2109464,172 61.7296703,172 C67.882082,172 73.7188979,171.092927 79.240293,169.278755 C84.7616882,167.464582 89.6519934,164.861678 93.9113553,161.469963 C98.1707173,158.078249 101.522943,153.897827 103.968132,148.928571 C106.413321,143.959316 107.635897,138.240814 107.635897,131.772894 C107.635897,125.304974 106.295007,119.862537 103.613187,115.445421 C100.931366,111.028305 97.4608272,107.242262 93.2014652,104.087179 C88.9421032,100.932097 84.091236,98.2897542 78.6487179,96.1600733 C73.2061999,94.0303923 67.7243255,92.097933 62.2029304,90.3626374 C55.261748,88.1540793 48.9122388,85.8272406 43.1542125,83.3820513 C37.3961861,80.936862 32.427005,77.9395782 28.2465201,74.3901099 C24.0660353,70.8406416 20.8321238,66.5813435 18.5446886,61.6120879 C16.2572535,56.6428323 15.1135531,50.6088267 15.1135531,43.5098901 C15.1135531,36.5687077 16.4938812,30.3769503 19.2545788,24.9344322 C22.0152763,19.4919142 25.7618811,14.9171126 30.4945055,11.2098901 C35.2271299,7.50266767 40.7090043,4.66313562 46.940293,2.69120879 C53.1715818,0.71928196 59.7577187,-0.266666667 66.6989011,-0.266666667 C75.217625,-0.266666667 83.3024037,1.35028908 90.9534799,4.58424908 C98.604556,7.81820909 104.875189,12.4324487 109.765568,18.4271062 L105.742857,21.9765568 C101.325741,16.4551616 95.6861149,12.1564256 88.8238095,9.08021978 C81.9615042,6.00401392 74.5077325,4.46593407 66.4622711,4.46593407 C60.7831218,4.46593407 55.2223715,5.25469297 49.7798535,6.83223443 C44.3373354,8.4097759 39.4075923,10.8154905 34.9904762,14.0494505 C30.5733601,17.2834106 27.023945,21.3455189 24.3421245,26.2358974 C21.6603041,31.126276 20.3194139,36.884216 20.3194139,43.5098901 C20.3194139,49.9778101 21.5025523,55.4596845 23.8688645,59.9556777 C26.2351767,64.4516708 29.3902123,68.2771515 33.3340659,71.4322344 C37.2779196,74.5873174 41.7344074,77.1902217 46.703663,79.2410256 C51.6729186,81.2918295 56.7604135,83.1848509 61.9663004,84.9201465 C69.065237,87.2864587 75.6908117,89.6921734 81.8432234,92.1373626 C87.9956352,94.5825519 93.3986336,97.5403978 98.052381,101.010989 C102.706128,104.48158 106.334419,108.70144 108.937363,113.670696 C111.540306,118.639952 112.841758,124.673957 112.841758,131.772894 L112.841758,131.772894 Z M149.756044,116.391941 C149.756044,123.017616 150.741993,129.564314 152.713919,136.032234 C154.685846,142.500154 157.68313,148.297532 161.705861,153.424542 C165.728592,158.551552 170.816086,162.692536 176.968498,165.847619 C183.12091,169.002702 190.377492,170.58022 198.738462,170.58022 C207.257185,170.58022 214.829271,168.884388 221.454945,165.492674 C228.080619,162.10096 233.838559,157.171217 238.728938,150.703297 L242.515018,154.016117 C237.151377,160.9573 230.880744,166.241984 223.70293,169.87033 C216.525117,173.498675 208.20371,175.312821 198.738462,175.312821 C190.693,175.312821 183.357542,173.853617 176.731868,170.935165 C170.106194,168.016713 164.387692,163.954605 159.57619,158.748718 C154.764689,153.542831 151.057522,147.311636 148.454579,140.054945 C145.851635,132.798254 144.550183,124.910665 144.550183,116.391941 C144.550183,108.188726 145.891073,100.61664 148.572894,93.6754579 C151.254714,86.7342754 154.922443,80.7397078 159.57619,75.6915751 C164.229938,70.6434424 169.711812,66.7390858 176.021978,63.9783883 C182.332144,61.2176907 189.11547,59.8373626 196.372161,59.8373626 C204.890885,59.8373626 212.305219,61.3360045 218.615385,64.3333333 C224.92555,67.3306621 230.170797,71.2744566 234.351282,76.1648352 C238.531767,81.0552137 241.647365,86.615964 243.698168,92.8472527 C245.748972,99.0785415 246.774359,105.428051 246.774359,111.895971 L246.774359,116.391941 L149.756044,116.391941 Z M241.805128,111.895971 C241.647374,104.797034 240.424798,98.3292111 238.137363,92.4923077 C235.849928,86.6554043 232.73433,81.6467852 228.790476,77.4663004 C224.846623,73.2858155 220.114069,70.051904 214.592674,67.7644689 C209.071279,65.4770337 202.918959,64.3333333 196.135531,64.3333333 C187.932316,64.3333333 180.912361,66.029165 175.075458,69.4208791 C169.238554,72.8125933 164.466563,76.9930154 160.759341,81.9622711 C157.052118,86.9315267 154.3309,92.1373354 152.595604,97.5798535 C150.860309,103.022372 149.992674,107.794363 149.992674,111.895971 L241.805128,111.895971 Z M327.701832,172.23663 C325.808782,173.025401 323.600257,173.656408 321.07619,174.12967 C318.552124,174.602933 316.106972,174.83956 313.740659,174.83956 C305.221935,174.83956 299.109054,172.433846 295.401832,167.622344 C291.694609,162.810843 289.841026,156.776837 289.841026,149.520147 L289.841026,67.6461538 L266.178022,67.6461538 L266.178022,63.1501832 L289.604396,63.1501832 L289.604396,31.2051282 L295.046886,31.2051282 L295.046886,63.1501832 L326.991941,63.1501832 L326.991941,67.6461538 L295.046886,67.6461538 L295.046886,149.520147 C295.046886,156.934591 296.861032,162.258714 300.489377,165.492674 C304.117723,168.726634 308.929152,170.34359 314.92381,170.34359 C319.340926,170.34359 323.363596,169.633707 326.991941,168.213919 L327.701832,172.23663 Z" id="Set" fill="#343434" sketch:type="MSShapeGroup"></path>
        </g>
    </g>
</svg>