<?xml version="1.0" encoding="UTF-8" standalone="no"?>
<svg width="1287px" height="120px" viewBox="0 0 1287 120" version="1.1" xmlns="http://www.w3.org/2000/svg" xmlns:xlink="http://www.w3.org/1999/xlink">
    <!-- Generator: Sketch 3.8.3 (29802) - http://www.bohemiancoding.com/sketch -->
    <title>clouds-tile</title>
    <desc>Created with Sketch.</desc>
    <defs></defs>
    <g id="Icons-and-Clouds" stroke="none" stroke-width="1" fill="none" fill-rule="evenodd">
        <g id="Clouds-tile" fill="#007ACC">
            <g id="Clouds">
                <path d="M2.47649123e-14,120 C2.47649123e-14,120 -0.0887027649,46.6533775 2.47649123e-14,46.6533775 C1.84250471,47.3237305 2.61186154,47.8992358 2.87836961,48.0335856 C9.96335874,51.6052108 15.5100324,58.0817554 17.7973108,66.1194444 C20.8475068,65.0083333 24.0400268,64.4444444 27.3274293,64.4444444 C38.2035879,64.4444444 47.6465587,70.6697276 52.2488402,79.728527 C53.8969426,60.8150645 69.8586364,45.9259259 89.2410858,45.9259259 C93.615301,45.9259259 97.8632656,46.6777778 101.921854,48.1592593 C106.626549,31.5925926 121.694941,20 139.370038,20 C160.767045,20 178.191974,37.2781146 178.358027,58.5817261 C182.456609,53.6805796 188.629405,50.5555556 195.521256,50.5555556 C195.532419,50.0861111 195.521256,49.625 195.521256,49.1666667 C195.521256,33.0833333 208.665285,20 224.823231,20 C233.10853,20 240.631693,23.3824318 245.978143,28.9428063 C253.779556,12.4441555 270.618013,1 290.087376,1 C312.181248,1 331.016737,15.4907407 336.897606,36.1990741 C341.970842,34.3472222 347.280798,33.4074074 352.748567,33.4074074 C377.299033,33.4074074 397.458997,52.5174532 399.06158,76.6071091 C402.636656,72.5583136 407.87045,70 413.692377,70 C417.763802,70 421.558602,71.2302115 424.697543,73.3670598 C425.124555,57.6519369 438.099341,45 453.988666,45 C467.272228,45 478.596744,53.6944444 482.132516,66.1194444 C485.182712,65.0083333 488.375232,64.4444444 491.662634,64.4444444 C504.023647,64.4444444 514.533431,72.4855578 518.189664,83.5885611 C520.686356,75.7192947 528.076389,70 536.781235,70 C545.618784,70 553.15298,75.7962963 555.505327,84.0796296 C557.534621,83.3388889 559.658604,82.962963 561.845711,82.962963 C566.044249,82.962963 569.921768,84.360227 573.035405,86.7130313 C575.610105,74.0262191 586.897508,64.4444444 600.390832,64.4444444 C603.678234,64.4444444 606.870754,65.0083333 609.92095,66.1194444 C613.456722,53.6944444 624.781238,45 638.0648,45 C654.222746,45 667.366775,58.0833333 667.366775,74.1666667 C667.366775,74.625 667.355612,75.0861111 667.366775,75.5555556 C674.890228,75.5555556 681.556793,79.2796107 686.717728,84.9729341 C689.243424,83.6879887 692.101225,82.962963 695.1256,82.962963 C697.312707,82.962963 699.43669,83.3388889 701.465984,84.0796296 C703.818332,75.7962963 711.352527,70 720.190076,70 C726.074128,70 731.357428,72.6132037 734.934753,76.7372292 C739.889815,67.2410991 749.851139,60.7407407 761.3051,60.7407407 C761.319953,60.1148148 761.3051,59.5 761.3051,58.8888889 C761.3051,37.4444444 778.794535,20 800.294286,20 C817.969383,20 833.037775,31.5925926 837.74247,48.1592593 C841.801059,46.6777778 846.049023,45.9259259 850.423238,45.9259259 C869.970957,45.9259259 886.039335,61.0700586 887.454514,80.2132083 C891.962571,70.892521 901.54716,64.4444444 912.616228,64.4444444 C915.903631,64.4444444 919.096151,65.0083333 922.146347,66.1194444 C925.549041,54.1620902 936.165215,45.6597587 949.756537,45.0366845 C967.448865,45 980.592894,58.0833333 980.592894,74.1666667 C980.592894,74.625 980.581731,75.0861111 980.592894,75.5555556 C989.141302,75.5555556 996.583442,80.3634196 1000.33325,87.4050295 C1002.7085,73.4231967 1014.93882,62.7407407 1029.62209,62.7407407 C1029.63694,62.1148148 1029.62209,61.5 1029.62209,60.8888889 C1029.62209,39.4444444 1047.11152,22 1068.61127,22 C1086.28637,22 1101.35476,33.5925926 1106.05946,50.1592593 C1110.11805,48.6777778 1114.36601,47.9259259 1118.74022,47.9259259 C1139.21512,47.9259259 1155.87278,64.5407407 1155.87278,84.962963 C1155.87278,86.3680328 1155.76067,87.7955554 1155.55608,89.2308362 C1158.96045,85.3891514 1163.93553,82.962963 1169.46803,82.962963 C1171.65514,82.962963 1173.77912,83.3388889 1175.80841,84.0796296 C1178.16076,75.7962963 1185.69496,70 1194.53251,70 C1205.28238,70 1214.0271,78.7222222 1214.0271,89.4444444 C1214.0271,89.75 1214.01967,90.0574074 1214.0271,90.3703704 C1218.93267,90.3703704 1223.29066,92.7550782 1225.99693,96.4232117 C1226.70262,84.7986432 1236.42854,75.5555556 1248.28125,75.5555556 C1248.29241,75.0861111 1248.28125,74.625 1248.28125,74.1666667 C1248.28125,58.0833333 1261.42528,45 1277.58322,45 C1281.01295,45 1284.31208,45.5796051 1287,46.6533759 L1288.02338,48.3681953 L1288,120 L2.47649123e-14,120 Z" id="Combined-Shape"></path>
            </g>
        </g>
    </g>
</svg>