<?xml version="1.0" encoding="UTF-8" standalone="no"?>
<svg width="134px" height="40px" viewBox="0 0 134 40" version="1.1" xmlns="http://www.w3.org/2000/svg" xmlns:xlink="http://www.w3.org/1999/xlink">
    <!-- Generator: Sketch 3.8.3 (29802) - http://www.bohemiancoding.com/sketch -->
    <title>download-for-os-x</title>
    <desc>Created with Sketch.</desc>
    <defs></defs>
    <g id="Page-1" stroke="none" stroke-width="1" fill="none" fill-rule="evenodd">
        <g id="safari_copyrighted" transform="translate(-218.000000, -15.000000)">
            <path d="M219,20.0053221 L219,20.0053221 L219,49.9946779 C219,52.2095343 220.792722,54 223.008396,54 L346.991604,54 C349.205896,54 351,52.2068474 351,49.9946779 L351,20.0053221 C351,17.7904657 349.207278,16 346.991604,16 L223.008396,16 C220.794104,16 219,17.7931526 219,20.0053221 L219,20.0053221 Z M218,20.0053221 C218,17.240959 220.241727,15 223.008396,15 L346.991604,15 C349.757665,15 352,17.2362844 352,20.0053221 L352,49.9946779 C352,52.759041 349.758273,55 346.991604,55 L223.008396,55 C220.242335,55 218,52.7637156 218,49.9946779 L218,20.0053221 L218,20.0053221 Z" id="Rectangle-13" fill="#555555"></path>
            <g id="safari-icon" transform="translate(219.000000, 16.000000)">
                <path d="M5.68434189e-14,4.00532213 L5.68434189e-14,4.00532213 L5.68434189e-14,33.9946779 C5.68434189e-14,36.2095343 1.79272196,38 4.00839643,38 L127.991604,38 C130.205896,38 132,36.2068474 132,33.9946779 L132,4.00532213 C132,1.79046574 130.207278,0 127.991604,0 L4.00839643,0 C1.79410352,0 5.68434189e-14,1.79315262 5.68434189e-14,4.00532213 L5.68434189e-14,4.00532213 Z" id="Path" fill="#FFFFFF"></path>
                <path d="M21,29.75 L21,29.75 C26.9370611,29.75 31.75,24.9370611 31.75,19 C31.75,13.0629389 26.9370611,8.25 21,8.25 C15.0629389,8.25 10.25,13.0629389 10.25,19 C10.25,24.9370611 15.0629389,29.75 21,29.75 L21,29.75 Z M21,31 L21,31 C14.372583,31 9,25.627417 9,19 C9,12.372583 14.372583,7 21,7 C27.627417,7 33,12.372583 33,19 C33,25.627417 27.627417,31 21,31 L21,31 Z" id="Oval" fill="#555555"></path>
                <path d="M16.0380777,24.3970294 L16.0380777,24.3970294 L14.7960529,25.2592978 L14.7714218,25.2345668 L15.6387103,23.9960423 L21.7585337,19.7473909 L21.8296306,19.8184877 L21.7763941,20.413237 L21.6938008,20.4705769 L19.584505,18.3612812 L19.6408441,18.2808266 L20.2395959,18.2284531 L20.3090475,18.2979046 L16.0380777,24.3970294 Z M14.7144156,25.315974 L19.909013,17.8978701 L22.1588571,20.1477143 L14.7144156,25.315974 Z M19.909013,17.8978701 L27.3666234,12.5097922 L22.1588571,20.1477143 L19.909013,17.8978701 Z" id="Combined-Shape" fill="#555555"></path>
                <rect id="Rectangle-3" fill="#555555" x="20.5" y="9.5" width="1" height="3"></rect>
                <rect id="Rectangle-3" fill="#555555" transform="translate(24.683013, 12.049038) rotate(-330.000000) translate(-24.683013, -12.049038) " x="24.1830127" y="10.5490381" width="1" height="3"></rect>
                <rect id="Rectangle-3" fill="#555555" transform="translate(16.781089, 25.549038) rotate(-330.000000) translate(-16.781089, -25.549038) " x="16.2810889" y="24.0490381" width="1" height="3"></rect>
                <rect id="Rectangle-3" fill="#555555" transform="translate(25.183013, 25.549038) rotate(-30.000000) translate(-25.183013, -25.549038) " x="24.6830127" y="24.0490381" width="1" height="3"></rect>
                <rect id="Rectangle-3" fill="#555555" transform="translate(17.183013, 12.049038) rotate(-30.000000) translate(-17.183013, -12.049038) " x="16.6830127" y="10.5490381" width="1" height="3"></rect>
                <rect id="Rectangle-3" fill="#555555" x="20.5" y="25.5" width="1" height="3"></rect>
                <rect id="Rectangle-3" fill="#555555" transform="translate(29.000000, 19.000000) rotate(-270.000000) translate(-29.000000, -19.000000) " x="28.5" y="17.5" width="1" height="3"></rect>
                <rect id="Rectangle-3" fill="#555555" transform="translate(28.049038, 14.683013) rotate(-300.000000) translate(-28.049038, -14.683013) " x="27.5490381" y="13.1830127" width="1" height="3"></rect>
                <rect id="Rectangle-3" fill="#555555" transform="translate(13.549038, 22.183013) rotate(-300.000000) translate(-13.549038, -22.183013) " x="13.0490381" y="20.6830127" width="1" height="3"></rect>
                <rect id="Rectangle-3" fill="#555555" transform="translate(13.000000, 18.500000) rotate(-270.000000) translate(-13.000000, -18.500000) " x="12.5" y="17" width="1" height="3"></rect>
                <rect id="Rectangle-3" fill="#555555" transform="translate(14.049038, 14.683013) rotate(-240.000000) translate(-14.049038, -14.683013) " x="13.5490381" y="13.1830127" width="1" height="3"></rect>
                <rect id="Rectangle-3" fill="#555555" transform="translate(28.049038, 22.683013) rotate(-240.000000) translate(-28.049038, -22.683013) " x="27.5490381" y="21.1830127" width="1" height="3"></rect>
            </g>
            <path d="M261.79541,22.6586914 L261.79541,29 L264.084961,29 C265.974609,29 267.068848,27.8354492 267.068848,25.8095703 C267.068848,23.8144531 265.96582,22.6586914 264.084961,22.6586914 L261.79541,22.6586914 Z M262.779785,23.5551758 L263.975098,23.5551758 C265.289062,23.5551758 266.066895,24.3901367 266.066895,25.8227539 C266.066895,27.2773438 265.302246,28.1035156 263.975098,28.1035156 L262.779785,28.1035156 L262.779785,23.5551758 Z M270.487617,28.2529297 C269.66584,28.2529297 269.204414,27.6508789 269.204414,26.6049805 C269.204414,25.5678711 269.66584,24.9614258 270.487617,24.9614258 C271.305,24.9614258 271.77082,25.5678711 271.77082,26.6049805 C271.77082,27.6464844 271.305,28.2529297 270.487617,28.2529297 L270.487617,28.2529297 Z M270.487617,29.0922852 C271.885078,29.0922852 272.742012,28.15625 272.742012,26.6049805 C272.742012,25.0625 271.880684,24.1220703 270.487617,24.1220703 C269.090156,24.1220703 268.228828,25.0625 268.228828,26.6049805 C268.228828,28.15625 269.085762,29.0922852 270.487617,29.0922852 L270.487617,29.0922852 Z M280.102676,24.2143555 L279.157852,24.2143555 L278.305313,27.8662109 L278.230605,27.8662109 L277.24623,24.2143555 L276.340957,24.2143555 L275.356582,27.8662109 L275.28627,27.8662109 L274.429336,24.2143555 L273.471328,24.2143555 L274.789688,29 L275.760879,29 L276.745254,25.4755859 L276.819961,25.4755859 L277.80873,29 L278.788711,29 L280.102676,24.2143555 Z M281.258262,29 L282.203086,29 L282.203086,26.2006836 C282.203086,25.4536133 282.646934,24.987793 283.345664,24.987793 C284.044395,24.987793 284.378379,25.3701172 284.378379,26.1391602 L284.378379,29 L285.323203,29 L285.323203,25.9018555 C285.323203,24.7636719 284.734336,24.1220703 283.666465,24.1220703 C282.945762,24.1220703 282.471152,24.4428711 282.238242,24.9746094 L282.16793,24.9746094 L282.16793,24.2143555 L281.258262,24.2143555 L281.258262,29 Z M286.874297,29 L287.819121,29 L287.819121,22.3466797 L286.874297,22.3466797 L286.874297,29 Z M291.435645,28.2529297 C290.613867,28.2529297 290.152441,27.6508789 290.152441,26.6049805 C290.152441,25.5678711 290.613867,24.9614258 291.435645,24.9614258 C292.253027,24.9614258 292.718848,25.5678711 292.718848,26.6049805 C292.718848,27.6464844 292.253027,28.2529297 291.435645,28.2529297 L291.435645,28.2529297 Z M291.435645,29.0922852 C292.833106,29.0922852 293.690039,28.15625 293.690039,26.6049805 C293.690039,25.0625 292.828711,24.1220703 291.435645,24.1220703 C290.038184,24.1220703 289.176856,25.0625 289.176856,26.6049805 C289.176856,28.15625 290.033789,29.0922852 291.435645,29.0922852 L291.435645,29.0922852 Z M296.568281,28.2836914 C296.054121,28.2836914 295.680586,28.0332031 295.680586,27.6025391 C295.680586,27.1806641 295.979414,26.956543 296.638594,26.9125977 L297.807539,26.8378906 L297.807539,27.237793 C297.807539,27.8310547 297.280195,28.2836914 296.568281,28.2836914 L296.568281,28.2836914 Z M296.326582,29.0791016 C296.955,29.0791016 297.477949,28.8066406 297.763594,28.3276367 L297.838301,28.3276367 L297.838301,29 L298.747969,29 L298.747969,25.7304688 C298.747969,24.7197266 298.071211,24.1220703 296.871504,24.1220703 C295.786055,24.1220703 295.012617,24.6494141 294.915938,25.4711914 L295.83,25.4711914 C295.935469,25.1328125 296.300215,24.9394531 296.827559,24.9394531 C297.473555,24.9394531 297.807539,25.2250977 297.807539,25.7304688 L297.807539,26.1435547 L296.511152,26.2182617 C295.372969,26.2885742 294.731367,26.7851562 294.731367,27.6464844 C294.731367,28.5209961 295.403731,29.0791016 296.326582,29.0791016 L296.326582,29.0791016 Z M302.021719,29.0791016 C302.680898,29.0791016 303.239004,28.7670898 303.524648,28.2441406 L303.599356,28.2441406 L303.599356,29 L304.504629,29 L304.504629,22.3466797 L303.559805,22.3466797 L303.559805,24.9746094 L303.489492,24.9746094 C303.230215,24.4472656 302.676504,24.1352539 302.021719,24.1352539 C300.813223,24.1352539 300.035391,25.0932617 300.035391,26.6049805 C300.035391,28.1210938 300.804434,29.0791016 302.021719,29.0791016 L302.021719,29.0791016 Z M302.289785,24.9833984 C303.080801,24.9833984 303.577383,25.6118164 303.577383,26.609375 C303.577383,27.6113281 303.085195,28.230957 302.289785,28.230957 C301.489981,28.230957 301.010977,27.6201172 301.010977,26.6049805 C301.010977,25.5986328 301.494375,24.9833984 302.289785,24.9833984 L302.289785,24.9833984 Z M309.078984,29 L310.023809,29 L310.023809,25.0317383 L311.078496,25.0317383 L311.078496,24.2363281 L310.010625,24.2363281 L310.010625,23.8320312 C310.010625,23.3618164 310.24793,23.1552734 310.700566,23.1552734 C310.85877,23.1552734 311.025762,23.1728516 311.118047,23.1904297 L311.118047,22.4345703 C310.933477,22.4038086 310.792852,22.390625 310.608281,22.390625 C309.610723,22.390625 309.078984,22.7949219 309.078984,23.7705078 L309.078984,24.2363281 L308.292363,24.2363281 L308.292363,25.0317383 L309.078984,25.0317383 L309.078984,29 Z M314.163281,28.2529297 C313.341504,28.2529297 312.880078,27.6508789 312.880078,26.6049805 C312.880078,25.5678711 313.341504,24.9614258 314.163281,24.9614258 C314.980664,24.9614258 315.446484,25.5678711 315.446484,26.6049805 C315.446484,27.6464844 314.980664,28.2529297 314.163281,28.2529297 L314.163281,28.2529297 Z M314.163281,29.0922852 C315.560742,29.0922852 316.417676,28.15625 316.417676,26.6049805 C316.417676,25.0625 315.556348,24.1220703 314.163281,24.1220703 C312.76582,24.1220703 311.904492,25.0625 311.904492,26.6049805 C311.904492,28.15625 312.761426,29.0922852 314.163281,29.0922852 L314.163281,29.0922852 Z M317.731465,29 L318.676289,29 L318.676289,26.1743164 C318.676289,25.5019531 319.18166,25.0493164 319.897969,25.0493164 C320.064961,25.0493164 320.346211,25.0800781 320.425313,25.1064453 L320.425313,24.1748047 C320.324238,24.1484375 320.144063,24.1352539 320.003438,24.1352539 C319.379414,24.1352539 318.847676,24.4780273 318.711445,24.9482422 L318.641133,24.9482422 L318.641133,24.2143555 L317.731465,24.2143555 L317.731465,29 Z" id="Download-for" fill="#555555"></path>
            <path d="M263.834961,47 L263.834961,37.1972656 L263.9375,37.1972656 L267.669922,45.5439453 L269.279785,45.5439453 L272.991699,37.1972656 L273.104492,37.1972656 L273.104492,47 L275.021973,47 L275.021973,33.003418 L272.930176,33.003418 L268.520996,43.0214844 L268.438965,43.0214844 L264.029785,33.003418 L261.927734,33.003418 L261.927734,47 L263.834961,47 Z M280.85625,47.1743164 C282.455859,47.1743164 283.409473,46.4257812 283.911914,45.5952148 L284.004199,45.5952148 L284.004199,47 L285.983203,47 L285.983203,39.6582031 C285.983203,36.9614258 284.106738,36.0078125 281.830371,36.0078125 C279.277148,36.0078125 277.872363,37.2075195 277.728809,39.012207 L279.707812,39.012207 C279.902637,38.2944336 280.466602,37.7817383 281.768848,37.7817383 C283.081348,37.7817383 283.911914,38.3662109 283.911914,39.6274414 L283.911914,40.652832 L281.133105,40.652832 C278.641406,40.652832 277.318652,41.9448242 277.318652,43.8520508 C277.318652,45.8720703 278.764453,47.1743164 280.85625,47.1743164 L280.85625,47.1743164 Z M281.471484,45.4311523 C280.394824,45.4311523 279.410449,44.8876953 279.410449,43.7392578 C279.410449,42.8369141 280.005176,42.1601562 281.389453,42.1601562 L283.911914,42.1601562 L283.911914,43.3291016 C283.911914,44.5390625 282.845508,45.4311523 281.471484,45.4311523 L281.471484,45.4311523 Z M288.136328,42.3549805 C288.136328,45.3286133 289.889746,47.1845703 292.719824,47.1845703 C295.601172,47.1845703 296.964941,45.5849609 297.026465,43.7905273 L295.037207,43.7905273 C294.862891,44.6416016 294.288672,45.3286133 292.771094,45.3286133 C291.171484,45.3286133 290.207617,44.1801758 290.207617,42.3549805 L290.207617,40.8168945 C290.207617,39.012207 291.089453,37.8432617 292.771094,37.8432617 C294.360449,37.8432617 294.873145,38.8173828 294.975684,39.4941406 L296.954687,39.4941406 C296.913672,37.6791992 295.457617,35.9873047 292.730078,35.9873047 C289.9,35.9873047 288.136328,37.8637695 288.136328,40.765625 L288.136328,42.3549805 Z M311.883984,39.0327148 L311.883984,40.980957 C311.883984,43.9033203 310.335645,45.3286133 308.284863,45.3286133 C306.223828,45.3286133 304.685742,43.9033203 304.685742,40.980957 L304.685742,39.0327148 C304.685742,36.1103516 306.223828,34.6748047 308.284863,34.6748047 C310.335645,34.6748047 311.883984,36.1103516 311.883984,39.0327148 L311.883984,39.0327148 Z M314.016797,40.9707031 L314.016797,39.0429688 C314.016797,35.074707 311.791699,32.7265625 308.284863,32.7265625 C304.767773,32.7265625 302.55293,35.0644531 302.55293,39.0429688 L302.55293,40.9707031 C302.55293,44.9287109 304.767773,47.2871094 308.284863,47.2871094 C311.791699,47.2871094 314.016797,44.9287109 314.016797,40.9707031 L314.016797,40.9707031 Z M315.431641,43.1240234 C315.503418,45.4824219 317.390137,47.2871094 320.599609,47.2871094 C323.911621,47.2871094 325.921387,45.5644531 325.921387,42.9907227 C325.921387,40.8271484 324.649902,39.6992188 322.250488,39.1147461 L319.902344,38.5405273 C318.641113,38.2431641 317.954102,37.6176758 317.954102,36.6948242 C317.954102,35.4438477 319.061523,34.5722656 320.763672,34.5722656 C322.496582,34.5722656 323.583496,35.4541016 323.706543,36.7666016 L325.757324,36.7666016 C325.716309,34.4594727 323.788574,32.6958008 320.794434,32.6958008 C317.892578,32.6958008 315.821289,34.3671875 315.821289,36.828125 C315.821289,38.8071289 317.072266,40.0683594 319.18457,40.5913086 L321.553223,41.1655273 C323.091309,41.5449219 323.798828,42.1293945 323.798828,43.1958008 C323.798828,44.5185547 322.670898,45.3901367 320.78418,45.3901367 C318.897461,45.3901367 317.646484,44.4672852 317.513184,43.1240234 L315.431641,43.1240234 Z M342.234961,33.003418 L339.825293,33.003418 L336.533789,38.2944336 L336.43125,38.2944336 L333.108984,33.003418 L330.586523,33.003418 L335.026465,39.9453125 L330.535254,47 L332.883398,47 L336.226172,41.75 L336.328711,41.75 L339.66123,47 L342.15293,47 L337.651465,40.0478516 L342.234961,33.003418 Z" id="Mac-OS-X" fill="#555555"></path>
        </g>
    </g>
</svg>