<?xml version="1.0" encoding="UTF-8" standalone="no"?>
<svg width="70px" height="90px" viewBox="0 0 70 90" version="1.1" xmlns="http://www.w3.org/2000/svg" xmlns:xlink="http://www.w3.org/1999/xlink">
    <!-- Generator: Sketch 3.7.2 (28276) - http://www.bohemiancoding.com/sketch -->
    <title>faster</title>
    <desc>Created with Sketch.</desc>
    <defs></defs>
    <g id="Icons-and-Clouds" stroke="none" stroke-width="1" fill="none" fill-rule="evenodd">
        <g id="safer-lighter-faster" transform="translate(-178.000000, 0.000000)" fill="#787878">
            <g id="faster" transform="translate(183.000000, 14.000000)">
                <path d="M30,66 C46.5685425,66 60,52.5685425 60,36 C60,19.4314575 46.5685425,6 30,6 C13.4314575,6 0,19.4314575 0,36 C0,52.5685425 13.4314575,66 30,66 L30,66 Z M30,64 C14.536027,64 2,51.463973 2,36 C2,20.536027 14.536027,8 30,8 C45.463973,8 58,20.536027 58,36 C58,51.463973 45.463973,64 30,64 L30,64 Z" id="Oval"></path>
                <ellipse id="Oval" cx="30" cy="36" rx="3" ry="3"></ellipse>
                <path d="M34.6124401,39.1029885 L16.0593449,20.5498932 C15.6688206,20.1593689 15.0356556,20.1593689 14.6451313,20.5498932 C14.254607,20.9404175 14.254607,21.5735825 14.6451313,21.9641068 L33.1982266,40.517202 C33.5887508,40.9077263 34.2219158,40.9077263 34.6124401,40.517202 C35.0029644,40.1266777 35.0029644,39.4935127 34.6124401,39.1029885 L34.6124401,39.1029885 Z" id="Shape"></path>
                <polygon id="Rectangle-path" points="29 1 31 1 31 7 29 7"></polygon>
                <polygon id="Rectangle-path" points="24 0 36 0 36 2 24 2"></polygon>
                <rect id="Rectangle-path" transform="translate(52.742641, 12.242641) rotate(-45.000000) translate(-52.742641, -12.242641) " x="51.7212798" y="7.77468203" width="2" height="9"></rect>
            </g>
        </g>
    </g>
</svg>