<?xml version="1.0" encoding="UTF-8" standalone="no"?>
<svg width="14px" height="14px" viewBox="0 0 14 14" version="1.1" xmlns="http://www.w3.org/2000/svg" xmlns:xlink="http://www.w3.org/1999/xlink">
    <!-- Generator: Sketch 3.8.3 (29802) - http://www.bohemiancoding.com/sketch -->
    <title>left-quote</title>
    <desc>Created with Sketch.</desc>
    <defs></defs>
    <g id="Icons-and-Clouds" stroke="none" stroke-width="1" fill="none" fill-rule="evenodd" opacity="0.899999976">
        <g id="quotes" fill="#333333">
            <path d="M14,1.92695308 C13.3939364,2.24336091 12.9299259,2.63886477 12.6079545,3.11347651 C12.2859832,3.58808826 12.0429301,4.08613016 11.8787879,4.60761714 C11.7146456,5.12910412 11.6325758,5.7121061 11.6325758,6.47500002 L14,6.47500002 L14,10.9972656 L9,10.9972656 L9,8.11445308 C9,6.38006941 9.17676591,5.05879356 9.53030303,4.15058589 C9.88384015,3.24237822 10.426764,2.40742564 11.1590909,1.64570308 C11.8914178,0.883980519 12.838378,0.268752296 14,-0.200000048 L14,1.92695308 Z M7,1.92695308 C6.39393636,2.24336091 5.92992585,2.63886477 5.60795455,3.11347651 C5.28598324,3.58808826 5.04293011,4.08613016 4.87878788,4.60761714 C4.71464564,5.12910412 4.63257576,5.7121061 4.63257576,6.47500002 L7,6.47500002 L7,10.9972656 L2,10.9972656 L2,8.11445308 C2,6.38006941 2.17676591,5.05879356 2.53030303,4.15058589 C2.88384015,3.24237822 3.42992055,2.40742564 4.16856061,1.64570308 C4.90720066,0.883980519 5.85100436,0.268752296 7,-0.200000048 L7,1.92695308 Z" id="left-quote"></path>
        </g>
    </g>
</svg>