<svg xmlns="http://www.w3.org/2000/svg" xmlns:xlink="http://www.w3.org/1999/xlink" width="70" height="90" version="1.1" viewBox="0 0 70 90"><title>lighter</title><desc>Created with Sketch.</desc><g id="Page-1" fill="none" fill-rule="evenodd" stroke="none" stroke-width="1"><g id="safer-lighter-faster" fill="#787878" transform="translate(-88.000000, 0.000000)"><g id="lighter" transform="translate(126.349033, 45.877766) rotate(-15.000000) translate(-126.349033, -45.877766) translate(88.849033, 10.877766)"><path id="outline" d="M71.6448239,0.00251601361 C37.8899823,0.900015059 18.0892203,11.9399392 9.39228318,29.82719 C4.88924051,39.0887327 3.93937006,48.8416481 4.99860293,57.4533005 C5.07802114,58.0989773 5.16333614,58.6724146 5.24898461,59.1676594 C5.3011906,59.4695299 5.3425999,59.6811936 5.36766184,59.7966891 C5.48999297,60.3604403 6.06264297,60.7040492 6.61764569,60.5467208 C6.76151992,60.5059363 7.03202666,60.42525 7.42074451,60.3031651 C8.0633815,60.1013315 8.80734514,59.8551151 9.644216,59.5630141 C12.0296617,58.7303994 14.6853843,57.696293 17.5440473,56.4485975 C25.7088231,52.8849896 33.8732841,48.3222675 41.4981747,42.6612651 C56.2364925,31.7189898 67.1502068,18.0311969 72.6217962,1.3132146 C72.8368798,0.656044806 72.3360513,-0.0158628586 71.6448239,0.00251601361 Z M40.3059613,41.0554547 C32.8120991,46.6191767 24.7778962,51.1091038 16.7440082,54.6155843 C13.9331389,55.8424196 11.3242957,56.8582718 8.98513117,57.6747326 C8.16838842,57.9598081 7.7584536,58.0909814 7.13556998,58.2866109 C7.05537688,57.8229106 7.05901073,57.8218828 6.98364347,57.2091406 C5.9674803,48.9476485 6.88122515,39.5656572 11.1909499,30.7017174 C19.416347,13.7842969 38.0917746,3.19225163 70.2630688,2.04640464 C64.2195951,18.4142802 53.8627574,30.990385 40.3059613,41.0554547 Z"/><path id="outline" d="M2.01639449,68.69051 C11.5854774,52.6417065 19.2213606,41.519691 28.2742499,31.3852688 C39.7443745,18.5448286 52.3274668,8.98671883 66.9070479,2.77861591 C67.4151847,2.56224717 67.6517094,1.97491937 67.4353407,1.46678257 C67.2189719,0.958645764 66.6316442,0.722121015 66.1235074,0.938489755 C51.2543062,7.26991527 38.4378904,17.0052574 26.7826889,30.0528854 C17.6270365,40.3023476 9.92755121,51.5170024 0.298572438,67.6662603 C0.015733702,68.1406238 0.170995169,68.7544575 0.645358632,69.0372962 C1.11972209,69.3201349 1.73355576,69.1648735 2.01639449,68.69051 L2.01639449,68.69051 Z"/><path id="outline" d="M55.2580437,27.2623651 C50.5850589,28.4820323 45.5589949,28.3780687 40.7974614,27.4648206 C40.0143692,27.3146258 39.3083295,27.1539859 38.6919067,26.9938505 C38.327018,26.899059 38.0764776,26.8266389 37.9527878,26.7875849 C37.4261313,26.621298 36.8643896,26.9134353 36.6981027,27.4400918 C36.5318157,27.9667484 36.823953,28.52849 37.3506096,28.694777 C37.5063179,28.7439404 37.7898626,28.8259007 38.1890347,28.9295983 C38.8460467,29.100278 39.5939954,29.2704532 40.4207339,29.4290192 C45.4498897,30.3935966 50.7597769,30.503431 55.7631309,29.1975361 C56.2975136,29.0580602 56.6176488,28.5117897 56.4781728,27.977407 C56.3386968,27.4430243 55.7924264,27.1228891 55.2580437,27.2623651 L55.2580437,27.2623651 Z"/></g></g></g></svg>