<?xml version="1.0" encoding="UTF-8" standalone="no"?>
<svg width="25px" height="24px" viewBox="0 0 25 24" version="1.1" xmlns="http://www.w3.org/2000/svg" xmlns:xlink="http://www.w3.org/1999/xlink">
    <!-- Generator: Sketch 3.8.1 (29687) - http://www.bohemiancoding.com/sketch -->
    <title>love</title>
    <desc>Created with Sketch.</desc>
    <defs></defs>
    <g id="Icons-and-Clouds" stroke="none" stroke-width="1" fill="none" fill-rule="evenodd">
        <g id="love" transform="translate(-18.000000, -18.000000)" fill="#303030">
            <path d="M30.5,21.5784344 L32.4292775,19.988501 C33.4511616,19.3368661 34.6516909,19 35.898125,19 C39.81375,19 43,22.2984673 43,26.3534578 C43,32.9536505 37.181875,37.0926991 33.331875,39.8314304 C32.360625,40.5208375 30.5,41.5 30.5,41.5 C30.5,41.5 28.6375,40.5208375 27.668125,39.8314304 C23.818125,37.0926991 18,32.9536505 18,26.3534578 C18,22.2984673 21.18625,19 25.101875,19 C26.349604,19 27.5496689,19.3367612 28.5998748,19.9532936 C28.5901332,19.965003 30.5,21.5784344 30.5,21.5784344 Z M30.5,38.5 C30.5,38.5 31.3465027,38.1749019 31.8827305,37.7942804 C37.9967144,33.4450443 40.5,30.5973286 40.5,26.3534578 C40.5,23.6603396 38.4134435,21.5 35.898125,21.5 C34.5670211,21.5 33.3062548,22.1042147 32.4292775,23.1683679 L30.5,25.5094166 L28.5707225,23.1683679 C27.6930701,22.1033956 26.4344407,21.5 25.101875,21.5 C22.5865565,21.5 20.5,23.6603396 20.5,26.3534578 C20.5,30.5973286 23.0032856,33.4450443 29.1170373,37.7941153 C29.4879579,38.0579092 30.5,38.5 30.5,38.5 Z"></path>
        </g>
    </g>
</svg>