<?xml version="1.0" encoding="UTF-8" standalone="no"?>
<svg width="25px" height="24px" viewBox="0 0 25 24" version="1.1" xmlns="http://www.w3.org/2000/svg" xmlns:xlink="http://www.w3.org/1999/xlink">
    <!-- Generator: Sketch 3.8.1 (29687) - http://www.bohemiancoding.com/sketch -->
    <title>love</title>
    <desc>Created with Sketch.</desc>
    <defs></defs>
    <g id="Icons-and-Clouds" stroke="none" stroke-width="1" fill="none" fill-rule="evenodd">
        <g id="alternate-weight-of-love-for-Ind.ie-site" transform="translate(-18.000000, -18.000000)" fill="#303030">
            <path d="M30.5,21.5784344 L32.4292775,19.988501 C33.4511616,19.3368661 34.6516909,19 35.898125,19 C39.81375,19 43,22.2984673 43,26.3534578 C43,32.9536505 37.181875,37.0926991 33.331875,39.8314304 C32.360625,40.5208375 30.5,41.5 30.5,41.5 C30.5,41.5 28.6375,40.5208375 27.668125,39.8314304 C23.818125,37.0926991 18,32.9536505 18,26.3534578 C18,22.2984673 21.18625,19 25.101875,19 C26.349604,19 27.5496689,19.3367612 28.5998748,19.9532936 C28.5901332,19.965003 30.5,21.5784344 30.5,21.5784344 Z M30.5,38 C30.5,38 31.3041776,37.6940253 31.8135939,37.3357934 C37.6218786,33.2423946 40,30.5621916 40,26.5679603 C40,24.0332608 38.0177713,22 35.6282188,22 C34.3636701,22 33.1659421,22.5686727 32.3328136,23.5702286 L30.5,25.7735686 L28.6671864,23.5702286 C27.8334166,22.5679017 26.6377187,22 25.3717812,22 C22.9822287,22 21,24.0332608 21,26.5679603 C21,30.5621916 23.3781214,33.2423946 29.1861855,37.3356379 C29.53856,37.5839146 30.5,38 30.5,38 Z" id="love"></path>
        </g>
    </g>
</svg>