<svg xmlns="http://www.w3.org/2000/svg" xmlns:xlink="http://www.w3.org/1999/xlink" width="25" height="31" version="1.1" viewBox="0 0 25 31"><title>resources-small-top-aligned</title><desc>Created with Sketch.</desc><g id="Icons-and-Clouds" fill="none" fill-rule="evenodd" stroke="none" stroke-width="1"><g id="table" fill="#787878" transform="translate(-28.000000, -93.000000)"><g id="note" transform="translate(32.000000, 103.000000)"><path id="Shape" d="M16,20 L16,20 L16,6 L11.2,1 L1,1 L1,20 L16,20 Z M1,21 C0.44771525,21 0,20.5522847 0,20 L0,1 C0,0.44771525 0.44771525,0 1,0 L11.2,0 C11.4722946,0 11.7328146,0.111038278 11.9213873,0.307468172 L16.7213873,5.30746817 C16.9001663,5.49369626 17,5.7418473 17,6 L17,20 C17,20.5522847 16.5522847,21 16,21 L1,21 Z"/><path id="Combined-Shape" d="M11,1 L12,1 L12,6 L11,6 L11,1 Z M12,5 L16,5 L16,6 L12,6 L12,5 Z"/></g></g></g></svg>