<?xml version="1.0" encoding="UTF-8" standalone="no"?>
<svg width="25px" height="28px" viewBox="0 0 25 28" version="1.1" xmlns="http://www.w3.org/2000/svg" xmlns:xlink="http://www.w3.org/1999/xlink">
    <!-- Generator: Sketch 3.7.2 (28276) - http://www.bohemiancoding.com/sketch -->
    <title>resources-small</title>
    <desc>Created with Sketch.</desc>
    <defs></defs>
    <g id="Icons-and-Clouds" stroke="none" stroke-width="1" fill="none" fill-rule="evenodd">
        <g id="table" transform="translate(0.000000, -93.000000)" fill="#787878">
            <g id="note" transform="translate(4.000000, 99.000000)">
                <path d="M16,20 L16,20 L16,6 L11.2,1 L1,1 L1,20 L16,20 Z M1,21 C0.44771525,21 0,20.5522847 0,20 L0,1 C0,0.44771525 0.44771525,0 1,0 L11.2,0 C11.4722946,0 11.7328146,0.111038278 11.9213873,0.307468172 L16.7213873,5.30746817 C16.9001663,5.49369626 17,5.7418473 17,6 L17,20 C17,20.5522847 16.5522847,21 16,21 L1,21 Z" id="Shape"></path>
                <path d="M11,1 L12,1 L12,6 L11,6 L11,1 Z M12,5 L16,5 L16,6 L12,6 L12,5 Z" id="Combined-Shape"></path>
            </g>
        </g>
    </g>
</svg>