<svg xmlns="http://www.w3.org/2000/svg" xmlns:xlink="http://www.w3.org/1999/xlink" width="14" height="14" version="1.1" viewBox="0 0 14 14"><title>right-quote</title><desc>Created with Sketch.</desc><g id="Icons-and-Clouds" fill="none" fill-rule="evenodd" stroke="none" stroke-width="1" opacity=".9"><g id="quotes" fill="#333" transform="translate(-14.000000, 0.000000)"><path id="right-quote" d="M16,12.1972656 L16,10.0703125 C16.6060636,9.74218586 17.0700741,9.34375234 17.3920455,8.875 C17.7140168,8.40624766 17.9570699,7.91113542 18.1212121,7.38964844 C18.2853544,6.86816146 18.3674242,6.28515947 18.3674242,5.5 L16,5.5 L16,1 L21,1 L21,3.8828125 C21,5.61719617 20.8200776,6.93847202 20.4602273,7.84667969 C20.100377,8.75488735 19.5542966,9.58983994 18.8219697,10.3515625 C18.0896428,11.1132851 17.1489956,11.7285133 16,12.1972656 L16,12.1972656 Z M23,10.0703125 C23.5934373,9.74218586 24.0542913,9.34375234 24.3825758,8.875 C24.7108602,8.40624766 24.9570699,7.91113542 25.1212121,7.38964844 C25.2853544,6.86816146 25.3674242,6.28515947 25.3674242,5.5 L23,5.5 L23,1 L28,1 L28,3.8828125 C28,5.61719617 27.8200776,6.93847202 27.4602273,7.84667969 C27.100377,8.75488735 26.5542966,9.58983994 25.8219697,10.3515625 C25.0896428,11.1132851 24.1489956,11.7285133 23,12.1972656 L23,10.0703125 Z"/></g></g></svg>