<?xml version="1.0" encoding="UTF-8" standalone="no"?>
<svg width="70px" height="90px" viewBox="0 0 70 90" version="1.1" xmlns="http://www.w3.org/2000/svg" xmlns:xlink="http://www.w3.org/1999/xlink">
    <!-- Generator: Sketch 3.6.1 (26313) - http://www.bohemiancoding.com/sketch -->
    <title>safer</title>
    <desc>Created with Sketch.</desc>
    <defs></defs>
    <g id="Page-1" stroke="none" stroke-width="1" fill="none" fill-rule="evenodd">
        <g id="safer-lighter-faster" fill="#787878">
            <g id="safer" transform="translate(5.000000, 11.000000)">
                <path d="M30.9514924,68.46515 C31.019685,68.4306444 31.1419113,68.3660761 31.3145746,68.2707626 C31.5960269,68.1153954 31.9206925,67.9279304 32.284973,67.707682 C33.3185853,67.0827475 34.4672647,66.3185361 35.702183,65.4095212 C39.2211068,62.8192657 42.7368221,59.5842224 46.0172416,55.6599337 C55.3816844,44.457471 61,29.9800458 61,11.9196042 C61,11.4494525 60.672491,11.0427926 60.213143,10.9425831 C55.3073853,9.87236292 51.0588729,8.53755844 47.132427,6.92369208 C45.3492414,6.19075872 43.6786082,5.42117397 41.9018426,4.53309406 C41.2260363,4.19530615 40.5708703,3.85905822 39.7268521,3.41930834 C39.4961844,3.299126 38.7059835,2.88630047 38.7261038,2.89680272 C38.3367537,2.693573 38.0495914,2.54439859 37.7739947,2.40252508 C34.6574615,0.798175271 32.9309003,0.139538054 31.0354716,0.0173488707 C30.856392,0.00580447029 30.6779987,0 30.5,0 C30.3220013,0 30.143608,0.00580447029 29.9645284,0.0173488707 C28.0690997,0.139538054 26.3425385,0.798175271 23.2260053,2.40252508 C22.9504086,2.54439859 22.6632463,2.693573 22.2738962,2.89680272 C22.2940165,2.88630047 21.5038156,3.299126 21.2731479,3.41930834 C20.4291297,3.85905822 19.7739637,4.19530615 19.0981574,4.53309406 C17.3213918,5.42117397 15.6507586,6.19075872 13.867573,6.92369208 C9.94112714,8.53755844 5.69261467,9.87236292 0.786857049,10.9425831 C0.327509019,11.0427926 0,11.4494525 0,11.9196042 C0,30.5910205 5.61913085,45.203485 14.9891102,56.1908941 C18.2737437,60.0425155 21.7945462,63.1656257 25.3190018,65.6209828 C26.5562777,66.4829468 27.7073487,67.2005692 28.74337,67.781441 C29.3724575,68.1341549 29.8286219,68.3651021 30.0830811,68.4818187 C30.3599795,68.6088278 30.6796719,68.6026915 30.9514924,68.46515 Z M29.7214737,66.0369315 C28.7408934,65.4871442 27.6448942,64.8038557 26.4622482,63.9799502 C23.0726413,61.6185372 19.6793813,58.608563 16.5108898,54.8931319 C7.7720798,44.6458435 1.99685015,30.5654297 1.99685015,12.7416773 C6.69034388,11.6568908 10.8058751,10.3444774 14.6279021,8.77352983 C16.4598427,8.02055694 18.1742071,7.23082723 19.9923406,6.32207042 C20.679801,5.97845742 21.3441639,5.63748944 22.1972764,5.19300126 C22.4291095,5.0722117 23.2203499,4.65884314 23.1993522,4.66980332 C23.5856415,4.46817125 23.8698024,4.32055601 24.1414057,4.18073823 C27.0231384,2.69726063 28.5566728,2.11225801 30.0931918,2.01320602 C30.2296617,2.00440846 30.3651501,2 30.5,2 C30.6348499,2 30.7703383,2.00440846 30.9068082,2.01320602 C32.4433272,2.11225801 33.9768616,2.69726063 36.8585943,4.18073823 C37.1301976,4.32055601 37.4143585,4.46817125 37.8006478,4.66980332 C37.7796501,4.65884314 38.5708905,5.0722117 38.8027236,5.19300126 C39.6558361,5.63748944 40.320199,5.97845742 41.0076594,6.32207042 C42.8257929,7.23082723 44.5401573,8.02055694 46.3720979,8.77352983 C49.8032569,10.183821 54.8859602,11.7398223 58.9960104,12.7416773 C58.8288069,29.9326838 53.4139036,43.6930984 44.4827584,54.3772174 C41.3100529,58.1726503 37.9117057,61.2996954 34.516567,63.7988336 C33.3315635,64.6711065 32.2331725,65.4018613 31.2501832,65.9961885 C30.9086532,66.2026817 30.7587094,66.3029274 30.5000006,66.4457397 C30.2423702,66.3153065 30.0619211,66.227812 29.7214737,66.0369315 Z" id="outlined"></path>
            </g>
        </g>
    </g>
</svg>