<svg xmlns="http://www.w3.org/2000/svg" xmlns:xlink="http://www.w3.org/1999/xlink" width="25" height="21" version="1.1" viewBox="0 0 25 21"><title>speed-small</title><desc>Created with Sketch.</desc><g id="Icons-and-Clouds" fill="none" fill-rule="evenodd" stroke="none" stroke-width="1"><g id="table" fill="#787878"><g id="speed" transform="translate(2.000000, 0.000000)"><path id="Shape" d="M10.5,20 L10.5,20 C15.7467051,20 20,15.7467051 20,10.5 C20,5.25329488 15.7467051,1 10.5,1 C5.25329488,1 1,5.25329488 1,10.5 C1,15.7467051 5.25329488,20 10.5,20 L10.5,20 Z M10.5,21 L10.5,21 C4.70101013,21 0,16.2989899 0,10.5 C0,4.70101013 4.70101013,0 10.5,0 C16.2989899,0 21,4.70101013 21,10.5 C21,16.2989899 16.2989899,21 10.5,21 L10.5,21 Z"/><circle id="Oval" cx="10.5" cy="10.5" r="1.26"/><path id="Shape" d="M13.2684257,14.7224145 L10.8691757,10.299727 L10.8078284,10.7857301 L16.4647034,4.69135512 C16.6225077,4.52134622 16.612614,4.25560104 16.4426051,4.09779665 C16.2725962,3.93999225 16.006851,3.94988597 15.8490466,4.11989488 L10.1921716,10.2142699 C10.0695846,10.3463377 10.044901,10.5418853 10.1308243,10.700273 L12.5300743,15.1229605 C12.640682,15.3268506 12.8956329,15.402471 13.099523,15.2918632 C13.3034131,15.1812555 13.3790335,14.9263046 13.2684257,14.7224145 L13.2684257,14.7224145 Z"/></g></g></g></svg>