<?xml version="1.0" encoding="UTF-8" standalone="no"?>
<svg width="125px" height="21px" viewBox="0 0 125 21" version="1.1" xmlns="http://www.w3.org/2000/svg" xmlns:xlink="http://www.w3.org/1999/xlink">
    <!-- Generator: Sketch 3.8.3 (29802) - http://www.bohemiancoding.com/sketch -->
    <title>stars</title>
    <desc>Created with Sketch.</desc>
    <defs></defs>
    <g id="Icons-and-Clouds" stroke="none" stroke-width="1" fill="none" fill-rule="evenodd">
        <g id="stars" fill="#333333">
            <polygon id="star" points="10.5 0 13.355125 7.12026287 21 7.63986857 15.12 12.5590361 16.989 20 10.5 15.9202629 4.011 20 5.88 12.5590361 0 7.63986857 7.644875 7.12026287"></polygon>
            <polygon id="star" points="36.5 0 39.355125 7.12026287 47 7.63986857 41.12 12.5590361 42.989 20 36.5 15.9202629 30.011 20 31.88 12.5590361 26 7.63986857 33.644875 7.12026287"></polygon>
            <polygon id="star" points="62.5 0 65.355125 7.12026287 73 7.63986857 67.12 12.5590361 68.989 20 62.5 15.9202629 56.011 20 57.88 12.5590361 52 7.63986857 59.644875 7.12026287"></polygon>
            <polygon id="star" points="88.5 0 91.355125 7.12026287 99 7.63986857 93.12 12.5590361 94.989 20 88.5 15.9202629 82.011 20 83.88 12.5590361 78 7.63986857 85.644875 7.12026287"></polygon>
            <polygon id="star" points="114.5 0 117.355125 7.12026287 125 7.63986857 119.12 12.5590361 120.989 20 114.5 15.9202629 108.011 20 109.88 12.5590361 104 7.63986857 111.644875 7.12026287"></polygon>
        </g>
    </g>
</svg>