<svg xmlns="http://www.w3.org/2000/svg" xmlns:xlink="http://www.w3.org/1999/xlink" width="125" height="21" version="1.1" viewBox="0 0 125 21"><title>stars</title><desc>Created with Sketch.</desc><g id="Icons-and-Clouds" fill="none" fill-rule="evenodd" stroke="none" stroke-width="1"><g id="stars" fill="#333"><polygon id="star" points="10.5 0 13.355 7.12 21 7.64 15.12 12.559 16.989 20 10.5 15.92 4.011 20 5.88 12.559 0 7.64 7.645 7.12"/><polygon id="star" points="36.5 0 39.355 7.12 47 7.64 41.12 12.559 42.989 20 36.5 15.92 30.011 20 31.88 12.559 26 7.64 33.645 7.12"/><polygon id="star" points="62.5 0 65.355 7.12 73 7.64 67.12 12.559 68.989 20 62.5 15.92 56.011 20 57.88 12.559 52 7.64 59.645 7.12"/><polygon id="star" points="88.5 0 91.355 7.12 99 7.64 93.12 12.559 94.989 20 88.5 15.92 82.011 20 83.88 12.559 78 7.64 85.645 7.12"/><polygon id="star" points="114.5 0 117.355 7.12 125 7.64 119.12 12.559 120.989 20 114.5 15.92 108.011 20 109.88 12.559 104 7.64 111.645 7.12"/></g></g></svg>