<?xml version="1.0" encoding="UTF-8" standalone="no"?>
<svg width="1400px" height="440px" viewBox="0 0 1400 440" version="1.1" xmlns="http://www.w3.org/2000/svg" xmlns:xlink="http://www.w3.org/1999/xlink">
    <!-- Generator: Sketch 3.8.3 (29802) - http://www.bohemiancoding.com/sketch -->
    <title>starburst</title>
    <desc>Created with Sketch.</desc>
    <defs></defs>
    <g id="Page-1" stroke="none" stroke-width="1" fill="none" fill-rule="evenodd" opacity="0.100000001">
        <g id="aral-starburst" fill="#FFFFFF">
            <g id="starburst">
                <polyline id="Fill-4" points="698.454 439.948 0 5.934 0 84.851 697.696 439.948 698.454 439.948"></polyline>
                <polyline id="Fill-5" points="694.66 439.948 0 234.939 0 287.712 692.189 439.948 694.66 439.948"></polyline>
                <polyline id="Fill-6" points="664.391 439.948 0 402.157 0 439.948 664.391 439.948"></polyline>
                <polyline id="Fill-8" points="700.186 439.948 349.324 0.018 260.748 0.018 699.759 439.948 700.186 439.948"></polyline>
                <polyline id="Fill-9" points="701.373 439.948 595.378 0.018 527.108 0.018 701.044 439.948 701.373 439.948"></polyline>
                <polyline id="Fill-10" points="702.427 439.948 813.728 0.018 747.466 0.018 702.107 439.948 702.427 439.948"></polyline>
                <polyline id="Fill-11" points="703.71 439.948 1079.76 0.018 997.672 0.018 703.314 439.948 703.71 439.948"></polyline>
                <polyline id="Fill-12" points="705.717 439.948 1399.98 53.254 1399.98 0.577 1399.98 0.018 1353.35 0.018 705.03 439.948 705.717 439.948"></polyline>
                <polyline id="Fill-13" points="710.814 439.948 1399.98 275.292 1399.98 221.715 708.642 439.948 710.814 439.948"></polyline>
                <path d="M1399.56,439.948 C1400.05,439.901 1400.02,439.506 1399.98,439.11 L1399.98,401.216 L738.321,439.948 L1399.56,439.948" id="Fill-15"></path>
                <polyline id="Fill-16" points="697.061 439.948 0.009 132.529 0.009 194.719 695.844 439.948 697.061 439.948"></polyline>
                <polyline id="Fill-17" points="689.369 439.948 0.009 322.576 0.009 370.408 681.011 439.948 689.369 439.948"></polyline>
                <polyline id="Fill-19" points="699.448 439.948 194.366 0.018 82.208 0.018 698.906 439.948 699.448 439.948"></polyline>
                <polyline id="Fill-20" points="700.826 439.948 480.134 0.018 404.855 0.018 700.462 439.948 700.826 439.948"></polyline>
                <polyline id="Fill-21" points="701.927 439.948 708.185 0.018 642.733 0.018 701.611 439.948 701.927 439.948"></polyline>
                <polyline id="Fill-22" points="703.043 439.948 939.4 0.018 868.038 0.018 702.697 439.948 703.043 439.948"></polyline>
                <polyline id="Fill-23" points="704.564 439.948 1254.62 0.018 1152.2 0.018 704.068 439.948 704.564 439.948"></polyline>
                <path d="M1399.99,175.884 L1399.99,111.426 L706.399,439.948 C706.763,439.948 1399.99,175.884 1399.99,175.884 L1399.99,175.884 Z" id="Fill-24"></path>
                <polyline id="Fill-25" points="720.824 439.948 1399.99 363.424 1399.99 315.536 713.662 439.948 720.824 439.948"></polyline>
            </g>
        </g>
    </g>
</svg>