<?xml version="1.0" encoding="UTF-8" standalone="no"?>
<svg width="25px" height="21px" viewBox="0 0 25 21" version="1.1" xmlns="http://www.w3.org/2000/svg" xmlns:xlink="http://www.w3.org/1999/xlink">
    <!-- Generator: Sketch 3.7.2 (28276) - http://www.bohemiancoding.com/sketch -->
    <title>weight-small</title>
    <desc>Created with Sketch.</desc>
    <defs></defs>
    <g id="Icons-and-Clouds" stroke="none" stroke-width="1" fill="none" fill-rule="evenodd">
        <g id="table" transform="translate(0.000000, -27.000000)" fill="#787878">
            <g id="weight" transform="translate(2.000000, 28.000000)">
                <path d="M3.423,4 L17.577,4 L21,19 L0,19 L3.423,4 Z M1.0863501,17.9850211 L19.9464834,18 L16.9279175,5 L4.11135498,5 L1.0863501,17.9850211 Z" id="Shape"></path>
                <path d="M9.6487207,3.80686523 C9.36350683,3.51739251 8.82,2.81838276 8.82,2.41702823 C8.82,1.55117264 9.56797162,0.84 10.5,0.84 C11.4323568,0.84 12.18,1.55098315 12.18,2.41702823 C12.18,2.79992057 11.7202657,3.52274185 11.4589453,3.80686523 L12.3914807,4.01439496 C12.793317,3.57749415 13.02,3.01381133 13.02,2.41702823 C13.02,1.07735563 11.8870932,0 10.5,0 C9.11326575,0 7.98,1.07751093 7.98,2.41702823 C7.98,3.04267737 8.22914278,3.63061142 8.66677249,4.07477588 L9.6487207,3.80686523 Z" id="Shape"></path>
            </g>
        </g>
    </g>
</svg>