<svg xmlns="http://www.w3.org/2000/svg" xmlns:xlink="http://www.w3.org/1999/xlink" width="700" height="755" version="1.1" viewBox="0 0 700 755"><title>balloon-logo-many</title><desc>Created with Sketch.</desc><g id="Page-1" fill="none" fill-rule="evenodd" stroke="none" stroke-width="1"><g id="many-balloons"><g id="big-balloons" transform="translate(-1.000000, 3.000000)"><g id="balloon-logo-4" transform="translate(306.000000, 86.000000)"><g id="strings-3" fill="#050505" transform="translate(0.000000, 76.431587)"><path id="Path-152" d="M52.976475,14.0707003 C50.3015022,17.5181168 47.1249465,20.5545859 38.9603472,27.7228943 C34.3120233,31.8040032 31.768729,36.3725371 30.0340643,42.6105421 C29.6145624,44.1191073 29.3755906,45.1307901 28.7158608,48.0730921 C26.8561184,56.367281 25.4085977,59.8969895 21.4907513,63.4894553 C16.7299288,67.8548873 13.9142431,68.9634213 8.28819468,69.7730037 C5.74841085,70.1384759 4.5226644,70.4403974 3.05557867,71.2271192 C2.10957642,71.734411 1.21663012,72.4074141 0.340344338,73.2892392 C0.01266152,73.6189934 0.0108030406,74.1555141 0.336193308,74.4875916 C0.661583576,74.8196691 1.19100392,74.8215525 1.51868673,74.4917983 C2.27999181,73.7256807 3.04010039,73.1527958 3.83773054,72.7250683 C5.08489811,72.0562772 6.16465566,71.7903151 8.52329515,71.4509094 C14.4518499,70.5977967 17.5698149,69.3702555 22.612761,64.7461305 C26.862232,60.8495819 28.4150198,57.0631845 30.3465991,48.4486135 C30.9996092,45.5362802 31.2348165,44.5405343 31.6436788,43.0702302 C33.2961799,37.1276925 35.6804099,32.8448867 40.0553683,29.0037857 C48.3057981,21.7601204 51.5254759,18.6824309 54.2910409,15.1182621 C57.5243461,10.9512852 59.2964758,6.80780377 60.2724352,1.08849435 C60.3511262,0.627350274 60.0460339,0.188871974 59.5909926,0.10912566 C59.1359513,0.0293793453 58.7032759,0.338563324 58.6245849,0.799707405 C57.6949758,6.24739522 56.0346865,10.1293783 52.976475,14.0707003 Z"/><path id="Path-153" d="M55.644643,16.1666607 C55.2161315,17.0191865 54.7660112,17.8535945 54.2431895,18.7779411 C53.9658153,19.2683376 53.1341445,20.7077822 53.0448366,20.8645965 C49.7056052,26.7279038 49.0904045,29.8394521 49.9104725,34.7150135 C50.4331957,37.8227671 50.4331957,39.7076418 50.1523577,40.6364411 C50.1226304,40.7347567 50.0961823,40.7977556 50.0774342,40.8308489 C50.084294,40.8187403 50.1071578,40.788456 50.1492012,40.7466605 C49.8195373,41.0743805 49.8144456,41.6108796 50.1378286,41.9449648 C50.4612116,42.27905 50.9906107,42.28421 51.3202746,41.95649 C51.479674,41.7980305 51.6309044,41.5310862 51.751285,41.1329583 C52.1216974,39.9079148 52.1216974,37.775636 51.5590034,34.4302436 C50.806576,29.9568267 51.3431627,27.2428904 54.4932231,21.7117458 C54.5785326,21.561952 55.4119089,20.1195557 55.6940529,19.6207263 C56.2295888,18.6739009 56.6924571,17.8158613 57.1347693,16.935879 C59.8584631,11.5170762 61.2016961,6.40368845 60.625722,1.19869313 C60.5742579,0.733619726 60.160511,0.398882639 59.7015924,0.451036917 C59.2426737,0.503191195 58.9123666,0.922487075 58.9638306,1.38756048 C59.4970115,6.20583947 58.2332958,11.0165226 55.644643,16.1666607 Z"/></g><path id="balloon-2" fill="#AD0B00" d="M60.0784529,77.5790756 C57.1394473,78.4109325 39.0365378,57.7646748 32.0979886,43.2687022 C25.1594395,28.7727296 24.8684005,5.27041659 42.5268368,1.2706531 C60.1852731,-2.72911039 66.0441494,13.8130218 69.3131082,13.8079372 C72.582067,13.8028526 85.680626,-1.11363986 100.075766,8.64318715 C114.470905,18.4000142 107.990076,40.2824531 97.2359685,53.9736051 C86.4818607,67.6647571 63.6096207,76.5796129 60.0784529,77.5790756 L60.0784529,77.5790756 Z"/></g><g id="balloon-logo-5" transform="translate(158.000000, 32.000000)"><g id="strings-3" fill="#000" transform="translate(0.000000, 45.885323)"><path id="Path-152" d="M24.848799,18.0319997 C22.0640591,20.4918145 20.4315182,23.2780013 19.3167266,27.311295 C19.0679428,28.2113897 18.9290812,28.792246 18.5046256,30.6967829 C17.3178786,36.0217292 16.4003203,38.0384139 14.1082018,40.1529653 C11.3332575,42.7129388 9.6864974,43.4775105 6.0730862,44.0006421 C4.42075395,44.2398585 3.69065544,44.4395817 2.80697721,44.9163373 C2.20663405,45.2402301 1.64648203,45.6674293 1.10248244,46.2182005 C0.843640995,46.480264 0.842177066,46.9054555 1.09919362,47.169351 C1.35779501,47.4348738 1.77978673,47.4363841 2.04022473,47.1727042 C2.49223408,46.7150683 2.94703094,46.3673988 3.4301945,46.106726 C4.15249422,45.7170362 4.77061642,45.5509087 6.26058186,45.3351989 C10.1375521,44.7739106 12.0202357,43.9007432 15.0012966,41.1506207 C17.5345008,38.8136601 18.5491943,36.6058522 19.7998222,30.9942719 C20.21844,29.1159292 20.3542398,28.5475794 20.5952807,27.6754984 C21.6410008,23.8921041 23.1405446,21.3278928 25.720494,19.0489735 C30.9665306,14.4150476 32.8324409,12.5907056 34.4903354,10.441058 C36.4961188,7.84033335 37.5930533,5.25360932 38.196082,1.69823113 C38.2581404,1.33234281 38.0168894,0.983506165 37.6553716,0.919764206 C37.2930916,0.855887852 36.9495916,1.10284261 36.8874074,1.46947259 C36.3212982,4.80717796 35.3134497,7.18702171 33.4447432,9.61001082 C31.8535157,11.673217 30.0161288,13.4675971 24.848799,18.0319997 Z"/><path id="Path-153" d="M34.2113903,12.5391658 C34.1471521,12.6534302 34.0318116,12.855935 33.8708586,13.1374072 C33.7967754,13.2669597 33.4931922,13.7970838 33.4750049,13.8292131 C31.4429415,17.4190058 31.011175,19.3840855 31.5309676,22.4932292 C31.8267393,24.2623901 31.8644448,25.4866612 31.6839433,26.0872577 C31.670245,26.1328372 31.6577154,26.1648465 31.6508391,26.1770582 L31.9122451,26.3242549 C31.9100491,26.3281548 31.7195815,26.0925349 31.7195815,26.0925349 C31.4591627,26.3529942 31.455152,26.7781691 31.7105711,27.0436476 C31.9675646,27.3107625 32.3895389,27.3149005 32.6515642,27.0528345 C32.7749336,26.9294459 32.8769983,26.7371257 32.9540756,26.4806603 C33.2032691,25.6514995 33.1731543,24.2593532 32.8401781,22.2676535 C32.3740808,19.4796885 32.7434976,17.827131 34.6263713,14.5008933 C34.6427261,14.4720014 34.9409946,13.9511819 35.0214693,13.810443 C35.1837367,13.5266525 35.2993036,13.3237257 35.3647128,13.2073785 C35.7063643,12.5996625 35.9889098,12.0705972 36.2537228,11.5405428 C38.0298532,7.98540973 38.7563098,4.83301706 38.4144529,1.72489771 C38.3738035,1.35531832 38.0455547,1.08813575 37.6802694,1.1299017 C37.3154916,1.17160963 37.0541264,1.50540952 37.0947217,1.87449597 C37.4053178,4.69839654 36.7281544,7.61057755 35.0694021,10.9307646 C34.8149215,11.4401375 34.542347,11.9504733 34.2113903,12.5391658 Z"/></g><path id="balloon-2" fill="#AD0B00" d="M37.9289573,47.9765336 C36.1224126,48.4909714 24.9949361,35.722891 20.7299563,26.7582764 C16.4649766,17.7936618 16.286081,3.25933657 27.1403492,0.785798628 C37.9946174,-1.68773932 41.595945,8.54226351 43.605305,8.53911906 C45.6146651,8.53597462 53.6660729,-0.688698331 62.5144614,5.34512889 C71.36285,11.3789561 67.3792212,24.9115171 60.7688981,33.3784137 C54.1585749,41.8453103 40.0994916,47.3584448 37.9289573,47.9765336 L37.9289573,47.9765336 Z"/></g><g id="balloon-logo-6" transform="translate(522.000000, 162.000000)"><g id="strings-3" fill="#000" transform="translate(0.000000, 45.885323)"><path id="Path-152" d="M24.848799,18.0319997 C22.0640591,20.4918145 20.4315182,23.2780013 19.3167266,27.311295 C19.0679428,28.2113897 18.9290812,28.792246 18.5046256,30.6967829 C17.3178786,36.0217292 16.4003203,38.0384139 14.1082018,40.1529653 C11.3332575,42.7129388 9.6864974,43.4775105 6.0730862,44.0006421 C4.42075395,44.2398585 3.69065544,44.4395817 2.80697721,44.9163373 C2.20663405,45.2402301 1.64648203,45.6674293 1.10248244,46.2182005 C0.843640995,46.480264 0.842177066,46.9054555 1.09919362,47.169351 C1.35779501,47.4348738 1.77978673,47.4363841 2.04022473,47.1727042 C2.49223408,46.7150683 2.94703094,46.3673988 3.4301945,46.106726 C4.15249422,45.7170362 4.77061642,45.5509087 6.26058186,45.3351989 C10.1375521,44.7739106 12.0202357,43.9007432 15.0012966,41.1506207 C17.5345008,38.8136601 18.5491943,36.6058522 19.7998222,30.9942719 C20.21844,29.1159292 20.3542398,28.5475794 20.5952807,27.6754984 C21.6410008,23.8921041 23.1405446,21.3278928 25.720494,19.0489735 C30.9665306,14.4150476 32.8324409,12.5907056 34.4903354,10.441058 C36.4961188,7.84033335 37.5930533,5.25360932 38.196082,1.69823113 C38.2581404,1.33234281 38.0168894,0.983506165 37.6553716,0.919764206 C37.2930916,0.855887852 36.9495916,1.10284261 36.8874074,1.46947259 C36.3212982,4.80717796 35.3134497,7.18702171 33.4447432,9.61001082 C31.8535157,11.673217 30.0161288,13.4675971 24.848799,18.0319997 Z"/><path id="Path-153" d="M34.2113903,12.5391658 C34.1471521,12.6534302 34.0318116,12.855935 33.8708586,13.1374072 C33.7967754,13.2669597 33.4931922,13.7970838 33.4750049,13.8292131 C31.4429415,17.4190058 31.011175,19.3840855 31.5309676,22.4932292 C31.8267393,24.2623901 31.8644448,25.4866612 31.6839433,26.0872577 C31.670245,26.1328372 31.6577154,26.1648465 31.6508391,26.1770582 L31.9122451,26.3242549 C31.9100491,26.3281548 31.7195815,26.0925349 31.7195815,26.0925349 C31.4591627,26.3529942 31.455152,26.7781691 31.7105711,27.0436476 C31.9675646,27.3107625 32.3895389,27.3149005 32.6515642,27.0528345 C32.7749336,26.9294459 32.8769983,26.7371257 32.9540756,26.4806603 C33.2032691,25.6514995 33.1731543,24.2593532 32.8401781,22.2676535 C32.3740808,19.4796885 32.7434976,17.827131 34.6263713,14.5008933 C34.6427261,14.4720014 34.9409946,13.9511819 35.0214693,13.810443 C35.1837367,13.5266525 35.2993036,13.3237257 35.3647128,13.2073785 C35.7063643,12.5996625 35.9889098,12.0705972 36.2537228,11.5405428 C38.0298532,7.98540973 38.7563098,4.83301706 38.4144529,1.72489771 C38.3738035,1.35531832 38.0455547,1.08813575 37.6802694,1.1299017 C37.3154916,1.17160963 37.0541264,1.50540952 37.0947217,1.87449597 C37.4053178,4.69839654 36.7281544,7.61057755 35.0694021,10.9307646 C34.8149215,11.4401375 34.542347,11.9504733 34.2113903,12.5391658 Z"/></g><path id="balloon-2" fill="#AD0B00" d="M37.9289573,47.9765336 C36.1224126,48.4909714 24.9949361,35.722891 20.7299563,26.7582764 C16.4649766,17.7936618 16.286081,3.25933657 27.1403492,0.785798628 C37.9946174,-1.68773932 41.595945,8.54226351 43.605305,8.53911906 C45.6146651,8.53597462 53.6660729,-0.688698331 62.5144614,5.34512889 C71.36285,11.3789561 67.3792212,24.9115171 60.7688981,33.3784137 C54.1585749,41.8453103 40.0994916,47.3584448 37.9289573,47.9765336 L37.9289573,47.9765336 Z"/></g><g id="balloon-logo-7" transform="translate(494.000000, 0.000000)"><g id="strings-3" fill="#000" transform="translate(0.000000, 38.244048)"><path id="Path-152" d="M20.8835111,15.2590755 C18.544643,17.3364247 17.1728648,19.6904768 16.2374981,23.0932583 C16.0291533,23.8511984 15.912857,24.3403444 15.5578415,25.9420785 C14.5688741,30.4040324 13.8076319,32.0863702 11.9051051,33.8511803 C9.59702288,35.9921893 8.23468575,36.6281913 5.22934422,37.0656866 C3.84029933,37.2678935 3.22226701,37.4378917 2.47447076,37.8435599 C1.96597344,38.119412 1.49190004,38.4829553 1.03217693,38.9509652 C0.787775127,39.1997725 0.786395942,39.6025575 1.02906414,39.8530933 C1.27443629,40.1064207 1.67579557,40.1078652 1.9229216,39.8562846 C2.29570088,39.4767857 2.66995371,39.189112 3.0670459,38.9736955 C3.66141752,38.6512578 4.17040683,38.5137074 5.40775147,38.333584 C8.66301722,37.8597066 10.2506646,37.1193171 12.7535801,34.7975781 C14.884057,32.8213183 15.7379343,30.953185 16.7861745,26.223808 C17.135817,24.6463155 17.24909,24.1696331 17.4501497,23.4381958 C18.3205883,20.271617 19.5666867,18.1290569 21.7117188,16.2238701 C26.0998841,12.3263644 27.6618878,10.7907451 29.0513395,8.97923886 C30.7353325,6.78372259 31.6568974,4.59857228 32.1628688,1.59899687 C32.2213908,1.25205786 31.9934053,0.920586347 31.6504692,0.859787558 C31.3062237,0.798756626 30.9805741,1.03416792 30.9218388,1.38237115 C30.4506185,4.17592985 29.6129554,6.16480976 28.0585769,8.19134027 C26.732358,9.92040638 25.1990386,11.4260857 20.8835111,15.2590755 Z"/><path id="Path-153" d="M28.6934932,10.6619855 C28.6399201,10.7578042 28.5435692,10.9279006 28.4091331,11.1642958 C28.3473474,11.2729384 28.0934192,11.7187967 28.0781127,11.7459856 C26.3719015,14.7767411 26.0073988,16.4448258 26.444786,19.0754743 C26.6902906,20.5520521 26.721526,21.5718288 26.5747253,22.0629811 C26.5646895,22.0965577 26.556034,22.1187917 26.5533557,22.1235744 L26.9023565,22.3190186 C26.8910253,22.33608 26.7647272,22.1775406 26.7647272,22.1775406 L26.622907,22.0365193 C26.3770064,22.283813 26.3732279,22.6865826 26.6143788,22.9386119 C26.8582156,23.1934481 27.259558,23.1974055 27.5081999,22.9473549 C27.6209896,22.8339262 27.711815,22.6618414 27.7794398,22.4355884 C27.99169,21.7254612 27.9663128,20.5458643 27.6863209,18.8618632 C27.2996993,16.5365427 27.6047911,15.1642189 29.1707987,12.3825081 C29.1843628,12.358414 29.4334833,11.9210177 29.500873,11.8025133 C29.6365904,11.5638487 29.7332379,11.3932079 29.7880258,11.2952166 C30.0741402,10.7834841 30.3108513,10.3378015 30.5327529,9.89119262 C32.023089,6.89167597 32.6333853,4.22876039 32.345974,1.60125756 C32.3075936,1.25038485 31.9965734,0.995831023 31.6495346,1.0357293 C31.3033679,1.07552733 31.0562415,1.3928811 31.0945301,1.74291373 C31.3524457,4.10076861 30.7895863,6.53471429 29.4089635,9.31341683 C29.1968292,9.74036789 28.9695593,10.1682251 28.6934932,10.6619855 Z"/></g><path id="balloon-2" fill="#AD0B00" d="M31.8659941,40.3207037 C30.3560463,40.7530504 21.0554689,30.0224297 17.4907098,22.4883387 C13.9259506,14.9542476 13.776426,2.73922967 22.8486501,0.66040523 C31.9208743,-1.41841921 34.9309391,7.17913635 36.6104042,7.17649368 C38.2898693,7.17385101 45.0194042,-0.578799662 52.4150722,4.49218279 C59.8107403,9.56316525 56.4811401,20.936275 50.9560939,28.0520711 C45.4310477,35.1678672 33.6801721,39.8012462 31.8659941,40.3207037 L31.8659941,40.3207037 Z"/></g><g id="balloon-logo-8" transform="translate(114.000000, 199.000000)"><g id="strings-3" fill="#000" transform="translate(0.000000, 38.244048)"><path id="Path-152" d="M20.8835111,15.2590755 C18.544643,17.3364247 17.1728648,19.6904768 16.2374981,23.0932583 C16.0291533,23.8511984 15.912857,24.3403444 15.5578415,25.9420785 C14.5688741,30.4040324 13.8076319,32.0863702 11.9051051,33.8511803 C9.59702288,35.9921893 8.23468575,36.6281913 5.22934422,37.0656866 C3.84029933,37.2678935 3.22226701,37.4378917 2.47447076,37.8435599 C1.96597344,38.119412 1.49190004,38.4829553 1.03217693,38.9509652 C0.787775127,39.1997725 0.786395942,39.6025575 1.02906414,39.8530933 C1.27443629,40.1064207 1.67579557,40.1078652 1.9229216,39.8562846 C2.29570088,39.4767857 2.66995371,39.189112 3.0670459,38.9736955 C3.66141752,38.6512578 4.17040683,38.5137074 5.40775147,38.333584 C8.66301722,37.8597066 10.2506646,37.1193171 12.7535801,34.7975781 C14.884057,32.8213183 15.7379343,30.953185 16.7861745,26.223808 C17.135817,24.6463155 17.24909,24.1696331 17.4501497,23.4381958 C18.3205883,20.271617 19.5666867,18.1290569 21.7117188,16.2238701 C26.0998841,12.3263644 27.6618878,10.7907451 29.0513395,8.97923886 C30.7353325,6.78372259 31.6568974,4.59857228 32.1628688,1.59899687 C32.2213908,1.25205786 31.9934053,0.920586347 31.6504692,0.859787558 C31.3062237,0.798756626 30.9805741,1.03416792 30.9218388,1.38237115 C30.4506185,4.17592985 29.6129554,6.16480976 28.0585769,8.19134027 C26.732358,9.92040638 25.1990386,11.4260857 20.8835111,15.2590755 Z"/><path id="Path-153" d="M28.6934932,10.6619855 C28.6399201,10.7578042 28.5435692,10.9279006 28.4091331,11.1642958 C28.3473474,11.2729384 28.0934192,11.7187967 28.0781127,11.7459856 C26.3719015,14.7767411 26.0073988,16.4448258 26.444786,19.0754743 C26.6902906,20.5520521 26.721526,21.5718288 26.5747253,22.0629811 C26.5646895,22.0965577 26.556034,22.1187917 26.5533557,22.1235744 L26.9023565,22.3190186 C26.8910253,22.33608 26.7647272,22.1775406 26.7647272,22.1775406 L26.622907,22.0365193 C26.3770064,22.283813 26.3732279,22.6865826 26.6143788,22.9386119 C26.8582156,23.1934481 27.259558,23.1974055 27.5081999,22.9473549 C27.6209896,22.8339262 27.711815,22.6618414 27.7794398,22.4355884 C27.99169,21.7254612 27.9663128,20.5458643 27.6863209,18.8618632 C27.2996993,16.5365427 27.6047911,15.1642189 29.1707987,12.3825081 C29.1843628,12.358414 29.4334833,11.9210177 29.500873,11.8025133 C29.6365904,11.5638487 29.7332379,11.3932079 29.7880258,11.2952166 C30.0741402,10.7834841 30.3108513,10.3378015 30.5327529,9.89119262 C32.023089,6.89167597 32.6333853,4.22876039 32.345974,1.60125756 C32.3075936,1.25038485 31.9965734,0.995831023 31.6495346,1.0357293 C31.3033679,1.07552733 31.0562415,1.3928811 31.0945301,1.74291373 C31.3524457,4.10076861 30.7895863,6.53471429 29.4089635,9.31341683 C29.1968292,9.74036789 28.9695593,10.1682251 28.6934932,10.6619855 Z"/></g><path id="balloon-2" fill="#AD0B00" d="M31.8659941,40.3207037 C30.3560463,40.7530504 21.0554689,30.0224297 17.4907098,22.4883387 C13.9259506,14.9542476 13.776426,2.73922967 22.8486501,0.66040523 C31.9208743,-1.41841921 34.9309391,7.17913635 36.6104042,7.17649368 C38.2898693,7.17385101 45.0194042,-0.578799662 52.4150722,4.49218279 C59.8107403,9.56316525 56.4811401,20.936275 50.9560939,28.0520711 C45.4310477,35.1678672 33.6801721,39.8012462 31.8659941,40.3207037 L31.8659941,40.3207037 Z"/></g><g id="balloon-logo-9" transform="translate(661.000000, 75.000000)"><g id="strings-3" fill="#000" transform="translate(0.000000, 25.508590)"><path id="Path-152" d="M14.8085172,10.6981654 C13.1699779,12.1265683 12.2081973,13.7465058 11.5535435,16.0840183 C11.4080722,16.6034394 11.3268652,16.9386798 11.0793948,18.0345434 C10.3932874,21.0728057 9.868257,22.2116514 8.55470661,23.4075766 C6.9564486,24.8627147 6.01874213,25.2923806 3.93721225,25.5897883 C2.96368847,25.7288849 2.52728454,25.8467029 1.99928441,26.1278359 C1.63973774,26.319276 1.3047568,26.5714039 0.980410421,26.895488 C0.785371298,27.0903695 0.78426692,27.4069313 0.977935412,27.6031796 C1.17228548,27.8001186 1.48902191,27.8012374 1.68474749,27.60567 C1.94019426,27.3504298 2.19601965,27.1574246 2.46712898,27.0130728 C2.87374223,26.7965721 3.22234909,26.7041067 4.07790796,26.581865 C6.35643637,26.2563102 7.47318403,25.7451567 9.22544918,24.1498025 C10.7205088,22.7886217 11.3203821,21.5004849 12.053045,18.2560625 C12.2963181,17.1787857 12.3749912,16.8538341 12.5146398,16.3552035 C13.1176046,14.2022522 13.9790002,12.7485568 15.4631608,11.4547341 C18.5220963,8.78809536 19.6119588,7.73646453 20.5828227,6.49411208 C21.7622447,4.98488124 22.408322,3.4812893 22.762477,1.42057741 C22.8092697,1.14830609 22.6275668,0.889013063 22.3558344,0.84172917 C22.0837795,0.794389154 21.8255063,0.97764008 21.7786587,1.25023111 C21.4522677,3.14939293 20.8731631,4.49893476 19.7972977,5.87565088 C18.8769024,7.05342183 17.8110674,8.0806807 14.8085172,10.6981654 Z"/><path id="Path-153" d="M20.2343319,7.57211622 C20.1971274,7.63742764 20.130073,7.75361439 20.0365293,7.91506038 C19.8774259,8.18935956 19.8774259,8.18935956 19.8058574,8.31291381 C18.6105509,10.3968647 18.3533511,11.55212 18.6606848,13.3663694 C18.8300765,14.3663208 18.8515682,15.0550038 18.7530962,15.3783672 C18.7473918,15.3970992 19.0913271,15.6048112 19.0913271,15.6048112 C19.0767267,15.6263958 18.9432922,15.4757873 18.9432922,15.4757873 L18.8027947,15.333448 C18.606571,15.5271326 18.6035454,15.8436819 18.7960139,16.0411113 C18.9891597,16.2392354 19.3058833,16.2423006 19.5027975,16.0479344 C19.5896927,15.9621637 19.6578708,15.8353778 19.7078402,15.6712879 C19.8593311,15.1738205 19.8414647,14.3587075 19.6449075,13.198393 C19.3783953,11.6251208 19.5874739,10.70207 20.6710631,8.81289204 C20.7411874,8.69185965 20.7411874,8.69185965 20.9007969,8.41668152 C20.9953951,8.25340443 21.0627514,8.13668033 21.1010117,8.06951562 C21.3007642,7.71885618 21.4661105,7.41329952 21.6211546,7.10702399 C22.6643657,5.04625491 23.0922655,3.21373447 22.8905415,1.40369914 C22.8599114,1.12886071 22.6130327,0.930541505 22.3386944,0.961498073 C22.0645706,0.992430425 21.8677746,1.24047566 21.898381,1.51510148 C22.0764318,3.11272088 21.6873297,4.76416775 20.7311122,6.6530888 C20.5838818,6.94392908 20.4260984,7.23547603 20.2343319,7.57211622 Z"/></g><path id="balloon-2" fill="#AD0B00" d="M22.4959602,27.5609874 C21.4443894,27.8565155 14.9672016,20.5216608 12.4846014,15.3717758 C10.0020013,10.2218908 9.89786807,1.87238484 16.2160242,0.451416233 C22.5341803,-0.969552374 24.6304755,4.90725776 25.8001029,4.90545138 C26.9697304,4.90364499 31.6563708,-0.395635212 36.8069253,3.07060596 C41.9574798,6.53684713 39.6386511,14.3108715 35.7908511,19.1748334 C31.9430511,24.0387953 23.7594056,27.2059151 22.4959602,27.5609874 L22.4959602,27.5609874 Z"/></g><g id="balloon-logo-10" transform="translate(19.000000, 99.000000)"><g id="strings-3" fill="#000" transform="translate(0.000000, 25.508590)"><path id="Path-152" d="M14.8085172,10.6981654 C13.1699779,12.1265683 12.2081973,13.7465058 11.5535435,16.0840183 C11.4080722,16.6034394 11.3268652,16.9386798 11.0793948,18.0345434 C10.3932874,21.0728057 9.868257,22.2116514 8.55470661,23.4075766 C6.9564486,24.8627147 6.01874213,25.2923806 3.93721225,25.5897883 C2.96368847,25.7288849 2.52728454,25.8467029 1.99928441,26.1278359 C1.63973774,26.319276 1.3047568,26.5714039 0.980410421,26.895488 C0.785371298,27.0903695 0.78426692,27.4069313 0.977935412,27.6031796 C1.17228548,27.8001186 1.48902191,27.8012374 1.68474749,27.60567 C1.94019426,27.3504298 2.19601965,27.1574246 2.46712898,27.0130728 C2.87374223,26.7965721 3.22234909,26.7041067 4.07790796,26.581865 C6.35643637,26.2563102 7.47318403,25.7451567 9.22544918,24.1498025 C10.7205088,22.7886217 11.3203821,21.5004849 12.053045,18.2560625 C12.2963181,17.1787857 12.3749912,16.8538341 12.5146398,16.3552035 C13.1176046,14.2022522 13.9790002,12.7485568 15.4631608,11.4547341 C18.5220963,8.78809536 19.6119588,7.73646453 20.5828227,6.49411208 C21.7622447,4.98488124 22.408322,3.4812893 22.762477,1.42057741 C22.8092697,1.14830609 22.6275668,0.889013063 22.3558344,0.84172917 C22.0837795,0.794389154 21.8255063,0.97764008 21.7786587,1.25023111 C21.4522677,3.14939293 20.8731631,4.49893476 19.7972977,5.87565088 C18.8769024,7.05342183 17.8110674,8.0806807 14.8085172,10.6981654 Z"/><path id="Path-153" d="M20.2343319,7.57211622 C20.1971274,7.63742764 20.130073,7.75361439 20.0365293,7.91506038 C19.8774259,8.18935956 19.8774259,8.18935956 19.8058574,8.31291381 C18.6105509,10.3968647 18.3533511,11.55212 18.6606848,13.3663694 C18.8300765,14.3663208 18.8515682,15.0550038 18.7530962,15.3783672 C18.7473918,15.3970992 19.0913271,15.6048112 19.0913271,15.6048112 C19.0767267,15.6263958 18.9432922,15.4757873 18.9432922,15.4757873 L18.8027947,15.333448 C18.606571,15.5271326 18.6035454,15.8436819 18.7960139,16.0411113 C18.9891597,16.2392354 19.3058833,16.2423006 19.5027975,16.0479344 C19.5896927,15.9621637 19.6578708,15.8353778 19.7078402,15.6712879 C19.8593311,15.1738205 19.8414647,14.3587075 19.6449075,13.198393 C19.3783953,11.6251208 19.5874739,10.70207 20.6710631,8.81289204 C20.7411874,8.69185965 20.7411874,8.69185965 20.9007969,8.41668152 C20.9953951,8.25340443 21.0627514,8.13668033 21.1010117,8.06951562 C21.3007642,7.71885618 21.4661105,7.41329952 21.6211546,7.10702399 C22.6643657,5.04625491 23.0922655,3.21373447 22.8905415,1.40369914 C22.8599114,1.12886071 22.6130327,0.930541505 22.3386944,0.961498073 C22.0645706,0.992430425 21.8677746,1.24047566 21.898381,1.51510148 C22.0764318,3.11272088 21.6873297,4.76416775 20.7311122,6.6530888 C20.5838818,6.94392908 20.4260984,7.23547603 20.2343319,7.57211622 Z"/></g><path id="balloon-2" fill="#AD0B00" d="M22.4959602,27.5609874 C21.4443894,27.8565155 14.9672016,20.5216608 12.4846014,15.3717758 C10.0020013,10.2218908 9.89786807,1.87238484 16.2160242,0.451416233 C22.5341803,-0.969552374 24.6304755,4.90725776 25.8001029,4.90545138 C26.9697304,4.90364499 31.6563708,-0.395635212 36.8069253,3.07060596 C41.9574798,6.53684713 39.6386511,14.3108715 35.7908511,19.1748334 C31.9430511,24.0387953 23.7594056,27.2059151 22.4959602,27.5609874 L22.4959602,27.5609874 Z"/></g><g id="balloon-logo-11" transform="translate(663.000000, 238.000000)"><g id="strings-3" fill="#000" transform="translate(0.000000, 18.376733)"><path id="Path-152" d="M11.2344602,8.14449133 C10.0080368,9.20953435 9.2876052,10.418316 8.79817873,12.1591708 C8.68970621,12.5449997 8.62914834,12.7940381 8.4449486,13.6065974 C7.93691296,15.8476921 7.55066318,16.6822981 6.58336085,17.5596067 C5.40265057,18.6304686 4.71485049,18.9444176 3.17693365,19.1633123 C2.44771805,19.267103 2.11803506,19.3557681 1.71923704,19.567294 C1.44729222,19.7115359 1.19414231,19.9013425 0.949457982,20.1448923 C0.784120987,20.3094627 0.783183959,20.5770258 0.947361875,20.7427533 C1.1118007,20.9087442 1.37954687,20.9096863 1.54514662,20.7448544 C1.73160274,20.5592628 1.91777721,20.4193433 2.11476266,20.3148606 C2.41083847,20.1578194 2.66498399,20.0906675 3.29584805,20.0008753 C5.00001928,19.7583173 5.83989102,19.3753673 7.15060114,18.1866001 C8.27167933,17.1698224 8.72196948,16.2065973 9.26891687,13.7938514 C9.44962866,12.9966786 9.50795713,12.7566813 9.61149604,12.3884009 C10.0572252,10.8029744 10.6924989,9.73499099 11.7880695,8.78358236 C14.0650679,6.80620559 14.8771813,6.02558297 15.6017635,5.101934 C16.4842045,3.9770572 16.968088,2.85524748 17.232874,1.32044788 C17.2725613,1.09040496 17.1185806,0.871513846 16.8886434,0.831655974 C16.6585832,0.791776801 16.4399866,0.946281921 16.4002782,1.17644732 C16.1590158,2.57489538 15.7318621,3.56651763 14.9373003,4.5793719 C14.2555711,5.44839484 13.4647086,6.20771297 11.2344602,8.14449133 Z"/><path id="Path-153" d="M15.2580563,5.84228195 C15.2304775,5.89051035 15.1982743,5.94609571 15.1111634,6.09598339 C14.992897,6.29909695 14.992897,6.29909695 14.9395239,6.39088708 C14.0449912,7.94448003 13.8510433,8.81229141 14.0817635,10.1690588 C14.2064474,10.9022711 14.2222187,11.4057125 14.152025,11.6353321 C14.148824,11.6458035 14.496903,11.8443623 14.496903,11.8443623 C14.480539,11.8684635 14.480539,11.8684635 14.482672,11.865414 L14.342448,11.7228054 L14.202224,11.5801967 C14.0358854,11.7437539 14.0333182,12.0113065 14.1964813,12.1780339 C14.3599037,12.3450262 14.627639,12.3476073 14.794242,12.1837902 C14.8657468,12.1134811 14.9204584,12.0121278 14.9599533,11.8829309 C15.0755569,11.5047653 15.0621168,10.8939418 14.9147025,10.0270615 C14.7187308,8.87463566 14.8714651,8.20292004 15.6715195,6.81341354 C15.7235069,6.72402982 15.7235069,6.72402982 15.8422335,6.52012089 C15.9301128,6.36890124 15.9627665,6.31253128 15.9913017,6.26263052 C16.1402389,6.00217761 16.2635915,5.77509781 16.3792925,5.54741662 C17.1592999,4.01248637 17.4797945,2.64519711 17.3285392,1.29320905 C17.302573,1.0611113 17.0935761,0.893866057 16.8615689,0.919945643 C16.6296434,0.94601604 16.4629076,1.15536773 16.4888647,1.38738401 C16.6200008,2.55953821 16.3329953,3.77299453 15.6262392,5.16377804 C15.5171725,5.37840396 15.400249,5.5936235 15.2580563,5.84228195 Z"/></g><path id="balloon-2" fill="#AD0B00" d="M16.9841755,20.4155462 C16.2022383,20.6344559 11.3858678,15.2012302 9.53983184,11.3865006 C7.69379584,7.57177096 7.61636344,1.38695173 12.3144795,0.334382395 C17.0125956,-0.718186944 18.5713792,3.63500575 19.4411022,3.63366769 C20.3108252,3.63232962 23.7957629,-0.29306312 27.6256624,2.27452293 C31.4555619,4.84210899 29.7313047,10.6006456 26.8701201,14.2035803 C24.0089354,17.806515 17.9236606,20.1525297 16.9841755,20.4155462 L16.9841755,20.4155462 Z"/></g><g id="balloon-logo-12" transform="translate(0.000000, 285.000000)"><g id="strings-3" fill="#000" transform="translate(0.000000, 18.376733)"><path id="Path-152" d="M11.2344602,8.14449133 C10.0080368,9.20953435 9.2876052,10.418316 8.79817873,12.1591708 C8.68970621,12.5449997 8.62914834,12.7940381 8.4449486,13.6065974 C7.93691296,15.8476921 7.55066318,16.6822981 6.58336085,17.5596067 C5.40265057,18.6304686 4.71485049,18.9444176 3.17693365,19.1633123 C2.44771805,19.267103 2.11803506,19.3557681 1.71923704,19.567294 C1.44729222,19.7115359 1.19414231,19.9013425 0.949457982,20.1448923 C0.784120987,20.3094627 0.783183959,20.5770258 0.947361875,20.7427533 C1.1118007,20.9087442 1.37954687,20.9096863 1.54514662,20.7448544 C1.73160274,20.5592628 1.91777721,20.4193433 2.11476266,20.3148606 C2.41083847,20.1578194 2.66498399,20.0906675 3.29584805,20.0008753 C5.00001928,19.7583173 5.83989102,19.3753673 7.15060114,18.1866001 C8.27167933,17.1698224 8.72196948,16.2065973 9.26891687,13.7938514 C9.44962866,12.9966786 9.50795713,12.7566813 9.61149604,12.3884009 C10.0572252,10.8029744 10.6924989,9.73499099 11.7880695,8.78358236 C14.0650679,6.80620559 14.8771813,6.02558297 15.6017635,5.101934 C16.4842045,3.9770572 16.968088,2.85524748 17.232874,1.32044788 C17.2725613,1.09040496 17.1185806,0.871513846 16.8886434,0.831655974 C16.6585832,0.791776801 16.4399866,0.946281921 16.4002782,1.17644732 C16.1590158,2.57489538 15.7318621,3.56651763 14.9373003,4.5793719 C14.2555711,5.44839484 13.4647086,6.20771297 11.2344602,8.14449133 Z"/><path id="Path-153" d="M15.2580563,5.84228195 C15.2304775,5.89051035 15.1982743,5.94609571 15.1111634,6.09598339 C14.992897,6.29909695 14.992897,6.29909695 14.9395239,6.39088708 C14.0449912,7.94448003 13.8510433,8.81229141 14.0817635,10.1690588 C14.2064474,10.9022711 14.2222187,11.4057125 14.152025,11.6353321 C14.148824,11.6458035 14.496903,11.8443623 14.496903,11.8443623 C14.480539,11.8684635 14.480539,11.8684635 14.482672,11.865414 L14.342448,11.7228054 L14.202224,11.5801967 C14.0358854,11.7437539 14.0333182,12.0113065 14.1964813,12.1780339 C14.3599037,12.3450262 14.627639,12.3476073 14.794242,12.1837902 C14.8657468,12.1134811 14.9204584,12.0121278 14.9599533,11.8829309 C15.0755569,11.5047653 15.0621168,10.8939418 14.9147025,10.0270615 C14.7187308,8.87463566 14.8714651,8.20292004 15.6715195,6.81341354 C15.7235069,6.72402982 15.7235069,6.72402982 15.8422335,6.52012089 C15.9301128,6.36890124 15.9627665,6.31253128 15.9913017,6.26263052 C16.1402389,6.00217761 16.2635915,5.77509781 16.3792925,5.54741662 C17.1592999,4.01248637 17.4797945,2.64519711 17.3285392,1.29320905 C17.302573,1.0611113 17.0935761,0.893866057 16.8615689,0.919945643 C16.6296434,0.94601604 16.4629076,1.15536773 16.4888647,1.38738401 C16.6200008,2.55953821 16.3329953,3.77299453 15.6262392,5.16377804 C15.5171725,5.37840396 15.400249,5.5936235 15.2580563,5.84228195 Z"/></g><path id="balloon-2" fill="#AD0B00" d="M16.9841755,20.4155462 C16.2022383,20.6344559 11.3858678,15.2012302 9.53983184,11.3865006 C7.69379584,7.57177096 7.61636344,1.38695173 12.3144795,0.334382395 C17.0125956,-0.718186944 18.5713792,3.63500575 19.4411022,3.63366769 C20.3108252,3.63232962 23.7957629,-0.29306312 27.6256624,2.27452293 C31.4555619,4.84210899 29.7313047,10.6006456 26.8701201,14.2035803 C24.0089354,17.806515 17.9236606,20.1525297 16.9841755,20.4155462 L16.9841755,20.4155462 Z"/></g></g><g id="little-balloons" transform="translate(120.000000, 457.000000)"><g id="balloon-logo-4" transform="translate(200.798859, 35.453988)"><g id="strings-3" fill="#050505" transform="translate(0.000000, 49.829324)"><path id="Path-152" d="M34.7634501,9.23659469 C33.0081184,11.4996227 30.9236454,13.4928877 25.565991,18.1984644 C22.5157357,20.8774745 20.8468122,23.8764507 19.7085158,27.9713374 C19.4332364,28.9616226 19.2764218,29.6257334 18.8435035,31.5571831 C17.6231305,37.0018348 16.6732596,39.3188827 14.1023475,41.6771271 C10.97827,44.5427788 9.13060172,45.2704667 5.43875827,45.8019104 C3.77213836,46.0418216 2.9677969,46.2400155 2.00508729,46.7564525 C1.38431548,47.08946 0.79835928,47.5312473 0.2233358,48.1101141 C0.00830855804,48.3265785 0.00708901382,48.678773 0.220611871,48.8967626 C0.434134729,49.1147521 0.781543226,49.1159885 0.996570468,48.899524 C1.49614298,48.3966125 1.99493036,48.020547 2.51833958,47.7397688 C3.33673771,47.3007464 4.04528046,47.1261578 5.59303248,46.9033577 C9.48338228,46.3433389 11.5294078,45.5375297 14.8386164,42.5020611 C17.6271422,39.9442041 18.64609,37.4586548 19.9136028,31.8036911 C20.3421116,29.891914 20.4964559,29.2382649 20.7647535,28.2730959 C21.8491337,24.3721663 23.4136784,21.5607539 26.2845498,19.0392949 C31.6985266,14.2842508 33.8112966,12.263927 35.6260754,9.92425792 C37.7477877,7.18888049 38.9106689,4.4689264 39.5510987,0.714533104 C39.6027362,0.411818892 39.402533,0.123983443 39.1039324,0.0716346354 C38.8053318,0.0192858279 38.5214078,0.22224709 38.4697704,0.524961302 C37.8597559,4.10105085 36.770265,6.64934652 34.7634501,9.23659469 Z"/><path id="Path-153" d="M36.5143164,10.6124705 C36.2331248,11.172104 35.9377534,11.7198442 35.594675,12.3266239 C35.4126605,12.6485407 34.8669136,13.5934521 34.8083093,13.6963916 C32.6170876,17.5453111 32.2133895,19.5878612 32.7515226,22.7883831 C33.0945364,24.8284422 33.0945364,26.0657526 32.910249,26.6754552 C32.8907418,26.7399937 32.8733864,26.7813488 32.8610838,26.8030726 C32.8655852,26.795124 32.8805886,26.7752441 32.9081777,26.7478078 C32.6918505,26.9629369 32.6885093,27.3151173 32.9007149,27.5344248 C33.1129206,27.7537322 33.4603152,27.7571195 33.6766424,27.5419904 C33.7812411,27.437971 33.8804794,27.2627375 33.9594738,27.0013898 C34.2025404,26.1972201 34.2025404,24.7975034 33.8332975,22.6014483 C33.3395506,19.6649108 33.6916617,17.8833698 35.7587484,14.2524957 C35.814729,14.1541648 36.361595,13.2073157 36.5467394,12.8798632 C36.898161,12.2583276 37.2018977,11.6950746 37.4921453,11.1174175 C39.279448,7.5602893 40.1608847,4.20364825 39.7829274,0.786872176 C39.7491564,0.481578593 39.4776534,0.261843205 39.1765085,0.296079449 C38.8753637,0.330315693 38.6586143,0.605559 38.6923853,0.910852583 C39.0422615,4.07377192 38.2130044,7.23170501 36.5143164,10.6124705 Z"/></g><path id="balloon-2" fill="#AD0B00" d="M39.4238064,50.9261416 C37.4952151,51.4722072 25.6159877,37.9191424 21.0628741,28.4033812 C16.5097606,18.8876201 16.3187792,3.45972132 27.9063409,0.834109704 C39.4939025,-1.79150191 43.3385288,9.06744379 45.4836373,9.06410602 C47.6287458,9.06076825 56.2240912,-0.731039659 65.6702599,5.67374862 C75.1164285,12.0785369 70.8636734,26.4430827 63.8067696,35.4305261 C56.7498658,44.4179694 41.7409779,50.2700526 39.4238064,50.9261416 L39.4238064,50.9261416 Z"/></g><g id="balloon-logo-5" transform="translate(121.680456, 0.006135)"><g id="strings-3" fill="#000" transform="translate(0.000000, 29.777482)"><path id="Path-152" d="M16.3059166,11.8369569 C14.4785552,13.4516819 13.407273,15.2806512 12.6757407,17.9282734 C12.5124874,18.5191331 12.4213657,18.9004314 12.1428356,20.1506489 C11.3640858,23.6461658 10.7619791,24.9700017 9.2578785,26.3580815 C7.43694502,28.0385549 6.3563321,28.5404517 3.98519208,28.8838571 C2.90092271,29.0408887 2.42182811,29.1719954 1.84195366,29.4849576 C1.44800522,29.6975743 1.08043043,29.9780057 0.723454956,30.3395549 C0.553601794,30.5115843 0.552641156,30.7906978 0.721296813,30.9639298 C0.890992446,31.13823 1.1679057,31.1392215 1.33880653,30.966131 C1.63541751,30.6657197 1.93385768,30.4374949 2.25091223,30.2663784 C2.72488922,30.0105697 3.13050435,29.9015167 4.10822776,29.7599159 C6.65231665,29.3914628 7.8877438,28.8182793 9.84393215,27.0129841 C11.5062345,25.4789057 12.1720819,24.0296085 12.9927506,20.3459331 C13.2674499,19.1129106 13.3565625,18.739822 13.5147348,18.1673517 C14.200942,15.6837738 15.1849508,14.0005186 16.8779276,12.5045409 C20.3204053,9.46263859 21.5448257,8.2650644 22.6327451,6.85394607 C23.948951,5.14672189 24.6687654,3.44868833 25.0644761,1.11478976 C25.1051992,0.874605403 24.9468889,0.645614476 24.709659,0.603771596 C24.4719289,0.561840492 24.2465223,0.723951899 24.2057167,0.964623109 C23.8342328,3.15563216 23.1728771,4.71786088 21.9466218,6.30841201 C20.9024497,7.6627866 19.6967464,8.84069257 16.3059166,11.8369569 Z"/><path id="Path-153" d="M22.4496998,8.23123153 C22.4075463,8.30623948 22.3318592,8.43917203 22.226241,8.62394213 C22.1776272,8.70898581 21.9784143,9.05698139 21.9664797,9.07807242 C20.6330286,11.4345621 20.3497011,12.7245224 20.6907918,14.765494 C20.8848788,15.9268451 20.9096214,16.7305077 20.7911754,17.1247643 C20.7821865,17.1546845 20.7739645,17.1756968 20.7694522,17.1837131 L20.9409882,17.2803391 C20.9395472,17.2828992 20.8145614,17.1282284 20.8145614,17.1282284 C20.6436731,17.2992048 20.6410413,17.5783073 20.8086487,17.7525785 C20.9772892,17.9279238 21.254191,17.9306402 21.4261334,17.7586091 C21.5070891,17.6776117 21.5740645,17.5513647 21.624643,17.3830102 C21.7881652,16.8387144 21.7684037,15.9248515 21.5499029,14.6174167 C21.2440473,12.7872802 21.4864606,11.7024725 22.7220125,9.51899134 C22.7327446,9.50002544 22.9284701,9.15813783 22.981278,9.06575094 C23.0877588,8.879459 23.1635944,8.74624938 23.2065162,8.66987425 C23.4307098,8.27094412 23.6161177,7.92364356 23.7898895,7.57569375 C24.9553958,5.24195608 25.4321006,3.17259402 25.2077722,1.13229482 C25.1810979,0.889687488 24.9656992,0.7142977 24.725997,0.741714614 C24.4866279,0.76909344 24.3151186,0.988213613 24.3417574,1.23049735 C24.5455723,3.0842235 24.101214,4.9959006 23.0127318,7.17540992 C22.8457402,7.5097835 22.6668754,7.84478924 22.4496998,8.23123153 Z"/></g><path id="balloon-2" fill="#AD0B00" d="M24.8891874,31.4937981 C23.703723,31.8314966 16.4018125,23.4499959 13.6031097,17.5652489 C10.8044069,11.6805019 10.6870147,2.1395645 17.8096443,0.515831001 C24.9322739,-1.1079025 27.2954846,5.60749813 28.6140375,5.60543399 C29.9325905,5.60336984 35.2159679,-0.452090316 41.0223285,3.50876559 C46.828689,7.4696215 44.2146102,16.3529591 39.8768803,21.9109832 C35.5391504,27.4690074 26.3135038,31.0880589 24.8891874,31.4937981 L24.8891874,31.4937981 Z"/></g><g id="balloon-logo-6" transform="translate(310.539230, 124.343558)"><g id="strings-3" fill="#000" transform="translate(0.000000, 29.777482)"><path id="Path-152" d="M16.3059166,11.8369569 C14.4785552,13.4516819 13.407273,15.2806512 12.6757407,17.9282734 C12.5124874,18.5191331 12.4213657,18.9004314 12.1428356,20.1506489 C11.3640858,23.6461658 10.7619791,24.9700017 9.2578785,26.3580815 C7.43694502,28.0385549 6.3563321,28.5404517 3.98519208,28.8838571 C2.90092271,29.0408887 2.42182811,29.1719954 1.84195366,29.4849576 C1.44800522,29.6975743 1.08043043,29.9780057 0.723454956,30.3395549 C0.553601794,30.5115843 0.552641156,30.7906978 0.721296813,30.9639298 C0.890992446,31.13823 1.1679057,31.1392215 1.33880653,30.966131 C1.63541751,30.6657197 1.93385768,30.4374949 2.25091223,30.2663784 C2.72488922,30.0105697 3.13050435,29.9015167 4.10822776,29.7599159 C6.65231665,29.3914628 7.8877438,28.8182793 9.84393215,27.0129841 C11.5062345,25.4789057 12.1720819,24.0296085 12.9927506,20.3459331 C13.2674499,19.1129106 13.3565625,18.739822 13.5147348,18.1673517 C14.200942,15.6837738 15.1849508,14.0005186 16.8779276,12.5045409 C20.3204053,9.46263859 21.5448257,8.2650644 22.6327451,6.85394607 C23.948951,5.14672189 24.6687654,3.44868833 25.0644761,1.11478976 C25.1051992,0.874605403 24.9468889,0.645614476 24.709659,0.603771596 C24.4719289,0.561840492 24.2465223,0.723951899 24.2057167,0.964623109 C23.8342328,3.15563216 23.1728771,4.71786088 21.9466218,6.30841201 C20.9024497,7.6627866 19.6967464,8.84069257 16.3059166,11.8369569 Z"/><path id="Path-153" d="M22.4496998,8.23123153 C22.4075463,8.30623948 22.3318592,8.43917203 22.226241,8.62394213 C22.1776272,8.70898581 21.9784143,9.05698139 21.9664797,9.07807242 C20.6330286,11.4345621 20.3497011,12.7245224 20.6907918,14.765494 C20.8848788,15.9268451 20.9096214,16.7305077 20.7911754,17.1247643 C20.7821865,17.1546845 20.7739645,17.1756968 20.7694522,17.1837131 L20.9409882,17.2803391 C20.9395472,17.2828992 20.8145614,17.1282284 20.8145614,17.1282284 C20.6436731,17.2992048 20.6410413,17.5783073 20.8086487,17.7525785 C20.9772892,17.9279238 21.254191,17.9306402 21.4261334,17.7586091 C21.5070891,17.6776117 21.5740645,17.5513647 21.624643,17.3830102 C21.7881652,16.8387144 21.7684037,15.9248515 21.5499029,14.6174167 C21.2440473,12.7872802 21.4864606,11.7024725 22.7220125,9.51899134 C22.7327446,9.50002544 22.9284701,9.15813783 22.981278,9.06575094 C23.0877588,8.879459 23.1635944,8.74624938 23.2065162,8.66987425 C23.4307098,8.27094412 23.6161177,7.92364356 23.7898895,7.57569375 C24.9553958,5.24195608 25.4321006,3.17259402 25.2077722,1.13229482 C25.1810979,0.889687488 24.9656992,0.7142977 24.725997,0.741714614 C24.4866279,0.76909344 24.3151186,0.988213613 24.3417574,1.23049735 C24.5455723,3.0842235 24.101214,4.9959006 23.0127318,7.17540992 C22.8457402,7.5097835 22.6668754,7.84478924 22.4496998,8.23123153 Z"/></g><path id="balloon-2" fill="#AD0B00" d="M24.8891874,31.4937981 C23.703723,31.8314966 16.4018125,23.4499959 13.6031097,17.5652489 C10.8044069,11.6805019 10.6870147,2.1395645 17.8096443,0.515831001 C24.9322739,-1.1079025 27.2954846,5.60749813 28.6140375,5.60543399 C29.9325905,5.60336984 35.2159679,-0.452090316 41.0223285,3.50876559 C46.828689,7.4696215 44.2146102,16.3529591 39.8768803,21.9109832 C35.5391504,27.4690074 26.3135038,31.0880589 24.8891874,31.4937981 L24.8891874,31.4937981 Z"/></g><g id="balloon-logo-7" transform="translate(322.165478, 18.000000)"><g id="strings-3" fill="#000" transform="translate(0.000000, 24.761430)"><path id="Path-152" d="M13.7038732,10.0166937 C12.1690953,11.3803524 11.268927,12.9256504 10.6551343,15.1593781 C10.5184173,15.6569217 10.442103,15.9780175 10.2091399,17.0294626 C9.56017417,19.9584752 9.06064288,21.062832 7.81219452,22.221327 C6.29761844,23.6267746 5.40364543,24.0442728 3.43152402,24.331463 C2.52002523,24.4642 2.11446908,24.575794 1.62376113,24.8420915 C1.29008243,25.0231723 0.978992895,25.2618173 0.677320095,25.5690385 C0.516942309,25.732366 0.51603728,25.9967709 0.675277464,26.161233 C0.836292003,26.3275277 1.09966614,26.3284759 1.26183158,26.1633279 C1.50645136,25.914209 1.7520381,25.725368 2.01261214,25.5839596 C2.40264202,25.3722981 2.73664357,25.2820043 3.54859583,25.1637637 C5.68471886,24.8526908 6.72654166,24.3666683 8.3689684,22.8425819 C9.76699887,21.5452826 10.3273178,20.3189619 11.0151787,17.2144016 C11.244616,16.1788697 11.3189464,15.8659555 11.4508828,15.3858095 C12.0220694,13.3071351 12.8397659,11.9006693 14.2473476,10.6500251 C17.1268854,8.09153985 18.1518807,7.08349522 19.0636465,5.89434698 C20.1686918,4.45311851 20.7734277,3.01869469 21.1054488,1.04964825 C21.1438513,0.821903015 20.994246,0.604311283 20.7692095,0.564400422 C20.5433137,0.524337172 20.3296206,0.678870969 20.2910782,0.90744609 C19.9818609,2.74125456 19.4321819,4.04683831 18.4121903,5.37713748 C17.5419182,6.5121686 16.5357457,7.50055933 13.7038732,10.0166937 Z"/><path id="Path-153" d="M18.8288258,6.99897211 C18.7936708,7.0618715 18.7304448,7.17352987 18.6422271,7.32870952 C18.601683,7.40002703 18.4350539,7.69270702 18.4250098,7.71055499 C17.3053848,9.7000693 17.0661961,10.7950697 17.3532119,12.5219371 C17.5143134,13.4912244 17.5348102,14.1606483 17.4384788,14.4830612 C17.4318933,14.5051023 17.4262135,14.5196976 17.4244559,14.5228372 L17.6534722,14.6511349 C17.6460365,14.6623347 17.5631591,14.5582629 17.5631591,14.5582629 L17.4700959,14.4656906 C17.3087346,14.6280245 17.3062551,14.8924193 17.4644996,15.0578618 C17.6245066,15.2251469 17.8878698,15.2277447 18.0510299,15.0636011 C18.1250431,14.9891417 18.1846432,14.8761781 18.229019,14.7276562 C18.3682987,14.2614991 18.3516461,13.4871624 18.1679138,12.3817139 C17.9142106,10.8552765 18.1144136,9.95442593 19.1420362,8.12839489 C19.1509371,8.11257853 19.3144113,7.82545333 19.3586328,7.7476621 C19.4476913,7.59099271 19.5111119,7.47897698 19.547064,7.41465138 C19.7348138,7.07872885 19.890145,6.78616417 20.0357579,6.49299148 C21.0137246,4.52398361 21.4142044,2.77593474 21.2256035,1.05113226 C21.200418,0.820804779 20.9963249,0.653705028 20.7685962,0.679895922 C20.5414397,0.706021011 20.379274,0.914345265 20.4043992,1.14412128 C20.5736448,2.69191559 20.2042934,4.28965907 19.2983213,6.11371534 C19.1591176,6.39398383 19.0099818,6.67484712 18.8288258,6.99897211 Z"/></g><path id="balloon-2" fill="#AD0B00" d="M20.9106381,26.468192 C19.9198022,26.7520024 13.8167129,19.7079753 11.4774986,14.7622837 C9.13828426,9.81659201 9.04016539,1.79814463 14.9934081,0.433517544 C20.9466507,-0.931109545 22.9218716,4.7126846 24.0239457,4.71094984 C25.1260198,4.70921508 29.5419771,-0.379948244 34.3950545,2.94885619 C39.248132,6.27766062 37.0632303,13.7434443 33.437665,18.4145497 C29.8120998,23.0856551 22.1011115,26.1271984 20.9106381,26.468192 L20.9106381,26.468192 Z"/></g><g id="balloon-logo-8" transform="translate(83.807418, 109.631902)"><g id="strings-3" fill="#000" transform="translate(0.000000, 24.761430)"><path id="Path-152" d="M13.7038732,10.0166937 C12.1690953,11.3803524 11.268927,12.9256504 10.6551343,15.1593781 C10.5184173,15.6569217 10.442103,15.9780175 10.2091399,17.0294626 C9.56017417,19.9584752 9.06064288,21.062832 7.81219452,22.221327 C6.29761844,23.6267746 5.40364543,24.0442728 3.43152402,24.331463 C2.52002523,24.4642 2.11446908,24.575794 1.62376113,24.8420915 C1.29008243,25.0231723 0.978992895,25.2618173 0.677320095,25.5690385 C0.516942309,25.732366 0.51603728,25.9967709 0.675277464,26.161233 C0.836292003,26.3275277 1.09966614,26.3284759 1.26183158,26.1633279 C1.50645136,25.914209 1.7520381,25.725368 2.01261214,25.5839596 C2.40264202,25.3722981 2.73664357,25.2820043 3.54859583,25.1637637 C5.68471886,24.8526908 6.72654166,24.3666683 8.3689684,22.8425819 C9.76699887,21.5452826 10.3273178,20.3189619 11.0151787,17.2144016 C11.244616,16.1788697 11.3189464,15.8659555 11.4508828,15.3858095 C12.0220694,13.3071351 12.8397659,11.9006693 14.2473476,10.6500251 C17.1268854,8.09153985 18.1518807,7.08349522 19.0636465,5.89434698 C20.1686918,4.45311851 20.7734277,3.01869469 21.1054488,1.04964825 C21.1438513,0.821903015 20.994246,0.604311283 20.7692095,0.564400422 C20.5433137,0.524337172 20.3296206,0.678870969 20.2910782,0.90744609 C19.9818609,2.74125456 19.4321819,4.04683831 18.4121903,5.37713748 C17.5419182,6.5121686 16.5357457,7.50055933 13.7038732,10.0166937 Z"/><path id="Path-153" d="M18.8288258,6.99897211 C18.7936708,7.0618715 18.7304448,7.17352987 18.6422271,7.32870952 C18.601683,7.40002703 18.4350539,7.69270702 18.4250098,7.71055499 C17.3053848,9.7000693 17.0661961,10.7950697 17.3532119,12.5219371 C17.5143134,13.4912244 17.5348102,14.1606483 17.4384788,14.4830612 C17.4318933,14.5051023 17.4262135,14.5196976 17.4244559,14.5228372 L17.6534722,14.6511349 C17.6460365,14.6623347 17.5631591,14.5582629 17.5631591,14.5582629 L17.4700959,14.4656906 C17.3087346,14.6280245 17.3062551,14.8924193 17.4644996,15.0578618 C17.6245066,15.2251469 17.8878698,15.2277447 18.0510299,15.0636011 C18.1250431,14.9891417 18.1846432,14.8761781 18.229019,14.7276562 C18.3682987,14.2614991 18.3516461,13.4871624 18.1679138,12.3817139 C17.9142106,10.8552765 18.1144136,9.95442593 19.1420362,8.12839489 C19.1509371,8.11257853 19.3144113,7.82545333 19.3586328,7.7476621 C19.4476913,7.59099271 19.5111119,7.47897698 19.547064,7.41465138 C19.7348138,7.07872885 19.890145,6.78616417 20.0357579,6.49299148 C21.0137246,4.52398361 21.4142044,2.77593474 21.2256035,1.05113226 C21.200418,0.820804779 20.9963249,0.653705028 20.7685962,0.679895922 C20.5414397,0.706021011 20.379274,0.914345265 20.4043992,1.14412128 C20.5736448,2.69191559 20.2042934,4.28965907 19.2983213,6.11371534 C19.1591176,6.39398383 19.0099818,6.67484712 18.8288258,6.99897211 Z"/></g><path id="balloon-2" fill="#AD0B00" d="M20.9106381,26.468192 C19.9198022,26.7520024 13.8167129,19.7079753 11.4774986,14.7622837 C9.13828426,9.81659201 9.04016539,1.79814463 14.9934081,0.433517544 C20.9466507,-0.931109545 22.9218716,4.7126846 24.0239457,4.71094984 C25.1260198,4.70921508 29.5419771,-0.379948244 34.3950545,2.94885619 C39.248132,6.27766062 37.0632303,13.7434443 33.437665,18.4145497 C29.8120998,23.0856551 22.1011115,26.1271984 20.9106381,26.468192 L20.9106381,26.468192 Z"/></g><g id="balloon-logo-9" transform="translate(433.751783, 28.233129)"><g id="strings-3" fill="#000" transform="translate(0.000000, 16.401344)"><path id="Path-152" d="M9.71742926,7.02272205 C8.64221087,7.96038533 8.01108525,9.02377991 7.58149788,10.5582206 C7.48603882,10.8991903 7.43275033,11.1192561 7.27035891,11.8386266 C6.82013153,13.8330688 6.47560373,14.5806546 5.61364485,15.3657098 C4.56485928,16.3209231 3.94953121,16.6029738 2.58362002,16.7982046 C1.94478844,16.8895134 1.65841782,16.9668541 1.31194127,17.1514015 C1.0760048,17.2770708 0.856188482,17.442578 0.643350633,17.6553204 C0.515364903,17.7832487 0.514640204,17.991053 0.641726519,18.1198786 C0.769260084,18.2491576 0.97710425,18.249892 1.10554043,18.1215135 C1.27316599,17.9539631 1.44104,17.8272665 1.61894341,17.7325079 C1.88576523,17.5903878 2.11452294,17.5296897 2.67594531,17.4494451 C4.17112801,17.2357374 4.90394387,16.9001949 6.05378976,15.8529379 C7.034856,14.959402 7.42849611,14.1138152 7.90927346,11.9840411 C8.06891061,11.2768716 8.12053628,11.0635598 8.21217447,10.7362379 C8.60784323,9.32295084 9.17309573,8.36868451 10.1470099,7.51936534 C12.1543,5.76887241 12.8694737,5.07853807 13.5065598,4.26300609 C14.2805029,3.272284 14.7044624,2.28526352 14.9368608,0.932526276 C14.9675664,0.753796023 14.848332,0.583585263 14.6700197,0.552546142 C14.4914958,0.521470181 14.3220155,0.641763733 14.2912739,0.820703857 C14.0770944,2.0673929 13.6970828,2.95328846 12.991094,3.85702236 C12.3871257,4.63016034 11.687719,5.30449592 9.71742926,7.02272205 Z"/><path id="Path-153" d="M13.2778783,4.97065298 C13.2534645,5.01352612 13.209463,5.08979595 13.1480791,5.19577584 C13.0436746,5.37583725 13.0436746,5.37583725 12.996711,5.45694342 C12.2123444,6.82493569 12.0435685,7.58329352 12.2452425,8.77424249 C12.3563983,9.43065234 12.3705012,9.88273257 12.3058834,10.0950018 C12.3021402,10.1072983 12.5278324,10.2436491 12.5278324,10.2436491 C12.5182515,10.2578181 12.430691,10.1589524 12.430691,10.1589524 L12.3384958,10.0655149 C12.2097328,10.1926576 12.2077473,10.4004538 12.3340462,10.5300547 C12.4607895,10.6601116 12.6686253,10.6621237 12.7978415,10.5345336 C12.8548625,10.4782301 12.8996014,10.3950026 12.9323916,10.2872871 C13.0318007,9.9607288 13.0200767,9.42565463 12.8910948,8.66397577 C12.7162081,7.63121424 12.8534065,7.0252852 13.5644636,5.78514999 C13.6104796,5.70569928 13.6104796,5.70569928 13.7152163,5.52506087 C13.7772921,5.41787898 13.8214917,5.34125641 13.8465983,5.29716669 C13.9776769,5.06697921 14.0861781,4.86639907 14.1879189,4.66534704 C14.8724796,3.31257224 15.1532698,2.10962938 15.0208974,0.921446676 C15.0007978,0.741031264 14.8387946,0.610846264 14.6587723,0.631167447 C14.4788909,0.651472733 14.3497523,0.814299975 14.3698363,0.994575818 C14.4866742,2.04331984 14.2313433,3.12739846 13.6038682,4.36736504 C13.5072548,4.55828473 13.4037165,4.74966832 13.2778783,4.97065298 Z"/></g><path id="balloon-2" fill="#AD0B00" d="M14.761971,18.0921819 C14.0719246,18.2861789 9.82155882,13.4712743 8.19246314,10.0906749 C6.56336747,6.71007555 6.49503468,1.22911152 10.641043,0.296328448 C14.7870513,-0.636454626 16.1626515,3.22132871 16.9301674,3.22014293 C17.6976833,3.21895714 20.7730821,-0.259711458 24.1529039,2.01567385 C27.5327257,4.29105916 26.0110978,9.39425308 23.4861505,12.5871606 C20.9612033,15.7800681 15.5910507,17.8590976 14.761971,18.0921819 L14.761971,18.0921819 Z"/></g><g id="balloon-logo-10" transform="translate(12.467903, 43.987730)"><g id="strings-3" fill="#000" transform="translate(0.000000, 16.401344)"><path id="Path-152" d="M9.71742926,7.02272205 C8.64221087,7.96038533 8.01108525,9.02377991 7.58149788,10.5582206 C7.48603882,10.8991903 7.43275033,11.1192561 7.27035891,11.8386266 C6.82013153,13.8330688 6.47560373,14.5806546 5.61364485,15.3657098 C4.56485928,16.3209231 3.94953121,16.6029738 2.58362002,16.7982046 C1.94478844,16.8895134 1.65841782,16.9668541 1.31194127,17.1514015 C1.0760048,17.2770708 0.856188482,17.442578 0.643350633,17.6553204 C0.515364903,17.7832487 0.514640204,17.991053 0.641726519,18.1198786 C0.769260084,18.2491576 0.97710425,18.249892 1.10554043,18.1215135 C1.27316599,17.9539631 1.44104,17.8272665 1.61894341,17.7325079 C1.88576523,17.5903878 2.11452294,17.5296897 2.67594531,17.4494451 C4.17112801,17.2357374 4.90394387,16.9001949 6.05378976,15.8529379 C7.034856,14.959402 7.42849611,14.1138152 7.90927346,11.9840411 C8.06891061,11.2768716 8.12053628,11.0635598 8.21217447,10.7362379 C8.60784323,9.32295084 9.17309573,8.36868451 10.1470099,7.51936534 C12.1543,5.76887241 12.8694737,5.07853807 13.5065598,4.26300609 C14.2805029,3.272284 14.7044624,2.28526352 14.9368608,0.932526276 C14.9675664,0.753796023 14.848332,0.583585263 14.6700197,0.552546142 C14.4914958,0.521470181 14.3220155,0.641763733 14.2912739,0.820703857 C14.0770944,2.0673929 13.6970828,2.95328846 12.991094,3.85702236 C12.3871257,4.63016034 11.687719,5.30449592 9.71742926,7.02272205 Z"/><path id="Path-153" d="M13.2778783,4.97065298 C13.2534645,5.01352612 13.209463,5.08979595 13.1480791,5.19577584 C13.0436746,5.37583725 13.0436746,5.37583725 12.996711,5.45694342 C12.2123444,6.82493569 12.0435685,7.58329352 12.2452425,8.77424249 C12.3563983,9.43065234 12.3705012,9.88273257 12.3058834,10.0950018 C12.3021402,10.1072983 12.5278324,10.2436491 12.5278324,10.2436491 C12.5182515,10.2578181 12.430691,10.1589524 12.430691,10.1589524 L12.3384958,10.0655149 C12.2097328,10.1926576 12.2077473,10.4004538 12.3340462,10.5300547 C12.4607895,10.6601116 12.6686253,10.6621237 12.7978415,10.5345336 C12.8548625,10.4782301 12.8996014,10.3950026 12.9323916,10.2872871 C13.0318007,9.9607288 13.0200767,9.42565463 12.8910948,8.66397577 C12.7162081,7.63121424 12.8534065,7.0252852 13.5644636,5.78514999 C13.6104796,5.70569928 13.6104796,5.70569928 13.7152163,5.52506087 C13.7772921,5.41787898 13.8214917,5.34125641 13.8465983,5.29716669 C13.9776769,5.06697921 14.0861781,4.86639907 14.1879189,4.66534704 C14.8724796,3.31257224 15.1532698,2.10962938 15.0208974,0.921446676 C15.0007978,0.741031264 14.8387946,0.610846264 14.6587723,0.631167447 C14.4788909,0.651472733 14.3497523,0.814299975 14.3698363,0.994575818 C14.4866742,2.04331984 14.2313433,3.12739846 13.6038682,4.36736504 C13.5072548,4.55828473 13.4037165,4.74966832 13.2778783,4.97065298 Z"/></g><path id="balloon-2" fill="#AD0B00" d="M14.761971,18.0921819 C14.0719246,18.2861789 9.82155882,13.4712743 8.19246314,10.0906749 C6.56336747,6.71007555 6.49503468,1.22911152 10.641043,0.296328448 C14.7870513,-0.636454626 16.1626515,3.22132871 16.9301674,3.22014293 C17.6976833,3.21895714 20.7730821,-0.259711458 24.1529039,2.01567385 C27.5327257,4.29105916 26.0110978,9.39425308 23.4861505,12.5871606 C20.9612033,15.7800681 15.5910507,17.8590976 14.761971,18.0921819 L14.761971,18.0921819 Z"/></g><g id="balloon-logo-11" transform="translate(435.064194, 135.233129)"><g id="strings-3" fill="#000" transform="translate(0.000000, 11.719696)"><path id="Path-152" d="M7.37211371,5.34638388 C6.567328,6.04552255 6.09457688,6.83901727 5.77341257,7.98178696 C5.70223232,8.23506117 5.66249392,8.39854036 5.54162105,8.93193818 C5.20824531,10.4030862 4.95478611,10.9509564 4.32003708,11.5268584 C3.54524859,12.2298168 3.09391045,12.435906 2.08472108,12.5795977 C1.60620585,12.6477302 1.38986609,12.7059337 1.12817266,12.8447881 C0.949720998,12.9394745 0.783602657,13.0640715 0.623039474,13.2239477 C0.514544443,13.3319786 0.513929559,13.5076182 0.621663998,13.6164086 C0.729569644,13.725372 0.905266132,13.7259904 1.01393359,13.6177879 C1.1362871,13.4959578 1.2584558,13.4041088 1.38771872,13.335522 C1.58200527,13.2324336 1.74877694,13.1883523 2.16275335,13.129409 C3.28103975,12.9701837 3.83216815,12.7187994 4.69226323,11.938443 C5.42792082,11.2709877 5.72340365,10.6386866 6.0823135,9.05485952 C6.20089755,8.531562 6.23917301,8.3740178 6.3071158,8.13226314 C6.59960568,7.09152306 7.01647575,6.39045421 7.73539514,5.76590989 C9.22957381,4.46787729 9.76248704,3.95544404 10.2379618,3.34912232 C10.8170243,2.61070626 11.1345514,1.87430356 11.3083053,0.866797077 C11.3343484,0.715787307 11.2333054,0.572098046 11.0824193,0.545933676 C10.9314526,0.519755323 10.7880084,0.62117893 10.7619514,0.772269097 C10.6036338,1.69026875 10.3233332,2.34121096 9.80193746,3.00609075 C9.35458301,3.57655367 8.83561474,4.07500176 7.37211371,5.34638388 Z"/><path id="Path-153" d="M10.0124193,3.8351176 C9.99432188,3.86677673 9.97319001,3.90326528 9.91602734,4.00165781 C9.83842025,4.13499002 9.83842025,4.13499002 9.80339655,4.1952449 C9.21639937,5.21508812 9.08912969,5.78475571 9.24052958,6.67539444 C9.32234777,7.15670556 9.33269699,7.48718553 9.28663553,7.63791739 C9.28453498,7.64479124 9.51294631,7.77513355 9.51294631,7.77513355 C9.50220817,7.79095458 9.50220817,7.79095458 9.5036079,7.78895278 L9.41159215,7.69533851 L9.3195764,7.60172424 C9.21042406,7.70909001 9.20873946,7.88472264 9.31580799,7.99416947 C9.42304664,8.10379018 9.59873604,8.10548457 9.70806182,7.99794819 C9.75498363,7.95179437 9.79088571,7.88526179 9.81680248,7.80045158 C9.89266213,7.55220792 9.88384267,7.15123788 9.78710863,6.58218146 C9.65851096,5.82568108 9.75873602,5.38473892 10.2837361,4.47260889 C10.3178505,4.41393368 10.3178505,4.41393368 10.3957595,4.28007936 C10.4534264,4.18081247 10.4748539,4.14380888 10.4935789,4.11105194 C10.5913122,3.94007978 10.6722569,3.79101513 10.7481806,3.6415557 C11.2600256,2.63396344 11.4703359,1.73641774 11.3710814,0.848916368 C11.3540422,0.696557726 11.2168973,0.58677097 11.0646529,0.603890698 C10.9124622,0.621004394 10.8030492,0.758431575 10.8200824,0.910736741 C10.9061346,1.68018766 10.7178,2.47675101 10.2540229,3.38971932 C10.1824527,3.53060873 10.1057268,3.67188782 10.0124193,3.8351176 Z"/></g><path id="balloon-2" fill="#AD0B00" d="M11.1451081,13.4016162 C10.6319966,13.5453177 7.4714682,9.97872167 6.26008937,7.474574 C5.04871053,4.97042633 4.99789898,0.910452978 8.08082822,0.219502554 C11.1637575,-0.471447871 12.1866397,2.38616942 12.7573566,2.38529106 C13.3280736,2.3844127 15.6149086,-0.192378858 18.1281094,1.49309174 C20.6413103,3.17856234 19.5098433,6.95870598 17.6323184,9.32382265 C15.7547936,11.6889393 11.7616032,13.2289612 11.1451081,13.4016162 L11.1451081,13.4016162 Z"/></g><g id="balloon-logo-12" transform="translate(0.000000, 166.085890)"><g id="strings-3" fill="#000" transform="translate(0.000000, 11.719696)"><path id="Path-152" d="M7.37211371,5.34638388 C6.567328,6.04552255 6.09457688,6.83901727 5.77341257,7.98178696 C5.70223232,8.23506117 5.66249392,8.39854036 5.54162105,8.93193818 C5.20824531,10.4030862 4.95478611,10.9509564 4.32003708,11.5268584 C3.54524859,12.2298168 3.09391045,12.435906 2.08472108,12.5795977 C1.60620585,12.6477302 1.38986609,12.7059337 1.12817266,12.8447881 C0.949720998,12.9394745 0.783602657,13.0640715 0.623039474,13.2239477 C0.514544443,13.3319786 0.513929559,13.5076182 0.621663998,13.6164086 C0.729569644,13.725372 0.905266132,13.7259904 1.01393359,13.6177879 C1.1362871,13.4959578 1.2584558,13.4041088 1.38771872,13.335522 C1.58200527,13.2324336 1.74877694,13.1883523 2.16275335,13.129409 C3.28103975,12.9701837 3.83216815,12.7187994 4.69226323,11.938443 C5.42792082,11.2709877 5.72340365,10.6386866 6.0823135,9.05485952 C6.20089755,8.531562 6.23917301,8.3740178 6.3071158,8.13226314 C6.59960568,7.09152306 7.01647575,6.39045421 7.73539514,5.76590989 C9.22957381,4.46787729 9.76248704,3.95544404 10.2379618,3.34912232 C10.8170243,2.61070626 11.1345514,1.87430356 11.3083053,0.866797077 C11.3343484,0.715787307 11.2333054,0.572098046 11.0824193,0.545933676 C10.9314526,0.519755323 10.7880084,0.62117893 10.7619514,0.772269097 C10.6036338,1.69026875 10.3233332,2.34121096 9.80193746,3.00609075 C9.35458301,3.57655367 8.83561474,4.07500176 7.37211371,5.34638388 Z"/><path id="Path-153" d="M10.0124193,3.8351176 C9.99432188,3.86677673 9.97319001,3.90326528 9.91602734,4.00165781 C9.83842025,4.13499002 9.83842025,4.13499002 9.80339655,4.1952449 C9.21639937,5.21508812 9.08912969,5.78475571 9.24052958,6.67539444 C9.32234777,7.15670556 9.33269699,7.48718553 9.28663553,7.63791739 C9.28453498,7.64479124 9.51294631,7.77513355 9.51294631,7.77513355 C9.50220817,7.79095458 9.50220817,7.79095458 9.5036079,7.78895278 L9.41159215,7.69533851 L9.3195764,7.60172424 C9.21042406,7.70909001 9.20873946,7.88472264 9.31580799,7.99416947 C9.42304664,8.10379018 9.59873604,8.10548457 9.70806182,7.99794819 C9.75498363,7.95179437 9.79088571,7.88526179 9.81680248,7.80045158 C9.89266213,7.55220792 9.88384267,7.15123788 9.78710863,6.58218146 C9.65851096,5.82568108 9.75873602,5.38473892 10.2837361,4.47260889 C10.3178505,4.41393368 10.3178505,4.41393368 10.3957595,4.28007936 C10.4534264,4.18081247 10.4748539,4.14380888 10.4935789,4.11105194 C10.5913122,3.94007978 10.6722569,3.79101513 10.7481806,3.6415557 C11.2600256,2.63396344 11.4703359,1.73641774 11.3710814,0.848916368 C11.3540422,0.696557726 11.2168973,0.58677097 11.0646529,0.603890698 C10.9124622,0.621004394 10.8030492,0.758431575 10.8200824,0.910736741 C10.9061346,1.68018766 10.7178,2.47675101 10.2540229,3.38971932 C10.1824527,3.53060873 10.1057268,3.67188782 10.0124193,3.8351176 Z"/></g><path id="balloon-2" fill="#AD0B00" d="M11.1451081,13.4016162 C10.6319966,13.5453177 7.4714682,9.97872167 6.26008937,7.474574 C5.04871053,4.97042633 4.99789898,0.910452978 8.08082822,0.219502554 C11.1637575,-0.471447871 12.1866397,2.38616942 12.7573566,2.38529106 C13.3280736,2.3844127 15.6149086,-0.192378858 18.1281094,1.49309174 C20.6413103,3.17856234 19.5098433,6.95870598 17.6323184,9.32382265 C15.7547936,11.6889393 11.7616032,13.2289612 11.1451081,13.4016162 L11.1451081,13.4016162 Z"/></g></g></g></g></svg>