<svg xmlns="http://www.w3.org/2000/svg" xmlns:xlink="http://www.w3.org/1999/xlink" width="200" height="200" version="1.1" viewBox="0 0 200 200"><title>broadcast-icon</title><desc>Created with Sketch.</desc><g id="Page-1" fill="none" fill-rule="evenodd" stroke="none" stroke-width="1"><g id="broadcast-icon" fill="#4D4D4D"><g id="Group" transform="translate(0.000000, 28.000000)"><path id="Shape" d="M149.821429,38.4926316 C148.319714,38.4926316 146.89,37.6020351 146.267714,36.1168421 C145.437143,34.1383158 146.35,31.850807 148.312,31.0095439 L188.120286,13.9454035 C190.087429,13.1067368 192.347714,14.0284912 193.178286,16.009614 C194.008857,17.9881404 193.096,20.2756491 191.134,21.1169123 L151.325714,38.1836491 C150.834571,38.3939649 150.322857,38.4926316 149.821429,38.4926316 L149.821429,38.4926316 Z"/><path id="Shape" d="M189.624571,119.199368 C189.123143,119.199368 188.611429,119.100702 188.120286,118.890386 L148.312,101.826246 C146.35,100.984982 145.437143,98.7000702 146.267714,96.7189474 C147.098286,94.7404211 149.363714,93.8160702 151.325714,94.6547368 L191.134,111.718877 C193.096,112.56014 194.008857,114.845053 193.178286,116.826175 C192.556,118.308772 191.126286,119.199368 189.624571,119.199368 L189.624571,119.199368 Z"/><path id="Shape" d="M196.366857,70.5800702 L196.323143,70.5800702 L149.775143,70.0477895 C147.643429,70.0244211 145.936,68.2614035 145.961714,66.1089123 C145.987429,63.9590175 147.820857,62.2271579 149.862571,62.2583158 L196.410571,62.7905965 C198.542286,62.8139649 200.249714,64.5769825 200.224,66.7294737 C200.198286,68.8637895 198.478,70.5800702 196.366857,70.5800702 L196.366857,70.5800702 Z"/><path id="Shape" d="M124.608571,133.851368 C123.793429,133.851368 122.978286,133.589123 122.302,133.075018 C81.7891429,102.506526 38.9337143,100.956421 30.754,100.956421 C29.692,100.956421 29.1057143,100.982386 29.0568571,100.982386 C27.4008571,101.042105 25.8554286,100.037263 25.2691429,98.456 C12.6665714,64.4082105 24.8217143,35.4599298 25.3462857,34.2447719 C25.9505714,32.8400702 27.3134286,31.9261053 28.828,31.9027368 C80.5394286,31.1523509 108.688857,10.4245614 122.219714,0.461824561 C123.397429,-0.402807018 124.950571,-0.527438596 126.238857,0.137263158 C127.532286,0.801964912 128.347429,2.14175439 128.347429,3.60877193 C128.347429,11.2554386 128.378286,41.5538947 128.406571,70.7176842 C128.434857,97.7731228 128.460571,123.852281 128.460571,129.956632 C128.460571,131.428842 127.637714,132.779018 126.331429,133.438526 C125.788857,133.713754 125.2,133.851368 124.608571,133.851368 L124.608571,133.851368 Z M31.6,93.1721404 C41.4742857,93.281193 81.4214286,95.490807 120.746286,122.400842 C120.738571,111.311228 120.718,91.3000702 120.694857,70.7254737 C120.671714,47.6764211 120.646,23.9133333 120.640857,11.1879298 C105.045143,22.1347368 77.32,38.3809825 31.5845714,39.6350877 C29.2471429,46.5703158 23.3534286,68.406807 31.6,93.1721404 L31.6,93.1721404 Z"/><path id="Shape" d="M28.8151429,100.984982 L20.6945714,100.834386 C9.01771429,100.834386 -0.182857143,85.6838596 -0.182857143,66.345193 C-0.182857143,47.0039298 9.01771429,31.8534035 20.764,31.8534035 L29.9182857,31.8534035 L29.9182857,39.6428772 L20.764,39.6428772 C14.5051429,39.6428772 7.53142857,50.6078596 7.53142857,66.345193 C7.53142857,82.0799298 14.5051429,93.0449123 20.764,93.0449123 L28.954,93.1955088 L28.8151429,100.984982 L28.8151429,100.984982 Z"/><path id="Shape" d="M50.1682857,147.898386 C43.5134286,147.898386 38.1005714,142.432772 38.1005714,135.715649 L38.1005714,93.7641404 L62.236,97.2979649 L62.236,135.713053 C62.2334286,142.430175 56.8205714,147.898386 50.1682857,147.898386 L50.1682857,147.898386 Z M45.8148571,102.766175 L45.8148571,135.713053 C45.8148571,138.138175 47.7665714,140.106316 50.1682857,140.106316 C52.57,140.106316 54.5217143,138.135579 54.5217143,135.713053 L54.5217143,104.038456 L45.8148571,102.766175 L45.8148571,102.766175 Z"/></g></g></g></svg>