<?xml version="1.0" encoding="UTF-8" standalone="no"?>
<svg width="126px" height="121px" viewBox="0 0 126 121" version="1.1" xmlns="http://www.w3.org/2000/svg" xmlns:xlink="http://www.w3.org/1999/xlink" xmlns:sketch="http://www.bohemiancoding.com/sketch/ns">
    <!-- Generator: Sketch 3.2 (9961) - http://www.bohemiancoding.com/sketch -->
    <title>celebratory-balloon-logo</title>
    <desc>Created with Sketch.</desc>
    <defs></defs>
    <g id="Page-1" stroke="none" stroke-width="1" fill="none" fill-rule="evenodd" sketch:type="MSPage">
        <g id="celebratory-balloon-logo" sketch:type="MSArtboardGroup" transform="translate(-62.000000, 0.000000)">
            <g id="icon_51454-+-balloon-+-logo-4" sketch:type="MSLayerGroup" transform="translate(62.000000, 10.000000)">
                <g id="icon_51454-+-balloon" fill="#2F2F2F" sketch:type="MSShapeGroup">
                    <g id="icon_51454" transform="translate(0.000000, 0.248702)">
                        <g id="Group">
                            <path d="M96.0626609,53.372225 L104.375298,55.8486196 L110.765084,51.082486 L104.375298,44.9812651 L96.0626609,53.372225 Z" id="Shape"></path>
                            <path d="M88.8689873,84.9669175 L81.6466704,78.5052087 L72.2521647,87.1212954 L80.5619847,92.7223929 L88.8689873,84.9669175 Z" id="Shape"></path>
                            <path d="M23.8282231,55.9951204 L28.5416758,59.8094522 L38.4348553,57.9029987 L31.8379936,53.8507165 L23.8282231,55.9951204 Z" id="Shape"></path>
                            <path d="M26.2187578,19.7525571 L19.4429935,17.5981792 L18.1371445,26.4108956 L25.4369389,27.3911946 L26.2187578,19.7525571 Z" id="Shape"></path>
                            <path d="M88.3336878,59.0086847 L85.9614659,60.2069862 L85.9614659,62.778846 L89.1803062,62.778846 L88.3336878,59.0086847 Z" id="Shape"></path>
                            <path d="M88.3336878,59.0086847 L85.9614659,60.2069862 L85.9614659,62.778846 L89.1803062,62.778846 L88.3336878,59.0086847 Z" id="Shape-2"></path>
                            <path d="M100.078639,5.80114689 L96.0878406,1.07205947 L92.0942248,2.45701668 L95.5159154,9.14670196 L100.078639,5.80114689 Z" id="Shape"></path>
                            <path d="M38.005207,31.9720973 L33.6918202,31.9720973 L32.538109,39.2431226 L38.005207,39.2431226 L38.005207,31.9720973 Z" id="Shape"></path>
                            <path d="M32.538109,78.7485995 L37.2881875,81.2378179 L40.6577568,75.8418992 L36.5866634,74.1391998 L32.538109,78.7485995 Z" id="Shape"></path>
                            <path d="M36.098256,93.2457803 L45.0814263,93.2457803 L46.4844744,88.2773176 L37.2209762,89.6964712 L36.098256,93.2457803 Z" id="Shape"></path>
                            <path d="M6.25437123,83.6700421 L9.34361266,87.6268592 L14.338802,84.9310371 L11.3073165,82.8023066 L6.25437123,83.6700421 Z" id="Shape"></path>
                            <path d="M124.149918,24.1199909 L118.534908,19.2398691 L113.198818,25.8882336 L117.689699,29.46319 L124.149918,24.1199909 Z" id="Shape"></path>
                            <path d="M113.386642,76.2679303 L123.492533,78.7485995 L124.474385,70.3034952 L114.00928,70.3034952 L113.386642,76.2679303 Z" id="Shape"></path>
                            <path d="M97.4445787,98.4215462 L102.710235,100.692762 L106.360132,96.2913908 L101.866434,94.1612355 L97.4445787,98.4215462 Z" id="Shape"></path>
                            <path d="M116.182878,46.498345 L122.983998,47.3418581 L124.97165,42.0399797 L116.91821,41.0112358 L116.182878,46.498345 L116.182878,46.498345 Z M118.12686,42.6027967 L123.022033,43.2268823 L122.059902,45.7916179 L117.770463,45.2601477 L118.12686,42.6027967 L118.12686,42.6027967 Z" id="Shape"></path>
                            <path d="M106.279312,82.2588158 C92.3178561,84.7252365 87.508613,100.850299 87.4607178,101.012732 L88.4763781,101.311951 C88.5200472,101.155218 93.1546137,85.6627898 106.46244,83.3117822 L106.279312,82.2588158 L106.279312,82.2588158 Z" id="Shape"></path>
                            <path d="M48.9675768,75.9530378 L50.0184541,75.8447489 C49.9959152,75.6267464 47.5743894,53.8706645 27.0104376,41.4544946 L26.4695034,42.3706752 C46.5643639,54.5047241 48.9464465,75.7407346 48.9675768,75.9530378 L48.9675768,75.9530378 Z" id="Shape"></path>
                            <path d="M96.0307307,46.5677742 C96.6153341,34.242795 101.20764,30.2774288 105.259012,26.7779896 C110.426061,22.3139249 114.890176,18.4582724 109.607616,0.107589362 L108.591955,0.406808512 C113.684344,18.0949348 109.663963,21.5687267 104.571575,25.9658233 C100.358204,29.606323 95.5813609,33.7312727 94.9742186,46.5164795 L96.0307307,46.5677742 L96.0307307,46.5677742 Z" id="Shape"></path>
                            <path d="M5.42237334,38.3397657 L0.177847187,41.8748263 L3.34174881,48.5759104 L11.2176945,43.7442335 L5.42237334,38.3397657 L5.42237334,38.3397657 Z M1.97532647,42.3763746 L5.28291374,40.1479043 L8.88914176,43.5091328 L3.94325637,46.542645 L1.97532647,42.3763746 L1.97532647,42.3763746 Z" id="Shape"></path>
                            <path d="M20.3073911,98.5189284 L27.6663501,100.332766 L29.6370974,94.9268738 L24.0770263,92.6442591 L20.3073911,98.5189284 L20.3073911,98.5189284 Z M27.8438442,95.7276412 L26.7802886,98.6471652 L22.5697357,97.6084473 L24.6250039,94.4053776 L27.8438442,95.7276412 L27.8438442,95.7276412 Z" id="Shape"></path>
                            <path d="M40.7929903,6.01412357 L36.2316754,4.05352571 L34.4158832,8.29958794 L38.2601786,11.4485133 L40.7929903,6.01412357 L40.7929903,6.01412357 Z M36.1316589,7.87213201 L36.9684165,5.91723356 L38.8940859,6.74507321 L37.7502354,9.19724539 L36.1316589,7.87213201 L36.1316589,7.87213201 Z" id="Shape"></path>
                            <path d="M97.9193048,71.5572364 L97.9193048,75.9343851 L103.50755,75.2062852 L102.03125,69.3202171 L97.9193048,71.5572364 L97.9193048,71.5572364 Z M99.3279877,74.315752 L99.3279877,72.4092986 L101.109971,71.4403985 L101.752331,73.9994346 L99.3279877,74.315752 L99.3279877,74.315752 Z" id="Shape"></path>
                            <path d="M9.95974071,62.7147276 L9.93156705,63.7833675 C31.8929323,64.3746815 43.8920925,74.3572023 44.0104219,74.4583669 L44.689407,73.6405012 C44.569669,73.5379118 32.3155371,63.3160157 9.95974071,62.7147276 L9.95974071,62.7147276 Z" id="Shape"></path>
                        </g>
                    </g>
                </g>
                <g id="logo-2" transform="translate(67.161602, 51.693878) rotate(-15.000000) translate(-67.161602, -51.693878) translate(41.091160, 14.918367)" sketch:type="MSShapeGroup">
                    <g id="strings-3" transform="translate(0.000000, 39.805584)" fill="#050505">
                        <path d="M24.1831779,6.36760118 C22.9620823,7.92770644 21.5120196,9.30184015 17.7849698,12.5458101 C15.6630611,14.3926886 14.5020752,16.460148 13.7102199,19.2831154 C13.5187219,19.9658065 13.4096339,20.4236368 13.1084745,21.7551558 C12.2595226,25.5086355 11.5987453,27.1059814 9.81029151,28.7317277 C7.63702841,30.7072747 6.35169886,31.2089344 3.78346968,31.5753054 C2.62408631,31.7406974 2.06454654,31.87733 1.39483804,32.2333557 C0.962998426,32.4629272 0.555378264,32.7674902 0.155363446,33.1665543 C0.00577984456,33.3157823 0.00493146918,33.5585812 0.153468546,33.7088606 C0.302005623,33.8591401 0.543680184,33.8599924 0.693263785,33.7107643 C1.04079117,33.364063 1.38777238,33.1048078 1.75188177,32.9112425 C2.32120004,32.6085856 2.81409748,32.4882262 3.89079046,32.3346304 C6.59711049,31.94856 8.02042717,31.3930445 10.3224766,29.3004277 C12.2623133,27.5370707 12.9711439,25.8235619 13.8528886,21.9250955 C14.1509805,20.6071386 14.2583501,20.1565205 14.4449912,19.4911442 C15.1993398,16.8018886 16.2877146,14.8637335 18.2848349,13.125469 C22.0510653,9.84739672 23.5208128,8.45460896 24.7832628,6.84166823 C26.2592311,4.95593078 27.0681888,3.080826 27.5137035,0.492590829 C27.5496251,0.283903164 27.4103538,0.0854727466 27.2026325,0.0493840863 C26.9949111,0.0132954259 26.7973995,0.153214564 26.761478,0.361902229 C26.3371216,2.82721686 25.5792179,4.58398232 24.1831779,6.36760118 Z" id="Path-152"></path>
                        <path d="M25.4011673,7.316114 C25.2055565,7.70191885 25.0000815,8.07952459 24.7614192,8.49783148 C24.6348009,8.71975713 24.2551523,9.37116813 24.2143843,9.44213341 C22.6900619,12.0955338 22.4092295,13.5036442 22.7835815,15.7100468 C23.0221989,17.1164399 23.0221989,17.9694273 22.8939995,18.3897492 C22.8804293,18.4342413 22.868356,18.462751 22.8597977,18.4777272 C22.8629292,18.4722475 22.8733662,18.4585425 22.8925586,18.4396283 C22.7420706,18.5879358 22.7397463,18.8307249 22.8873671,18.9819129 C23.0349879,19.1331009 23.2766528,19.135436 23.4271407,18.9871285 C23.4999048,18.9154187 23.5689398,18.7946149 23.6238922,18.6144448 C23.7929814,18.0600595 23.7929814,17.095111 23.5361178,15.5811761 C23.1926429,13.5567612 23.4375889,12.3285876 24.8755568,9.82550514 C24.9144996,9.75771697 25.2949267,9.10497014 25.4237224,8.87922824 C25.6681886,8.45074878 25.8794829,8.06244871 26.0813936,7.66421861 C27.3247298,5.2119757 27.9379009,2.89794631 27.674975,0.542460546 C27.6514823,0.331994693 27.4626113,0.180511666 27.25312,0.204113736 C27.0436287,0.227715805 26.8928471,0.417465347 26.9163399,0.627931199 C27.1597311,2.80841108 26.5828588,4.9854535 25.4011673,7.316114 Z" id="Path-153"></path>
                    </g>
                    <path d="M27.6385151,39.8203539 C26.2096684,40.2287127 17.3892747,30.0226729 14.0036167,22.8613833 C10.6179586,15.7000938 10.4587461,4.09801821 19.0444407,2.13727496 C27.6301352,0.176531723 30.4921999,8.34706273 32.0821503,8.34709416 C33.6721007,8.34712559 40.0317632,0.993825408 47.0405928,5.82144649 C54.0494223,10.6490676 50.9137208,21.4462322 45.6934304,28.1964693 C40.4731401,34.9467063 29.3552515,39.3297173 27.6385151,39.8203539 L27.6385151,39.8203539 Z" id="balloon-2" fill="#AD0B00"></path>
                </g>
            </g>
        </g>
    </g>
</svg>