<?xml version="1.0" encoding="UTF-8" standalone="no"?>
<svg width="254px" height="235px" viewBox="0 0 254 235" version="1.1" xmlns="http://www.w3.org/2000/svg" xmlns:xlink="http://www.w3.org/1999/xlink" xmlns:sketch="http://www.bohemiancoding.com/sketch/ns">
    <!-- Generator: Sketch 3.2 (9961) - http://www.bohemiancoding.com/sketch -->
    <title>celebratory-balloon-logo-large</title>
    <desc>Created with Sketch.</desc>
    <defs></defs>
    <g id="Page-1" stroke="none" stroke-width="1" fill="none" fill-rule="evenodd" sketch:type="MSPage">
        <g id="celebratory-balloon-logo" sketch:type="MSArtboardGroup" transform="translate(2.000000, -234.000000)">
            <g id="icon_51454-+-balloon-+-logo-5" sketch:type="MSLayerGroup" transform="translate(1.000000, 254.000000)">
                <g id="icon_51454-+-balloon" fill="#2F2F2F" sketch:type="MSShapeGroup">
                    <g id="icon_51454" transform="translate(0.000000, 0.494965)">
                        <g id="Group" transform="translate(0.000000, 0.000000)">
                            <path d="M195,111.086915 L206.307847,114.505035 L215,107.926433 L206.307847,99.505035 L195,111.086915 Z" id="Shape"></path>
                            <path d="M171,167.777033 L163.176501,160.505035 L153,170.201567 L162.001526,176.505035 L171,167.777033 Z" id="Shape"></path>
                            <path d="M47,113.103792 L54.4219308,119.505035 L70,116.305609 L59.6124024,109.505035 L47,113.103792 Z" id="Shape"></path>
                            <path d="M46.4375157,35.3114617 L32.8859869,31.0238273 L30.274289,48.5628609 L44.8738778,50.513848 L46.4375157,35.3114617 Z" id="Shape"></path>
                            <path d="M176.667376,117.438853 L171.922932,119.823708 L171.922932,124.942213 L178.360612,124.942213 L176.667376,117.438853 Z" id="Shape"></path>
                            <path d="M176.667376,117.438853 L171.922932,119.823708 L171.922932,124.942213 L178.360612,124.942213 L176.667376,117.438853 Z" id="Shape-2"></path>
                            <path d="M200.157278,11.5454198 L192.175681,2.13360855 L184.18845,4.88994496 L191.031831,18.2037304 L200.157278,11.5454198 Z" id="Shape"></path>
                            <path d="M74,63.505035 L66.8992528,63.505035 L65,74.505035 L74,74.505035 L74,63.505035 Z" id="Shape"></path>
                            <path d="M67,155.297086 L74.6051353,159.505035 L80,150.383397 L73.481957,147.505035 L67,155.297086 Z" id="Shape"></path>
                            <path d="M79,185.505035 L91.9736878,185.505035 L94,177.505035 L80.6214567,179.790094 L79,185.505035 Z" id="Shape"></path>
                            <path d="M12.5087425,166.51979 L18.6872253,174.394631 L28.6776039,169.029417 L22.614633,164.792826 L12.5087425,166.51979 Z" id="Shape"></path>
                            <path d="M248.299836,51.0035113 L237.069817,41.291112 L226.397636,54.522661 L235.379397,61.6375252 L248.299836,51.0035113 Z" id="Shape"></path>
                            <path d="M226.773284,151.788136 L246.985066,156.725154 L248.948769,139.917741 L228.01856,139.917741 L226.773284,151.788136 Z" id="Shape"></path>
                            <path d="M194.889157,195.878175 L205.42047,200.39834 L212.720265,191.638748 L203.732868,187.399322 L194.889157,195.878175 Z" id="Shape"></path>
                            <path d="M232.365755,92.5408239 L245.967997,94.2195803 L249.9433,83.6678027 L233.83642,81.6204006 L232.365755,92.5408239 L232.365755,92.5408239 Z M236.25372,84.7879189 L246.044065,86.0299717 L244.119805,91.1342984 L235.540926,90.0765685 L236.25372,84.7879189 L236.25372,84.7879189 Z" id="Shape"></path>
                            <path d="M212.558623,163.711173 C184.635712,168.619833 175.017226,200.71187 174.921436,201.035144 L176.952756,201.630648 C177.040094,201.318717 186.309227,170.485748 212.924881,165.806782 L212.558623,163.711173 L212.558623,163.711173 Z" id="Shape"></path>
                            <path d="M97.9351535,151.161438 L100.036908,150.945922 C99.9918304,150.512054 95.1487789,107.213185 54.0208752,82.5025726 L52.9390068,84.3259515 C93.1287277,108.475088 97.892893,150.738913 97.9351535,151.161438 L97.9351535,151.161438 Z" id="Shape"></path>
                            <path d="M192.061461,92.6790017 C193.230668,68.1498763 202.41528,60.2580201 210.518024,53.2934499 C220.852121,44.4090857 229.780353,36.7355813 219.215232,0.214123926 L217.183911,0.809628705 C227.368688,36.0124684 219.327926,42.9259953 209.143149,51.6770798 C200.716409,58.9223879 191.162722,67.1318467 189.948437,92.5769151 L192.061461,92.6790017 L192.061461,92.6790017 Z" id="Shape"></path>
                            <path d="M10.8447467,76.3036514 L0.355694375,83.339115 L6.68349761,96.6755863 L22.4353889,87.059602 L10.8447467,76.3036514 L10.8447467,76.3036514 Z M3.95065294,84.3372945 L10.5658275,79.9022017 L17.7782835,86.5917054 L7.88651274,92.6289896 L3.95065294,84.3372945 L3.95065294,84.3372945 Z" id="Shape"></path>
                            <path d="M40.6147821,196.071985 L55.3327003,199.681878 L59.2741948,188.923092 L48.1540526,184.380241 L40.6147821,196.071985 L40.6147821,196.071985 Z M55.6876883,190.516776 L53.5605773,196.327201 L45.1394714,194.259949 L49.2500078,187.885212 L55.6876883,190.516776 L55.6876883,190.516776 Z" id="Shape"></path>
                            <path d="M81.5859807,11.9692851 L72.4633507,8.06731097 L68.8317664,16.5178074 L76.5203572,22.7847862 L81.5859807,11.9692851 L81.5859807,11.9692851 Z M72.2633177,15.6670862 L73.9368329,11.776455 L77.7881718,13.4240182 L75.5004709,18.3043217 L72.2633177,15.6670862 L72.2633177,15.6670862 Z" id="Shape"></path>
                            <path d="M195.83861,142.412931 L195.83861,151.124316 L207.015099,149.675254 L204.0625,137.960824 L195.83861,142.412931 L195.83861,142.412931 Z M198.655975,147.902918 L198.655975,144.108702 L202.219943,142.180401 L203.504662,147.273385 L198.655975,147.902918 L198.655975,147.902918 Z" id="Shape"></path>
                            <path d="M19.9194814,124.814605 L19.8631341,126.941408 C63.7858645,128.118239 87.7841851,147.985412 88.0208438,148.18675 L89.378814,146.559037 C89.139338,146.354864 64.6310742,126.011286 19.9194814,124.814605 L19.9194814,124.814605 Z" id="Shape"></path>
                        </g>
                    </g>
                </g>
                <g id="logo-2" transform="translate(134.323204, 102.880952) rotate(-15.000000) translate(-134.323204, -102.880952) translate(82.182320, 29.690476)" sketch:type="MSShapeGroup">
                    <g id="strings-3" transform="translate(0.000000, 79.220918)" fill="#050505">
                        <path d="M48.3663559,12.6727749 C45.9241646,15.7776903 43.0240392,18.5124858 35.5699396,24.9686221 C31.3261223,28.6442724 29.0041505,32.758922 27.4204398,38.3771806 C27.0374438,39.7358698 26.8192678,40.6470418 26.216949,43.2970257 C24.5190451,50.7671862 23.1974906,53.9462178 19.620583,57.1817718 C15.2740568,61.1134977 12.7033977,62.1118988 7.56693935,62.8410491 C5.24817261,63.1702116 4.12909308,63.4421372 2.78967609,64.1506981 C1.92599685,64.6075904 1.11075653,65.2137305 0.310726891,66.0079462 C0.0115596891,66.3049394 0.00986293837,66.7881566 0.306937093,67.0872422 C0.604011247,67.3863278 1.08736037,67.3880241 1.38652757,67.091031 C2.08158235,66.4010273 2.77554476,65.8850586 3.50376353,65.4998258 C4.64240008,64.8974792 5.62819497,64.6579404 7.78158092,64.3522547 C13.194221,63.5838988 16.0408543,62.478314 20.6449532,58.3135962 C24.5246267,54.8041701 25.9422878,51.3939516 27.7057771,43.6352391 C28.3019611,41.0122464 28.5167002,40.115428 28.8899824,38.7911987 C30.3986795,33.4390527 32.5754291,29.5817441 36.5696698,26.1222568 C44.1021307,19.5982503 47.0416257,16.8263296 49.5665257,13.6162613 C52.5184621,9.86327399 54.1363776,6.13144782 55.0274071,0.980352336 C55.0992502,0.565022964 54.8207077,0.170107525 54.405265,0.0982840148 C53.9898223,0.0264605046 53.5947991,0.304927025 53.522956,0.720256397 C52.6742433,5.6267159 51.1584357,9.12302364 48.3663559,12.6727749 Z" id="Path-152"></path>
                        <path d="M50.8023346,14.5605014 C50.411113,15.3283287 50.000163,16.0798382 49.5228384,16.9123509 C49.2696018,17.3540264 48.5103047,18.6504621 48.4287686,18.7916969 C45.3801238,24.072484 44.818459,26.8748997 45.5671631,31.2660735 C46.0443979,34.0650715 46.0443979,35.7626838 45.787999,36.5992068 C45.7608586,36.6877547 45.7367121,36.7444947 45.7195954,36.7743002 C45.7258583,36.7633945 45.7467325,36.7361189 45.7851172,36.6984758 C45.4841413,36.9936369 45.4794927,37.4768348 45.7747342,37.7777286 C46.0699758,38.0786224 46.5533055,38.0832697 46.8542814,37.7881087 C46.9998095,37.6453922 47.1378796,37.4049688 47.2477844,37.046395 C47.5859628,35.9430596 47.5859628,34.0226229 47.0722355,31.0095956 C46.3852858,26.9806131 46.8751778,24.5363067 49.7511135,19.5546818 C49.8289993,19.41977 50.5898535,18.1206759 50.8474447,17.6714052 C51.3363772,16.8186471 51.7589658,16.0458538 52.1627871,15.2532978 C54.6494596,10.3728536 55.8758018,5.76748139 55.3499501,1.07960285 C55.3029645,0.660734536 54.9252227,0.35925361 54.5062401,0.406226356 C54.0872575,0.453199102 53.7856943,0.830837896 53.8326798,1.24970621 C54.3194623,5.58928872 53.1657176,9.92203001 50.8023346,14.5605014 Z" id="Path-153"></path>
                    </g>
                    <path d="M55.2770302,79.2503121 C52.4193367,80.0630263 34.7785495,59.7510059 28.0072334,45.4986355 C21.2359172,31.2462651 20.9174922,8.15585976 38.0888813,4.25359625 C55.2602705,0.351332743 60.9843998,16.6122915 64.1643006,16.6123541 C67.3442014,16.6124166 80.0635264,1.97790743 94.0811855,11.58582 C108.098845,21.1937325 101.827442,42.6822072 91.3868609,56.1165025 C80.9462801,69.5507979 58.710503,78.2738491 55.2770302,79.2503121 L55.2770302,79.2503121 Z" id="balloon-2" fill="#AD0B00"></path>
                </g>
            </g>
        </g>
    </g>
</svg>