<svg xmlns="http://www.w3.org/2000/svg" xmlns:xlink="http://www.w3.org/1999/xlink" id="Layer_1" x="0" y="0" enable-background="new -257 189 300 104" version="1.1" viewBox="-257 189 300 104" xml:space="preserve"><g><path d="M33,293h-280c-5.5,0-10-4.5-10-10v-84c0-5.5,4.5-10,10-10H33c5.5,0,10,4.5,10,10v84C43,288.5,38.5,293,33,293z"/><g><g><g><defs><path id="SVGID_1_" d="M-243.2,227.6v23.9v24.4c0,0.6,0.3,1,0.7,1.1l26.2-25.5l-26-25.3C-242.9,226.4-243.2,226.8-243.2,227.6"/></defs><clipPath id="SVGID_2_"><use overflow="visible" xlink:href="#SVGID_1_"/></clipPath><linearGradient id="SVGID_3_" x1="-470.488" x2="-469.913" y1="171.352" y2="171.352" gradientTransform="matrix(0 90.8591 90.8591 0 -15798.7207 42973.5117)" gradientUnits="userSpaceOnUse"><stop style="stop-color:#267cb0" offset="0"/><stop style="stop-color:#4d95b6" offset=".31"/><stop style="stop-color:#78bcbb" offset=".774"/><stop style="stop-color:#89cfbd" offset="1"/></linearGradient><rect width="26.9" height="50.7" x="-243.2" y="226.2" fill="url(#SVGID_3_)" clip-path="url(#SVGID_2_)"/></g></g></g><g><g><g><defs><path id="SVGID_4_" d="M-242.3,226.2l26,25.3l7.2-7l-10.8-6.1c0,0,0,0-0.1,0c0,0,0,0-0.1,0l0,0c0,0,0,0,0,0l0,0c0,0,0,0,0,0 l-20.8-11.8c-0.4-0.2-0.7-0.3-1-0.3C-242.1,226.2-242.2,226.2-242.3,226.2"/></defs><clipPath id="SVGID_5_"><use overflow="visible" xlink:href="#SVGID_4_"/></clipPath><linearGradient id="SVGID_6_" x1="-472.163" x2="-471.577" y1="161.071" y2="161.071" gradientTransform="matrix(58.1224 0 0 -58.1224 27200.0078 9600.6738)" gradientUnits="userSpaceOnUse"><stop style="stop-color:#52c1ad" offset="0"/><stop style="stop-color:#dee89a" offset="1"/></linearGradient><rect width="33.2" height="25.3" x="-242.3" y="226.2" fill="url(#SVGID_6_)" clip-path="url(#SVGID_5_)"/></g></g></g><g><g><g><defs><path id="SVGID_7_" d="M-242.6,277c0.3,0.1,0.7,0.1,1.1-0.2l14.5-8.2c2.5-1.4,4.7-2.7,5.9-3.4l0,0c0.1-0.1,0.2-0.1,0.3-0.2l0,0 c0,0,0,0,0,0l0,0c0,0,0.1,0,0.1-0.1l0.1,0c0,0,0,0,0,0l0.1,0c0,0,0,0,0.1,0l0.1,0c0,0,0,0,0,0l0.1-0.1c0,0,0,0,0,0l0,0 c0,0,0,0,0,0l0.1,0l10.8-6.1l-7.2-7L-242.6,277z"/></defs><clipPath id="SVGID_8_"><use overflow="visible" xlink:href="#SVGID_7_"/></clipPath><linearGradient id="SVGID_9_" x1="-465.715" x2="-465.14" y1="173.469" y2="173.469" gradientTransform="matrix(0 45.7593 45.7593 0 -8163.6626 21562.2773)" gradientUnits="userSpaceOnUse"><stop style="stop-color:#ec413d" offset="0"/><stop style="stop-color:#da4452" offset=".167"/><stop style="stop-color:#b0487a" offset=".575"/><stop style="stop-color:#954a92" offset=".862"/><stop style="stop-color:#8a4a9d" offset="1"/></linearGradient><rect width="33.4" height="25.6" x="-242.6" y="251.5" fill="url(#SVGID_9_)" clip-path="url(#SVGID_8_)"/></g></g></g><g><g><g><defs><path id="SVGID_10_" d="M-216.4,251.5l7.2,7h0c0,0,0,0,0,0l0.2-0.1c0,0,0,0,0,0l0,0c0,0,0,0,0,0l0,0c0,0,0,0,0,0l0.1,0 c0,0,0,0,0,0l0.1,0l0.1-0.1c0,0,0,0,0,0l0,0c0,0,0,0,0,0l0,0c0,0,0,0,0,0l0.1-0.1c0,0,0,0,0,0l9.6-5.5c1.2-0.7,1.1-1.6,0.2-2.1 l-0.1-0.1c-1-0.6-10.5-5.9-10.5-5.9L-216.4,251.5z"/></defs><clipPath id="SVGID_11_"><use overflow="visible" xlink:href="#SVGID_10_"/></clipPath><linearGradient id="SVGID_12_" x1="-456.712" x2="-456.137" y1="176.647" y2="176.647" gradientTransform="matrix(0 24.4035 24.4035 0 -4517.7407 11389.8428)" gradientUnits="userSpaceOnUse"><stop style="stop-color:#f58879" offset="0"/><stop style="stop-color:#f69079" offset=".119"/><stop style="stop-color:#fcb877" offset=".713"/><stop style="stop-color:#fec874" offset="1"/></linearGradient><rect width="18.8" height="14" x="-216.4" y="244.5" fill="url(#SVGID_12_)" clip-path="url(#SVGID_11_)"/></g></g></g><g><g><g><defs><rect id="SVGID_13_" width="300" height="96.2" x="-257" y="193"/></defs><clipPath id="SVGID_14_"><use overflow="visible" xlink:href="#SVGID_13_"/></clipPath><path fill="#F7F7F8" d="M-32.2,267.3c-1.4,0-2.6-0.2-3.7-0.7c-1.1-0.5-2.1-1.2-2.8-2.3H-39 c0.2,1.2,0.2,2.3,0.2,3.4v8.4H-42v-29.7h2.6l0.4,2.8h0.2c0.8-1.1,1.8-1.9,2.8-2.4c1.1-0.5,2.3-0.7,3.7-0.7 c2.8,0,4.9,0.9,6.4,2.8c1.5,1.9,2.3,4.5,2.3,7.8c0,3.4-0.8,6-2.3,7.8C-27.4,266.3-29.5,267.3-32.2,267.3 M-32.7,248.7 c-2.1,0-3.7,0.6-4.6,1.7c-1,1.2-1.4,3-1.5,5.5v0.7c0,2.9,0.5,4.9,1.5,6.2c1,1.2,2.5,1.9,4.7,1.9c1.8,0,3.2-0.7,4.2-2.1 c1-1.4,1.5-3.4,1.5-5.9c0-2.6-0.5-4.5-1.5-5.9C-29.4,249.3-30.8,248.7-32.7,248.7" clip-path="url(#SVGID_14_)"/></g></g><g><g><defs><rect id="SVGID_15_" width="300" height="96.2" x="-257" y="193"/></defs><clipPath id="SVGID_16_"><use overflow="visible" xlink:href="#SVGID_15_"/></clipPath><rect width="3.2" height="29.1" x="-19.4" y="237.8" fill="#F7F7F8" clip-path="url(#SVGID_16_)"/></g></g><g><g><defs><rect id="SVGID_17_" width="300" height="96.2" x="-257" y="193"/></defs><clipPath id="SVGID_18_"><use overflow="visible" xlink:href="#SVGID_17_"/></clipPath><path fill="#F7F7F8" d="M1.9,266.9L1.3,264H1.2c-1,1.3-2.1,2.2-3.1,2.6c-1,0.5-2.3,0.7-3.9,0.7 c-2.1,0-3.7-0.5-4.9-1.6c-1.2-1-1.8-2.5-1.8-4.5c0-4.1,3.4-6.3,10.1-6.5l3.5-0.1v-1.3c0-1.6-0.4-2.8-1.1-3.6 c-0.7-0.8-1.8-1.2-3.4-1.2c-1.7,0-3.7,0.5-5.9,1.6l-1-2.4c1-0.5,2.2-1,3.4-1.3c1.2-0.3,2.5-0.5,3.7-0.5c2.5,0,4.3,0.5,5.5,1.6 c1.2,1.1,1.8,2.8,1.8,5.2v14L1.9,266.9L1.9,266.9z M-5.2,264.7c2,0,3.5-0.5,4.6-1.6c1.1-1.1,1.7-2.5,1.7-4.5v-1.8l-3.2,0.1 c-2.5,0.1-4.3,0.5-5.4,1.2c-1.1,0.7-1.7,1.7-1.7,3.2c0,1.1,0.3,2,1,2.6C-7.4,264.4-6.4,264.7-5.2,264.7" clip-path="url(#SVGID_18_)"/></g></g><g><g><defs><rect id="SVGID_19_" width="300" height="96.2" x="-257" y="193"/></defs><clipPath id="SVGID_20_"><use overflow="visible" xlink:href="#SVGID_19_"/></clipPath><path fill="#F7F7F8" d="M6.1,246.4h3.4l4.6,11.7c1,2.7,1.6,4.6,1.9,5.8h0.2c0.2-0.6,0.5-1.7,1-3.3 c0.5-1.5,2.3-6.3,5.2-14.2h3.4l-9,23.3c-0.9,2.3-1.9,3.9-3.1,4.9c-1.2,1-2.6,1.4-4.4,1.4c-1,0-1.9-0.1-2.9-0.3v-2.5 c0.7,0.1,1.5,0.2,2.3,0.2c2.2,0,3.7-1.2,4.7-3.6l1.2-2.9L6.1,246.4z" clip-path="url(#SVGID_20_)"/></g></g><g><g><defs><rect id="SVGID_21_" width="300" height="96.2" x="-257" y="193"/></defs><clipPath id="SVGID_22_"><use overflow="visible" xlink:href="#SVGID_21_"/></clipPath><path fill="#F7F7F8" d="M-90.8,248.3c1,0.8,3.1,2.5,3.1,5.8c0,3.2-1.8,4.7-3.7,6.1 c-0.6,0.6-1.2,1.2-1.2,2.1c0,0.9,0.7,1.5,1.1,1.8l1.6,1.2c1.9,1.6,3.7,3,3.7,6c0,4-4,8.1-11.5,8.1c-6.3,0-9.4-3-9.4-6.1 c0-1.5,0.8-3.7,3.4-5.2c2.7-1.6,6.4-1.8,8.3-2c-0.6-0.8-1.3-1.6-1.3-2.9c0-0.7,0.2-1.2,0.4-1.7c-0.5,0-1,0.1-1.4,0.1 c-4.6,0-7.3-3.4-7.3-6.7c0-2,0.9-4.2,2.8-5.7c2.5-2,5.5-2.4,7.8-2.4h9l-2.8,1.5H-90.8z M-93.9,267.3c-0.3,0-0.6,0-1,0 c-0.4,0-2.8,0.1-4.6,0.7c-1,0.3-3.8,1.4-3.8,4.4c0,3,3,5.2,7.7,5.2c4.2,0,6.4-2,6.4-4.6C-89.2,270.8-90.6,269.6-93.9,267.3 M-92.7,259.2c1-1,1.1-2.4,1.1-3.1c0-3.1-1.9-7.9-5.5-7.9c-1.1,0-2.4,0.6-3.1,1.4c-0.7,0.9-1,2.1-1,3.2c0,2.9,1.7,7.6,5.5,7.6 C-94.6,260.4-93.4,259.9-92.7,259.2" clip-path="url(#SVGID_22_)"/></g></g><g><g><defs><rect id="SVGID_23_" width="300" height="96.2" x="-257" y="193"/></defs><clipPath id="SVGID_24_"><use overflow="visible" xlink:href="#SVGID_23_"/></clipPath><path fill="#F7F7F8" d="M-118.4,266.6c-6.9,0-10.6-5.3-10.6-10.1c0-5.6,4.7-10.4,11.3-10.4 c6.4,0,10.4,4.9,10.4,10.1C-107.3,261.3-111.2,266.6-118.4,266.6 M-112.9,263.2c1-1.4,1.3-3.1,1.3-4.7c0-3.8-1.8-10.9-7.2-10.9 c-1.4,0-2.9,0.6-3.9,1.5c-1.7,1.5-2,3.4-2,5.2c0,4.2,2.1,11.2,7.4,11.2C-115.6,265.4-113.9,264.5-112.9,263.2" clip-path="url(#SVGID_24_)"/></g></g><g><g><defs><rect id="SVGID_25_" width="300" height="96.2" x="-257" y="193"/></defs><clipPath id="SVGID_26_"><use overflow="visible" xlink:href="#SVGID_25_"/></clipPath><path fill="#F7F7F8" d="M-142,266.6c-6.9,0-10.6-5.3-10.6-10.1c0-5.6,4.7-10.4,11.3-10.4 c6.4,0,10.4,4.9,10.4,10.1C-130.9,261.3-134.9,266.6-142,266.6 M-136.5,263.2c1-1.4,1.3-3.1,1.3-4.7c0-3.8-1.8-10.9-7.2-10.9 c-1.4,0-2.9,0.6-3.9,1.5c-1.7,1.5-2,3.4-2,5.2c0,4.2,2.1,11.2,7.4,11.2C-139.3,265.4-137.5,264.5-136.5,263.2" clip-path="url(#SVGID_26_)"/></g></g><g><g><defs><rect id="SVGID_27_" width="300" height="96.2" x="-257" y="193"/></defs><clipPath id="SVGID_28_"><use overflow="visible" xlink:href="#SVGID_27_"/></clipPath><path fill="#F7F7F8" d="M-156,266l-6.3,1.4c-2.5,0.4-4.8,0.7-7.2,0.7c-12.1,0-16.7-8.7-16.7-15.6 c0-8.3,6.5-16.1,17.7-16.1c2.4,0,4.6,0.3,6.7,0.9c3.3,0.9,4.8,2,5.8,2.7l-3.6,3.4l-1.5,0.3l1.1-1.7c-1.5-1.4-4.2-4-9.4-4 c-6.9,0-12.1,5.2-12.1,12.7c0,8.1,6,15.7,15.5,15.7c2.8,0,4.3-0.6,5.6-1.1v-6.9l-6.6,0.3l3.5-1.9h9.3l-1.1,1.1 c-0.3,0.3-0.4,0.3-0.4,0.7c0,0.4-0.1,1.6-0.1,2.1V266L-156,266z" clip-path="url(#SVGID_28_)"/></g></g><g><g><defs><rect id="SVGID_29_" width="300" height="96.2" x="-257" y="193"/></defs><clipPath id="SVGID_30_"><use overflow="visible" xlink:href="#SVGID_29_"/></clipPath><path fill="#F7F7F8" d="M-77,264.7c-1.4-0.1-1.8-0.4-1.8-2.1v-0.5v-23.9c0-0.1,0-0.2,0-0.3 c0.2-1.5,0.6-1.8,2-2.5H-83l-3.3,1.5h3.4v0l0,0v25.1v1.4c0,0.9-0.2,1-1.2,2.3h7.8l1.6-0.9C-75.5,264.9-76.2,264.8-77,264.7" clip-path="url(#SVGID_30_)"/></g></g><g><g><defs><rect id="SVGID_31_" width="300" height="96.2" x="-257" y="193"/></defs><clipPath id="SVGID_32_"><use overflow="visible" xlink:href="#SVGID_31_"/></clipPath><path fill="#F7F7F8" d="M-59.1,265.1c-0.5,0.3-1,0.6-1.4,0.8c-1.4,0.6-2.9,0.8-4.2,0.8 c-1.4,0-3.6-0.1-5.8-1.7c-3.1-2.1-4.4-5.8-4.4-9c0-6.6,5.5-9.9,10-9.9c1.6,0,3.2,0.4,4.5,1.2c2.2,1.4,2.7,3.2,3,4.2l-10.2,4.1 l-3.4,0.3c1.1,5.4,4.8,8.6,9,8.6c2.2,0,3.8-0.8,5.3-1.5L-59.1,265.1z M-63.2,252.4c0.8-0.3,1.3-0.6,1.3-1.2c0-1.7-2-3.7-4.3-3.7 c-1.7,0-5,1.3-5,5.9c0,0.7,0.1,1.5,0.1,2.3L-63.2,252.4z" clip-path="url(#SVGID_32_)"/></g></g><g><g><defs><rect id="SVGID_33_" width="300" height="96.2" x="-257" y="193"/></defs><clipPath id="SVGID_34_"><use overflow="visible" xlink:href="#SVGID_33_"/></clipPath><polygon fill="#F7F7F8" points="-54.9 246.5 -54.9 249.3 -55.3 249.3 -55.3 246.5 -56.2 246.5 -56.2 246.2 -54 246.2 -54 246.5" clip-path="url(#SVGID_34_)"/></g></g><g><g><defs><rect id="SVGID_35_" width="300" height="96.2" x="-257" y="193"/></defs><clipPath id="SVGID_36_"><use overflow="visible" xlink:href="#SVGID_35_"/></clipPath><polygon fill="#F7F7F8" points="-51 249.3 -51 246.4 -51 246.4 -51.9 249.3 -52.2 249.3 -53.1 246.4 -53.1 246.4 -53.1 249.3 -53.4 249.3 -53.4 246.2 -52.9 246.2 -52.1 248.7 -52.1 248.7 -51.3 246.2 -50.7 246.2 -50.7 249.3" clip-path="url(#SVGID_36_)"/></g></g></g><g><g><g><defs><rect id="SVGID_37_" width="300" height="96.2" x="-257" y="193"/></defs><clipPath id="SVGID_38_"><use overflow="visible" xlink:href="#SVGID_37_"/></clipPath><path fill="#FFF" d="M-175.6,209.6c-0.2-1-0.8-1.7-1.7-2.1c-0.5-0.2-1.1-0.3-1.7-0.3 c-1.2,0-2.2,0.4-2.9,1.3s-1.1,2.2-1.1,4c0,1.8,0.4,3,1.2,3.8c0.8,0.7,1.8,1.1,2.8,1.1c1,0,1.9-0.3,2.5-0.9 c0.7-0.6,1.1-1.3,1.2-2.3h-3.4v-2.4h6.1v7.8h-2l-0.3-1.8c-0.6,0.7-1.1,1.2-1.6,1.4c-0.8,0.5-1.8,0.7-3,0.7c-2,0-3.6-0.7-4.8-2 c-1.3-1.3-2-3.2-2-5.5c0-2.3,0.7-4.2,2-5.6c1.3-1.4,3.1-2.1,5.2-2.1c1.9,0,3.4,0.5,4.5,1.4c1.1,0.9,1.8,2.1,2,3.5L-175.6,209.6 L-175.6,209.6z" clip-path="url(#SVGID_38_)"/></g></g><g><g><defs><rect id="SVGID_39_" width="300" height="96.2" x="-257" y="193"/></defs><clipPath id="SVGID_40_"><use overflow="visible" xlink:href="#SVGID_39_"/></clipPath><polygon fill="#FFF" points="-158.6 207.7 -166.4 207.7 -166.4 210.8 -159.3 210.8 -159.3 213.3 -166.4 213.3 -166.4 217 -158.3 217 -158.3 219.6 -169.4 219.6 -169.4 205.1 -158.6 205.1" clip-path="url(#SVGID_40_)"/></g></g><g><g><defs><rect id="SVGID_41_" width="300" height="96.2" x="-257" y="193"/></defs><clipPath id="SVGID_42_"><use overflow="visible" xlink:href="#SVGID_41_"/></clipPath><polygon fill="#FFF" points="-145.1 205.1 -145.1 207.7 -149.6 207.7 -149.6 219.6 -152.7 219.6 -152.7 207.7 -157.1 207.7 -157.1 205.1" clip-path="url(#SVGID_42_)"/></g></g><g><g><defs><rect id="SVGID_43_" width="300" height="96.2" x="-257" y="193"/></defs><clipPath id="SVGID_44_"><use overflow="visible" xlink:href="#SVGID_43_"/></clipPath><rect width="3.1" height="14.5" x="-137.9" y="205.1" fill="#FFF" clip-path="url(#SVGID_44_)"/></g></g><g><g><defs><rect id="SVGID_45_" width="300" height="96.2" x="-257" y="193"/></defs><clipPath id="SVGID_46_"><use overflow="visible" xlink:href="#SVGID_45_"/></clipPath><polygon fill="#FFF" points="-121.2 205.1 -121.2 207.7 -125.6 207.7 -125.6 219.6 -128.7 219.6 -128.7 207.7 -133.2 207.7 -133.2 205.1" clip-path="url(#SVGID_46_)"/></g></g><g><g><defs><rect id="SVGID_47_" width="300" height="96.2" x="-257" y="193"/></defs><clipPath id="SVGID_48_"><use overflow="visible" xlink:href="#SVGID_47_"/></clipPath><path fill="#FFF" d="M-102.4,218.3c-1.1,1.1-2.7,1.7-4.8,1.7c-2.1,0-3.7-0.6-4.8-1.7 c-1.5-1.4-2.2-3.4-2.2-6c0-2.6,0.7-4.6,2.2-6c1.1-1.1,2.7-1.7,4.8-1.7c2.1,0,3.7,0.6,4.8,1.7c1.5,1.3,2.2,3.3,2.2,6 C-100.1,214.9-100.9,216.9-102.4,218.3 M-104.3,216.1c0.7-0.9,1.1-2.1,1.1-3.8c0-1.6-0.4-2.9-1.1-3.8c-0.7-0.9-1.7-1.3-2.9-1.3 c-1.2,0-2.2,0.4-2.9,1.3c-0.7,0.9-1.1,2.1-1.1,3.8c0,1.6,0.4,2.9,1.1,3.8c0.7,0.9,1.7,1.3,2.9,1.3 C-106,217.4-105,217-104.3,216.1" clip-path="url(#SVGID_48_)"/></g></g><g><g><defs><rect id="SVGID_49_" width="300" height="96.2" x="-257" y="193"/></defs><clipPath id="SVGID_50_"><use overflow="visible" xlink:href="#SVGID_49_"/></clipPath><polygon fill="#FFF" points="-97.8 205.1 -94.6 205.1 -88.8 215.2 -88.8 205.1 -85.9 205.1 -85.9 219.6 -89 219.6 -95 209.3 -95 219.6 -97.8 219.6" clip-path="url(#SVGID_50_)"/></g></g></g></g></svg>