<svg xmlns="http://www.w3.org/2000/svg" xmlns:xlink="http://www.w3.org/1999/xlink" width="126" height="121" version="1.1" viewBox="0 0 126 121"><title>heartbeat-logo</title><desc>Created with Sketch.</desc><g id="Page-1" fill="none" fill-rule="evenodd" stroke="none" stroke-width="1"><g id="heartbeat-logo" transform="translate(-62.000000, 0.000000)"><g id="heartbeat" transform="translate(80.000000, -5.000000)"><path id="string" fill="#050505" d="M40.3955772,76.9578179 C38.3522583,79.5600572 35.9257975,81.8520979 29.6891431,87.2630059 C26.1384497,90.3435799 24.1957153,93.7920806 22.8706651,98.5007607 C22.5502222,99.6394823 22.3676799,100.403138 21.8637351,102.624098 C20.4431424,108.884863 19.3374315,111.549219 16.3447245,114.260947 C12.7080972,117.556139 10.5572925,118.392902 6.25974917,119.004005 C4.31969635,119.279877 3.38339114,119.507779 2.26273521,120.101626 C1.54011689,120.484549 0.858026162,120.992557 0.188661833,121.658192 C-0.0616437122,121.907103 -0.0630633401,122.312089 0.185491005,122.562753 C0.43404535,122.813418 0.838451193,122.814839 1.08875674,122.565928 C1.67029129,121.987634 2.25091189,121.555199 2.8601939,121.232334 C3.81286198,120.727506 4.63765134,120.526748 6.43933427,120.270551 C10.9679517,119.62659 13.349657,118.699996 17.2017888,115.209533 C20.4478123,112.268272 21.6339331,109.410157 23.1093995,102.907556 C23.6082114,100.709218 23.7878781,99.9575913 24.1001938,98.8477506 C25.3624821,94.3621003 27.1837128,91.1292778 30.5255918,88.2298708 C36.8278091,82.7620805 39.2872093,80.4389251 41.3997286,77.7485568 C43.8695383,74.6031664 45.2232068,71.4755112 45.9687083,67.158362 C46.0288176,66.8102732 45.7957682,66.4792933 45.448178,66.4190978 C45.1005877,66.3589023 44.7700819,66.592286 44.7099726,66.9403748 C43.9998764,71.0524939 42.731639,73.9827603 40.3955772,76.9578179 Z"/><path id="string" fill="#050505" d="M42.9681413,79.7463018 C42.6408162,80.3898203 42.2969849,81.0196627 41.8976195,81.7173942 C41.685743,82.0875639 41.0504585,83.1741106 40.9822393,83.29248 C38.4315162,87.7183242 37.9615857,90.0670375 38.5880072,93.7472941 C38.9872974,96.093143 38.9872974,97.5159172 38.772775,98.2170097 C38.7500673,98.291222 38.7298645,98.338776 38.7155435,98.363756 C38.7207835,98.3546159 38.7382483,98.3317562 38.7703638,98.3002074 C38.518545,98.5475828 38.5146556,98.9525524 38.7616767,99.2047325 C39.0086977,99.4569125 39.4130874,99.4608075 39.6649062,99.2134321 C39.7866659,99.0938209 39.9021855,98.8923213 39.9941401,98.5917995 C40.2770853,97.6670907 40.2770853,96.0575667 39.8472628,93.5323391 C39.2725096,90.1556362 39.6823896,88.1070554 42.0886115,83.93194 C42.1537765,83.8188701 42.7903638,82.7300952 43.0058838,82.35356 C43.4149611,81.6388608 43.7685302,80.9911803 44.1063971,80.3269367 C46.1869324,76.2366211 47.2129815,72.3768443 46.7730148,68.4479186 C46.7337032,68.0968638 46.4176563,67.8441917 46.0671043,67.8835597 C45.7165522,67.9229277 45.464242,68.2394279 45.5035536,68.5904828 C45.910832,72.2275004 44.9455234,75.8587844 42.9681413,79.7463018 Z"/><path id="balloon" fill="#C62C1F" d="M53.1881393,67.7667443 C51.1148283,68.9434067 33.502732,56.8723905 25.5156223,47.311084 C17.5285125,37.7497775 12.8923147,20.1859013 25.5369448,13.8645269 C38.1815749,7.54315251 45.7340361,18.841545 48.2129836,18.2225872 C50.691931,17.6036294 57.8264001,3.95653527 70.579891,8.56194812 C83.3333818,13.167361 82.5279667,30.7912057 76.9418426,43.0785423 C71.3557185,55.3658789 55.6791891,66.3530033 53.1881393,67.7667443 Z" transform="translate(49.247503, 37.730512) rotate(14.000000) translate(-49.247503, -37.730512)"/></g></g></g></svg>