<?xml version="1.0" encoding="UTF-8" standalone="no"?>
<svg width="254px" height="235px" viewBox="0 0 254 235" version="1.1" xmlns="http://www.w3.org/2000/svg" xmlns:xlink="http://www.w3.org/1999/xlink" xmlns:sketch="http://www.bohemiancoding.com/sketch/ns">
    <!-- Generator: Sketch 3.2.2 (9983) - http://www.bohemiancoding.com/sketch -->
    <title>heartbeat-logo-large</title>
    <desc>Created with Sketch.</desc>
    <defs></defs>
    <g id="Page-1" stroke="none" stroke-width="1" fill="none" fill-rule="evenodd" sketch:type="MSPage">
        <g id="heartbeat-logo" sketch:type="MSArtboardGroup" transform="translate(2.000000, -234.000000)">
            <g id="heartbeat-2" sketch:type="MSLayerGroup" transform="translate(38.500000, 225.500000)">
                <path d="M78.6389311,148.868703 C74.6611585,153.934538 69.9375157,158.396502 57.7964876,168.930032 C50.884277,174.927051 47.1023146,181.640321 44.5228111,190.806809 C43.8989981,193.023582 43.5436391,194.510208 42.5625991,198.833798 C39.7971009,211.021762 37.6445901,216.208522 31.8186234,221.4875 C24.7391236,227.90232 20.5521063,229.531264 12.1859871,230.720912 C8.40924495,231.257958 6.58651963,231.701619 4.40491485,232.857674 C2.99817836,233.603118 1.67033782,234.592068 0.36727201,235.887873 C-0.120003128,236.372433 -0.122766748,237.160828 0.361099292,237.648802 C0.844965332,238.136776 1.63223081,238.139544 2.11950595,237.654984 C3.25159165,236.529206 4.38189814,235.687375 5.56800043,235.058848 C7.42257967,234.076087 9.02821469,233.685267 12.5355893,233.186524 C21.3515454,231.932911 25.9880619,230.12909 33.4870889,223.334132 C39.806192,217.608316 42.1152387,212.044363 44.9875606,199.385611 C45.9586082,195.106059 46.3083692,193.642852 46.9163608,191.482301 C49.3736844,182.74999 52.919113,176.456586 59.42482,170.812248 C71.6934808,160.167985 76.4812477,155.645448 80.5937339,150.408051 C85.4017651,144.284853 88.0369804,138.19618 89.4882642,129.791893 C89.6052802,129.114261 89.151598,128.469936 88.4749366,128.352752 C87.7982752,128.235568 87.1548725,128.689901 87.0378565,129.367533 C85.6554971,137.372683 83.1865923,143.077095 78.6389311,148.868703 Z" id="string" fill="#050505" sketch:type="MSShapeGroup"></path>
                <path d="M83.6469964,154.297104 C83.0097856,155.549855 82.3404419,156.775983 81.5629888,158.134272 C81.1505243,158.854889 79.9138024,160.970092 79.7809987,161.200525 C74.8154517,169.81641 73.9006279,174.3887 75.120096,181.553134 C75.8974027,186.119848 75.8974027,188.889593 75.4797873,190.254425 C75.4355818,190.398895 75.3962526,190.49147 75.3683735,190.540099 C75.3785744,190.522306 75.4125736,190.477804 75.4750935,190.416387 C74.9848724,190.897958 74.9773009,191.686321 75.4581821,192.177246 C75.9390632,192.66817 76.7262971,192.675752 77.2165182,192.194181 C77.4535503,191.961332 77.6784349,191.569068 77.8574449,190.984036 C78.4082603,189.183886 78.4082603,186.050591 77.5715157,181.134677 C76.4526314,174.561177 77.2505536,170.573161 81.934797,162.445375 C82.0616551,162.225259 83.3009131,160.105718 83.7204705,159.372709 C84.5168299,157.981389 85.2051305,156.720535 85.8628632,155.427438 C89.9130855,147.464734 91.9105172,139.950824 91.0540248,132.302301 C90.977496,131.618895 90.3622407,131.127012 89.6798136,131.203651 C88.9973865,131.28029 88.5062088,131.896427 88.5827376,132.579833 C89.3755951,139.660093 87.4964083,146.729191 83.6469964,154.297104 Z" id="string" fill="#050505" sketch:type="MSShapeGroup"></path>
                <path d="M103.542484,130.976244 C99.5063257,133.266878 65.2204824,109.767973 49.6718056,91.1547742 C34.1231288,72.541575 25.0977438,38.349603 49.7133147,26.0436487 C74.3288856,13.7376944 89.0314228,35.7325158 93.8572426,34.5275775 C98.6830624,33.3226392 112.571885,6.75555021 137.399378,15.7210056 C162.22687,24.6864609 160.658952,58.995175 149.784325,82.915195 C138.909698,106.835215 108.391864,128.224084 103.542484,130.976244 Z" id="balloon" fill="#C62C1F" sketch:type="MSShapeGroup" transform="translate(95.871164, 72.504070) rotate(14.000000) translate(-95.871164, -72.504070) "></path>
            </g>
        </g>
    </g>
</svg>