<svg xmlns="http://www.w3.org/2000/svg" xmlns:xlink="http://www.w3.org/1999/xlink" width="300" height="150" version="1.1" viewBox="0 0 300 150"><title>indie-balloon-logo</title><desc>Created with Sketch.</desc><g id="Page-1" fill="none" fill-rule="evenodd" stroke="none" stroke-width="1"><g id="about-page-title"><g id="ind.ie-+-logo" transform="translate(15.000000, -1.000000)"><g id="ind.ie" fill="#343434"><path d="M15.9906281,8.77765752 C15.9906281,9.85043829 15.7793431,10.8526263 15.3567666,11.7842517 C14.9341902,12.7158771 14.3707633,13.5204506 13.6664693,14.1979964 C12.9621752,14.8755421 12.1170349,15.4119245 11.1310232,15.8071595 C10.1450115,16.2023945 9.11675752,16.400009 8.0462305,16.400009 C5.7924894,16.400009 3.90500955,15.6518968 2.38373431,14.15565 C0.862459069,12.6594031 0.101832859,10.8667569 0.101832859,8.77765752 C0.101832859,7.76133891 0.299032247,6.78738151 0.693436939,5.85575611 C1.08784163,4.92413072 1.65126845,4.11955721 2.38373431,3.44201147 C3.11620016,2.76446573 3.9613404,2.21396807 4.91918036,1.79050198 C5.87702033,1.36703589 6.91935995,1.15530602 8.0462305,1.15530602 C9.11675752,1.15530602 10.1450115,1.35292056 11.1310232,1.74815558 C12.1170349,2.1433906 12.9621752,2.67977293 13.6664693,3.35731867 C14.3707633,4.03486442 14.9341902,4.83943792 15.3567666,5.77106332 C15.7793431,6.70268872 15.9906281,7.70487676 15.9906281,8.77765752 Z M1.11601128,64.4208235 L1.11601128,22.2438119 L14.9764497,22.2438119 L14.9764497,64.4208235 L1.11601128,64.4208235 Z M53.5997446,64.4208235 L53.5997446,41.3843834 C53.5997446,40.1986784 53.5011449,39.0694524 53.3039426,37.9966716 C53.1067402,36.9238909 52.7827698,35.9781641 52.3320216,35.159463 C51.8812734,34.3407619 51.2474182,33.691457 50.430437,33.2115287 C49.6134559,32.7316005 48.5852019,32.49164 47.3456443,32.49164 C46.1060867,32.49164 45.0214901,32.7316005 44.0918219,33.2115287 C43.1621537,33.691457 42.3874418,34.3548772 41.767663,35.2018094 C41.1478842,36.0487416 40.6830571,37.022699 40.3731677,38.1237108 C40.0632783,39.2247227 39.9083359,40.368064 39.9083359,41.553769 L39.9083359,64.4208235 L25.9633826,64.4208235 L25.9633826,22.2438119 L39.4012467,22.2438119 L39.4012467,28.0876147 L39.5702764,28.0876147 C40.0773682,27.1842204 40.7393947,26.2949549 41.5563759,25.4197917 C42.373357,24.5446284 43.3311826,23.7965162 44.4298814,23.1754326 C45.5285802,22.554349 46.7258622,22.0461973 48.0217633,21.6509623 C49.3176644,21.2557273 50.6980601,21.0581127 52.1629919,21.0581127 C54.9801682,21.0581127 57.3747322,21.5662644 59.3467557,22.582583 C61.3187791,23.5989016 62.9104599,24.9116268 64.1218457,26.520798 C65.3332316,28.1299691 66.2065432,29.9790766 66.7418067,32.068176 C67.2770702,34.1572754 67.5446979,36.2463434 67.5446979,38.3354428 L67.5446979,64.4208235 L53.5997446,64.4208235 Z M109.358429,64.4208235 L109.358429,58.9157919 L109.189399,58.9157919 C107.837155,61.0613534 105.907418,62.7128464 103.400131,63.8703204 C100.892844,65.0277943 98.2306522,65.6065227 95.4134758,65.6065227 C92.2582383,65.6065227 89.4411042,64.9854484 86.961989,63.7432812 C84.4828737,62.501114 82.3841088,60.849621 80.6656313,58.7887527 C78.9471537,56.7278844 77.6371863,54.3423945 76.7356899,51.6322116 C75.8341934,48.9220286 75.383452,46.0989637 75.383452,43.1629321 C75.383452,40.2269005 75.8482791,37.417951 76.7779473,34.735999 C77.7076155,32.0540471 79.0316685,29.6967879 80.7501461,27.6641507 C82.4686237,25.6315135 84.5533029,24.0223665 87.0042464,22.8366614 C89.4551898,21.6509564 92.2018956,21.0581127 95.2444461,21.0581127 C98.3433401,21.0581127 100.963275,21.6509564 103.104329,22.8366614 C105.245383,24.0223665 106.907492,25.3209763 108.090706,26.73253 L108.259736,26.73253 L108.259736,0.393070866 L122.120174,0.393070866 L122.120174,64.4208235 L109.358429,64.4208235 Z M108.85134,43.2476249 C108.85134,41.8925334 108.611883,40.5656929 108.132964,39.2670636 C107.654044,37.9684342 106.977931,36.8109776 106.104607,35.794659 C105.231282,34.7783404 104.174857,33.9596515 102.935299,33.3385679 C101.695741,32.7174843 100.287174,32.4069472 98.7095557,32.4069472 C97.0755934,32.4069472 95.638855,32.7174843 94.3992974,33.3385679 C93.1597398,33.9596515 92.1174002,34.764225 91.2722472,35.7523126 C90.4270943,36.7404001 89.7932392,37.8837414 89.3706627,39.1823708 C88.9480863,40.4810001 88.7368012,41.8078406 88.7368012,43.1629321 C88.7368012,44.5180236 88.9480863,45.8589794 89.3706627,47.1858398 C89.7932392,48.5127003 90.4270943,49.6842722 91.2722472,50.7005908 C92.1174002,51.7169094 93.1597398,52.5355983 94.3992974,53.1566819 C95.638855,53.7777655 97.0755934,54.0883026 98.7095557,54.0883026 C100.287174,54.0883026 101.695741,53.7777655 102.935299,53.1566819 C104.174857,52.5355983 105.231282,51.7169094 106.104607,50.7005908 C106.977931,49.6842722 107.654044,48.5268156 108.132964,47.2281862 C108.611883,45.9295569 108.85134,44.6027164 108.85134,43.2476249 Z M147.854952,56.9678576 C147.854952,59.3392677 147.023897,61.3154132 145.361763,62.8963532 C143.699629,64.4772933 141.713549,65.2677515 139.403465,65.2677515 C138.220251,65.2677515 137.107483,65.0560216 136.065128,64.6325555 C135.022772,64.2090894 134.107204,63.6303611 133.318394,62.8963532 C132.529585,62.1623453 131.909815,61.3013105 131.459067,60.313223 C131.008319,59.3251355 130.782948,58.2382555 130.782948,57.0525504 C130.782948,55.9233075 131.008319,54.8505428 131.459067,53.8342242 C131.909815,52.8179056 132.529585,51.9286402 133.318394,51.1664012 C134.107204,50.4041622 135.022772,49.7972033 136.065128,49.3455061 C137.107483,48.8938089 138.220251,48.6679637 139.403465,48.6679637 C141.713549,48.6679637 143.699629,49.4584219 145.361763,51.039362 C147.023897,52.6203021 147.854952,54.5964475 147.854952,56.9678576 Z M172.448778,8.77765752 C172.448778,9.85043829 172.237493,10.8526263 171.814917,11.7842517 C171.39234,12.7158771 170.828914,13.5204506 170.12462,14.1979964 C169.420325,14.8755421 168.575185,15.4119245 167.589173,15.8071595 C166.603162,16.2023945 165.574908,16.400009 164.504381,16.400009 C162.25064,16.400009 160.36316,15.6518968 158.841885,14.15565 C157.320609,12.6594031 156.559983,10.8667569 156.559983,8.77765752 C156.559983,7.76133891 156.757183,6.78738151 157.151587,5.85575611 C157.545992,4.92413072 158.109419,4.11955721 158.841885,3.44201147 C159.57435,2.76446573 160.419491,2.21396807 161.377331,1.79050198 C162.335171,1.36703589 163.37751,1.15530602 164.504381,1.15530602 C165.574908,1.15530602 166.603162,1.35292056 167.589173,1.74815558 C168.575185,2.1433906 169.420325,2.67977293 170.12462,3.35731867 C170.828914,4.03486442 171.39234,4.83943792 171.814917,5.77106332 C172.237493,6.70268872 172.448778,7.70487676 172.448778,8.77765752 Z M157.574162,64.4208235 L157.574162,22.2438119 L171.4346,22.2438119 L171.4346,64.4208235 L157.574162,64.4208235 Z M224.171878,45.5343304 C224.171878,46.0989518 224.143707,46.6353341 224.087363,47.1434934 L193.577496,47.1434934 C193.690183,48.3291985 194.042324,49.4019632 194.633931,50.3618196 C195.225538,51.3216761 195.986165,52.1544803 196.915833,52.8602571 C197.845501,53.5660339 198.887841,54.1165316 200.042883,54.5117666 C201.197925,54.9070016 202.395207,55.1046161 203.634765,55.1046161 C205.832162,55.1046161 207.691471,54.6952717 209.212746,53.8765706 C210.734021,53.0578695 211.97356,51.9992202 212.9314,50.7005908 L222.566095,56.798472 C220.594072,59.6780414 217.988223,61.8941474 214.74847,63.4468564 C211.508717,64.9995654 207.747843,65.7759082 203.465735,65.7759082 C200.310498,65.7759082 197.324335,65.2818719 194.507159,64.2937843 C191.689983,63.3056968 189.22499,61.8659337 187.112108,59.9744518 C184.999226,58.08297 183.337117,55.7539414 182.125731,52.9872963 C180.914345,50.2206511 180.308661,47.0588184 180.308661,43.5017033 C180.308661,40.0575124 180.900259,36.9380257 182.083473,34.1431495 C183.266688,31.3482733 184.872454,28.9768988 186.900821,27.0289547 C188.929188,25.0810107 191.323752,23.570671 194.084585,22.4978902 C196.845418,21.4251095 199.83158,20.8887271 203.043161,20.8887271 C206.142055,20.8887271 208.98736,21.4109942 211.579163,22.4555438 C214.170965,23.5000935 216.396501,25.0104333 218.255837,26.9866083 C220.115174,28.9627834 221.565998,31.3623886 222.608353,34.1854959 C223.650708,37.0086032 224.171878,40.2268972 224.171878,43.8404745 L224.171878,45.5343304 Z M211.533425,38.5048284 C211.533425,36.3028047 210.843227,34.4113512 209.46281,32.8304112 C208.082394,31.2494711 206.0118,30.4590129 203.250968,30.4590129 C201.898723,30.4590129 200.659184,30.6707428 199.532313,31.0942089 C198.405443,31.517675 197.419446,32.0964033 196.574293,32.8304112 C195.72914,33.5644191 195.053028,34.4254539 194.545936,35.4135414 C194.038844,36.4016289 193.757131,37.4320476 193.700787,38.5048284 L211.533425,38.5048284 Z" transform="translate(0.000000, 85.039370)"/></g><g id="logo" transform="translate(209.055118, 0.000000)"><g id="strings" fill="#050505" transform="translate(0.000000, 46.023044)"><path id="string" d="M27.9378316,7.36219281 C26.52715,9.16597972 24.8519522,10.7547471 20.5462447,14.5054111 C18.0948908,16.640764 16.7536516,19.0311516 15.8388536,22.2950542 C15.6176239,23.0843787 15.491599,23.61372 15.1436819,25.1532166 C14.1629226,29.4929734 13.3995538,31.3398178 11.3334266,33.2194987 C8.82274507,35.5036176 7.33785666,36.0836342 4.37088703,36.5072309 C3.03149907,36.6984564 2.38508577,36.8564304 1.61139907,37.2680657 C1.11251251,37.5334953 0.641605684,37.8856297 0.179485004,38.3470259 C0.00667721689,38.5195627 0.00569712368,38.8002857 0.177295905,38.9740381 C0.348894685,39.1477906 0.628091373,39.148776 0.80089916,38.9762392 C1.20238327,38.5753846 1.6032364,38.2756348 2.02387701,38.0518355 C2.68158702,37.7019049 3.25101117,37.5627459 4.49487032,37.3851592 C7.62137064,36.9387862 9.2656699,36.2965015 11.925133,33.8770271 C14.1661467,31.8382414 14.9850295,29.85709 16.0036729,25.3497001 C16.3480463,23.825884 16.4720859,23.3048813 16.6877047,22.5355762 C17.5591726,19.4262705 18.8165273,17.185384 21.1237183,15.1756102 C25.4746896,11.3855173 27.1726284,9.77518213 28.6310851,7.91030706 C30.3362105,5.73002562 31.2707661,3.56203762 31.785451,0.569531375 C31.8269497,0.328247604 31.6660553,0.098823218 31.4260834,0.0570976659 C31.1861114,0.0153721137 30.9579344,0.177146013 30.9164357,0.418429784 C30.4261943,3.26881584 29.5506192,5.29998043 27.9378316,7.36219281 Z"/><path id="string" d="M29.3449247,8.4588592 C29.1189436,8.90492509 28.8815668,9.34151121 28.60585,9.82515582 C28.4595731,10.0817453 28.0209807,10.8349039 27.973883,10.9169536 C26.212896,13.9848037 25.8884619,15.6128547 26.3209354,18.1638878 C26.5966003,19.7899534 26.5966003,20.7761738 26.4484968,21.2621481 C26.4328197,21.3135897 26.4188719,21.3465525 26.4089848,21.3638679 C26.4126025,21.3575322 26.42466,21.3416866 26.4468321,21.319818 C26.2729796,21.4912905 26.2702944,21.7720022 26.4408346,21.9468052 C26.6113749,22.1216081 26.8905604,22.1243079 27.0644129,21.9528354 C27.1484742,21.8699249 27.2282276,21.730252 27.2917118,21.5219401 C27.4870536,20.8809623 27.4870536,19.7652931 27.1903096,18.0148881 C26.7935072,15.6742684 27.0764832,14.2542594 28.7377084,11.3602063 C28.7826975,11.2818299 29.2221893,10.5271269 29.3709816,10.2661251 C29.6534034,9.770719 29.8975031,9.32176816 30.1307621,8.86133625 C31.5671374,6.02606364 32.2755088,3.35059293 31.9717613,0.627190525 C31.9446211,0.383850821 31.7264263,0.208706804 31.4844096,0.235995414 C31.2423929,0.263284024 31.0682011,0.482671619 31.0953414,0.726011323 C31.3765212,3.24707268 30.7100843,5.76415967 29.3449247,8.4588592 Z"/></g><path id="balloon" fill="#C62C1F" d="M31.7299212,46.4812963 C30.1437346,46.9264085 20.3699617,35.8661494 16.622915,28.1014272 C12.8758683,20.3367051 12.7154997,7.74930593 22.2459294,5.60959767 C31.7763591,3.4698894 34.9409475,12.330341 36.7053391,12.3280775 C38.4697307,12.325814 45.5374812,4.33868771 53.3084962,9.56626904 C61.0795112,14.7938504 57.5845963,26.5127258 51.782072,33.8439144 C45.9795476,41.1751031 33.6356989,45.9465011 31.7299212,46.4812963 L31.7299212,46.4812963 Z"/></g></g></g></g></svg>