<svg xmlns="http://www.w3.org/2000/svg" xmlns:xlink="http://www.w3.org/1999/xlink" version="1.1" viewBox="0 0 160 163"><title>indie-os</title><description>Created with Sketch (http://www.bohemiancoding.com/sketch)</description><g id="Page-1" fill="none" fill-rule="evenodd" stroke="none" stroke-width="1"><g id="noun_project_9428-2" fill="#ACACAC" transform="translate(0.000000, 1.000000)"><g id="Isolation_Mode"><path id="Shape" d="M94.395,84.3034639 C93.62,83.0458763 91.855,82.4563299 90.48,82.9890928 L84.395,85.3305773 C83.0183333,85.86 81.0816667,85.4040619 80.0766667,84.3151546 L75.5,79.9845773 C74.3533333,79.0526598 73.7833333,77.1387216 74.2333333,75.7291546 L76.2133333,69.5080206 C76.66,68.1017938 75.94,66.4233402 74.6166667,65.7770103 L62.325,61.090701 C60.905,60.6882062 59.255,61.4664742 58.6533333,62.8159175 L56.0066667,68.784866 C55.4083333,70.1326392 53.715,71.1848041 52.2383333,71.1163299 L45.9433333,71.3083918 C44.48,71.4536907 42.7233333,70.501732 42.045,69.1890309 L39.0533333,63.3854227 C38.38,62.0710515 36.6683333,61.3395464 35.255,61.7570722 C35.255,61.7570722 31.9333333,62.7407629 29.0566667,64.0350928 C26.175,65.3294227 23.235,67.1631959 23.235,67.1631959 C21.9816667,67.9448041 21.3916667,69.7101031 21.9166667,71.0896082 L24.26,77.1888247 C24.79,78.5683299 24.335,80.514 23.25,81.5143918 L18.9233333,86.0954845 C17.995,87.2445155 16.08,87.8173608 14.6783333,87.3681031 L8.47,85.3823505 C7.06666667,84.9347629 5.39166667,85.6529072 4.745,86.9856495 L0.0683333333,99.3026598 C-0.33,100.723918 0.445,102.37732 1.79,102.978557 L7.74666667,105.62901 C9.09333333,106.228577 10.1433333,107.930412 10.075,109.405113 L10.265,115.711423 C10.4133333,117.181113 9.46166667,118.941402 8.15166667,119.619464 L2.35833333,122.618969 C1.05,123.293691 0.32,125.010557 0.735,126.428474 C0.735,126.428474 1.71833333,129.751979 3.01,132.634577 C4.3,135.522186 6.13333333,138.471588 6.13333333,138.471588 C6.91166667,139.725835 8.67333333,140.318722 10.05,139.785959 L16.135,137.444474 C17.5133333,136.911711 19.4566667,137.37099 20.4533333,138.456557 L25.0316667,142.790474 C26.1766667,143.717381 26.745,145.63466 26.2983333,147.042557 L24.3183333,153.263691 C23.8683333,154.673258 24.5883333,156.353381 25.915,156.998041 L38.2066667,161.687691 C39.6283333,162.086845 41.2783333,161.306907 41.8766667,159.959134 L44.5216667,153.991856 C45.1216667,152.640742 46.8183333,151.588577 48.2916667,151.657052 L54.585,151.46833 C56.0533333,151.318021 57.8066667,152.27499 58.4833333,153.589361 L61.4716667,159.397979 C62.15,160.70901 63.8616667,161.443856 65.275,161.02299 C65.275,161.02299 68.5916667,160.035959 71.4733333,158.743299 C74.3533333,157.445629 77.295,155.615196 77.295,155.615196 C78.5466667,154.833588 79.1383333,153.069959 78.61,151.685443 L76.2716667,145.594577 C75.74,144.211732 76.1966667,142.266062 77.28,141.26567 L81.6066667,136.676227 C82.5416667,135.532206 84.4433333,134.959361 85.85,135.408619 L92.0583333,137.394371 C93.465,137.843629 95.1416667,137.123814 95.79,135.796082 L100.461667,123.477402 C100.861667,122.056144 100.088333,120.399402 98.7383333,119.798165 L92.7866667,117.151052 C91.4383333,116.544804 90.39,114.846309 90.455,113.368268 L90.2683333,107.066969 C90.1216667,105.592268 91.0733333,103.831979 92.385,103.158928 L98.1766667,100.161093 C99.49,99.4863711 100.22,97.7644948 99.8033333,96.3532577 C99.8033333,96.3532577 98.82,93.0230722 97.5266667,90.137134 C96.2266667,87.2478557 94.395,84.3034639 94.395,84.3034639 L94.395,84.3034639 Z M55.65,123.412268 C49.02,126.395072 41.235,123.425629 38.2616667,116.783629 C35.285,110.141629 38.2483333,102.338907 44.8783333,99.3594433 C51.505,96.3816495 59.2883333,99.3460825 62.2633333,105.991423 C65.24,112.628412 62.2783333,120.431134 55.65,123.412268 L55.65,123.412268 Z"/><path id="Shape" d="M159.181667,38.4390928 C159.001667,37.1664742 157.811667,36.0725567 156.53,36.0090928 L150.87,35.7285155 C149.585,35.6650515 148.2,34.6162268 147.79,33.3987216 L145.675,28.3399794 C145.09,27.1942887 145.308333,25.4757526 146.158333,24.5137732 L149.92,20.2683711 C150.771667,19.3063918 150.79,17.7197938 149.96,16.7377732 L141.835,8.67952577 C140.848333,7.85950515 139.261667,7.89624742 138.315,8.75802062 L134.113333,12.5675258 C133.166667,13.429299 131.448333,13.6647835 130.301667,13.0919381 L125.233333,11.0243505 C124.015,10.6251959 122.958333,9.24903093 122.881667,7.96305155 L122.541667,2.29806186 C122.463333,1.01375258 121.363333,-0.170350515 120.09,-0.334020619 C120.09,-0.334020619 117.105,-0.724824742 114.36,-0.709793814 C111.616667,-0.69643299 108.635,-0.273896907 108.635,-0.273896907 C107.371667,-0.0985360825 106.278333,1.09892784 106.211667,2.38156701 L105.935,8.04989691 C105.871667,9.33754639 104.823333,10.7220619 103.611667,11.1345773 L98.5616667,13.2556082 C97.4166667,13.8418144 95.7,13.6213608 94.7416667,12.7679381 L90.5066667,9.00185567 C89.55,8.14843299 87.9616667,8.13340206 86.9816667,8.96010309 L78.94,17.1001856 C78.1266667,18.0888866 78.16,19.6821649 79.0183333,20.6324536 L82.8166667,24.8377732 C83.6816667,25.7914021 83.9166667,27.5132784 83.345,28.6589691 L81.28,33.7427629 C80.8833333,34.960268 79.505,36.0241237 78.2283333,36.1009485 L72.57,36.4383093 C71.2933333,36.5168041 70.11,37.6224124 69.9466667,38.8950309 C69.9466667,38.8950309 69.5566667,41.8878557 69.5716667,44.6351753 C69.585,47.3841649 70.005,50.3719794 70.005,50.3719794 C70.1816667,51.6429278 71.3733333,52.7368454 72.655,52.8003093 L78.315,53.0808866 C79.595,53.1443505 80.98,54.1931753 81.395,55.4090103 L83.505,60.4677526 C84.0883333,61.6101031 83.8716667,63.3336495 83.0216667,64.2939588 L79.26,68.5393608 C78.41,69.5013402 78.3933333,71.0896082 79.2183333,72.0716289 L87.345,80.1282062 C88.3333333,80.9482268 89.9183333,80.9131546 90.8666667,80.0513814 L95.0683333,76.2435464 C96.015,75.3801031 97.7316667,75.1446186 98.8783333,75.7157938 L103.948333,77.7833814 C105.168333,78.1842062 106.225,79.5603711 106.305,80.8446804 L106.643333,86.5096701 C106.72,87.7956495 107.821667,88.9764124 109.093333,89.1434227 C109.093333,89.1434227 112.076667,89.5292165 114.821667,89.5175258 C117.565,89.5058351 120.546667,89.083299 120.546667,89.083299 C121.816667,88.9079381 122.91,87.7104742 122.968333,86.4228247 L123.251667,80.7578351 C123.313333,79.4735258 124.36,78.0856701 125.575,77.6731546 L130.623333,75.5537938 C131.763333,74.9709278 133.485,75.1863711 134.441667,76.0397938 L138.681667,79.8058763 C139.638333,80.659299 141.223333,80.6776701 142.203333,79.8476289 L150.243333,71.7058763 C151.061667,70.7171753 151.028333,69.1305773 150.165,68.1786186 L146.366667,63.9699588 C145.503333,63.0163299 145.27,61.2961237 145.84,60.1487629 L147.901667,55.0666392 C148.3,53.8474639 149.676667,52.7852784 150.951667,52.7101237 L156.613333,52.3677526 C157.891667,52.2925979 159.073333,51.1853196 159.238333,49.9110309 C159.238333,49.9110309 159.623333,46.9215464 159.611667,44.1708866 C159.601667,41.4252371 159.181667,38.4390928 159.181667,38.4390928 L159.181667,38.4390928 Z M114.658333,57.4715876 C107.456667,57.51 101.586667,51.6880206 101.55,44.4698351 C101.513333,37.2533196 107.321667,31.3678763 114.525,31.3328041 C121.73,31.2960619 127.598333,37.1180412 127.635,44.3362268 C127.671667,51.5560825 121.861667,57.4381856 114.658333,57.4715876 L114.658333,57.4715876 Z"/></g></g></g></svg>