<?xml version="1.0" encoding="UTF-8" standalone="no"?>
<svg viewBox="0 0 160 92" version="1.1" xmlns="http://www.w3.org/2000/svg" xmlns:xlink="http://www.w3.org/1999/xlink" xmlns:sketch="http://www.bohemiancoding.com/sketch/ns">
    <title>indie-cloud</title>
    <description>Created with Sketch (http://www.bohemiancoding.com/sketch)</description>
    <defs></defs>
    <g id="Page-1" stroke="none" stroke-width="1" fill="none" fill-rule="evenodd" sketch:type="MSPage">
        <g id="cloud" sketch:type="MSLayerGroup" transform="translate(0.000000, 1.000000)" fill="#ACACAC">
            <path d="M160,63.235707 C160,50.266796 151.143793,39.3959132 139.218851,36.4617544 C138.712213,16.1288117 122.27284,-0.202 102.053408,-0.202 C90.2108876,-0.202 79.6671891,5.40643392 72.8574568,14.1322882 C69.0379442,9.14157192 63.0614108,5.92462162 56.3395687,5.92462162 C44.8072031,5.92462162 35.45803,15.3835219 35.45803,27.0502493 C35.45803,28.0672717 35.5345921,29.0653359 35.6717008,30.0448371 C33.9185844,29.7241294 32.1150776,29.5483722 30.2701647,29.5483722 C13.5526682,29.5483722 0,43.2590183 0,60.1731861 C0,77.0869589 13.5526682,90.798 30.2701647,90.798 L132.810289,90.798 L132.810289,90.7964202 C147.832481,90.7671931 160,78.4400923 160,63.235707 L160,63.235707 Z" id="Fill-1" sketch:type="MSShapeGroup"></path>
        </g>
    </g>
</svg>