<?xml version="1.0" encoding="UTF-8" standalone="no"?>
<svg width="190px" height="106px" viewBox="0 0 190 106" version="1.1" xmlns="http://www.w3.org/2000/svg" xmlns:xlink="http://www.w3.org/1999/xlink" xmlns:sketch="http://www.bohemiancoding.com/sketch/ns">
    <!-- Generator: Sketch 3.3.3 (12072) - http://www.bohemiancoding.com/sketch -->
    <title>indie-balloon-logo-footer</title>
    <desc>Created with Sketch.</desc>
    <defs></defs>
    <g id="Page-1" stroke="none" stroke-width="1" fill="none" fill-rule="evenodd" sketch:type="MSPage">
        <g id="footer-logo" sketch:type="MSArtboardGroup">
            <g id="ind.ie-+-logo" sketch:type="MSLayerGroup" transform="translate(1.000000, -4.000000)">
                <g id="ind.ie" transform="translate(0.000000, 64.692913)" fill="#343434" sketch:type="MSShapeGroup">
                    <path d="M10.6604188,5.85177168 C10.6604188,6.56695886 10.5195621,7.23508422 10.2378444,7.85616782 C9.95612678,8.47725142 9.5805089,9.01363375 9.1109795,9.46533092 C8.64145011,9.91702808 8.07802328,10.2746163 7.42068213,10.5381063 C6.76334098,10.8015963 6.07783835,10.9333394 5.36415367,10.9333394 C3.8616596,10.9333394 2.6033397,10.4345979 1.58915621,9.43709999 C0.574972713,8.43960208 0.0678885728,7.2445046 0.0678885728,5.85177168 C0.0678885728,5.17422594 0.199354831,4.52492101 0.462291292,3.90383741 C0.725227753,3.28275381 1.10084564,2.74637148 1.58915621,2.29467431 C2.07746678,1.84297715 2.6408936,1.47597871 3.27945358,1.19366798 C3.91801355,0.911357257 4.61290663,0.770204011 5.36415367,0.770204011 C6.07783835,0.770204011 6.76334098,0.901947041 7.42068213,1.16543705 C8.07802328,1.42892706 8.64145011,1.78651529 9.1109795,2.23821245 C9.5805089,2.68990961 9.95612678,3.22629195 10.2378444,3.84737555 C10.5195621,4.46845914 10.6604188,5.13658451 10.6604188,5.85177168 Z M0.744007521,42.9472157 L0.744007521,14.8292079 L9.98429981,14.8292079 L9.98429981,42.9472157 L0.744007521,42.9472157 Z M35.7331631,42.9472157 L35.7331631,27.5895889 C35.7331631,26.7991189 35.6674299,26.0463016 35.5359617,25.3311144 C35.4044935,24.6159273 35.1885132,23.9854428 34.8880144,23.439642 C34.5875156,22.8938413 34.1649455,22.4609713 33.6202914,22.1410192 C33.0756373,21.821067 32.3901346,21.6610933 31.5637629,21.6610933 C30.7373912,21.6610933 30.0143267,21.821067 29.3945479,22.1410192 C28.7747691,22.4609713 28.2582946,22.9032515 27.8451087,23.4678729 C27.4319228,24.0324944 27.1220381,24.6817993 26.9154451,25.4158072 C26.7088522,26.1498151 26.6055573,26.9120426 26.6055573,27.7025127 L26.6055573,42.9472157 L17.3089217,42.9472157 L17.3089217,14.8292079 L26.2674978,14.8292079 L26.2674978,18.7250765 L26.3801843,18.7250765 C26.7182455,18.1228136 27.1595965,17.5299699 27.7042506,16.9465278 C28.2489047,16.3630856 28.8874551,15.8643441 29.6199209,15.4502884 C30.3523868,15.0362327 31.1505748,14.6974649 32.0145089,14.4339749 C32.8784429,14.1704849 33.7987068,14.0387418 34.7753279,14.0387418 C36.6534455,14.0387418 38.2498215,14.3775096 39.5645038,15.0550554 C40.8791861,15.7326011 41.9403066,16.6077512 42.7478972,17.680532 C43.5554877,18.7533127 44.1376954,19.9860511 44.4945378,21.378784 C44.8513801,22.7715169 45.0297986,24.164229 45.0297986,25.5569619 L45.0297986,42.9472157 L35.7331631,42.9472157 Z M72.9056194,42.9472157 L72.9056194,39.2771946 L72.7929329,39.2771946 C71.8914365,40.7075689 70.6049452,41.8085643 68.9334206,42.5802136 C67.2618959,43.3518629 65.4871014,43.7376818 63.6089839,43.7376818 C61.5054922,43.7376818 59.6274028,43.3236322 57.9746593,42.4955208 C56.3219158,41.6674093 54.9227392,40.566414 53.7770875,39.1925018 C52.6314358,37.8185896 51.7581242,36.228263 51.1571266,34.4214744 C50.556129,32.6146857 50.2556346,30.7326424 50.2556346,28.7752881 C50.2556346,26.8179337 50.5655194,24.9453006 51.1852982,23.1573327 C51.805077,21.3693648 52.687779,19.7978586 53.8334307,18.4427671 C54.9790825,17.0876756 56.3688686,16.014911 58.0028309,15.2244409 C59.6367932,14.4339709 61.4679304,14.0387418 63.4962974,14.0387418 C65.5622267,14.0387418 67.3088499,14.4339709 68.7362192,15.2244409 C70.1635886,16.014911 71.2716613,16.8806509 72.0604707,17.8216866 L72.1731572,17.8216866 L72.1731572,0.262047244 L81.4134495,0.262047244 L81.4134495,42.9472157 L72.9056194,42.9472157 Z M72.5675599,28.8317499 C72.5675599,27.9283556 72.4079223,27.0437953 72.0886423,26.1780424 C71.7693624,25.3122895 71.3186209,24.5406517 70.7364044,23.863106 C70.154188,23.1855602 69.4499045,22.6397677 68.6235327,22.225712 C67.797161,21.8116562 66.8581163,21.6046315 65.8063704,21.6046315 C64.7170623,21.6046315 63.7592367,21.8116562 62.9328649,22.225712 C62.1064932,22.6397677 61.4116001,23.17615 60.8481648,23.8348751 C60.2847296,24.4936001 59.8621594,25.2558276 59.5804418,26.1215805 C59.2987242,26.9873334 59.1578675,27.8718937 59.1578675,28.7752881 C59.1578675,29.6786824 59.2987242,30.572653 59.5804418,31.4572266 C59.8621594,32.3418002 60.2847296,33.1228481 60.8481648,33.8003939 C61.4116001,34.4779396 62.1064932,35.0237322 62.9328649,35.4377879 C63.7592367,35.8518436 64.7170623,36.0588684 65.8063704,36.0588684 C66.8581163,36.0588684 67.797161,35.8518436 68.6235327,35.4377879 C69.4499045,35.0237322 70.154188,34.4779396 70.7364044,33.8003939 C71.3186209,33.1228481 71.7693624,32.3512104 72.0886423,31.4854575 C72.4079223,30.6197046 72.5675599,29.7351443 72.5675599,28.8317499 Z M98.5699678,37.9785717 C98.5699678,39.5595118 98.0159314,40.8769421 96.9078421,41.9309022 C95.7997527,42.9848622 94.4756997,43.5118343 92.9356432,43.5118343 C92.1468339,43.5118343 91.4049885,43.3706811 90.710085,43.0883703 C90.0151815,42.8060596 89.4048025,42.4202407 88.8789295,41.9309022 C88.3530566,41.4415636 87.939877,40.8675404 87.6393781,40.2088153 C87.3388793,39.5500903 87.1886322,38.8255036 87.1886322,38.0350336 C87.1886322,37.282205 87.3388793,36.5670286 87.6393781,35.8894828 C87.939877,35.2119371 88.3530566,34.6190934 88.8789295,34.1109341 C89.4048025,33.6027748 90.0151815,33.1981355 90.710085,32.8970041 C91.4049885,32.5958726 92.1468339,32.4453092 92.9356432,32.4453092 C94.4756997,32.4453092 95.7997527,32.9722813 96.9078421,34.0262413 C98.0159314,35.0802014 98.5699678,36.3976317 98.5699678,37.9785717 Z M114.965852,5.85177168 C114.965852,6.56695886 114.824996,7.23508422 114.543278,7.85616782 C114.26156,8.47725142 113.885942,9.01363375 113.416413,9.46533092 C112.946884,9.91702808 112.383457,10.2746163 111.726116,10.5381063 C111.068775,10.8015963 110.383272,10.9333394 109.669587,10.9333394 C108.167093,10.9333394 106.908773,10.4345979 105.89459,9.43709999 C104.880406,8.43960208 104.373322,7.2445046 104.373322,5.85177168 C104.373322,5.17422594 104.504788,4.52492101 104.767725,3.90383741 C105.030661,3.28275381 105.406279,2.74637148 105.89459,2.29467431 C106.3829,1.84297715 106.946327,1.47597871 107.584887,1.19366798 C108.223447,0.911357257 108.91834,0.770204011 109.669587,0.770204011 C110.383272,0.770204011 111.068775,0.901947041 111.726116,1.16543705 C112.383457,1.42892706 112.946884,1.78651529 113.416413,2.23821245 C113.885942,2.68990961 114.26156,3.22629195 114.543278,3.84737555 C114.824996,4.46845914 114.965852,5.13658451 114.965852,5.85177168 Z M105.049441,42.9472157 L105.049441,14.8292079 L114.289733,14.8292079 L114.289733,42.9472157 L105.049441,42.9472157 Z M149.447919,30.3562202 C149.447919,30.7326345 149.429138,31.0902228 149.391575,31.4289956 L129.051664,31.4289956 C129.126788,32.2194657 129.36155,32.9346421 129.755954,33.5745464 C130.150359,34.2144507 130.657443,34.7696535 131.277222,35.2401714 C131.897001,35.7106893 132.591894,36.0776877 133.361922,36.3411777 C134.13195,36.6046677 134.930138,36.7364108 135.75651,36.7364108 C137.221442,36.7364108 138.460981,36.4635145 139.475164,35.9177137 C140.489348,35.371913 141.315707,34.6661468 141.954267,33.8003939 L148.377397,37.865648 C147.062715,39.785361 145.325482,41.2627649 143.165647,42.2979043 C141.005812,43.3330436 138.498562,43.8506055 135.643823,43.8506055 C133.540332,43.8506055 131.549557,43.5212479 129.671439,42.8625229 C127.793322,42.2037979 126.149994,41.2439558 124.741405,39.9829679 C123.332817,38.72198 122.224744,37.1692943 121.417154,35.3248642 C120.609563,33.4804341 120.205774,31.3725456 120.205774,29.0011355 C120.205774,26.7050083 120.600173,24.6253505 121.388982,22.7620997 C122.177792,20.8988489 123.248303,19.3179325 124.600547,18.0193032 C125.952792,16.7206738 127.549168,15.7137807 129.389723,14.9985935 C131.230278,14.2834063 133.221053,13.9258181 135.362107,13.9258181 C137.428037,13.9258181 139.324907,14.2739961 141.052775,14.9703626 C142.780643,15.666729 144.264334,16.6736222 145.503891,17.9910722 C146.743449,19.3085223 147.710665,20.9082591 148.405569,22.7903306 C149.100472,24.6724021 149.447919,26.8179314 149.447919,29.226983 L149.447919,30.3562202 Z M141.022283,25.6698856 C141.022283,24.2018698 140.562151,22.9409008 139.641874,21.8869408 C138.721596,20.8329807 137.3412,20.3060086 135.500645,20.3060086 C134.599149,20.3060086 133.772789,20.4471619 133.021542,20.7294726 C132.270295,21.0117833 131.612964,21.3976022 131.049529,21.8869408 C130.486093,22.3762794 130.035352,22.9503026 129.697291,23.6090276 C129.35923,24.2677526 129.171421,24.9546984 129.133858,25.6698856 L141.022283,25.6698856 Z"></path>
                </g>
                <g id="logo" transform="translate(138.370079, 0.000000)" sketch:type="MSShapeGroup">
                    <g id="strings" transform="translate(1.000000, 38.682029)" fill="#050505">
                        <path d="M18.6252211,4.90812854 C17.6847667,6.11065315 16.5679681,7.16983143 13.6974965,9.67027408 C12.0632606,11.0938427 11.169101,12.6874344 10.5592357,14.8633695 C10.4117492,15.3895858 10.3277326,15.74248 10.0957879,16.768811 C9.44194839,19.6619823 8.93303585,20.8932119 7.55561774,22.1463325 C5.88183005,23.6690784 4.89190444,24.0557562 2.91392469,24.3381539 C2.02099938,24.4656376 1.59005718,24.5709536 1.07426605,24.8453771 C0.741675004,25.0223302 0.427737123,25.2570865 0.119656669,25.5646839 C0.00445147792,25.6797085 0.00379808246,25.8668571 0.11819727,25.9826921 C0.232596457,26.0985271 0.418727582,26.099184 0.533932773,25.9841595 C0.801588847,25.716923 1.06882427,25.5170899 1.34925134,25.3678904 C1.78772468,25.1346033 2.16734078,25.0418306 2.99658021,24.9234394 C5.08091376,24.6258575 6.17711327,24.1976677 7.95008868,22.5846847 C9.44409778,21.2254943 9.99001967,19.9047267 10.6691152,16.8998001 C10.8986975,15.8839227 10.9813906,15.5365876 11.1251365,15.0237175 C11.7061151,12.950847 12.5443515,11.4569227 14.0824789,10.1170734 C16.9831264,7.59034486 18.1150856,6.51678809 19.08739,5.27353804 C20.2241403,3.82001708 20.8471774,2.37469175 21.1903007,0.379687583 C21.2179664,0.218831736 21.1107035,0.0658821454 20.9507223,0.0380651106 C20.790741,0.0102480758 20.6386229,0.118097342 20.6109571,0.278953189 C20.2841295,2.17921056 19.7004128,3.53332029 18.6252211,4.90812854 Z" id="string"></path>
                        <path d="M19.5632831,5.63923947 C19.4126291,5.93661673 19.2543779,6.22767414 19.0705667,6.55010388 C18.9730487,6.72116353 18.6806538,7.22326924 18.6492554,7.27796907 C17.475264,9.32320243 17.2589746,10.4085698 17.5472903,12.1092586 C17.7310669,13.1933023 17.7310669,13.8507825 17.6323312,14.1747654 C17.6218798,14.2090598 17.6125813,14.231035 17.6059899,14.2425786 C17.6084017,14.2383548 17.61644,14.2277911 17.6312214,14.213212 C17.5153197,14.327527 17.5135296,14.5146681 17.6272231,14.6312034 C17.7409166,14.7477387 17.9270402,14.7495386 18.0429419,14.6352236 C18.0989828,14.5799499 18.1521517,14.4868347 18.1944745,14.3479601 C18.3247024,13.9206415 18.3247024,13.176862 18.1268731,12.0099254 C17.8623382,10.4495123 18.0509888,9.50283958 19.1584723,7.57347089 C19.188465,7.52121996 19.4814596,7.0180846 19.5806544,6.8440834 C19.7689356,6.51381267 19.9316687,6.2145121 20.0871748,5.9075575 C21.0447583,4.01737576 21.5170058,2.23372862 21.3145076,0.418127017 C21.2964141,0.255900547 21.1509509,0.139137869 20.9896064,0.157330276 C20.8282619,0.175522682 20.7121341,0.321781079 20.7302276,0.484007549 C20.9176808,2.16471512 20.4733896,3.84277311 19.5632831,5.63923947 Z" id="string"></path>
                    </g>
                    <path d="M20.9674384,38.3502412 C19.1105671,38.7589245 7.66888804,28.6038611 3.28240325,21.4746208 C-1.10408154,14.3453804 -1.29181721,2.78816155 9.86499191,0.823571687 C21.021801,-1.14101818 24.7264303,6.99427471 26.7919174,6.99219644 C28.8574045,6.99011817 37.1312752,-0.343324224 46.2284234,4.45642043 C55.3255716,9.25616509 51.2342452,20.0159421 44.441513,26.7471303 C37.6487808,33.4783185 23.1984394,37.8592148 20.9674384,38.3502412 L20.9674384,38.3502412 Z" id="mask" fill="#E5E5E5"></path>
                    <path d="M22.1532808,38.9875308 C21.0958231,39.2842723 14.5799745,31.9107663 12.0819433,26.7342848 C9.5839122,21.5578034 9.47699982,13.166204 15.8306196,11.7397318 C22.1842394,10.3132596 24.293965,16.2202273 25.4702261,16.2187183 C26.6464871,16.2172093 31.3583208,10.8924585 36.5389975,14.3775127 C41.7196741,17.8625669 39.3897309,25.6751505 35.5213813,30.5626096 C31.6530317,35.4500687 23.4237993,38.6310007 22.1532808,38.9875308 L22.1532808,38.9875308 Z" id="balloon" fill="#C62C1F"></path>
                </g>
            </g>
        </g>
    </g>
</svg>