<svg xmlns="http://www.w3.org/2000/svg" xmlns:xlink="http://www.w3.org/1999/xlink" width="126" height="121" version="1.1" viewBox="0 0 126 121"><title>pulse-logo</title><desc>Created with Sketch.</desc><g id="Page-1" fill="none" fill-rule="evenodd" stroke="none" stroke-width="1"><g id="pulse-logo" transform="translate(-61.000000, 0.000000)"><g id="logo-mark-4" transform="translate(59.000000, -7.000000)"><g id="Group" transform="translate(70.024260, 67.762605) rotate(-80.000000) translate(-70.024260, -67.762605) translate(12.226095, 6.930074)"><path id="Oval-1" fill="#4A4A4A" d="M29.8237803,105.671008 C57.124127,121.308653 92.0329449,112.028579 107.794807,84.9433835 C123.55667,57.8581876 114.20288,23.2244821 86.9025336,7.586837 C59.602187,-8.05080809 24.6933691,1.22926534 8.9315066,28.3144612 C-6.8303559,55.399657 2.52343366,90.0333625 29.8237803,105.671008 Z M85.4755648,10.0389413 C111.410894,24.8947041 120.296994,57.7967244 105.323225,83.5276604 C90.3494555,109.258596 57.1860785,118.074666 31.2507492,103.218903 C5.31541983,88.3631405 -3.57068025,55.4611202 11.4030891,29.7301842 C26.3768585,3.99924819 59.5402355,-4.81682157 85.4755648,10.0389413 Z"/><ellipse id="Oval-2" cx="106.024" cy="29.164" fill="#C41515" rx="7.135" ry="7.079" transform="translate(106.023916, 29.163895) rotate(-240.000000) translate(-106.023916, -29.163895)"/><ellipse id="Oval-3" cx="9.785" cy="28.125" fill="#C41515" rx="7.135" ry="7.079" transform="translate(9.785260, 28.125055) rotate(-240.000000) translate(-9.785260, -28.125055)"/><ellipse id="Oval-4" cx="58.649" cy="111.842" fill="#C41515" rx="7.135" ry="7.079" transform="translate(58.648551, 111.842122) rotate(-240.000000) translate(-58.648551, -111.842122)"/></g><path id="Oval-6" fill="#B2B2B2" d="M66.3526018,101.252513 C85.2668368,101.252513 100.599854,86.0403338 100.599854,67.2751597 C100.599854,48.5099856 85.2668368,33.2978063 66.3526018,33.2978063 C47.4383668,33.2978063 32.1053498,48.5099856 32.1053498,67.2751597 C32.1053498,86.0403338 47.4383668,101.252513 66.3526018,101.252513 Z M66.6379956,75.2032088 C71.2089357,75.2032088 74.9144148,71.5269322 74.9144148,66.9920151 C74.9144148,62.457098 71.2089357,58.7808213 66.6379956,58.7808213 C62.0670554,58.7808213 58.3615763,62.457098 58.3615763,66.9920151 C58.3615763,71.5269322 62.0670554,75.2032088 66.6379956,75.2032088 Z"/></g></g></g></svg>