<svg xmlns="http://www.w3.org/2000/svg" xmlns:xlink="http://www.w3.org/1999/xlink" width="335" height="130" version="1.1" viewBox="0 0 335 130"><title>responsive-pixels-logo</title><desc>Created with Sketch.</desc><g id="Page-1" fill="none" fill-rule="evenodd" stroke="none" stroke-width="1"><g id="responsive-pixels-logo" transform="translate(1.000000, 0.000000)"><g id="Page-1"><g id="Artboard-1"><g id="responsive-pixels"><g id="Page-1" transform="translate(142.000000, 0.000000)"><g id="Responsive-Pixels"><rect id="Rectangle-4" width="57.886" height="57.955" x=".504" y=".33" fill="#050505"/><rect id="Rectangle-3" width="52.098" height="52.159" x="3.398" y="3.227" fill="#FFF"/><rect id="Rectangle-2" width="39.363" height="39.409" x="9.766" y="9.602" fill="#B2B2B2"/><rect id="Rectangle-1" width="21.997" height="22.023" x="18.449" y="18.295" fill="#C62C1F"/></g></g><path id="Responsive-Pixels" fill="#000" d="M3.47,118 L0.23,118 L0.23,86.14 L9.59,86.14 C11.1500078,86.14 12.5974933,86.2899985 13.9325,86.59 C15.2675067,86.8900015 16.4224951,87.3774966 17.3975,88.0525 C18.3725049,88.7275034 19.1299973,89.6049946 19.67,90.685 C20.2100027,91.7650054 20.48,93.0849922 20.48,94.645 C20.48,95.8150058 20.2700021,96.8799952 19.85,97.84 C19.4299979,98.8000048 18.8600036,99.6324965 18.14,100.3375 C17.4199964,101.042504 16.565005,101.604998 15.575,102.025 C14.5849951,102.445002 13.5050059,102.714999 12.335,102.835 L21.65,118 L17.69,118 L8.87,103.105 L3.47,103.105 L3.47,118 L3.47,118 Z M3.47,100.315 L9.095,100.315 C11.7050131,100.315 13.714993,99.8425047 15.125,98.8975 C16.5350071,97.9524953 17.24,96.5350095 17.24,94.645 C17.24,93.5949948 17.045002,92.7100036 16.655,91.99 C16.2649981,91.2699964 15.7250035,90.6850023 15.035,90.235 C14.3449966,89.7849978 13.505005,89.4550011 12.515,89.245 C11.5249951,89.034999 10.430006,88.93 9.23,88.93 L3.47,88.93 L3.47,100.315 L3.47,100.315 Z M42.53,105.85 C42.4399996,103.86999 41.8025059,102.227507 40.6175,100.9225 C39.4324941,99.6174935 37.745011,98.965 35.555,98.965 C34.5349949,98.965 33.5900044,99.1524981 32.72,99.5275 C31.8499957,99.9025019 31.0850033,100.412497 30.425,101.0575 C29.7649967,101.702503 29.240002,102.437496 28.85,103.2625 C28.4599981,104.087504 28.2350003,104.949996 28.175,105.85 L42.53,105.85 L42.53,105.85 Z M45.635,106.84 L45.635,107.515 C45.635,107.755001 45.6200002,108.009999 45.59,108.28 L28.13,108.28 C28.1600002,109.330005 28.369998,110.319995 28.76,111.25 C29.1500019,112.180005 29.6899965,112.989997 30.38,113.68 C31.0700035,114.370003 31.8799954,114.917498 32.81,115.3225 C33.7400047,115.727502 34.7449946,115.93 35.825,115.93 C37.415008,115.93 38.7874942,115.562504 39.9425,114.8275 C41.0975058,114.092496 41.974997,113.245005 42.575,112.285 L44.87,114.085 C43.6099937,115.675008 42.2225076,116.814997 40.7075,117.505 C39.1924924,118.195003 37.5650087,118.54 35.825,118.54 C34.2649922,118.54 32.8175067,118.262503 31.4825,117.7075 C30.1474933,117.152497 29.0000048,116.380005 28.04,115.39 C27.0799952,114.399995 26.3225028,113.230007 25.7675,111.88 C25.2124972,110.529993 24.935,109.060008 24.935,107.47 C24.935,105.879992 25.2049973,104.410007 25.745,103.06 C26.2850027,101.709993 27.0349952,100.540005 27.995,99.55 C28.9550048,98.559995 30.0799935,97.7875028 31.37,97.2325 C32.6600064,96.6774972 34.0549925,96.4 35.555,96.4 C37.2050082,96.4 38.6599937,96.6774972 39.92,97.2325 C41.1800063,97.7875028 42.2299958,98.5374953 43.07,99.4825 C43.9100042,100.427505 44.5474978,101.529994 44.9825,102.79 C45.4175022,104.050006 45.635,105.399993 45.635,106.84 L45.635,106.84 L45.635,106.84 Z M63.41,101.935 C62.9599978,101.064996 62.2775046,100.352503 61.3625,99.7975 C60.4474954,99.2424972 59.4050059,98.965 58.235,98.965 C57.6949973,98.965 57.1550027,99.0249994 56.615,99.145 C56.0749973,99.2650006 55.5950021,99.4599986 55.175,99.73 C54.7549979,100.000001 54.4175013,100.344998 54.1625,100.765 C53.9074987,101.185002 53.78,101.679997 53.78,102.25 C53.78,103.240005 54.184996,103.997497 54.995,104.5225 C55.8050041,105.047503 57.0799913,105.489998 58.82,105.85 C61.3100125,106.360003 63.1474941,107.102495 64.3325,108.0775 C65.5175059,109.052505 66.11,110.364992 66.11,112.015 C66.11,113.215006 65.8775023,114.227496 65.4125,115.0525 C64.9474977,115.877504 64.3400038,116.552497 63.59,117.0775 C62.8399963,117.602503 61.9925047,117.977499 61.0475,118.2025 C60.1024953,118.427501 59.1500048,118.54 58.19,118.54 C56.5999921,118.54 55.0550075,118.210003 53.555,117.55 C52.0549925,116.889997 50.8250048,115.855007 49.865,114.445 L52.295,112.645 C52.8350027,113.575005 53.6299948,114.354997 54.68,114.985 C55.7300053,115.615003 56.8849937,115.93 58.145,115.93 C58.8050033,115.93 59.434997,115.870001 60.035,115.75 C60.635003,115.629999 61.1599978,115.420001 61.61,115.12 C62.0600023,114.819998 62.4199987,114.437502 62.69,113.9725 C62.9600014,113.507498 63.095,112.930003 63.095,112.24 C63.095,111.129994 62.5625053,110.297503 61.4975,109.7425 C60.4324947,109.187497 58.8950101,108.670002 56.885,108.19 C56.2549969,108.039999 55.5875035,107.852501 54.8825,107.6275 C54.1774965,107.402499 53.525003,107.072502 52.925,106.6375 C52.324997,106.202498 51.830002,105.655003 51.44,104.995 C51.0499981,104.334997 50.855,103.510005 50.855,102.52 C50.855,101.439995 51.0649979,100.517504 51.485,99.7525 C51.9050021,98.9874962 52.4674965,98.3575025 53.1725,97.8625 C53.8775035,97.3674975 54.6799955,97.0000012 55.58,96.76 C56.4800045,96.5199988 57.4099952,96.4 58.37,96.4 C59.8400074,96.4 61.2649931,96.7299967 62.645,97.39 C64.0250069,98.0500033 65.0599966,98.979994 65.75,100.18 L63.41,101.935 L63.41,101.935 Z M74.245,128.8 L71.185,128.8 L71.185,96.94 L74.245,96.94 L74.245,100.585 L74.38,100.585 C75.2500043,99.2049931 76.4124927,98.1625035 77.8675,97.4575 C79.3225073,96.7524965 80.7999925,96.4 82.3,96.4 C83.9500082,96.4 85.4424933,96.6849971 86.7775,97.255 C88.1125067,97.8250028 89.2524953,98.604995 90.1975,99.595 C91.1425047,100.585005 91.8774974,101.754993 92.4025,103.105 C92.9275026,104.455007 93.19,105.909992 93.19,107.47 C93.19,109.030008 92.9275026,110.484993 92.4025,111.835 C91.8774974,113.185007 91.1425047,114.354995 90.1975,115.345 C89.2524953,116.335005 88.1125067,117.114997 86.7775,117.685 C85.4424933,118.255003 83.9500082,118.54 82.3,118.54 C80.7999925,118.54 79.3225073,118.187504 77.8675,117.4825 C76.4124927,116.777496 75.2500043,115.765007 74.38,114.445 L74.245,114.445 L74.245,128.8 L74.245,128.8 Z M89.95,107.47 C89.95,106.299994 89.7700018,105.197505 89.41,104.1625 C89.0499982,103.127495 88.5325034,102.227504 87.8575,101.4625 C87.1824966,100.697496 86.3500049,100.090002 85.36,99.64 C84.369995,99.1899978 83.2450063,98.965 81.985,98.965 C80.8149941,98.965 79.7350049,99.1824978 78.745,99.6175 C77.754995,100.052502 76.9000036,100.652496 76.18,101.4175 C75.4599964,102.182504 74.897502,103.082495 74.4925,104.1175 C74.087498,105.152505 73.885,106.269994 73.885,107.47 C73.885,108.670006 74.087498,109.787495 74.4925,110.8225 C74.897502,111.857505 75.4599964,112.749996 76.18,113.5 C76.9000036,114.250004 77.754995,114.842498 78.745,115.2775 C79.7350049,115.712502 80.8149941,115.93 81.985,115.93 C83.2450063,115.93 84.369995,115.712502 85.36,115.2775 C86.3500049,114.842498 87.1824966,114.242504 87.8575,113.4775 C88.5325034,112.712496 89.0499982,111.812505 89.41,110.7775 C89.7700018,109.742495 89.95,108.640006 89.95,107.47 L89.95,107.47 L89.95,107.47 Z M119.685,107.47 C119.685,109.060008 119.407503,110.529993 118.8525,111.88 C118.297497,113.230007 117.525005,114.399995 116.535,115.39 C115.544995,116.380005 114.360007,117.152497 112.98,117.7075 C111.599993,118.262503 110.085008,118.54 108.435,118.54 C106.814992,118.54 105.315007,118.262503 103.935,117.7075 C102.554993,117.152497 101.370005,116.380005 100.38,115.39 C99.3899951,114.399995 98.6175028,113.230007 98.0625,111.88 C97.5074972,110.529993 97.23,109.060008 97.23,107.47 C97.23,105.879992 97.5074972,104.410007 98.0625,103.06 C98.6175028,101.709993 99.3899951,100.540005 100.38,99.55 C101.370005,98.559995 102.554993,97.7875028 103.935,97.2325 C105.315007,96.6774972 106.814992,96.4 108.435,96.4 C110.085008,96.4 111.599993,96.6774972 112.98,97.2325 C114.360007,97.7875028 115.544995,98.559995 116.535,99.55 C117.525005,100.540005 118.297497,101.709993 118.8525,103.06 C119.407503,104.410007 119.685,105.879992 119.685,107.47 L119.685,107.47 L119.685,107.47 Z M116.445,107.47 C116.445,106.299994 116.257502,105.197505 115.8825,104.1625 C115.507498,103.127495 114.975003,102.227504 114.285,101.4625 C113.594997,100.697496 112.755005,100.090002 111.765,99.64 C110.774995,99.1899978 109.665006,98.965 108.435,98.965 C107.204994,98.965 106.102505,99.1899978 105.1275,99.64 C104.152495,100.090002 103.320003,100.697496 102.63,101.4625 C101.939997,102.227504 101.407502,103.127495 101.0325,104.1625 C100.657498,105.197505 100.47,106.299994 100.47,107.47 C100.47,108.640006 100.657498,109.742495 101.0325,110.7775 C101.407502,111.812505 101.939997,112.712496 102.63,113.4775 C103.320003,114.242504 104.152495,114.842498 105.1275,115.2775 C106.102505,115.712502 107.204994,115.93 108.435,115.93 C109.665006,115.93 110.774995,115.712502 111.765,115.2775 C112.755005,114.842498 113.594997,114.242504 114.285,113.4775 C114.975003,112.712496 115.507498,111.812505 115.8825,110.7775 C116.257502,109.742495 116.445,108.640006 116.445,107.47 L116.445,107.47 L116.445,107.47 Z M128,96.94 C128.06,97.5100028 128.105,98.1399965 128.135,98.83 C128.165,99.5200034 128.18,100.089998 128.18,100.54 L128.27,100.54 C128.870003,99.3099938 129.844993,98.3125038 131.195,97.5475 C132.545007,96.7824962 133.969993,96.4 135.47,96.4 C138.140013,96.4 140.142493,97.194992 141.4775,98.785 C142.812507,100.375008 143.48,102.474987 143.48,105.085 L143.48,118 L140.42,118 L140.42,106.345 C140.42,105.234994 140.330001,104.230004 140.15,103.33 C139.969999,102.429995 139.662502,101.657503 139.2275,101.0125 C138.792498,100.367497 138.207504,99.8650018 137.4725,99.505 C136.737496,99.1449982 135.815006,98.965 134.705,98.965 C133.894996,98.965 133.107504,99.1299983 132.3425,99.46 C131.577496,99.7900016 130.895003,100.292497 130.295,100.9675 C129.694997,101.642503 129.215002,102.497495 128.855,103.5325 C128.494998,104.567505 128.315,105.789993 128.315,107.2 L128.315,118 L125.255,118 L125.255,101.575 C125.255,101.004997 125.24,100.270004 125.21,99.37 C125.18,98.4699955 125.135,97.6600036 125.075,96.94 L128,96.94 L128,96.94 Z M161.605,101.935 C161.154998,101.064996 160.472505,100.352503 159.5575,99.7975 C158.642495,99.2424972 157.600006,98.965 156.43,98.965 C155.889997,98.965 155.350003,99.0249994 154.81,99.145 C154.269997,99.2650006 153.790002,99.4599986 153.37,99.73 C152.949998,100.000001 152.612501,100.344998 152.3575,100.765 C152.102499,101.185002 151.975,101.679997 151.975,102.25 C151.975,103.240005 152.379996,103.997497 153.19,104.5225 C154.000004,105.047503 155.274991,105.489998 157.015,105.85 C159.505012,106.360003 161.342494,107.102495 162.5275,108.0775 C163.712506,109.052505 164.305,110.364992 164.305,112.015 C164.305,113.215006 164.072502,114.227496 163.6075,115.0525 C163.142498,115.877504 162.535004,116.552497 161.785,117.0775 C161.034996,117.602503 160.187505,117.977499 159.2425,118.2025 C158.297495,118.427501 157.345005,118.54 156.385,118.54 C154.794992,118.54 153.250008,118.210003 151.75,117.55 C150.249993,116.889997 149.020005,115.855007 148.06,114.445 L150.49,112.645 C151.030003,113.575005 151.824995,114.354997 152.875,114.985 C153.925005,115.615003 155.079994,115.93 156.34,115.93 C157.000003,115.93 157.629997,115.870001 158.23,115.75 C158.830003,115.629999 159.354998,115.420001 159.805,115.12 C160.255002,114.819998 160.614999,114.437502 160.885,113.9725 C161.155001,113.507498 161.29,112.930003 161.29,112.24 C161.29,111.129994 160.757505,110.297503 159.6925,109.7425 C158.627495,109.187497 157.09001,108.670002 155.08,108.19 C154.449997,108.039999 153.782504,107.852501 153.0775,107.6275 C152.372496,107.402499 151.720003,107.072502 151.12,106.6375 C150.519997,106.202498 150.025002,105.655003 149.635,104.995 C149.244998,104.334997 149.05,103.510005 149.05,102.52 C149.05,101.439995 149.259998,100.517504 149.68,99.7525 C150.100002,98.9874962 150.662496,98.3575025 151.3675,97.8625 C152.072504,97.3674975 152.874996,97.0000012 153.775,96.76 C154.675005,96.5199988 155.604995,96.4 156.565,96.4 C158.035007,96.4 159.459993,96.7299967 160.84,97.39 C162.220007,98.0500033 163.254997,98.979994 163.945,100.18 L161.605,101.935 L161.605,101.935 Z M173.485,118 L170.425,118 L170.425,96.94 L173.485,96.94 L173.485,118 L173.485,118 Z M174.115,88.84 C174.115,89.4700032 173.890002,89.987498 173.44,90.3925 C172.989998,90.797502 172.495003,91 171.955,91 C171.414997,91 170.920002,90.797502 170.47,90.3925 C170.019998,89.987498 169.795,89.4700032 169.795,88.84 C169.795,88.2099969 170.019998,87.692502 170.47,87.2875 C170.920002,86.882498 171.414997,86.68 171.955,86.68 C172.495003,86.68 172.989998,86.882498 173.44,87.2875 C173.890002,87.692502 174.115,88.2099969 174.115,88.84 L174.115,88.84 L174.115,88.84 Z M190.27,118 L186.895,118 L178.3,96.94 L181.72,96.94 L188.56,114.76 L188.65,114.76 L195.535,96.94 L198.82,96.94 L190.27,118 L190.27,118 Z M218.655,105.85 C218.565,103.86999 217.927506,102.227507 216.7425,100.9225 C215.557494,99.6174935 213.870011,98.965 211.68,98.965 C210.659995,98.965 209.715004,99.1524981 208.845,99.5275 C207.974996,99.9025019 207.210003,100.412497 206.55,101.0575 C205.889997,101.702503 205.365002,102.437496 204.975,103.2625 C204.584998,104.087504 204.36,104.949996 204.3,105.85 L218.655,105.85 L218.655,105.85 Z M221.76,106.84 L221.76,107.515 C221.76,107.755001 221.745,108.009999 221.715,108.28 L204.255,108.28 C204.285,109.330005 204.494998,110.319995 204.885,111.25 C205.275002,112.180005 205.814997,112.989997 206.505,113.68 C207.195003,114.370003 208.004995,114.917498 208.935,115.3225 C209.865005,115.727502 210.869995,115.93 211.95,115.93 C213.540008,115.93 214.912494,115.562504 216.0675,114.8275 C217.222506,114.092496 218.099997,113.245005 218.7,112.285 L220.995,114.085 C219.734994,115.675008 218.347508,116.814997 216.8325,117.505 C215.317492,118.195003 213.690009,118.54 211.95,118.54 C210.389992,118.54 208.942507,118.262503 207.6075,117.7075 C206.272493,117.152497 205.125005,116.380005 204.165,115.39 C203.204995,114.399995 202.447503,113.230007 201.8925,111.88 C201.337497,110.529993 201.06,109.060008 201.06,107.47 C201.06,105.879992 201.329997,104.410007 201.87,103.06 C202.410003,101.709993 203.159995,100.540005 204.12,99.55 C205.080005,98.559995 206.204994,97.7875028 207.495,97.2325 C208.785006,96.6774972 210.179993,96.4 211.68,96.4 C213.330008,96.4 214.784994,96.6774972 216.045,97.2325 C217.305006,97.7875028 218.354996,98.5374953 219.195,99.4825 C220.035004,100.427505 220.672498,101.529994 221.1075,102.79 C221.542502,104.050006 221.76,105.399993 221.76,106.84 L221.76,106.84 L221.76,106.84 Z M251.795,94.06 C251.795,95.4100067 251.547502,96.6024948 251.0525,97.6375 C250.557498,98.6725052 249.890004,99.5349965 249.05,100.225 C248.209996,100.915003 247.227506,101.439998 246.1025,101.8 C244.977494,102.160002 243.785006,102.34 242.525,102.34 L234.29,102.34 L234.29,118 L233.3,118 L233.3,86.14 L241.94,86.14 C243.080006,86.14 244.234994,86.2674987 245.405,86.5225 C246.575006,86.7775013 247.632495,87.204997 248.5775,87.805 C249.522505,88.405003 250.294997,89.2149949 250.895,90.235 C251.495003,91.2550051 251.795,92.5299923 251.795,94.06 L251.795,94.06 L251.795,94.06 Z M250.805,94.06 C250.805,92.7099932 250.550003,91.5850045 250.04,90.685 C249.529997,89.7849955 248.870004,89.0650027 248.06,88.525 C247.249996,87.9849973 246.342505,87.5950012 245.3375,87.355 C244.332495,87.1149988 243.335005,86.995 242.345,86.995 L234.29,86.995 L234.29,101.485 L242.57,101.485 C243.560005,101.485 244.549995,101.350001 245.54,101.08 C246.530005,100.809999 247.414996,100.375003 248.195,99.775 C248.975004,99.174997 249.604998,98.4025047 250.085,97.4575 C250.565002,96.5124953 250.805,95.3800066 250.805,94.06 L250.805,94.06 L250.805,94.06 Z M258.275,89.515 C258.004999,89.515 257.765001,89.4100011 257.555,89.2 C257.344999,88.989999 257.24,88.7050018 257.24,88.345 C257.24,88.0149984 257.344999,87.7450011 257.555,87.535 C257.765001,87.324999 258.004999,87.22 258.275,87.22 C258.545001,87.22 258.784999,87.324999 258.995,87.535 C259.205001,87.7450011 259.31,88.0149984 259.31,88.345 C259.31,88.7050018 259.197501,88.989999 258.9725,89.2 C258.747499,89.4100011 258.515001,89.515 258.275,89.515 L258.275,89.515 L258.275,89.515 Z M257.78,118 L257.78,97.3 L258.77,97.3 L258.77,118 L257.78,118 L257.78,118 Z M273.44,107.74 L265.88,118 L264.62,118 L272.81,107.065 L265.655,97.3 L266.915,97.3 L273.485,106.39 L280.01,97.3 L281.315,97.3 L274.115,107.065 L282.44,118 L281.135,118 L273.44,107.74 L273.44,107.74 Z M287.21,107.425 C287.21,108.685006 287.397498,109.929994 287.7725,111.16 C288.147502,112.390006 288.717496,113.492495 289.4825,114.4675 C290.247504,115.442505 291.214994,116.229997 292.385,116.83 C293.555006,117.430003 294.934992,117.73 296.525,117.73 C298.145008,117.73 299.584994,117.407503 300.845,116.7625 C302.105006,116.117497 303.199995,115.180006 304.13,113.95 L304.85,114.58 C303.829995,115.900007 302.637507,116.904997 301.2725,117.595 C299.907493,118.285003 298.325009,118.63 296.525,118.63 C294.994992,118.63 293.600006,118.352503 292.34,117.7975 C291.079994,117.242497 289.992505,116.470005 289.0775,115.48 C288.162495,114.489995 287.457502,113.305007 286.9625,111.925 C286.467498,110.544993 286.22,109.045008 286.22,107.425 C286.22,105.864992 286.474997,104.425007 286.985,103.105 C287.495003,101.784993 288.192496,100.645005 289.0775,99.685 C289.962504,98.7249952 291.004994,97.9825026 292.205,97.4575 C293.405006,96.9324974 294.694993,96.67 296.075,96.67 C297.695008,96.67 299.104994,96.9549972 300.305,97.525 C301.505006,98.0950029 302.502496,98.8449954 303.2975,99.775 C304.092504,100.705005 304.684998,101.762494 305.075,102.9475 C305.465002,104.132506 305.66,105.339994 305.66,106.57 L305.66,107.425 L287.21,107.425 L287.21,107.425 Z M304.715,106.57 C304.685,105.219993 304.452502,103.990006 304.0175,102.88 C303.582498,101.769994 302.990004,100.817504 302.24,100.0225 C301.489996,99.227496 300.590005,98.6125022 299.54,98.1775 C298.489995,97.7424978 297.320006,97.525 296.03,97.525 C294.469992,97.525 293.135006,97.8474968 292.025,98.4925 C290.914994,99.1375032 290.007504,99.9324953 289.3025,100.8775 C288.597496,101.822505 288.080002,102.812495 287.75,103.8475 C287.419998,104.882505 287.255,105.789996 287.255,106.57 L304.715,106.57 L304.715,106.57 Z M312.04,118 L312.04,83.98 L313.03,83.98 L313.03,118 L312.04,118 L312.04,118 Z M332.865,112.6 C332.865,113.530005 332.685002,114.362496 332.325,115.0975 C331.964998,115.832504 331.477503,116.454997 330.8625,116.965 C330.247497,117.475003 329.535004,117.864999 328.725,118.135 C327.914996,118.405001 327.045005,118.54 326.115,118.54 C324.584992,118.54 323.197506,118.247503 321.9525,117.6625 C320.707494,117.077497 319.680004,116.215006 318.87,115.075 L319.68,114.535 C321.180008,116.635011 323.339986,117.685 326.16,117.685 C326.820003,117.685 327.487497,117.580001 328.1625,117.37 C328.837503,117.159999 329.452497,116.845002 330.0075,116.425 C330.562503,116.004998 331.012498,115.480003 331.3575,114.85 C331.702502,114.219997 331.875,113.500004 331.875,112.69 C331.875,111.729995 331.657502,110.950003 331.2225,110.35 C330.787498,109.749997 330.240003,109.270002 329.58,108.91 C328.919997,108.549998 328.192504,108.257501 327.3975,108.0325 C326.602496,107.807499 325.860003,107.605001 325.17,107.425 C324.419996,107.214999 323.715003,106.982501 323.055,106.7275 C322.394997,106.472499 321.817502,106.142502 321.3225,105.7375 C320.827498,105.332498 320.437501,104.830003 320.1525,104.23 C319.867499,103.629997 319.725,102.880005 319.725,101.98 C319.725,101.079996 319.904998,100.300003 320.265,99.64 C320.625002,98.9799967 321.104997,98.4325022 321.705,97.9975 C322.305003,97.5624978 322.987496,97.2325011 323.7525,97.0075 C324.517504,96.7824989 325.289996,96.67 326.07,96.67 C328.890014,96.67 331.004993,97.67499 332.415,99.685 L331.56,100.18 C330.869997,99.2799955 330.090004,98.6125022 329.22,98.1775 C328.349996,97.7424978 327.300006,97.525 326.07,97.525 C325.499997,97.525 324.900003,97.5999993 324.27,97.75 C323.639997,97.9000008 323.062503,98.1474983 322.5375,98.4925 C322.012497,98.8375017 321.577502,99.2949972 321.2325,99.865 C320.887498,100.435003 320.715,101.124996 320.715,101.935 C320.715,102.835005 320.857499,103.554997 321.1425,104.095 C321.427501,104.635003 321.824997,105.069998 322.335,105.4 C322.845003,105.730002 323.459996,106.007499 324.18,106.2325 C324.900004,106.457501 325.694996,106.674999 326.565,106.885 C327.375004,107.095001 328.162496,107.342499 328.9275,107.6275 C329.692504,107.912501 330.367497,108.264998 330.9525,108.685 C331.537503,109.105002 332.002498,109.629997 332.3475,110.26 C332.692502,110.890003 332.865,111.669995 332.865,112.6 L332.865,112.6 L332.865,112.6 Z"/></g></g></g></g></g></svg>