<?xml version="1.0" encoding="UTF-8" standalone="no"?>
<svg width="556px" height="219px" viewBox="0 0 556 219" version="1.1" xmlns="http://www.w3.org/2000/svg" xmlns:xlink="http://www.w3.org/1999/xlink" xmlns:sketch="http://www.bohemiancoding.com/sketch/ns">
    <!-- Generator: Sketch 3.1.1 (8761) - http://www.bohemiancoding.com/sketch -->
    <title>Responsive Pixels</title>
    <desc>Created with Sketch.</desc>
    <defs></defs>
    <g id="Page-1" stroke="none" stroke-width="1" fill="none" fill-rule="evenodd" sketch:type="MSPage">
        <g id="Responsive-Pixels" sketch:type="MSLayerGroup" transform="translate(-32.000000, -23.000000)">
            <rect id="Rectangle-4" fill="#050505" sketch:type="MSShapeGroup" x="260" y="23" width="100" height="100"></rect>
            <rect id="Rectangle-3" opacity="0" fill="#0072DB" sketch:type="MSShapeGroup" x="0" y="0" width="615" height="264"></rect>
            <rect id="Rectangle-3" fill="#FFFFFF" sketch:type="MSShapeGroup" x="265" y="28" width="90" height="90"></rect>
            <rect id="Rectangle-2" fill="#B2B2B2" sketch:type="MSShapeGroup" x="276" y="39" width="68" height="68"></rect>
            <rect id="Rectangle-1" fill="#AD0B00" sketch:type="MSShapeGroup" x="291" y="54" width="38" height="38"></rect>
            <path d="M37.876,224.22 L32.692,224.22 L32.692,173.244 L47.668,173.244 C50.1640125,173.244 52.4799893,173.483998 54.616,173.964 C56.7520107,174.444002 58.5999922,175.223995 60.16,176.304 C61.7200078,177.384005 62.9319957,178.787991 63.796,180.516 C64.6600043,182.244009 65.092,184.355988 65.092,186.852 C65.092,188.724009 64.7560034,190.427992 64.084,191.964 C63.4119966,193.500008 62.5000058,194.831994 61.348,195.96 C60.1959942,197.088006 58.8280079,197.987997 57.244,198.66 C55.6599921,199.332003 53.9320094,199.763999 52.06,199.956 L66.964,224.22 L60.628,224.22 L46.516,200.388 L37.876,200.388 L37.876,224.22 Z M37.876,195.924 L46.876,195.924 C51.0520209,195.924 54.2679887,195.168008 56.524,193.656 C58.7800113,192.143992 59.908,189.876015 59.908,186.852 C59.908,185.171992 59.5960031,183.756006 58.972,182.604 C58.3479969,181.451994 57.4840055,180.516004 56.38,179.796 C55.2759945,179.075996 53.9320079,178.548002 52.348,178.212 C50.7639921,177.875998 49.0120096,177.708 47.092,177.708 L37.876,177.708 L37.876,195.924 Z M100.372,204.78 C100.227999,201.611984 99.2080095,198.98401 97.312,196.896 C95.4159905,194.80799 92.7160175,193.764 89.212,193.764 C87.5799918,193.764 86.068007,194.063997 84.676,194.664 C83.283993,195.264003 82.0600053,196.079995 81.004,197.112 C79.9479947,198.144005 79.1080031,199.319993 78.484,200.64 C77.8599969,201.960007 77.5000005,203.339993 77.404,204.78 L100.372,204.78 Z M105.34,206.364 L105.34,207.444 C105.34,207.828002 105.316,208.235998 105.268,208.668 L77.332,208.668 C77.3800002,210.348008 77.7159969,211.931993 78.34,213.42 C78.9640031,214.908007 79.8279945,216.203994 80.932,217.308 C82.0360055,218.412006 83.3319926,219.287997 84.82,219.936 C86.3080074,220.584003 87.9159914,220.908 89.644,220.908 C92.1880127,220.908 94.3839908,220.320006 96.232,219.144 C98.0800092,217.967994 99.4839952,216.612008 100.444,215.076 L104.116,217.956 C102.09999,220.500013 99.8800121,222.323994 97.456,223.428 C95.0319879,224.532006 92.4280139,225.084 89.644,225.084 C87.1479875,225.084 84.8320107,224.640004 82.696,223.752 C80.5599893,222.863996 78.7240077,221.628008 77.188,220.044 C75.6519923,218.459992 74.4400044,216.588011 73.552,214.428 C72.6639956,212.267989 72.22,209.916013 72.22,207.372 C72.22,204.827987 72.6519957,202.476011 73.516,200.316 C74.3800043,198.155989 75.5799923,196.284008 77.116,194.7 C78.6520077,193.115992 80.4519897,191.880004 82.516,190.992 C84.5800103,190.103996 86.811988,189.66 89.212,189.66 C91.8520132,189.66 94.1799899,190.103996 96.196,190.992 C98.2120101,191.880004 99.8919933,193.079992 101.236,194.592 C102.580007,196.104008 103.599997,197.86799 104.296,199.884 C104.992003,201.90001 105.34,204.059988 105.34,206.364 L105.34,206.364 Z M133.78,198.516 C133.059996,197.123993 131.968007,195.984004 130.504,195.096 C129.039993,194.207996 127.372009,193.764 125.5,193.764 C124.635996,193.764 123.772004,193.859999 122.908,194.052 C122.043996,194.244001 121.276003,194.555998 120.604,194.988 C119.931997,195.420002 119.392002,195.971997 118.984,196.644 C118.575998,197.316003 118.372,198.107995 118.372,199.02 C118.372,200.604008 119.019994,201.815996 120.316,202.656 C121.612006,203.496004 123.651986,204.203997 126.436,204.78 C130.42002,205.596004 133.359991,206.783992 135.256,208.344 C137.152009,209.904008 138.1,212.003987 138.1,214.644 C138.1,216.56401 137.728004,218.183993 136.984,219.504 C136.239996,220.824007 135.268006,221.903996 134.068,222.744 C132.867994,223.584004 131.512008,224.183998 130,224.544 C128.487992,224.904002 126.964008,225.084 125.428,225.084 C122.883987,225.084 120.412012,224.556005 118.012,223.5 C115.611988,222.443995 113.644008,220.788011 112.108,218.532 L115.996,215.652 C116.860004,217.140007 118.131992,218.387995 119.812,219.396 C121.492008,220.404005 123.33999,220.908 125.356,220.908 C126.412005,220.908 127.419995,220.812001 128.38,220.62 C129.340005,220.427999 130.179996,220.092002 130.9,219.612 C131.620004,219.131998 132.195998,218.520004 132.628,217.776 C133.060002,217.031996 133.276,216.108006 133.276,215.004 C133.276,213.227991 132.424009,211.896004 130.72,211.008 C129.015991,210.119996 126.556016,209.292004 123.34,208.524 C122.331995,208.283999 121.264006,207.984002 120.136,207.624 C119.007994,207.263998 117.964005,206.736003 117.004,206.04 C116.043995,205.343997 115.252003,204.468005 114.628,203.412 C114.003997,202.355995 113.692,201.036008 113.692,199.452 C113.692,197.723991 114.027997,196.248006 114.7,195.024 C115.372003,193.799994 116.271994,192.792004 117.4,192 C118.528006,191.207996 119.811993,190.620002 121.252,190.236 C122.692007,189.851998 124.179992,189.66 125.716,189.66 C128.068012,189.66 130.347989,190.187995 132.556,191.244 C134.764011,192.300005 136.419994,193.78799 137.524,195.708 L133.78,198.516 Z M152.716,241.5 L147.82,241.5 L147.82,190.524 L152.716,190.524 L152.716,196.356 L152.932,196.356 C154.324007,194.147989 156.183988,192.480006 158.512,191.352 C160.840012,190.223994 163.203988,189.66 165.604,189.66 C168.244013,189.66 170.631989,190.115995 172.768,191.028 C174.904011,191.940005 176.727992,193.187992 178.24,194.772 C179.752008,196.356008 180.927996,198.227989 181.768,200.388 C182.608004,202.548011 183.028,204.875988 183.028,207.372 C183.028,209.868012 182.608004,212.195989 181.768,214.356 C180.927996,216.516011 179.752008,218.387992 178.24,219.972 C176.727992,221.556008 174.904011,222.803995 172.768,223.716 C170.631989,224.628005 168.244013,225.084 165.604,225.084 C163.203988,225.084 160.840012,224.520006 158.512,223.392 C156.183988,222.263994 154.324007,220.644011 152.932,218.532 L152.716,218.532 L152.716,241.5 Z M177.844,207.372 C177.844,205.499991 177.556003,203.736008 176.98,202.08 C176.403997,200.423992 175.576005,198.984006 174.496,197.76 C173.415995,196.535994 172.084008,195.564004 170.5,194.844 C168.915992,194.123996 167.11601,193.764 165.1,193.764 C163.227991,193.764 161.500008,194.111997 159.916,194.808 C158.331992,195.504003 156.964006,196.463994 155.812,197.688 C154.659994,198.912006 153.760003,200.351992 153.112,202.008 C152.463997,203.664008 152.14,205.45199 152.14,207.372 C152.14,209.29201 152.463997,211.079992 153.112,212.736 C153.760003,214.392008 154.659994,215.819994 155.812,217.02 C156.964006,218.220006 158.331992,219.167997 159.916,219.864 C161.500008,220.560003 163.227991,220.908 165.1,220.908 C167.11601,220.908 168.915992,220.560003 170.5,219.864 C172.084008,219.167997 173.415995,218.208006 174.496,216.984 C175.576005,215.759994 176.403997,214.320008 176.98,212.664 C177.556003,211.007992 177.844,209.244009 177.844,207.372 L177.844,207.372 Z M227.02,207.372 C227.02,209.916013 226.576004,212.267989 225.688,214.428 C224.799996,216.588011 223.564008,218.459992 221.98,220.044 C220.395992,221.628008 218.500011,222.863996 216.292,223.752 C214.083989,224.640004 211.660013,225.084 209.02,225.084 C206.427987,225.084 204.028011,224.640004 201.82,223.752 C199.611989,222.863996 197.716008,221.628008 196.132,220.044 C194.547992,218.459992 193.312004,216.588011 192.424,214.428 C191.535996,212.267989 191.092,209.916013 191.092,207.372 C191.092,204.827987 191.535996,202.476011 192.424,200.316 C193.312004,198.155989 194.547992,196.284008 196.132,194.7 C197.716008,193.115992 199.611989,191.880004 201.82,190.992 C204.028011,190.103996 206.427987,189.66 209.02,189.66 C211.660013,189.66 214.083989,190.103996 216.292,190.992 C218.500011,191.880004 220.395992,193.115992 221.98,194.7 C223.564008,196.284008 224.799996,198.155989 225.688,200.316 C226.576004,202.476011 227.02,204.827987 227.02,207.372 L227.02,207.372 Z M221.836,207.372 C221.836,205.499991 221.536003,203.736008 220.936,202.08 C220.335997,200.423992 219.484006,198.984006 218.38,197.76 C217.275994,196.535994 215.932008,195.564004 214.348,194.844 C212.763992,194.123996 210.98801,193.764 209.02,193.764 C207.05199,193.764 205.288008,194.123996 203.728,194.844 C202.167992,195.564004 200.836006,196.535994 199.732,197.76 C198.627994,198.984006 197.776003,200.423992 197.176,202.08 C196.575997,203.736008 196.276,205.499991 196.276,207.372 C196.276,209.244009 196.575997,211.007992 197.176,212.664 C197.776003,214.320008 198.627994,215.759994 199.732,216.984 C200.836006,218.208006 202.167992,219.167997 203.728,219.864 C205.288008,220.560003 207.05199,220.908 209.02,220.908 C210.98801,220.908 212.763992,220.560003 214.348,219.864 C215.932008,219.167997 217.275994,218.208006 218.38,216.984 C219.484006,215.759994 220.335997,214.320008 220.936,212.664 C221.536003,211.007992 221.836,209.244009 221.836,207.372 L221.836,207.372 Z M241.924,190.524 C242.02,191.436005 242.092,192.443994 242.14,193.548 C242.188,194.652006 242.212,195.563996 242.212,196.284 L242.356,196.284 C243.316005,194.31599 244.875989,192.720006 247.036,191.496 C249.196011,190.271994 251.475988,189.66 253.876,189.66 C258.148021,189.66 261.351989,190.931987 263.488,193.476 C265.624011,196.020013 266.692,199.379979 266.692,203.556 L266.692,224.22 L261.796,224.22 L261.796,205.572 C261.796,203.795991 261.652001,202.188007 261.364,200.748 C261.075999,199.307993 260.584003,198.072005 259.888,197.04 C259.191997,196.007995 258.256006,195.204003 257.08,194.628 C255.903994,194.051997 254.428009,193.764 252.652,193.764 C251.355994,193.764 250.096006,194.027997 248.872,194.556 C247.647994,195.084003 246.556005,195.887995 245.596,196.968 C244.635995,198.048005 243.868003,199.415992 243.292,201.072 C242.715997,202.728008 242.428,204.683989 242.428,206.94 L242.428,224.22 L237.532,224.22 L237.532,197.94 C237.532,197.027995 237.508,195.852007 237.46,194.412 C237.412,192.971993 237.34,191.676006 237.244,190.524 L241.924,190.524 Z M297.292,198.516 C296.571996,197.123993 295.480007,195.984004 294.016,195.096 C292.551993,194.207996 290.884009,193.764 289.012,193.764 C288.147996,193.764 287.284004,193.859999 286.42,194.052 C285.555996,194.244001 284.788003,194.555998 284.116,194.988 C283.443997,195.420002 282.904002,195.971997 282.496,196.644 C282.087998,197.316003 281.884,198.107995 281.884,199.02 C281.884,200.604008 282.531994,201.815996 283.828,202.656 C285.124006,203.496004 287.163986,204.203997 289.948,204.78 C293.93202,205.596004 296.871991,206.783992 298.768,208.344 C300.664009,209.904008 301.612,212.003987 301.612,214.644 C301.612,216.56401 301.240004,218.183993 300.496,219.504 C299.751996,220.824007 298.780006,221.903996 297.58,222.744 C296.379994,223.584004 295.024008,224.183998 293.512,224.544 C291.999992,224.904002 290.476008,225.084 288.94,225.084 C286.395987,225.084 283.924012,224.556005 281.524,223.5 C279.123988,222.443995 277.156008,220.788011 275.62,218.532 L279.508,215.652 C280.372004,217.140007 281.643992,218.387995 283.324,219.396 C285.004008,220.404005 286.85199,220.908 288.868,220.908 C289.924005,220.908 290.931995,220.812001 291.892,220.62 C292.852005,220.427999 293.691996,220.092002 294.412,219.612 C295.132004,219.131998 295.707998,218.520004 296.14,217.776 C296.572002,217.031996 296.788,216.108006 296.788,215.004 C296.788,213.227991 295.936009,211.896004 294.232,211.008 C292.527991,210.119996 290.068016,209.292004 286.852,208.524 C285.843995,208.283999 284.776006,207.984002 283.648,207.624 C282.519994,207.263998 281.476005,206.736003 280.516,206.04 C279.555995,205.343997 278.764003,204.468005 278.14,203.412 C277.515997,202.355995 277.204,201.036008 277.204,199.452 C277.204,197.723991 277.539997,196.248006 278.212,195.024 C278.884003,193.799994 279.783994,192.792004 280.912,192 C282.040006,191.207996 283.323993,190.620002 284.764,190.236 C286.204007,189.851998 287.691992,189.66 289.228,189.66 C291.580012,189.66 293.859989,190.187995 296.068,191.244 C298.276011,192.300005 299.931994,193.78799 301.036,195.708 L297.292,198.516 Z M316.3,224.22 L311.404,224.22 L311.404,190.524 L316.3,190.524 L316.3,224.22 Z M317.308,177.564 C317.308,178.572005 316.948004,179.399997 316.228,180.048 C315.507996,180.696003 314.716004,181.02 313.852,181.02 C312.987996,181.02 312.196004,180.696003 311.476,180.048 C310.755996,179.399997 310.396,178.572005 310.396,177.564 C310.396,176.555995 310.755996,175.728003 311.476,175.08 C312.196004,174.431997 312.987996,174.108 313.852,174.108 C314.716004,174.108 315.507996,174.431997 316.228,175.08 C316.948004,175.728003 317.308,176.555995 317.308,177.564 L317.308,177.564 Z M343.156,224.22 L337.756,224.22 L324.004,190.524 L329.476,190.524 L340.42,219.036 L340.564,219.036 L351.58,190.524 L356.836,190.524 L343.156,224.22 Z M390.172,204.78 C390.027999,201.611984 389.008009,198.98401 387.112,196.896 C385.215991,194.80799 382.516018,193.764 379.012,193.764 C377.379992,193.764 375.868007,194.063997 374.476,194.664 C373.083993,195.264003 371.860005,196.079995 370.804,197.112 C369.747995,198.144005 368.908003,199.319993 368.284,200.64 C367.659997,201.960007 367.3,203.339993 367.204,204.78 L390.172,204.78 Z M395.14,206.364 L395.14,207.444 C395.14,207.828002 395.116,208.235998 395.068,208.668 L367.132,208.668 C367.18,210.348008 367.515997,211.931993 368.14,213.42 C368.764003,214.908007 369.627994,216.203994 370.732,217.308 C371.836006,218.412006 373.131993,219.287997 374.62,219.936 C376.108007,220.584003 377.715991,220.908 379.444,220.908 C381.988013,220.908 384.183991,220.320006 386.032,219.144 C387.880009,217.967994 389.283995,216.612008 390.244,215.076 L393.916,217.956 C391.89999,220.500013 389.680012,222.323994 387.256,223.428 C384.831988,224.532006 382.228014,225.084 379.444,225.084 C376.947988,225.084 374.632011,224.640004 372.496,223.752 C370.359989,222.863996 368.524008,221.628008 366.988,220.044 C365.451992,218.459992 364.240004,216.588011 363.352,214.428 C362.463996,212.267989 362.02,209.916013 362.02,207.372 C362.02,204.827987 362.451996,202.476011 363.316,200.316 C364.180004,198.155989 365.379992,196.284008 366.916,194.7 C368.452008,193.115992 370.25199,191.880004 372.316,190.992 C374.38001,190.103996 376.611988,189.66 379.012,189.66 C381.652013,189.66 383.97999,190.103996 385.996,190.992 C388.01201,191.880004 389.691993,193.079992 391.036,194.592 C392.380007,196.104008 393.399997,197.86799 394.096,199.884 C394.792003,201.90001 395.14,204.059988 395.14,206.364 L395.14,206.364 Z M454.396,185.916 C454.396,188.076011 454.000004,189.983992 453.208,191.64 C452.415996,193.296008 451.348007,194.675994 450.004,195.78 C448.659993,196.884006 447.088009,197.723997 445.288,198.3 C443.487991,198.876003 441.58001,199.164 439.564,199.164 L426.388,199.164 L426.388,224.22 L424.804,224.22 L424.804,173.244 L438.628,173.244 C440.452009,173.244 442.299991,173.447998 444.172,173.856 C446.044009,174.264002 447.735992,174.947995 449.248,175.908 C450.760008,176.868005 451.995995,178.163992 452.956,179.796 C453.916005,181.428008 454.396,183.467988 454.396,185.916 L454.396,185.916 Z M452.812,185.916 C452.812,183.755989 452.404004,181.956007 451.588,180.516 C450.771996,179.075993 449.716006,177.924004 448.42,177.06 C447.123994,176.195996 445.672008,175.572002 444.064,175.188 C442.455992,174.803998 440.860008,174.612 439.276,174.612 L426.388,174.612 L426.388,197.796 L439.636,197.796 C441.220008,197.796 442.803992,197.580002 444.388,197.148 C445.972008,196.715998 447.387994,196.020005 448.636,195.06 C449.884006,194.099995 450.891996,192.864008 451.66,191.352 C452.428004,189.839992 452.812,188.028011 452.812,185.916 L452.812,185.916 Z M464.764,178.644 C464.331998,178.644 463.948002,178.476002 463.612,178.14 C463.275998,177.803998 463.108,177.348003 463.108,176.772 C463.108,176.243997 463.275998,175.812002 463.612,175.476 C463.948002,175.139998 464.331998,174.972 464.764,174.972 C465.196002,174.972 465.579998,175.139998 465.916,175.476 C466.252002,175.812002 466.42,176.243997 466.42,176.772 C466.42,177.348003 466.240002,177.803998 465.88,178.14 C465.519998,178.476002 465.148002,178.644 464.764,178.644 L464.764,178.644 Z M463.972,224.22 L463.972,191.1 L465.556,191.1 L465.556,224.22 L463.972,224.22 Z M489.028,207.804 L476.932,224.22 L474.916,224.22 L488.02,206.724 L476.572,191.1 L478.588,191.1 L489.1,205.644 L499.54,191.1 L501.628,191.1 L490.108,206.724 L503.428,224.22 L501.34,224.22 L489.028,207.804 Z M511.06,207.3 C511.06,209.31601 511.359997,211.30799 511.96,213.276 C512.560003,215.24401 513.471994,217.007992 514.696,218.568 C515.920006,220.128008 517.467991,221.387995 519.34,222.348 C521.212009,223.308005 523.419987,223.788 525.964,223.788 C528.556013,223.788 530.85999,223.272005 532.876,222.24 C534.89201,221.207995 536.643993,219.70801 538.132,217.74 L539.284,218.748 C537.651992,220.860011 535.744011,222.467994 533.56,223.572 C531.375989,224.676006 528.844014,225.228 525.964,225.228 C523.515988,225.228 521.28401,224.784004 519.268,223.896 C517.25199,223.007996 515.512007,221.772008 514.048,220.188 C512.583993,218.603992 511.456004,216.708011 510.664,214.5 C509.871996,212.291989 509.476,209.892013 509.476,207.3 C509.476,204.803988 509.883996,202.500011 510.7,200.388 C511.516004,198.275989 512.631993,196.452008 514.048,194.916 C515.464007,193.379992 517.13199,192.192004 519.052,191.352 C520.97201,190.511996 523.035989,190.092 525.244,190.092 C527.836013,190.092 530.09199,190.547995 532.012,191.46 C533.93201,192.372005 535.527994,193.571993 536.8,195.06 C538.072006,196.548007 539.019997,198.239991 539.644,200.136 C540.268003,202.032009 540.58,203.96399 540.58,205.932 L540.58,207.3 L511.06,207.3 Z M539.068,205.932 C539.02,203.771989 538.648003,201.804009 537.952,200.028 C537.255997,198.251991 536.308006,196.728006 535.108,195.456 C533.907994,194.183994 532.468008,193.200003 530.788,192.504 C529.107992,191.807997 527.23601,191.46 525.172,191.46 C522.675988,191.46 520.540009,191.975995 518.764,193.008 C516.987991,194.040005 515.536006,195.311992 514.408,196.824 C513.279994,198.336008 512.452003,199.919992 511.924,201.576 C511.395997,203.232008 511.132,204.683994 511.132,205.932 L539.068,205.932 Z M552.388,224.22 L552.388,169.788 L553.972,169.788 L553.972,224.22 L552.388,224.22 Z M587.308,215.58 C587.308,217.068007 587.020003,218.399994 586.444,219.576 C585.867997,220.752006 585.088005,221.747996 584.104,222.564 C583.119995,223.380004 581.980006,224.003998 580.684,224.436 C579.387994,224.868002 577.996007,225.084 576.508,225.084 C574.059988,225.084 571.84001,224.616005 569.848,223.68 C567.85599,222.743995 566.212006,221.364009 564.916,219.54 L566.212,218.676 C568.612012,222.036017 572.067977,223.716 576.58,223.716 C577.636005,223.716 578.703995,223.548002 579.784,223.212 C580.864005,222.875998 581.847996,222.372003 582.736,221.7 C583.624004,221.027997 584.343997,220.188005 584.896,219.18 C585.448003,218.171995 585.724,217.020006 585.724,215.724 C585.724,214.187992 585.376003,212.940005 584.68,211.98 C583.983997,211.019995 583.108005,210.252003 582.052,209.676 C580.995995,209.099997 579.832006,208.632002 578.56,208.272 C577.287994,207.911998 576.100006,207.588001 574.996,207.3 C573.795994,206.963998 572.668005,206.592002 571.612,206.184 C570.555995,205.775998 569.632004,205.248003 568.84,204.6 C568.047996,203.951997 567.424002,203.148005 566.968,202.188 C566.511998,201.227995 566.284,200.028007 566.284,198.588 C566.284,197.147993 566.571997,195.900005 567.148,194.844 C567.724003,193.787995 568.491995,192.912003 569.452,192.216 C570.412005,191.519997 571.503994,190.992002 572.728,190.632 C573.952006,190.271998 575.187994,190.092 576.436,190.092 C580.948023,190.092 584.331989,191.699984 586.588,194.916 L585.22,195.708 C584.115994,194.267993 582.868007,193.200003 581.476,192.504 C580.083993,191.807997 578.40401,191.46 576.436,191.46 C575.523995,191.46 574.564005,191.579999 573.556,191.82 C572.547995,192.060001 571.624004,192.455997 570.784,193.008 C569.943996,193.560003 569.248003,194.291995 568.696,195.204 C568.143997,196.116005 567.868,197.219994 567.868,198.516 C567.868,199.956007 568.095998,201.107996 568.552,201.972 C569.008002,202.836004 569.643996,203.531997 570.46,204.06 C571.276004,204.588003 572.259994,205.031998 573.412,205.392 C574.564006,205.752002 575.835993,206.099998 577.228,206.436 C578.524006,206.772002 579.783994,207.167998 581.008,207.624 C582.232006,208.080002 583.311995,208.643997 584.248,209.316 C585.184005,209.988003 585.927997,210.827995 586.48,211.836 C587.032003,212.844005 587.308,214.091993 587.308,215.58 L587.308,215.58 Z" id="Responsive-Pixels-4" fill="#050505" sketch:type="MSShapeGroup"></path>
        </g>
    </g>
</svg>