<?xml version="1.0" encoding="UTF-8" standalone="no"?>
<svg width="150px" height="150px" viewBox="0 0 150 150" version="1.1" xmlns="http://www.w3.org/2000/svg" xmlns:xlink="http://www.w3.org/1999/xlink" xmlns:sketch="http://www.bohemiancoding.com/sketch/ns">
    <!-- Generator: Sketch 3.2.2 (9983) - http://www.bohemiancoding.com/sketch -->
    <title>site-header-balloon</title>
    <desc>Created with Sketch.</desc>
    <defs></defs>
    <g id="Page-1" stroke="none" stroke-width="1" fill="none" fill-rule="evenodd" sketch:type="MSPage">
        <g id="site-header-balloon" sketch:type="MSArtboardGroup">
            <g id="logo" sketch:type="MSLayerGroup" transform="translate(31.000000, -6.000000)">
                <g id="strings" transform="translate(0.000000, 62.778841)" fill="#050505" sketch:type="MSShapeGroup">
                    <path d="M38.0319711,10.0425763 C36.1116001,12.5030753 33.8311412,14.6702718 27.9697507,19.7864552 C24.632705,22.6992347 22.8068663,25.9599005 21.5615453,30.4121054 C21.2603836,31.4888024 21.0888251,32.2108633 20.615203,34.3108506 C19.2800883,40.2306004 18.2409089,42.749833 15.4282751,45.3138569 C12.0104663,48.4295642 9.98907703,49.22075 5.95011994,49.7985672 C4.12680148,50.0594129 3.24683441,50.2749012 2.19360914,50.8364022 C1.51447127,51.1984678 0.873422431,51.6788053 0.244334226,52.3081838 C0.00908974335,52.5435369 0.00775553543,52.9264637 0.24135419,53.163475 C0.474952844,53.4004862 0.855025302,53.4018304 1.09026978,53.1664774 C1.63681299,52.619682 2.18249724,52.2108011 2.75511832,51.9055223 C3.65046368,51.428191 4.42562488,51.2383679 6.11889928,50.9961264 C10.3750266,50.3872406 12.6134231,49.5111167 16.2337693,46.2107744 C19.2844773,43.4297197 20.3992284,40.7272824 21.7859149,34.5788687 C22.2547129,32.5002707 22.423569,31.7895844 22.7170924,30.7401952 C23.9034279,26.498872 25.6150738,23.4421368 28.7558696,20.7006564 C34.6788781,15.530689 36.9902945,13.3340725 38.9757019,10.7902448 C41.2969015,7.81617939 42.5691187,4.85888318 43.2697629,0.776882983 C43.3262554,0.447754047 43.1072288,0.13480219 42.7805532,0.0778854457 C42.4538777,0.0209687017 42.1432587,0.241640284 42.0867662,0.57076922 C41.419397,4.45890694 40.2274704,7.2295659 38.0319711,10.0425763 Z" id="string"></path>
                    <path d="M39.947457,11.5385105 C39.6398273,12.1469775 39.3166845,12.7425133 38.9413492,13.4022403 C38.7422215,13.7522474 38.1451625,14.7796114 38.0810481,14.8915334 C35.6838038,19.0763081 35.2421493,21.2970903 35.8308786,24.7768885 C36.2061432,26.9949623 36.2061432,28.34024 36.0045288,29.003145 C35.9831874,29.0733151 35.9642003,29.1182788 35.9507409,29.1418983 C35.9556657,29.133256 35.9720797,29.1116414 36.0022627,29.081811 C35.765596,29.3157122 35.7619407,29.6986238 35.9940983,29.9370679 C36.2262559,30.1755121 36.6063131,30.1791949 36.8429799,29.9452937 C36.9574131,29.8321976 37.0659819,29.6416734 37.1524035,29.3575205 C37.4183237,28.4831793 37.4183237,26.9613238 37.014364,24.5736418 C36.474194,21.3808632 36.8594113,19.4438657 39.1208491,15.4961629 C39.1820931,15.3892517 39.7803765,14.3597809 39.9829284,14.0037551 C40.3673913,13.3279845 40.6996859,12.7155823 41.0172231,12.087519 C42.9725711,8.21999719 43.9368821,4.57045695 43.5233886,0.855534335 C43.4864424,0.523600953 43.1894122,0.28469154 42.8599531,0.321915226 C42.5304941,0.359138911 42.2933655,0.658399842 42.3303117,0.990333223 C42.7130839,4.42924767 41.8058586,7.86274077 39.947457,11.5385105 Z" id="string"></path>
                </g>
                <path d="M50.1739269,63.3532558 C48.2253686,64.465827 31.6730045,53.0523021 24.1664848,44.0117865 C16.6599651,34.9712708 12.3027306,18.3640742 24.1865244,12.3870162 C36.0703181,6.40995814 43.1683424,17.0929431 45.4981298,16.5076991 C47.8279172,15.922455 54.5331003,3.01869889 66.5192046,7.37326139 C78.5053089,11.7278239 77.7483562,28.3917226 72.4983531,40.0097853 C67.24835,51.627848 52.5150885,62.0165193 50.1739269,63.3532558 Z" id="balloon" fill="#C62C1F" sketch:type="MSShapeGroup" transform="translate(46.478108, 34.898044) rotate(14.000000) translate(-46.478108, -34.898044) "></path>
            </g>
        </g>
    </g>
</svg>