<?xml version="1.0" encoding="UTF-8" standalone="no"?>
<svg width="160px" height="530px" viewBox="0 0 160 530" version="1.1" xmlns="http://www.w3.org/2000/svg" xmlns:xlink="http://www.w3.org/1999/xlink" xmlns:sketch="http://www.bohemiancoding.com/sketch/ns">
    <!-- Generator: Sketch 3.2.2 (9983) - http://www.bohemiancoding.com/sketch -->
    <title>sprite-roadmap</title>
    <desc>Created with Sketch.</desc>
    <defs></defs>
    <g id="Page-1" stroke="none" stroke-width="1" fill="none" fill-rule="evenodd" sketch:type="MSPage">
        <g id="sprite-roadmap" sketch:type="MSLayerGroup" transform="translate(0.000000, -6.000000)">
            <g id="Page-1" sketch:type="MSShapeGroup">
                <g id="sprite-roadmap">
                    <g id="pulse" transform="translate(35.000000, 0.000000)">
                        <path d="M25.7425547,79.2429407 C44.5337421,89.8520903 68.5619402,83.5561496 79.4110373,65.1805635 C90.2601344,46.8049774 83.8217981,23.3082067 65.0306107,12.6990571 C46.2394233,2.08990754 22.2112252,8.38584829 11.3621282,26.7614344 C0.513031063,45.1370204 6.95136734,68.6337912 25.7425547,79.2429407 L25.7425547,79.2429407 Z M64.0484093,14.3626542 C81.9000373,24.4413463 88.0164568,46.7632785 77.7098145,64.2200853 C67.4031723,81.676892 44.5763841,87.6580357 26.7247561,77.5793437 C8.87312811,67.5006516 2.75670865,45.1787193 13.0633509,27.7219126 C23.3699931,10.2651058 46.1967813,4.28396211 64.0484093,14.3626542 L64.0484093,14.3626542 Z" id="outer-ring" fill="#4A4A4A" transform="translate(45.386583, 45.970999) rotate(-80.000000) translate(-45.386583, -45.970999) "></path>
                        <ellipse id="node" fill="#C41515" transform="translate(32.601766, 11.256936) rotate(40.000000) translate(-32.601766, -11.256936) " cx="32.601766" cy="11.2569364" rx="4.911007" ry="4.80239114"></ellipse>
                        <ellipse id="node" fill="#C41515" transform="translate(82.998946, 52.711482) rotate(40.000000) translate(-82.998946, -52.711482) " cx="82.998946" cy="52.7114821" rx="4.911007" ry="4.80239114"></ellipse>
                        <ellipse id="node" fill="#C41515" transform="translate(20.417832, 75.075118) rotate(40.000000) translate(-20.417832, -75.075118) " cx="20.4178316" cy="75.0751182" rx="4.911007" ry="4.80239114"></ellipse>
                        <path d="M45.7254404,69.1938641 C58.7443569,69.1938641 69.298274,58.873366 69.298274,46.1423866 C69.298274,33.4114071 58.7443569,23.0909091 45.7254404,23.0909091 C32.7065239,23.0909091 22.1526068,33.4114071 22.1526068,46.1423866 C22.1526068,58.873366 32.7065239,69.1938641 45.7254404,69.1938641 L45.7254404,69.1938641 Z M45.9218807,51.5210647 C49.0681189,51.5210647 51.6186488,49.0269443 51.6186488,45.9502909 C51.6186488,42.8736376 49.0681189,40.3795172 45.9218807,40.3795172 C42.7756426,40.3795172 40.2251126,42.8736376 40.2251126,45.9502909 C40.2251126,49.0269443 42.7756426,51.5210647 45.9218807,51.5210647 L45.9218807,51.5210647 Z" id="middle-ring" fill="#B2B2B2"></path>
                    </g>
                    <g id="indie" transform="translate(0.000000, 106.000000)">
                        <path d="M9.5331489,55.8191809 C9.5331489,56.4592799 9.40637957,57.0572582 9.1528371,57.6131337 C8.89929464,58.1690091 8.5612431,58.6490762 8.13867233,59.0533493 C7.71610156,59.4576224 7.20902424,59.7776671 6.61742516,60.0134931 C6.02582609,60.249319 5.40888202,60.3672302 4.76657445,60.3672302 C3.41434799,60.3672302 2.28187531,59.9208521 1.36912245,59.0280824 C0.456369586,58.1353126 0,57.0656895 0,55.8191809 C0,55.2127712 0.118318041,54.6316374 0.354957672,54.0757619 C0.591597303,53.5198864 0.929648847,53.0398194 1.36912245,52.6355463 C1.80859605,52.2312732 2.31567337,51.9028063 2.89036961,51.6501356 C3.46506586,51.3974649 4.09046122,51.2711315 4.76657445,51.2711315 C5.40888202,51.2711315 6.02582609,51.3890427 6.61742516,51.6248686 C7.20902424,51.8606946 7.71610156,52.1807393 8.13867233,52.5850124 C8.5612431,52.9892855 8.89929464,53.4693526 9.1528371,54.025228 C9.40637957,54.5811035 9.5331489,55.1790818 9.5331489,55.8191809 L9.5331489,55.8191809 Z M0.608498866,89.0199413 L0.608498866,63.8540681 L8.92465003,63.8540681 L8.92465003,89.0199413 L0.608498866,89.0199413 L0.608498866,89.0199413 Z M32.0983152,89.0199413 L32.0983152,75.2747254 C32.0983152,74.5672475 32.0391561,73.8934692 31.9208363,73.2533701 C31.8025165,72.6132711 31.6081369,72.0489817 31.3376916,71.5604851 C31.0672463,71.0719885 30.6869383,70.6845659 30.1967562,70.3982058 C29.7065741,70.1118457 29.08963,69.9686678 28.3459055,69.9686678 C27.6021809,69.9686678 26.9514317,70.1118457 26.3936383,70.3982058 C25.8358449,70.6845659 25.371024,71.0804107 24.9991617,71.585752 C24.6272995,72.0910934 24.3484069,72.6722272 24.1624758,73.329171 C23.9765447,73.9861147 23.8835805,74.6683153 23.8835805,75.3757932 L23.8835805,89.0199413 L15.5167211,89.0199413 L15.5167211,63.8540681 L23.579331,63.8540681 L23.579331,67.340906 L23.6807475,67.340906 C23.9849985,66.8018752 24.382209,66.2712747 24.8723911,65.7490887 C25.3625732,65.2269026 25.9372609,64.7805244 26.5964713,64.4099408 C27.2556817,64.0393571 27.9740412,63.7361569 28.7515714,63.5003309 C29.5291016,63.264505 30.3573279,63.1465937 31.2362751,63.1465937 C32.9265582,63.1465937 34.3632772,63.449794 35.5464754,64.0562036 C36.7296736,64.6626132 37.6846692,65.4458806 38.4114909,66.4060291 C39.1383126,67.3661777 39.6622925,68.4694898 39.9834463,69.7159984 C40.3046001,70.9625071 40.4651746,72.208997 40.4651746,73.4555057 L40.4651746,89.0199413 L32.0983152,89.0199413 L32.0983152,89.0199413 Z M65.5530757,89.0199413 L65.5530757,85.735239 L65.4516592,85.735239 C64.6403234,87.0154371 63.4824968,88.0008379 61.9781449,88.6914711 C60.4737929,89.3821043 58.8764994,89.7274157 57.1862163,89.7274157 C55.2930993,89.7274157 53.6028415,89.3568376 52.1153924,88.6156703 C50.6279433,87.874503 49.3687013,86.8891021 48.3376286,85.6594382 C47.306556,84.4297742 46.5205861,83.0064175 45.9796955,81.3893252 C45.438805,79.7722328 45.1683637,78.087787 45.1683637,76.335937 C45.1683637,74.584087 45.4472562,72.9080633 46.0050497,71.3078157 C46.5628431,69.7075681 47.3572642,68.3010558 48.3883369,67.0882365 C49.4194096,65.8754173 50.6702003,64.9152832 52.1407466,64.2078053 C53.6112928,63.5003274 55.2592941,63.1465937 57.0847998,63.1465937 C58.9441112,63.1465937 60.5160509,63.5003274 61.800666,64.2078053 C63.0852812,64.9152832 64.0825332,65.6901283 64.7924521,66.5323638 L64.8938686,66.5323638 L64.8938686,50.8163265 L73.2100198,50.8163265 L73.2100198,89.0199413 L65.5530757,89.0199413 L65.5530757,89.0199413 Z M65.2488263,76.3864708 C65.2488263,75.5779247 65.1051544,74.7862351 64.8178063,74.0113784 C64.5304581,73.2365216 64.1247963,72.5458988 63.6008085,71.9394892 C63.0768208,71.3330796 62.4429741,70.8445903 61.6992496,70.4740066 C60.955525,70.103423 60.1103962,69.9181339 59.1638376,69.9181339 C58.1834734,69.9181339 57.321442,70.103423 56.5777174,70.4740066 C55.8339929,70.8445903 55.2085975,71.3246574 54.7015126,71.9142223 C54.1944277,72.5037872 53.8141197,73.1859878 53.5605772,73.9608445 C53.3070348,74.7357012 53.1802654,75.5273908 53.1802654,76.335937 C53.1802654,77.1444831 53.3070348,77.9445949 53.5605772,78.7362963 C53.8141197,79.5279978 54.1944277,80.2270428 54.7015126,80.8334525 C55.2085975,81.4398621 55.8339929,81.9283514 56.5777174,82.298935 C57.321442,82.6695187 58.1834734,82.8548077 59.1638376,82.8548077 C60.1103962,82.8548077 60.955525,82.6695187 61.6992496,82.298935 C62.4429741,81.9283514 63.0768208,81.4398621 63.6008085,80.8334525 C64.1247963,80.2270428 64.5304581,79.53642 64.8178063,78.7615633 C65.1051544,77.9867066 65.2488263,77.195017 65.2488263,76.3864708 L65.2488263,76.3864708 Z M88.6506785,84.5729597 C88.6506785,85.9879155 88.1520525,87.1670276 87.1547854,88.1103315 C86.1575184,89.0536353 84.9658867,89.5252802 83.5798546,89.5252802 C82.8699357,89.5252802 82.2022839,89.3989467 81.5768792,89.146276 C80.9514744,88.8936054 80.4021407,88.548294 79.9288614,88.1103315 C79.4555822,87.672369 79.0837255,87.158613 78.8132802,86.5690481 C78.5428349,85.9794832 78.4076143,85.3309715 78.4076143,84.6234936 C78.4076143,83.9497051 78.5428349,83.3096157 78.8132802,82.7032061 C79.0837255,82.0967965 79.4555822,81.566196 79.9288614,81.1113888 C80.4021407,80.6565816 80.9514744,80.2944257 81.5768792,80.0249103 C82.2022839,79.755395 82.8699357,79.6206393 83.5798546,79.6206393 C84.9658867,79.6206393 86.1575184,80.0922841 87.1547854,81.035588 C88.1520525,81.9788918 88.6506785,83.158004 88.6506785,84.5729597 L88.6506785,84.5729597 Z M103.406776,55.8191809 C103.406776,56.4592799 103.280007,57.0572582 103.026464,57.6131337 C102.772922,58.1690091 102.43487,58.6490762 102.012299,59.0533493 C101.589729,59.4576224 101.082651,59.7776671 100.491052,60.0134931 C99.8994532,60.249319 99.2825091,60.3672302 98.6402015,60.3672302 C97.2879751,60.3672302 96.1555024,59.9208521 95.2427495,59.0280824 C94.3299967,58.1353126 93.8736271,57.0656895 93.8736271,55.8191809 C93.8736271,55.2127712 93.9919451,54.6316374 94.2285848,54.0757619 C94.4652244,53.5198864 94.8032759,53.0398194 95.2427495,52.6355463 C95.6822231,52.2312732 96.1893005,51.9028063 96.7639967,51.6501356 C97.3386929,51.3974649 97.9640883,51.2711315 98.6402015,51.2711315 C99.2825091,51.2711315 99.8994532,51.3890427 100.491052,51.6248686 C101.082651,51.8606946 101.589729,52.1807393 102.012299,52.5850124 C102.43487,52.9892855 102.772922,53.4693526 103.026464,54.025228 C103.280007,54.5811035 103.406776,55.1790818 103.406776,55.8191809 L103.406776,55.8191809 Z M94.482126,89.0199413 L94.482126,63.8540681 L102.798277,63.8540681 L102.798277,89.0199413 L94.482126,89.0199413 L94.482126,89.0199413 Z M134.440218,77.7508856 C134.440218,78.0877799 134.423316,78.4078246 134.38951,78.7110294 L116.083836,78.7110294 C116.151447,79.4185073 116.362729,80.0585967 116.717689,80.6313169 C117.072648,81.2040371 117.529018,81.7009487 118.086811,82.1220664 C118.644605,82.5431842 119.27,82.8716512 119.963016,83.1074771 C120.656032,83.3433031 121.374392,83.4612143 122.118116,83.4612143 C123.436537,83.4612143 124.552107,83.2169697 125.46486,82.728473 C126.377613,82.2399764 127.121326,81.6083092 127.696022,80.8334525 L133.476762,84.471892 C132.293563,86.1900525 130.730075,87.5123426 128.78625,88.4388017 C126.842424,89.3652608 124.58593,89.8284835 122.0167,89.8284835 C120.123583,89.8284835 118.331909,89.5337054 116.641626,88.9441405 C114.951343,88.3545756 113.472368,87.4955082 112.204655,86.3669125 C110.936943,85.2383169 109.939691,83.848649 109.212869,82.1978673 C108.486048,80.5470855 108.122642,78.6605061 108.122642,76.5380725 C108.122642,74.4830177 108.477596,72.621705 109.187515,70.9540785 C109.897434,69.2864521 110.860881,67.8715175 112.077885,66.7092324 C113.294889,65.5469473 114.731608,64.6457688 116.388085,64.0056697 C118.044563,63.3655707 119.836236,63.045526 121.763158,63.045526 C123.62247,63.045526 125.32963,63.3571485 126.884691,63.9804028 C128.439751,64.6036571 129.775055,65.5048357 130.890641,66.6839655 C132.006228,67.8630953 132.876711,69.2948743 133.502116,70.9793455 C134.12752,72.6638166 134.440218,74.5840849 134.440218,76.740208 L134.440218,77.7508856 L134.440218,77.7508856 Z M126.82134,73.5565734 C126.82134,72.2426859 126.407227,71.1141072 125.578988,70.1708033 C124.75075,69.2274995 123.50841,68.7558546 121.851933,68.7558546 C121.040597,68.7558546 120.296884,68.8821881 119.62077,69.1348588 C118.944657,69.3875294 118.353067,69.7328408 117.845982,70.1708033 C117.338897,70.6087658 116.933235,71.1225218 116.628984,71.7120867 C116.324733,72.3016517 116.155708,72.9164744 116.121902,73.5565734 L126.82134,73.5565734 L126.82134,73.5565734 Z" id="ind.ie" fill="#343434"></path>
                        <path d="M141.578424,31.9446247 C140.726906,33.0285283 139.715721,33.9832258 137.116705,36.2370165 C135.637016,37.5201596 134.827415,38.9565542 134.275224,40.9178478 C134.141685,41.3921564 134.065613,41.71024 133.855603,42.6353303 C133.263596,45.2431096 132.80281,46.3528867 131.555652,47.4823953 C130.040152,48.8549325 129.143841,49.2034671 127.352916,49.4580082 C126.544433,49.5729165 126.154244,49.6678438 125.68723,49.9151973 C125.386092,50.0746951 125.101842,50.2862943 124.822896,50.5635493 C124.718586,50.6672274 124.717994,50.8359151 124.821575,50.9403237 C124.925156,51.0447323 125.093685,51.0453245 125.197995,50.9416463 C125.440339,50.700771 125.682303,50.52065 125.93621,50.3861681 C126.333218,50.1758932 126.676935,50.0922719 127.427755,49.9855593 C129.314976,49.7173317 130.30751,49.33138 131.912819,47.877507 C133.265542,46.6523916 133.759837,45.4619089 134.374712,42.7533982 C134.582583,41.8377303 134.657456,41.5246574 134.787608,41.0623785 C135.313645,39.1939829 136.072611,37.8474242 137.46528,36.6397421 C140.091619,34.3622584 141.116531,33.3946008 141.996886,32.273989 C143.026136,30.9638482 143.590254,29.6610945 143.900928,27.8628841 C143.925978,27.7178957 143.828859,27.5800335 143.684006,27.5549604 C143.539154,27.5298874 143.401422,27.627098 143.376372,27.7720865 C143.080452,29.4848962 142.551936,30.7054321 141.578424,31.9446247 L141.578424,31.9446247 Z" id="string" fill="#050505"></path>
                        <path d="M142.650495,32.4938594 C142.514088,32.7619024 142.370802,33.0242489 142.204373,33.3148731 C142.116078,33.4690589 141.851334,33.9216352 141.822905,33.9709393 C140.759936,35.8144241 140.5641,36.7927272 140.82515,38.3256544 C140.991548,39.3027645 140.991548,39.8953887 140.902149,40.1874129 C140.892686,40.2183243 140.884267,40.2381318 140.878299,40.2485367 C140.880483,40.2447296 140.887761,40.2352079 140.901144,40.222067 C140.796203,40.3251056 140.794583,40.4937865 140.897524,40.5988263 C141.000466,40.7038662 141.168988,40.7054886 141.273929,40.60245 C141.32467,40.5526287 141.372811,40.4686986 141.411132,40.343523 C141.529044,39.9583566 141.529044,39.287946 141.349923,38.2361198 C141.110405,36.829631 141.281215,35.9763412 142.283966,34.2372918 C142.311122,34.1901951 142.576409,33.7366907 142.666223,33.5798535 C142.836699,33.2821618 142.984043,33.0123852 143.124843,32.7357097 C143.991869,31.0319817 144.419457,29.4242794 144.236109,27.7877747 C144.219727,27.6415508 144.08802,27.536306 143.941933,27.5527038 C143.795847,27.5691017 143.690701,27.7009327 143.707083,27.8471566 C143.876809,29.3620736 143.474534,30.8746024 142.650495,32.4938594 L142.650495,32.4938594 Z" id="string" fill="#050505"></path>
                        <path d="M146.846941,28.1699122 C145.982925,28.6600242 138.643393,23.6321168 135.314905,19.6495719 C131.986417,15.6670271 130.054363,8.35119373 135.323791,5.71816893 C140.593219,3.08514413 143.740575,7.79123267 144.773632,7.53341987 C145.80669,7.27560708 148.779855,1.59122026 154.094649,3.50950029 C159.409443,5.42778031 159.0738,12.7685922 156.745881,17.8866029 C154.417962,23.0046136 147.885043,27.5810505 146.846941,28.1699122 L146.846941,28.1699122 Z" id="balloon" fill="#C62C1F" transform="translate(145.204750, 15.659002) rotate(14.000000) translate(-145.204750, -15.659002) "></path>
                    </g>
                    <g id="heartbeat" transform="translate(0.000000, 225.000000)">
                        <path d="M29.7162867,57.0344558 C28.2131555,58.9541405 26.4281729,60.6449902 21.8402892,64.6366437 C19.2282848,66.9091983 17.7991469,69.4531742 16.8243973,72.9267907 C16.5886692,73.7668312 16.4543852,74.3301841 16.0836672,75.9685971 C15.0386335,80.5871941 14.225237,82.5527029 12.0237053,84.5531579 C9.34848529,86.9840371 7.76628412,87.6013213 4.60487295,88.0521351 C3.17770766,88.2556473 2.48893141,88.4237715 1.66454084,88.8618554 C1.13295955,89.1443395 0.631191659,89.5190995 0.138785716,90.0101414 C-0.0453470986,90.1937642 -0.0463914226,90.4925243 0.136453153,90.6774408 C0.319297728,90.8623573 0.616791683,90.863406 0.800924497,90.6797833 C1.22872003,90.2531727 1.65584323,89.9341633 2.10405069,89.6959844 C2.80486398,89.3235699 3.41160558,89.1754696 4.73698153,88.9864724 C8.0683783,88.5114189 9.82043737,87.8278658 12.6541895,85.2529341 C15.0420688,83.0831514 15.9146175,80.9747061 17.0000181,76.1777052 C17.3669601,74.5559802 17.4991287,74.0015017 17.7288782,73.1827668 C18.6574581,69.8736805 19.997214,67.4888115 22.4556077,65.3499047 C27.0917216,61.3162889 28.9009356,59.6024857 30.4549728,57.6177878 C32.2718443,55.2974179 33.2676464,52.9901312 33.8160613,49.805349 C33.8602796,49.5485622 33.688841,49.3043967 33.4331424,49.2599902 C33.1774438,49.2155837 32.9343131,49.3877519 32.8900948,49.6445388 C32.3677252,52.6780692 31.4347689,54.8397412 29.7162867,57.0344558 L29.7162867,57.0344558 Z" id="string" fill="#050505"></path>
                        <path d="M31.6087476,59.0915341 C31.3679567,59.5662609 31.1150234,60.0308987 30.8212374,60.5456187 C30.6653742,60.8186947 30.1980384,61.6202455 30.1478542,61.7075672 C28.2714602,64.9725342 27.9257642,66.7051916 28.38658,69.420135 C28.6803107,71.1506793 28.6803107,72.2002668 28.5225011,72.7174662 C28.5057966,72.772213 28.4909348,72.8072937 28.4803998,72.8257217 C28.4842545,72.818979 28.4971022,72.8021152 28.5207274,72.7788415 C28.3354814,72.9613316 28.3326202,73.2600797 28.5143369,73.4461141 C28.6960535,73.6321486 28.9935355,73.6350219 29.1787816,73.4525319 C29.2683519,73.3642941 29.3533319,73.2156469 29.4209766,72.9939505 C29.6291202,72.3117882 29.6291202,71.1244345 29.312929,69.2615616 C28.890122,66.7705513 29.191643,65.2593032 30.9617372,62.1793 C31.0096747,62.0958877 31.4779688,61.2926932 31.6365122,61.0149213 C31.9374426,60.4876842 32.1975394,60.0098871 32.4460852,59.5198713 C33.9765939,56.5024254 34.7313887,53.655049 34.407735,50.7566613 C34.3788162,50.4976864 34.1463219,50.3112889 33.8884445,50.3403309 C33.6305672,50.3693729 33.4449596,50.6028567 33.4738785,50.8618315 C33.7734856,53.5448774 33.0633735,56.2236934 31.6087476,59.0915341 L31.6087476,59.0915341 Z" id="string" fill="#050505"></path>
                        <path d="M39.126907,50.2541557 C37.6017127,51.1221853 24.6456878,42.2173374 18.7701128,35.1639145 C12.8945378,28.1104917 9.48400156,15.1535339 18.7857984,10.4902248 C28.0875952,5.82691584 33.6434288,14.1617956 35.4670223,13.7051874 C37.2906158,13.2485792 42.5389609,3.18105067 51.9208392,6.57848638 C61.3027176,9.97592209 60.7102283,22.9771191 56.6008956,32.0415477 C52.4915629,41.1059763 40.9594034,49.211232 39.126907,50.2541557 L39.126907,50.2541557 Z" id="balloon" fill="#C62C1F" transform="translate(36.228048, 28.096279) rotate(14.000000) translate(-36.228048, -28.096279) "></path>
                    </g>
                    <g id="waystone" transform="translate(0.000000, 345.000000)">
                        <g id="left-front" transform="translate(5.875000, 61.810811)">
                            <rect id="Rectangle-path" fill="#343434" x="14.625" y="4.25675676" width="3.65625" height="4.86486486"></rect>
                            <rect id="Rectangle-path-2" fill="#343434" x="20.71875" y="4.25675676" width="3.65625" height="4.86486486"></rect>
                            <rect id="Rectangle-path-2" fill="#343434" x="14.625" y="10.9459459" width="3.65625" height="4.86486486"></rect>
                            <rect id="Rectangle-path-3" fill="#343434" x="20.71875" y="10.9459459" width="3.65625" height="4.86486486"></rect>
                            <rect id="Rectangle-path" fill="#343434" x="14.625" y="0" width="9.75" height="2.43243243"></rect>
                            <rect id="Rectangle-path" fill="#343434" x="14.625" y="17.6351351" width="9.75" height="2.43243243"></rect>
                            <path d="M26.8125,20.0675676 L26.8125,0 L39,0 L39,20.0675676 L26.8125,20.0675676 L26.8125,20.0675676 Z" id="Shape-3" fill="#343434" transform="translate(32.906250, 10.033784) scale(-1, 1) translate(-32.906250, -10.033784) "></path>
                            <path d="M0,20.0675676 L0,0 L12.1875,0 L12.1875,20.0675676 L0,20.0675676 L0,20.0675676 Z" id="Shape-2" fill="#343434"></path>
                            <path d="M10.615394,12.8822742 C11.3011953,14.451733 11.7457357,16.1472873 11.9930445,17.8451891 C12.0797187,18.4402517 12.1353187,18.991628 12.1660495,19.483921 C12.1766551,19.6538182 12.1834144,19.8033491 12.1871214,19.9306014 C12.1889205,19.9990132 12.1889205,19.9990132 12.1895917,20.0406604 C12.189881,20.0687113 14.6273804,20.0675676 14.6273804,20.0675676 C14.6271629,20.030855 14.6271629,20.030855 14.6268506,20.0064482 C14.6258851,19.9469586 14.6258851,19.9469586 14.6235921,19.8599191 C14.6191151,19.7062355 14.6111433,19.5298806 14.5988338,19.3326881 C14.5640928,18.7761534 14.5018434,18.1588358 14.4051965,17.4953051 C14.1287306,15.5972256 13.6304767,13.6967987 12.8497088,11.9100084 C10.573019,6.69979443 6.38954946,3.50849873 0,3.50849873 L0,5.94093117 C5.34300181,5.94093117 8.70188682,8.5032052 10.615394,12.8822742 L10.615394,12.8822742 Z" id="Path-80" fill="#FFFFFF"></path>
                            <path d="M35.5997686,12.8822742 C36.2855699,14.451733 36.7301103,16.1472873 36.9774191,17.8451891 C37.0640933,18.4402517 37.1196933,18.991628 37.1504241,19.483921 C37.1610297,19.6538182 37.167789,19.8033491 37.171496,19.9306014 C37.1732951,19.9990132 37.1732951,19.9990132 37.1739663,20.0406604 C37.1742556,20.0687113 39.611755,20.0675676 39.611755,20.0675676 C39.6115375,20.030855 39.6115375,20.030855 39.6112252,20.0064482 C39.6102597,19.9469586 39.6102597,19.9469586 39.6079667,19.8599191 C39.6034897,19.7062355 39.5955179,19.5298806 39.5832084,19.3326881 C39.5484674,18.7761534 39.486218,18.1588358 39.3895711,17.4953051 C39.1131052,15.5972256 38.6148513,13.6967987 37.8340834,11.9100084 C35.5573936,6.69979443 31.3739241,3.50849873 24.9843746,3.50849873 L24.9843746,5.94093117 C30.3273764,5.94093117 33.6862614,8.5032052 35.5997686,12.8822742 L35.5997686,12.8822742 Z" id="Path-81" fill="#FFFFFF" transform="translate(32.298065, 11.788036) scale(-1, 1) translate(-32.298065, -11.788036) "></path>
                            <rect id="Rectangle-path-4" fill="#343434" x="0" y="21.8918919" width="12.1875" height="7.2972973"></rect>
                            <rect id="Rectangle-path-5" fill="#343434" x="26.8125" y="21.8918919" width="12.1875" height="7.2972973"></rect>
                            <rect id="Rectangle-path-5" fill="#343434" x="14.625" y="21.8918919" width="9.75" height="7.2972973"></rect>
                        </g>
                        <g id="left-front-2" transform="translate(74.125000, 61.810811)">
                            <rect id="Rectangle-path" fill="#343434" x="14.625" y="4.25675676" width="3.65625" height="4.86486486"></rect>
                            <rect id="Rectangle-path-2" fill="#343434" x="20.71875" y="4.25675676" width="3.65625" height="4.86486486"></rect>
                            <rect id="Rectangle-path-2" fill="#343434" x="14.625" y="10.9459459" width="3.65625" height="4.86486486"></rect>
                            <rect id="Rectangle-path-3" fill="#343434" x="20.71875" y="10.9459459" width="3.65625" height="4.86486486"></rect>
                            <rect id="Rectangle-path" fill="#343434" x="14.625" y="0" width="9.75" height="2.43243243"></rect>
                            <rect id="Rectangle-path" fill="#343434" x="14.625" y="17.6351351" width="9.75" height="2.43243243"></rect>
                            <path d="M26.8125,20.0675676 L26.8125,0 L39,0 L39,20.0675676 L26.8125,20.0675676 L26.8125,20.0675676 Z" id="Shape-3" fill="#343434" transform="translate(32.906250, 10.033784) scale(-1, 1) translate(-32.906250, -10.033784) "></path>
                            <path d="M0,20.0675676 L0,0 L12.1875,0 L12.1875,20.0675676 L0,20.0675676 L0,20.0675676 Z" id="Shape-2" fill="#343434"></path>
                            <path d="M10.615394,12.8822742 C11.3011953,14.451733 11.7457357,16.1472873 11.9930445,17.8451891 C12.0797187,18.4402517 12.1353187,18.991628 12.1660495,19.483921 C12.1766551,19.6538182 12.1834144,19.8033491 12.1871214,19.9306014 C12.1889205,19.9990132 12.1889205,19.9990132 12.1895917,20.0406604 C12.189881,20.0687113 14.6273804,20.0675676 14.6273804,20.0675676 C14.6271629,20.030855 14.6271629,20.030855 14.6268506,20.0064482 C14.6258851,19.9469586 14.6258851,19.9469586 14.6235921,19.8599191 C14.6191151,19.7062355 14.6111433,19.5298806 14.5988338,19.3326881 C14.5640928,18.7761534 14.5018434,18.1588358 14.4051965,17.4953051 C14.1287306,15.5972256 13.6304767,13.6967987 12.8497088,11.9100084 C10.573019,6.69979443 6.38954946,3.50849873 0,3.50849873 L0,5.94093117 C5.34300181,5.94093117 8.70188682,8.5032052 10.615394,12.8822742 L10.615394,12.8822742 Z" id="Path-80" fill="#FFFFFF"></path>
                            <path d="M35.5997686,12.8822742 C36.2855699,14.451733 36.7301103,16.1472873 36.9774191,17.8451891 C37.0640933,18.4402517 37.1196933,18.991628 37.1504241,19.483921 C37.1610297,19.6538182 37.167789,19.8033491 37.171496,19.9306014 C37.1732951,19.9990132 37.1732951,19.9990132 37.1739663,20.0406604 C37.1742556,20.0687113 39.611755,20.0675676 39.611755,20.0675676 C39.6115375,20.030855 39.6115375,20.030855 39.6112252,20.0064482 C39.6102597,19.9469586 39.6102597,19.9469586 39.6079667,19.8599191 C39.6034897,19.7062355 39.5955179,19.5298806 39.5832084,19.3326881 C39.5484674,18.7761534 39.486218,18.1588358 39.3895711,17.4953051 C39.1131052,15.5972256 38.6148513,13.6967987 37.8340834,11.9100084 C35.5573936,6.69979443 31.3739241,3.50849873 24.9843746,3.50849873 L24.9843746,5.94093117 C30.3273764,5.94093117 33.6862614,8.5032052 35.5997686,12.8822742 L35.5997686,12.8822742 Z" id="Path-81" fill="#FFFFFF" transform="translate(32.298065, 11.788036) scale(-1, 1) translate(-32.298065, -11.788036) "></path>
                            <rect id="Rectangle-path-4" fill="#343434" x="0" y="21.8918919" width="12.1875" height="7.2972973"></rect>
                            <rect id="Rectangle-path-5" fill="#343434" x="26.8125" y="21.8918919" width="12.1875" height="7.2972973"></rect>
                            <rect id="Rectangle-path-5" fill="#343434" x="14.625" y="21.8918919" width="9.75" height="7.2972973"></rect>
                        </g>
                        <path d="M51.0115967,91 C51.0115967,91 50.96875,84.3738189 50.96875,72.027027 C50.96875,63.7213333 59.4715843,63.7213333 59.4715843,63.7213333 C59.4715843,63.7213333 68.03125,63.7213333 68.03125,72.027027 L68.03125,91 L71.6875,91 L71.6875,61.8108108 L47.3125,61.8108108 L47.3125,91 L51.0115967,91 L51.0115967,91 Z" id="Shape" fill="#343434"></path>
                        <path d="M97.28125,13.1621622 L88.8904419,1 L79.609375,13.1621622 L38.78125,13.1621622 L30.25,1 L21.71875,13.1621622 L10.75,13.1621622 L1,59.3783784 L118,59.3783784 L108.25,13.1621622 L97.28125,13.1621622 L97.28125,13.1621622 Z" id="Shape" fill="#343434"></path>
                        <g id="Group" transform="translate(15.625000, 4.648649)">
                            <rect id="Rectangle-path-3" fill="#FFFFFF" x="0" y="24.3243243" width="6.92471591" height="9.72972973"></rect>
                            <rect id="Rectangle-path-4" fill="#FFFFFF" x="0" y="36.4864865" width="6.92471591" height="4.86486486"></rect>
                            <rect id="Rectangle-path-4" fill="#FFFFFF" x="22.3252841" y="24.3243243" width="6.92471591" height="9.72972973"></rect>
                            <rect id="Rectangle-path-5" fill="#FFFFFF" x="22.3252841" y="36.4864865" width="6.92471591" height="4.86486486"></rect>
                            <rect id="Rectangle-path-3" fill="#FFFFFF" x="9.69460227" y="29.1891892" width="3.71164773" height="4.86486486"></rect>
                            <rect id="Rectangle-path-4" fill="#FFFFFF" x="9.69460227" y="36.4864865" width="3.71164773" height="4.86486486"></rect>
                            <rect id="Rectangle-path-5" fill="#FFFFFF" x="15.7883523" y="36.4864865" width="3.71164773" height="4.86486486"></rect>
                            <rect id="Rectangle-path-6" fill="#FFFFFF" x="15.7883523" y="29.1891892" width="3.71164773" height="4.86486486"></rect>
                            <rect id="Rectangle-path-2" fill="#FFFFFF" x="9.69460227" y="24.3243243" width="9.75" height="2.43243243"></rect>
                            <path d="M0,21.8918919 L29.25,21.8918919 L14.625,0 L0,21.8918919 L0,21.8918919 Z" id="Path-82" fill="#FFFFFF"></path>
                            <rect id="Rectangle-102" fill="#343434" x="13.40625" y="0" width="2.4375" height="21.8918919"></rect>
                            <path d="M18.0840799,11.4647135 C15.1462139,13.4014027 13.399704,16.8553865 13.399704,22.0255094 L15.837204,22.0255094 C15.837204,17.6496267 17.1937309,14.9668925 19.4275931,13.494294 C20.1991152,12.9856941 21.0307673,12.6567509 21.8623729,12.4740148 C22.351759,12.3664777 22.7178152,12.3320049 22.893219,12.3320049 L22.893219,9.89957242 C21.6412639,9.89957242 19.8668551,10.2894789 18.0840799,11.4647135 L18.0840799,11.4647135 Z" id="Path-83" fill="#343434"></path>
                            <path d="M10.7715789,11.4647135 C7.83371296,13.4014027 6.087203,16.8553865 6.087203,22.0255094 L8.524703,22.0255094 C8.524703,17.6496267 9.88122992,14.9668925 12.1150921,13.494294 C12.8866142,12.9856941 13.7182663,12.6567509 14.5498719,12.4740148 C15.039258,12.3664777 15.4053142,12.3320049 15.580718,12.3320049 L15.580718,9.89957242 C14.3287629,9.89957242 12.5543541,10.2894789 10.7715789,11.4647135 L10.7715789,11.4647135 Z" id="Path-84" fill="#343434" transform="translate(10.833961, 15.962541) scale(-1, 1) translate(-10.833961, -15.962541) "></path>
                        </g>
                        <g id="Group-2" transform="translate(74.125000, 4.648649)">
                            <rect id="Rectangle-path-3" fill="#FFFFFF" x="0" y="24.0701896" width="7.22579051" height="9.87494958"></rect>
                            <rect id="Rectangle-path-4" fill="#FFFFFF" x="0" y="36.4138766" width="7.22579051" height="4.93747479"></rect>
                            <rect id="Rectangle-path-4" fill="#FFFFFF" x="22.0242095" y="24.0701896" width="7.22579051" height="9.87494958"></rect>
                            <rect id="Rectangle-path-5" fill="#FFFFFF" x="22.0242095" y="36.4138766" width="7.22579051" height="4.93747479"></rect>
                            <rect id="Rectangle-path-3" fill="#FFFFFF" x="9.48023715" y="29.0076644" width="3.87302372" height="4.93747479"></rect>
                            <rect id="Rectangle-path-4" fill="#FFFFFF" x="9.48023715" y="36.4138766" width="3.87302372" height="4.93747479"></rect>
                            <rect id="Rectangle-path-5" fill="#FFFFFF" x="15.8389328" y="36.4138766" width="3.87302372" height="4.93747479"></rect>
                            <rect id="Rectangle-path-6" fill="#FFFFFF" x="15.8389328" y="29.0076644" width="3.87302372" height="4.93747479"></rect>
                            <rect id="Rectangle-path-2" fill="#FFFFFF" x="9.48023715" y="24.0701896" width="10.173913" height="2.46873739"></rect>
                            <path d="M0,21.6014522 L29.25,21.6014522 L14.625,0 L0,21.6014522 L0,21.6014522 Z" id="Path-82" fill="#FFFFFF"></path>
                            <rect id="Rectangle-102" fill="#343434" x="13.3532609" y="0" width="2.54347826" height="22.2186365"></rect>
                            <path d="M18.8703442,11.6358286 C15.804745,13.6014236 13.9822998,17.1069594 13.9822998,22.3542483 L16.5257781,22.3542483 C16.5257781,17.9130539 17.9412844,15.190279 20.2722711,13.6957014 C21.0773376,13.1795104 21.9451484,12.8456576 22.8129109,12.6601942 C23.3235746,12.551052 23.7055463,12.5160646 23.8885763,12.5160646 L23.8885763,10.0473272 C22.5821884,10.0473272 20.7306315,10.4430532 18.8703442,11.6358286 L18.8703442,11.6358286 Z" id="Path-83" fill="#343434"></path>
                            <path d="M10.7342276,11.6358286 C13.7998268,13.6014236 15.622272,17.1069594 15.622272,22.3542483 L13.0787937,22.3542483 C13.0787937,17.9130539 11.6632874,15.190279 9.33230074,13.6957014 C8.52723424,13.1795104 7.65942336,12.8456576 6.79166093,12.6601942 C6.28099717,12.551052 5.89902551,12.5160646 5.71599546,12.5160646 L5.71599546,10.0473272 C7.02238335,10.0473272 8.87394035,10.4430532 10.7342276,11.6358286 L10.7342276,11.6358286 Z" id="Path-84" fill="#343434"></path>
                        </g>
                    </g>
                    <path d="M11.5,471 C9.025,471 7,473.025 7,475.5 C7,477.975 9.025,480 11.5,480 C13.975,480 16,477.975 16,475.5 C16,473.025 13.975,471 11.5,471 L11.5,471 L11.5,471 Z M11.5,477 C10.6,477 10,476.4 10,475.5 C10,474.6 10.6,474 11.5,474 C12.4,474 13,474.6 13,475.5 C13,476.4 12.4,477 11.5,477 L11.5,477 L11.5,477 Z M19.063591,461.857143 C19.063591,458.085714 15.295,455 11.5,455 C7.705,455 4.04099369,458.085714 4.04099369,461.857143 C4.04099369,461.857143 4.04099369,466.87305 4.04099363,466.87305 C1.59434973,468.94622 0,472.060768 0,475.571429 C0,481.857143 5.175,487 11.5,487 C17.825,487 23,481.857143 23,475.571429 C23,472.111042 21.4509866,469.035504 19.0635903,466.962754 C19.063591,466.962754 19.063591,461.857143 19.063591,461.857143 L19.063591,461.857143 Z M6.9,462.5 C6.9,459.985714 8.9699999,458 11.4999999,458 C14.0299999,458 16.0999998,459.985714 16.0999998,462.5 L16.1,465.057143 C14.72,464.485714 13.11,464.142857 11.5,464.142857 C9.89,464.142857 8.28,464.485714 6.9,465.057143 L6.9,461.857143 L6.9,462.5 L6.9,462.5 Z M17.4339623,479.993631 C17.0062893,479.56051 16.3647799,479.56051 15.9371069,479.993631 C15.509434,480.426752 15.509434,481.076433 15.9371069,481.509554 L16.6855346,482.267516 C15.509434,483.242038 14.0125786,483.783439 12.5157233,484 L12.5157233,482.917197 C12.5157233,482.267516 12.0880503,481.834395 11.4465409,481.834395 C10.8050314,481.834395 10.3773585,482.267516 10.3773585,482.917197 L10.3773585,484 C8.77358491,483.783439 7.3836478,483.133758 6.20754717,482.267516 L6.95597484,481.509554 C7.3836478,481.076433 7.3836478,480.426752 6.95597484,479.993631 C6.52830189,479.56051 5.88679245,479.56051 5.4591195,479.993631 L4.71069182,480.751592 C3.74842767,479.56051 3.21383648,478.044586 3,476.528662 L4.06918239,476.528662 C4.71069182,476.528662 5.13836478,476.095541 5.13836478,475.44586 C5.13836478,474.796178 4.71069182,474.363057 4.06918239,474.363057 L3,474.363057 C3.21383648,472.738854 3.85534591,471.33121 4.71069182,470.140127 L5.4591195,470.898089 C5.88679245,471.33121 6.52830189,471.33121 6.95597484,470.898089 C7.3836478,470.464968 7.3836478,469.815287 6.95597484,469.382166 L6.31446541,468.732484 C7.49056604,467.866242 8.88050314,467.216561 10.4842767,467 L10.4842767,467.974522 C10.4842767,468.624204 10.9119497,469.057325 11.5534591,469.057325 C12.1949686,469.057325 12.6226415,468.624204 12.6226415,467.974522 L12.6226415,467 C14.1194969,467.216561 15.6163522,467.757962 16.7924528,468.732484 L16.0440252,469.490446 C15.6163522,469.923567 15.6163522,470.573248 16.0440252,471.006369 C16.4716981,471.43949 17.1132075,471.43949 17.5408805,471.006369 L18.2893082,470.248408 C19.2515723,471.43949 19.7861635,472.847134 20,474.471338 L18.9308176,474.471338 C18.2893082,474.471338 17.8616352,474.904459 17.8616352,475.55414 C17.8616352,476.203822 18.2893082,476.636943 18.9308176,476.636943 L20,476.636943 C19.7861635,478.044586 19.1446541,479.56051 18.1823899,480.751592 L17.4339623,479.993631 L17.4339623,479.993631 Z" id="lock" fill="#999999"></path>
                    <path d="M2,504 C0.896,504 0,504.896 0,506 L0,534 C0,535.104 0.896,536 2,536 L16,536 C17.104,536 18,535.104 18,534 L18,506 C18,504.896 17.104,504 16,504 L2,504 L2,504 Z M10.5,505 C10.776,505 11,505.448 11,506 C11,506.552 10.776,507 10.5,507 C10.224,507 10,506.552 10,506 C10,505.448 10.224,505 10.5,505 L10.5,505 L10.5,505 Z M7.5,505 L8.5,505 C8.776,505 9,505.448 9,506 C9,506.552 8.776,507 8.5,507 L7.5,507 C7.224,507 7,506.552 7,506 C7,505.448 7.224,505 7.5,505 L7.5,505 L7.5,505 Z M9,535 C7.894,535 7,534.106 7,533 C7,531.894 7.894,531 9,531 C10.106,531 11,531.894 11,533 C11,534.106 10.106,535 9,535 L9,535 L9,535 Z M14.9804688,529.050293 L3.02832031,529.050293 L3.02832031,507.980469 L14.9804688,507.980469 L14.9804688,529.050293 L14.9804688,529.050293 Z" id="Shape" fill="#999999"></path>
                </g>
            </g>
        </g>
    </g>
</svg>