<?xml version="1.0" encoding="UTF-8" standalone="no"?>
<svg width="45px" height="890px" viewBox="0 0 45 890" version="1.1" xmlns="http://www.w3.org/2000/svg" xmlns:xlink="http://www.w3.org/1999/xlink" xmlns:sketch="http://www.bohemiancoding.com/sketch/ns">
    <!-- Generator: Sketch 3.2.2 (9983) - http://www.bohemiancoding.com/sketch -->
    <title>sprite</title>
    <desc>Created with Sketch.</desc>
    <defs></defs>
    <g id="Page-1" stroke="none" stroke-width="1" fill="none" fill-rule="evenodd" sketch:type="MSPage">
        <g id="sprite-with-glyphish-5" sketch:type="MSArtboardGroup">
            <polygon id="Triangle-1" fill="#B3B3B3" sketch:type="MSShapeGroup" transform="translate(23.000000, 5.500000) scale(-1, -1) translate(-23.000000, -5.500000) " points="23 0 34 11 12 11 "></polygon>
            <path d="M14,134 L14,157 L33,145.5 L14,134 Z" id="play" fill="#FFFFFF" sketch:type="MSShapeGroup"></path>
            <rect id="drag" fill="#FFFFFF" sketch:type="MSShapeGroup" transform="translate(22.485281, 190.000000) rotate(-315.000000) translate(-22.485281, -190.000000) " x="17.4852814" y="185" width="10" height="10"></rect>
            <path d="M5,220 L5,263 L40,241.5 L5,220 Z" id="play-big" fill="#FFFFFF" sketch:type="MSShapeGroup"></path>
            <g id="balloon-on-dark" sketch:type="MSLayerGroup" transform="translate(12.000000, 39.000000)">
                <g id="strings-5-+-strings-7-+-strings-8" transform="translate(0.500000, 20.000000)" sketch:type="MSShapeGroup">
                    <g id="strings-5" transform="translate(-0.400000, 0.000000)">
                        <path d="M10.5996426,2.79322366 C10.0644285,3.4775823 9.42885667,4.08036233 7.79526676,5.50336817 C6.86522052,6.31352328 6.35635294,7.22043883 6.00927765,8.4587669 C5.92534284,8.75823743 5.87752887,8.9590701 5.74552876,9.5431567 C5.37342766,11.189665 5.08380473,11.8903597 4.29991392,12.6035126 C3.34735872,13.4701097 2.7839905,13.6901686 1.65831912,13.8508816 C1.15015392,13.9234328 0.904904039,13.9833683 0.611366493,14.1395432 C0.42208841,14.2402474 0.243425868,14.3738476 0.0680967984,14.5489018 C0.00253334308,14.6143624 0.00216149469,14.720869 0.0672662518,14.7867909 C0.132371009,14.8527127 0.238298524,14.8530866 0.30386198,14.787626 C0.456185472,14.6355413 0.608269568,14.5218159 0.767861056,14.4369062 C1.01739692,14.3041422 1.23343704,14.2513451 1.70535851,14.1839685 C2.891556,14.0146141 3.51540486,13.7709307 4.52440795,12.8529795 C5.37465087,12.0794621 5.68533588,11.3278112 6.07181024,9.61770277 C6.20246587,9.03956535 6.24952663,8.84189638 6.33133263,8.5500212 C6.66196847,7.37034737 7.13901014,6.52015269 8.01436084,5.75764238 C9.66512389,4.31967718 10.3093237,3.70871433 10.8626636,3.00117878 C11.50959,2.17397772 11.8641614,1.3514408 12.0594334,0.2160808 C12.075178,0.124537485 12.0141345,0.0374936324 11.9230889,0.0216629142 C11.8320433,0.00583219602 11.7454727,0.067209383 11.7297281,0.158752698 C11.54373,1.24019215 11.2115359,2.01081812 10.5996426,2.79322366 Z" id="Path-152" fill="#DADADA"></path>
                        <g id="Path-153-+-Path-153-+-Path-153" transform="translate(10.400000, 0.000000)" fill="#FFFFFF">
                            <path d="M1.61253212,3.20930004 C1.52679466,3.3785379 1.43673365,3.54417913 1.33212641,3.7276744 C1.27662881,3.82502472 1.11022639,4.11077387 1.09235749,4.14190363 C0.424237175,5.30584915 0.301146534,5.92353341 0.465227433,6.89139806 C0.56981498,7.50832903 0.56981498,7.88250208 0.513624338,8.06688125 C0.507676425,8.08639823 0.502384644,8.09890436 0.498633474,8.10547383 C0.500006009,8.10307009 0.504580649,8.09705825 0.512992778,8.08876128 C0.44703294,8.15381813 0.446014184,8.26032044 0.510717321,8.32664085 C0.575420458,8.39296126 0.681343727,8.39398559 0.747303564,8.32892875 C0.779196519,8.29747241 0.809455014,8.24448036 0.833541014,8.16544661 C0.907653887,7.92225896 0.907653887,7.49897288 0.795068906,6.83486741 C0.644521673,5.94683385 0.751883065,5.40808093 1.38215365,4.31007418 C1.39922256,4.28033809 1.56596621,3.99400297 1.62241815,3.89497861 C1.72956928,3.70702102 1.82218094,3.5366886 1.91067967,3.36200025 C2.45564195,2.28629486 2.72439879,1.27121847 2.6091567,0.237956742 C2.59885966,0.145633403 2.51607632,0.0791835799 2.42425493,0.0895369071 C2.33243355,0.0998902342 2.266345,0.183126118 2.27664204,0.275449456 C2.38332197,1.23194278 2.13047513,2.18692821 1.61253212,3.20930004 Z" id="Path-160"></path>
                            <path d="M1.61253212,3.20930004 C1.52679466,3.3785379 1.43673365,3.54417913 1.33212641,3.7276744 C1.27662881,3.82502472 1.11022639,4.11077387 1.09235749,4.14190363 C0.424237175,5.30584915 0.301146534,5.92353341 0.465227433,6.89139806 C0.56981498,7.50832903 0.56981498,7.88250208 0.513624338,8.06688125 C0.507676425,8.08639823 0.502384644,8.09890436 0.498633474,8.10547383 C0.500006009,8.10307009 0.504580649,8.09705825 0.512992778,8.08876128 C0.44703294,8.15381813 0.446014184,8.26032044 0.510717321,8.32664085 C0.575420458,8.39296126 0.681343727,8.39398559 0.747303564,8.32892875 C0.779196519,8.29747241 0.809455014,8.24448036 0.833541014,8.16544661 C0.907653887,7.92225896 0.907653887,7.49897288 0.795068906,6.83486741 C0.644521673,5.94683385 0.751883065,5.40808093 1.38215365,4.31007418 C1.39922256,4.28033809 1.56596621,3.99400297 1.62241815,3.89497861 C1.72956928,3.70702102 1.82218094,3.5366886 1.91067967,3.36200025 C2.45564195,2.28629486 2.72439879,1.27121847 2.6091567,0.237956742 C2.59885966,0.145633403 2.51607632,0.0791835799 2.42425493,0.0895369071 C2.33243355,0.0998902342 2.266345,0.183126118 2.27664204,0.275449456 C2.38332197,1.23194278 2.13047513,2.18692821 1.61253212,3.20930004 Z" id="Path-161"></path>
                        </g>
                    </g>
                    <g id="strings-7" transform="translate(-0.400000, 0.000000)" fill="#DADADA">
                        <path d="M10.5996426,2.79322366 C10.0644285,3.4775823 9.42885667,4.08036233 7.79526676,5.50336817 C6.86522052,6.31352328 6.35635294,7.22043883 6.00927765,8.4587669 C5.92534284,8.75823743 5.87752887,8.9590701 5.74552876,9.5431567 C5.37342766,11.189665 5.08380473,11.8903597 4.29991392,12.6035126 C3.34735872,13.4701097 2.7839905,13.6901686 1.65831912,13.8508816 C1.15015392,13.9234328 0.904904039,13.9833683 0.611366493,14.1395432 C0.42208841,14.2402474 0.243425868,14.3738476 0.0680967984,14.5489018 C0.00253334308,14.6143624 0.00216149469,14.720869 0.0672662518,14.7867909 C0.132371009,14.8527127 0.238298524,14.8530866 0.30386198,14.787626 C0.456185472,14.6355413 0.608269568,14.5218159 0.767861056,14.4369062 C1.01739692,14.3041422 1.23343704,14.2513451 1.70535851,14.1839685 C2.891556,14.0146141 3.51540486,13.7709307 4.52440795,12.8529795 C5.37465087,12.0794621 5.68533588,11.3278112 6.07181024,9.61770277 C6.20246587,9.03956535 6.24952663,8.84189638 6.33133263,8.5500212 C6.66196847,7.37034737 7.13901014,6.52015269 8.01436084,5.75764238 C9.66512389,4.31967718 10.3093237,3.70871433 10.8626636,3.00117878 C11.50959,2.17397772 11.8641614,1.3514408 12.0594334,0.2160808 C12.075178,0.124537485 12.0141345,0.0374936324 11.9230889,0.0216629142 C11.8320433,0.00583219602 11.7454727,0.067209383 11.7297281,0.158752698 C11.54373,1.24019215 11.2115359,2.01081812 10.5996426,2.79322366 Z" id="Path-152"></path>
                    </g>
                    <g id="strings-8" transform="translate(-0.400000, 0.000000)" fill="#DADADA">
                        <path d="M10.5996426,2.79322366 C10.0644285,3.4775823 9.42885667,4.08036233 7.79526676,5.50336817 C6.86522052,6.31352328 6.35635294,7.22043883 6.00927765,8.4587669 C5.92534284,8.75823743 5.87752887,8.9590701 5.74552876,9.5431567 C5.37342766,11.189665 5.08380473,11.8903597 4.29991392,12.6035126 C3.34735872,13.4701097 2.7839905,13.6901686 1.65831912,13.8508816 C1.15015392,13.9234328 0.904904039,13.9833683 0.611366493,14.1395432 C0.42208841,14.2402474 0.243425868,14.3738476 0.0680967984,14.5489018 C0.00253334308,14.6143624 0.00216149469,14.720869 0.0672662518,14.7867909 C0.132371009,14.8527127 0.238298524,14.8530866 0.30386198,14.787626 C0.456185472,14.6355413 0.608269568,14.5218159 0.767861056,14.4369062 C1.01739692,14.3041422 1.23343704,14.2513451 1.70535851,14.1839685 C2.891556,14.0146141 3.51540486,13.7709307 4.52440795,12.8529795 C5.37465087,12.0794621 5.68533588,11.3278112 6.07181024,9.61770277 C6.20246587,9.03956535 6.24952663,8.84189638 6.33133263,8.5500212 C6.66196847,7.37034737 7.13901014,6.52015269 8.01436084,5.75764238 C9.66512389,4.31967718 10.3093237,3.70871433 10.8626636,3.00117878 C11.50959,2.17397772 11.8641614,1.3514408 12.0594334,0.2160808 C12.075178,0.124537485 12.0141345,0.0374936324 11.9230889,0.0216629142 C11.8320433,0.00583219602 11.7454727,0.067209383 11.7297281,0.158752698 C11.54373,1.24019215 11.2115359,2.01081812 10.5996426,2.79322366 Z" id="Path-152"></path>
                    </g>
                </g>
                <g id="balloon-3" transform="translate(2.000000, 0.300000)" fill="#C62C1F" sketch:type="MSShapeGroup">
                    <path d="M11.8231893,19.7491859 C11.2645169,20.0670976 5.20507428,15.9966727 3.5756755,13.0789045 C1.94627671,10.1611364 1.7881435,7.5116588 2.84468577,5.70399898 C3.90122803,3.89633917 6.52233448,3.50747137 7.77097429,4.16188794 C9.01961409,4.81630451 9.79538684,5.72494533 10.2648169,5.42605314 C10.734247,5.12716094 12.9631108,1.88688533 16.343009,3.08245408 C19.7229072,4.27802284 19.7290707,9.75910053 18.2238392,13.0789045 C16.7186076,16.3987085 12.4944252,19.36722 11.8231893,19.7491859 Z" id="balloon" transform="translate(10.735505, 11.310657) rotate(14.000000) translate(-10.735505, -11.310657) "></path>
                </g>
            </g>
            <g id="balloon-on-light" sketch:type="MSLayerGroup" transform="translate(10.000000, 80.000000)">
                <g id="strings-4" transform="translate(0.600000, 19.700000)" fill="#050505" sketch:type="MSShapeGroup">
                    <path d="M10.5996426,2.79322366 C10.0644285,3.4775823 9.42885667,4.08036233 7.79526676,5.50336817 C6.86522052,6.31352328 6.35635294,7.22043883 6.00927765,8.4587669 C5.92534284,8.75823743 5.87752887,8.9590701 5.74552876,9.5431567 C5.37342766,11.189665 5.08380473,11.8903597 4.29991392,12.6035126 C3.34735872,13.4701097 2.7839905,13.6901686 1.65831912,13.8508816 C1.15015392,13.9234328 0.904904039,13.9833683 0.611366493,14.1395432 C0.42208841,14.2402474 0.243425868,14.3738476 0.0680967984,14.5489018 C0.00253334308,14.6143624 0.00216149469,14.720869 0.0672662518,14.7867909 C0.132371009,14.8527127 0.238298524,14.8530866 0.30386198,14.787626 C0.456185472,14.6355413 0.608269568,14.5218159 0.767861056,14.4369062 C1.01739692,14.3041422 1.23343704,14.2513451 1.70535851,14.1839685 C2.891556,14.0146141 3.51540486,13.7709307 4.52440795,12.8529795 C5.37465087,12.0794621 5.68533588,11.3278112 6.07181024,9.61770277 C6.20246587,9.03956535 6.24952663,8.84189638 6.33133263,8.5500212 C6.66196847,7.37034737 7.13901014,6.52015269 8.01436084,5.75764238 C9.66512389,4.31967718 10.3093237,3.70871433 10.8626636,3.00117878 C11.50959,2.17397772 11.8641614,1.3514408 12.0594334,0.2160808 C12.075178,0.124537485 12.0141345,0.0374936324 11.9230889,0.0216629142 C11.8320433,0.00583219602 11.7454727,0.067209383 11.7297281,0.158752698 C11.54373,1.24019215 11.2115359,2.01081812 10.5996426,2.79322366 Z" id="Path-152"></path>
                    <path d="M11.9125328,3.20930004 C11.8267953,3.3785379 11.7367343,3.54417913 11.6321271,3.7276744 C11.5766295,3.82502472 11.4102271,4.11077387 11.3923582,4.14190363 C10.7242378,5.30584915 10.6011472,5.92353341 10.7652281,6.89139806 C10.8698156,7.50832903 10.8698156,7.88250208 10.813625,8.06688125 C10.8076771,8.08639823 10.8023853,8.09890436 10.7986341,8.10547383 C10.8000067,8.10307009 10.8045813,8.09705825 10.8129934,8.08876128 C10.7470336,8.15381813 10.7460149,8.26032044 10.810718,8.32664085 C10.8754211,8.39296126 10.9813444,8.39398559 11.0473042,8.32892875 C11.0791972,8.29747241 11.1094557,8.24448036 11.1335417,8.16544661 C11.2076546,7.92225896 11.2076546,7.49897288 11.0950696,6.83486741 C10.9445223,5.94683385 11.0518837,5.40808093 11.6821543,4.31007418 C11.6992232,4.28033809 11.8659669,3.99400297 11.9224188,3.89497861 C12.0295699,3.70702102 12.1221816,3.5366886 12.2106803,3.36200025 C12.7556426,2.28629486 13.0243995,1.27121847 12.9091574,0.237956742 C12.8988603,0.145633403 12.816077,0.0791835799 12.7242556,0.0895369071 C12.6324342,0.0998902342 12.5663457,0.183126118 12.5766427,0.275449456 C12.6833226,1.23194278 12.4304758,2.18692821 11.9125328,3.20930004 Z" id="Path-153"></path>
                </g>
                <g id="strings-5" transform="translate(0.600000, 19.700000)" fill="#050505" sketch:type="MSShapeGroup">
                    <path d="M10.5996426,2.79322366 C10.0644285,3.4775823 9.42885667,4.08036233 7.79526676,5.50336817 C6.86522052,6.31352328 6.35635294,7.22043883 6.00927765,8.4587669 C5.92534284,8.75823743 5.87752887,8.9590701 5.74552876,9.5431567 C5.37342766,11.189665 5.08380473,11.8903597 4.29991392,12.6035126 C3.34735872,13.4701097 2.7839905,13.6901686 1.65831912,13.8508816 C1.15015392,13.9234328 0.904904039,13.9833683 0.611366493,14.1395432 C0.42208841,14.2402474 0.243425868,14.3738476 0.0680967984,14.5489018 C0.00253334308,14.6143624 0.00216149469,14.720869 0.0672662518,14.7867909 C0.132371009,14.8527127 0.238298524,14.8530866 0.30386198,14.787626 C0.456185472,14.6355413 0.608269568,14.5218159 0.767861056,14.4369062 C1.01739692,14.3041422 1.23343704,14.2513451 1.70535851,14.1839685 C2.891556,14.0146141 3.51540486,13.7709307 4.52440795,12.8529795 C5.37465087,12.0794621 5.68533588,11.3278112 6.07181024,9.61770277 C6.20246587,9.03956535 6.24952663,8.84189638 6.33133263,8.5500212 C6.66196847,7.37034737 7.13901014,6.52015269 8.01436084,5.75764238 C9.66512389,4.31967718 10.3093237,3.70871433 10.8626636,3.00117878 C11.50959,2.17397772 11.8641614,1.3514408 12.0594334,0.2160808 C12.075178,0.124537485 12.0141345,0.0374936324 11.9230889,0.0216629142 C11.8320433,0.00583219602 11.7454727,0.067209383 11.7297281,0.158752698 C11.54373,1.24019215 11.2115359,2.01081812 10.5996426,2.79322366 Z" id="Path-152"></path>
                    <path d="M11.9125328,3.20930004 C11.8267953,3.3785379 11.7367343,3.54417913 11.6321271,3.7276744 C11.5766295,3.82502472 11.4102271,4.11077387 11.3923582,4.14190363 C10.7242378,5.30584915 10.6011472,5.92353341 10.7652281,6.89139806 C10.8698156,7.50832903 10.8698156,7.88250208 10.813625,8.06688125 C10.8076771,8.08639823 10.8023853,8.09890436 10.7986341,8.10547383 C10.8000067,8.10307009 10.8045813,8.09705825 10.8129934,8.08876128 C10.7470336,8.15381813 10.7460149,8.26032044 10.810718,8.32664085 C10.8754211,8.39296126 10.9813444,8.39398559 11.0473042,8.32892875 C11.0791972,8.29747241 11.1094557,8.24448036 11.1335417,8.16544661 C11.2076546,7.92225896 11.2076546,7.49897288 11.0950696,6.83486741 C10.9445223,5.94683385 11.0518837,5.40808093 11.6821543,4.31007418 C11.6992232,4.28033809 11.8659669,3.99400297 11.9224188,3.89497861 C12.0295699,3.70702102 12.1221816,3.5366886 12.2106803,3.36200025 C12.7556426,2.28629486 13.0243995,1.27121847 12.9091574,0.237956742 C12.8988603,0.145633403 12.816077,0.0791835799 12.7242556,0.0895369071 C12.6324342,0.0998902342 12.5663457,0.183126118 12.5766427,0.275449456 C12.6833226,1.23194278 12.4304758,2.18692821 11.9125328,3.20930004 Z" id="Path-153"></path>
                </g>
                <g id="strings-6" transform="translate(0.600000, 19.700000)" fill="#050505" sketch:type="MSShapeGroup">
                    <path d="M10.5996426,2.79322366 C10.0644285,3.4775823 9.42885667,4.08036233 7.79526676,5.50336817 C6.86522052,6.31352328 6.35635294,7.22043883 6.00927765,8.4587669 C5.92534284,8.75823743 5.87752887,8.9590701 5.74552876,9.5431567 C5.37342766,11.189665 5.08380473,11.8903597 4.29991392,12.6035126 C3.34735872,13.4701097 2.7839905,13.6901686 1.65831912,13.8508816 C1.15015392,13.9234328 0.904904039,13.9833683 0.611366493,14.1395432 C0.42208841,14.2402474 0.243425868,14.3738476 0.0680967984,14.5489018 C0.00253334308,14.6143624 0.00216149469,14.720869 0.0672662518,14.7867909 C0.132371009,14.8527127 0.238298524,14.8530866 0.30386198,14.787626 C0.456185472,14.6355413 0.608269568,14.5218159 0.767861056,14.4369062 C1.01739692,14.3041422 1.23343704,14.2513451 1.70535851,14.1839685 C2.891556,14.0146141 3.51540486,13.7709307 4.52440795,12.8529795 C5.37465087,12.0794621 5.68533588,11.3278112 6.07181024,9.61770277 C6.20246587,9.03956535 6.24952663,8.84189638 6.33133263,8.5500212 C6.66196847,7.37034737 7.13901014,6.52015269 8.01436084,5.75764238 C9.66512389,4.31967718 10.3093237,3.70871433 10.8626636,3.00117878 C11.50959,2.17397772 11.8641614,1.3514408 12.0594334,0.2160808 C12.075178,0.124537485 12.0141345,0.0374936324 11.9230889,0.0216629142 C11.8320433,0.00583219602 11.7454727,0.067209383 11.7297281,0.158752698 C11.54373,1.24019215 11.2115359,2.01081812 10.5996426,2.79322366 Z" id="Path-152"></path>
                    <path d="M11.9125328,3.20930004 C11.8267953,3.3785379 11.7367343,3.54417913 11.6321271,3.7276744 C11.5766295,3.82502472 11.4102271,4.11077387 11.3923582,4.14190363 C10.7242378,5.30584915 10.6011472,5.92353341 10.7652281,6.89139806 C10.8698156,7.50832903 10.8698156,7.88250208 10.813625,8.06688125 C10.8076771,8.08639823 10.8023853,8.09890436 10.7986341,8.10547383 C10.8000067,8.10307009 10.8045813,8.09705825 10.8129934,8.08876128 C10.7470336,8.15381813 10.7460149,8.26032044 10.810718,8.32664085 C10.8754211,8.39296126 10.9813444,8.39398559 11.0473042,8.32892875 C11.0791972,8.29747241 11.1094557,8.24448036 11.1335417,8.16544661 C11.2076546,7.92225896 11.2076546,7.49897288 11.0950696,6.83486741 C10.9445223,5.94683385 11.0518837,5.40808093 11.6821543,4.31007418 C11.6992232,4.28033809 11.8659669,3.99400297 11.9224188,3.89497861 C12.0295699,3.70702102 12.1221816,3.5366886 12.2106803,3.36200025 C12.7556426,2.28629486 13.0243995,1.27121847 12.9091574,0.237956742 C12.8988603,0.145633403 12.816077,0.0791835799 12.7242556,0.0895369071 C12.6324342,0.0998902342 12.5663457,0.183126118 12.5766427,0.275449456 C12.6833226,1.23194278 12.4304758,2.18692821 11.9125328,3.20930004 Z" id="Path-153"></path>
                </g>
                <path d="M14.8231893,19.7491859 C14.2645169,20.0670976 8.20507428,15.9966727 6.5756755,13.0789045 C4.94627671,10.1611364 4.7881435,7.5116588 5.84468577,5.70399898 C6.90122803,3.89633917 9.52233448,3.50747137 10.7709743,4.16188794 C12.0196141,4.81630451 12.7953868,5.72494533 13.2648169,5.42605314 C13.734247,5.12716094 15.9631108,1.88688533 19.343009,3.08245408 C22.7229072,4.27802284 22.7290707,9.75910053 21.2238392,13.0789045 C19.7186076,16.3987085 15.4944252,19.36722 14.8231893,19.7491859 Z" id="balloon" fill="#C62C1F" sketch:type="MSShapeGroup" transform="translate(13.735505, 11.310657) rotate(14.000000) translate(-13.735505, -11.310657) "></path>
            </g>
            <g id="fork" sketch:type="MSLayerGroup" transform="translate(9.000000, 585.000000)">
                <path d="M4.5,9 C6.98528137,9 9,6.98528137 9,4.5 C9,2.01471863 6.98528137,0 4.5,0 C2.01471863,0 0,2.01471863 0,4.5 C0,6.98528137 2.01471863,9 4.5,9 Z M4.5,6 C5.32842712,6 6,5.32842712 6,4.5 C6,3.67157288 5.32842712,3 4.5,3 C3.67157288,3 3,3.67157288 3,4.5 C3,5.32842712 3.67157288,6 4.5,6 Z" id="Oval-4" fill="#343434" sketch:type="MSShapeGroup"></path>
                <path d="M23.5,9 C25.9852814,9 28,6.98528137 28,4.5 C28,2.01471863 25.9852814,0 23.5,0 C21.0147186,0 19,2.01471863 19,4.5 C19,6.98528137 21.0147186,9 23.5,9 Z M23.5,6 C24.3284271,6 25,5.32842712 25,4.5 C25,3.67157288 24.3284271,3 23.5,3 C22.6715729,3 22,3.67157288 22,4.5 C22,5.32842712 22.6715729,6 23.5,6 Z" id="Oval-5" fill="#343434" sketch:type="MSShapeGroup"></path>
                <path d="M4.5,28 C6.98528137,28 9,25.9852814 9,23.5 C9,21.0147186 6.98528137,19 4.5,19 C2.01471863,19 0,21.0147186 0,23.5 C0,25.9852814 2.01471863,28 4.5,28 Z M4.5,25 C5.32842712,25 6,24.3284271 6,23.5 C6,22.6715729 5.32842712,22 4.5,22 C3.67157288,22 3,22.6715729 3,23.5 C3,24.3284271 3.67157288,25 4.5,25 Z" id="Oval-6" fill="#343434" sketch:type="MSShapeGroup"></path>
                <path d="M3,21 L6,21 L6,7 L3,7 L3,21 Z" id="Path-36" fill="#343434" sketch:type="MSShapeGroup"></path>
                <path d="M4.5,21 C4.5,17 5.5,13.5 14,13.5 C22.5,13.5 23.5,13.5 23.5,7.5" id="Path-128" stroke="#343434" stroke-width="3" sketch:type="MSShapeGroup"></path>
            </g>
            <path d="M12,420 L17,420 L17,418 L12,418 L12,420 L12,420 Z M12,428 L17,428 L17,426 L12,426 L12,428 L12,428 Z M12,424 L17,424 L17,422 L12,422 L12,424 L12,424 Z M23,411.692308 L19.3076923,408 L9.46153846,408 C8.10769231,408 7,409.107692 7,410.461538 L7,431.384615 C7,432.738462 8.10769231,433.846154 9.46153846,433.846154 L16.8461542,433.846153 L16.8461542,431 L10,431 L10,411 L18.0769234,411 L18.0769231,413.415385 C18.9384615,412.307692 20.2923077,411.692308 21.7692308,411.692308 L23,411.692308 Z M21.5,414.153846 C20.1461538,414.153846 19,415.261538 19,416.615384 L19,437.538461 C19,438.892307 20.1461538,439.999999 21.5,439.999999 C21.5,439.999999 23.457845,439.999999 24.4367676,440 C28.4706656,440 36.5384615,440 36.5384615,440 C37.8923077,440 39,438.892308 39,437.538462 L39,421.538462 L31.6153846,414.153846 L21.5,414.153846 Z M35.9999999,437 L22,437 L22,417 L29.9999999,417 L30,423 L35.9999999,423 L35.9999999,437 Z M32,429 L24,429 L24,431 L32,431 L32,429 L32,429 Z M34,427 L34,425 L24,425 L24,427 L34,427 Z M24,435 L34,435 L34,433 L24,433 L24,435 L24,435 Z" id="documents" fill="#343434" sketch:type="MSShapeGroup"></path>
            <path d="M37.1205674,479.971631 L34.8120567,479.421986 C34.4822695,479.312057 34.1524823,479.092199 34.0425532,478.652482 C33.822695,477.992908 33.6028369,477.443262 33.2730496,476.893617 C33.0531915,476.56383 33.1631206,476.124113 33.2730496,475.794326 L34.4822695,473.815603 C34.7021277,473.375887 34.7021277,472.826241 34.2624113,472.496454 L32.393617,470.62766 C32.0638298,470.297872 31.5141844,470.187943 31.0744681,470.51773 L29.0957447,471.72695 C28.7659574,471.946809 28.3262411,471.946809 27.9964539,471.72695 C27.4468085,471.397163 26.787234,471.177305 26.2375887,470.957447 C25.9078014,470.847518 25.5780142,470.51773 25.4680851,470.187943 L24.9184397,467.879433 C24.8085106,467.439716 24.3687943,467 23.8191489,467 L21.1808511,467 C20.6312057,467 20.1914894,467.329787 20.0815603,467.879433 L19.5319149,470.187943 C19.4219858,470.51773 19.2021277,470.847518 18.7624113,470.957447 C18.1028369,471.177305 17.5531915,471.397163 17.0035461,471.72695 C16.6737589,471.946809 16.2340426,471.836879 15.9042553,471.72695 L13.9255319,470.51773 C13.4858156,470.297872 12.9361702,470.297872 12.606383,470.737589 L10.7375887,472.606383 C10.4078014,472.93617 10.2978723,473.485816 10.5177305,473.925532 L11.7269504,475.904255 C11.9468085,476.234043 11.9468085,476.673759 11.7269504,477.003546 C11.3971631,477.553191 11.177305,478.212766 10.9574468,478.762411 C10.8475177,479.092199 10.5177305,479.421986 10.1879433,479.531915 L7.87943262,480.08156 C7.43971631,480.191489 7,480.631206 7,481.180851 L7,483.819149 C7,484.368794 7.32978723,484.808511 7.87943262,484.91844 L10.1879433,485.468085 C10.5177305,485.578014 10.8475177,485.797872 10.9574468,486.237589 C11.177305,486.897163 11.3971631,487.446809 11.7269504,487.996454 C11.9468085,488.326241 11.8368794,488.765957 11.7269504,489.095745 L10.5177305,491.074468 C10.2978723,491.514184 10.2978723,492.06383 10.7375887,492.393617 L12.606383,494.262411 C12.9361702,494.592199 13.4858156,494.702128 13.9255319,494.48227 L15.9042553,493.27305 C16.2340426,493.053191 16.6737589,493.053191 17.0035461,493.27305 C17.5531915,493.602837 18.212766,493.822695 18.7624113,494.042553 C19.0921986,494.152482 19.4219858,494.48227 19.5319149,494.812057 L20.0815603,497.120567 C20.1914894,497.560284 20.6312057,498 21.1808511,498 L23.8191489,498 C24.3687943,498 24.8085106,497.670213 24.9184397,497.120567 L25.4680851,494.812057 C25.5780142,494.48227 25.7978723,494.152482 26.2375887,494.042553 C26.8971631,493.822695 27.4468085,493.602837 27.9964539,493.27305 C28.3262411,493.053191 28.7659574,493.163121 29.0957447,493.27305 L31.0744681,494.48227 C31.5141844,494.702128 32.0638298,494.702128 32.393617,494.37234 L34.2624113,492.503546 C34.5921986,492.173759 34.7021277,491.624113 34.4822695,491.184397 L33.2730496,489.205674 C33.0531915,488.875887 33.0531915,488.43617 33.2730496,488.106383 C33.6028369,487.556738 33.822695,486.897163 34.0425532,486.347518 C34.1524823,486.01773 34.4822695,485.687943 34.8120567,485.578014 L37.1205674,485.028369 C37.5602837,484.91844 38,484.478723 38,483.929078 L38,481.29078 C38,480.521277 37.6702128,480.08156 37.1205674,479.971631 L37.1205674,479.971631 Z M22.5,490 C18.3,490 15,486.7 15,482.5 C15,478.3 18.3,475 22.5,475 C26.7,475 30,478.3 30,482.5 C30,486.7 26.7,490 22.5,490 L22.5,490 Z" id="gear" fill="#343434" sketch:type="MSShapeGroup"></path>
            <path d="M22.5,367 C20.025,367 18,369.025 18,371.5 C18,373.975 20.025,376 22.5,376 C24.975,376 27,373.975 27,371.5 C27,369.025 24.975,367 22.5,367 L22.5,367 Z M22.5,373 C21.6,373 21,372.4 21,371.5 C21,370.6 21.6,370 22.5,370 C23.4,370 24,370.6 24,371.5 C24,372.4 23.4,373 22.5,373 L22.5,373 Z M30.063591,357.857143 C30.063591,354.085714 26.295,351 22.5,351 C18.705,351 15.0409937,354.085714 15.0409937,357.857143 C15.0409937,357.857143 15.0409937,362.87305 15.0409936,362.87305 C12.5943497,364.94622 11,368.060768 11,371.571429 C11,377.857143 16.175,383 22.5,383 C28.825,383 34,377.857143 34,371.571429 C34,368.111042 32.4509866,365.035504 30.0635903,362.962754 C30.063591,362.962754 30.063591,357.857143 30.063591,357.857143 Z M17.9,358.5 C17.9,355.985714 19.9699999,354 22.4999999,354 C25.0299999,354 27.0999998,355.985714 27.0999998,358.5 L27.1,361.057143 C25.72,360.485714 24.11,360.142857 22.5,360.142857 C20.89,360.142857 19.28,360.485714 17.9,361.057143 L17.9,357.857143 L17.9,358.5 Z M28.4339623,375.993631 C28.0062893,375.56051 27.3647799,375.56051 26.9371069,375.993631 C26.509434,376.426752 26.509434,377.076433 26.9371069,377.509554 L27.6855346,378.267516 C26.509434,379.242038 25.0125786,379.783439 23.5157233,380 L23.5157233,378.917197 C23.5157233,378.267516 23.0880503,377.834395 22.4465409,377.834395 C21.8050314,377.834395 21.3773585,378.267516 21.3773585,378.917197 L21.3773585,380 C19.7735849,379.783439 18.3836478,379.133758 17.2075472,378.267516 L17.9559748,377.509554 C18.3836478,377.076433 18.3836478,376.426752 17.9559748,375.993631 C17.5283019,375.56051 16.8867925,375.56051 16.4591195,375.993631 L15.7106918,376.751592 C14.7484277,375.56051 14.2138365,374.044586 14,372.528662 L15.0691824,372.528662 C15.7106918,372.528662 16.1383648,372.095541 16.1383648,371.44586 C16.1383648,370.796178 15.7106918,370.363057 15.0691824,370.363057 L14,370.363057 C14.2138365,368.738854 14.8553459,367.33121 15.7106918,366.140127 L16.4591195,366.898089 C16.8867925,367.33121 17.5283019,367.33121 17.9559748,366.898089 C18.3836478,366.464968 18.3836478,365.815287 17.9559748,365.382166 L17.3144654,364.732484 C18.490566,363.866242 19.8805031,363.216561 21.4842767,363 L21.4842767,363.974522 C21.4842767,364.624204 21.9119497,365.057325 22.5534591,365.057325 C23.1949686,365.057325 23.6226415,364.624204 23.6226415,363.974522 L23.6226415,363 C25.1194969,363.216561 26.6163522,363.757962 27.7924528,364.732484 L27.0440252,365.490446 C26.6163522,365.923567 26.6163522,366.573248 27.0440252,367.006369 C27.4716981,367.43949 28.1132075,367.43949 28.5408805,367.006369 L29.2893082,366.248408 C30.2515723,367.43949 30.7861635,368.847134 31,370.471338 L29.9308176,370.471338 C29.2893082,370.471338 28.8616352,370.904459 28.8616352,371.55414 C28.8616352,372.203822 29.2893082,372.636943 29.9308176,372.636943 L31,372.636943 C30.7861635,374.044586 30.1446541,375.56051 29.1823899,376.751592 L28.4339623,375.993631 Z" id="lock" fill="#343434" sketch:type="MSShapeGroup"></path>
            <path d="M21,721.5 L30.2727273,712 L21,702.5 L21,709.090909 L7,709.090909 L7,714.909091 L21,714.909091 L21,721.5 Z M14.0000001,696 C12.4000001,696 11.0909092,697.309091 11.0909092,698.909091 L11.0909092,706 L14.0000002,706 L14.0000001,698.909091 L34.0909091,698.909091 L34.0909091,725.090909 L14.0000001,725.090909 L14.0000002,718 L11.0909092,718 L11.0909092,725.090909 C11.0909092,726.690909 12.4000001,728 14.0000001,728 L34.0909091,728 C35.6909091,728 37,726.690909 37,725.090909 L37,698.909091 C37,697.309091 35.6909091,696 34.0909091,696 L14.0000001,696 Z" id="download" fill="#FFFFFF" sketch:type="MSShapeGroup" transform="translate(22.000000, 712.000000) rotate(-270.000000) translate(-22.000000, -712.000000) "></path>
            <path d="M22.5,774.5 L29.5,767.5 L22.5,760.5 L22.5,765.5 L11.5,765.5 L11.5,769.5 L22.5,769.5 L22.5,774.5 Z M16.5,755.5 C15.2733333,755.5 14.5,756.3 14.5,757.5 L14.5,762.5 L16.5,762.5 L16.5,757.5 L32.5,757.5 L32.5,777.5 L16.5,777.5 L16.5,772.5 L14.5,772.5 L14.5,777.5 C14.5,778.7 15.2733333,779.5 16.5,779.5 L32.5,779.5 C33.7266667,779.5 34.5,778.7 34.5,777.5 L34.5,757.5 C34.5,756.3 33.7266667,755.5 32.5,755.5 L16.5,755.5 Z" id="download-2" fill="#FFFFFF" sketch:type="MSShapeGroup" transform="translate(23.000000, 767.500000) rotate(-270.000000) translate(-23.000000, -767.500000) "></path>
            <path d="M7.93933983,538.43934 L6.95713548,539.421544 L7.8611151,540.476187 L13.8611151,547.476187 C14.4002483,548.105176 15.3471983,548.178018 15.9761871,547.638885 C16.6051758,547.099752 16.6780181,546.152802 16.1388849,545.523813 L11.036124,539.585196 L16.0606602,534.56066 C16.6464466,533.974874 16.6464466,533.025126 16.0606602,532.43934 C15.4748737,531.853553 14.5251263,531.853553 13.9393398,532.43934 L7.93933983,538.43934 Z M34.9492585,539.587646 L29.8611151,545.523813 C29.3219819,546.152802 29.3948242,547.099752 30.0238129,547.638885 C30.6528017,548.178018 31.5997517,548.105176 32.1388849,547.476187 L38.1388849,540.476187 L39.0428645,539.421544 L38.0606602,538.43934 L32.0606602,532.43934 C31.4748737,531.853553 30.5251263,531.853553 29.9393398,532.43934 C29.3535534,533.025126 29.3535534,533.974874 29.9393398,534.56066 L34.9492585,539.587646 Z M18.1116349,552.189231 C17.8877472,552.986831 18.3528329,553.814911 19.1504329,554.038798 C19.9480329,554.262686 20.7761123,553.7976 21,553 L27.9999998,528 C28.2238875,527.2024 27.7588018,526.374321 26.9612018,526.150433 C26.1636018,525.926545 25.3355224,526.391631 25.1116346,527.189231 L18.1116349,552.189231 Z" id="code" fill="#343434" sketch:type="MSShapeGroup"></path>
            <g id="users" sketch:type="MSLayerGroup" transform="translate(6.000000, 306.000000)" fill="#343434">
                <path d="M31.9999998,18.0000003 L24.4999998,18.0000003 C24.225061,17.0657944 23.3874311,15.6991912 21.7665331,15.20875 L21.2538801,15.0497794 C19.109227,14.40375 17.9611454,14.0546912 17.6607372,13.3545441 C17.5875943,13.1022206 17.6097984,12.8221618 18.3249005,12.5529265 C20.6230229,11.8602206 21.7874311,11.4976324 22.0623698,10.6060441 L22.2073494,10.6060441 C22.1681658,10.5701912 22.1302882,10.5350147 22.0943698,10.4923971 C20.9586964,9.35795588 20.0914311,7.14454412 20.0914311,5.35730882 C20.0914311,2.83001471 21.9591862,1.16927941 23.7263698,1.16927941 C25.4929005,1.16927941 27.2705331,2.96327941 27.2705331,5.49395588 C27.2705331,7.28119118 26.3053086,9.42492647 25.1200025,10.5214853 C25.3642474,11.5531029 26.6964923,11.8906618 29.4530637,12.7281324 C32.5159209,13.6596324 32.0091427,16.4562944 31.9999998,18.0000003 Z" id="Shape" sketch:type="MSShapeGroup"></path>
                <path d="M2.96375724e-09,23.0000006 C2.96375724e-09,23.0000006 -0.0780000768,20.42975 0.184530535,19.5158382 C0.505183597,18.4436324 1.33653054,17.5013088 3.2604489,16.9208971 L4.00428564,16.6746618 C7.38648972,15.6741618 9.19481625,15.1093088 9.79236727,13.7895147 L9.98240809,13.4573676 L9.96804074,13.0366029 C9.92428564,13.0075147 9.89555094,12.9791029 9.83677543,12.9060441 C9.63236727,12.6888971 9.42861217,12.4710735 9.23857135,12.2113088 C7.92657135,10.4849559 6.99334686,7.81830882 6.99334686,5.61572059 C6.99334686,2.80227941 9.00608156,-0.183661765 12.0088571,-0.183661765 C14.3566122,-0.183661765 16.8793877,2.22322059 16.8793877,5.81798529 C16.8793877,8.10919118 15.7273877,10.9490147 14.1528571,12.6165147 C14.0503265,12.7335441 13.9340816,12.8336618 13.832204,12.9358088 L13.6428162,13.1103382 L13.7009387,13.3721324 C14.109102,15.0233971 15.9461632,15.5889265 19.634653,16.6760147 L20.3928571,16.92225 C22.3030611,17.5026618 23.2068979,18.4598676 23.6006938,19.5171912 C23.9801224,20.5461029 24,23.0000006 24,23.0000006 L2.96375724e-09,23.0000006 Z" id="Shape" sketch:type="MSShapeGroup"></path>
            </g>
            <g id="discuss" sketch:type="MSLayerGroup" transform="translate(4.000000, 638.000000)">
                <circle id="Oval-19" fill="#343434" sketch:type="MSShapeGroup" cx="7.5" cy="17.5" r="1.5"></circle>
                <circle id="Oval-21" fill="#343434" sketch:type="MSShapeGroup" cx="12.5" cy="17.5" r="1.5"></circle>
                <circle id="Oval-22" fill="#343434" sketch:type="MSShapeGroup" cx="17.5" cy="17.5" r="1.5"></circle>
                <path d="M25.45,16.5 C25.45,10.8934919 19.573511,6.55 12.5,6.55 C5.42648899,6.55 -0.45,10.8934919 -0.45,16.5 C-0.45,19.0198705 0.737105855,21.2845998 2.68644991,23.0144992 C3.50000005,29.0000008 3.49999981,31.0000008 3.49999981,31.0000008 C3.49999981,31.0000008 9.90318881,26.3084967 10.2436115,26.1890223 C11.0243103,26.3520953 11.7905545,26.45 12.5,26.45 C19.573511,26.45 25.45,22.1065081 25.45,16.5 Z M9.62890909,23.2211291 C9.29777533,23.3942867 5.81558342,26.4999992 5.81558342,26.4999992 C5.81558342,26.4999992 6.02608513,21.9780422 5.81558341,21.7462009 C3.74082793,20.4373015 2.45,18.5437864 2.45,16.5 C2.45,12.7176674 6.87096177,9.45 12.5,9.45 C18.1290382,9.45 22.55,12.7176674 22.55,16.5 C22.55,20.2823326 18.1290382,23.55 12.5,23.55 C11.5933357,23.55 10.585339,23.421068 9.62890909,23.2211291 Z" id="Oval-22" fill="#343434" sketch:type="MSShapeGroup"></path>
                <path d="M32.1404831,21.1050931 C33.0600844,21.8203385 34.4,21.1650074 34.4,20 L34.3903617,14.7834793 C34.3903617,14.7834793 35.0389669,14.2080137 35.3596736,13.7910951 C36.334134,12.5242966 36.9,10.7701119 36.9,8.5 C36.9,3.54123143 30.894314,-0.4 25.5,-0.4 C21.6496323,-0.4 17.2324419,1.90462111 16.2478019,3.87390097 C15.902017,4.56547086 16.3084301,4.65421515 17,5.0000001 C17.6915699,5.34578504 18.4064131,5.81766893 18.7521981,5.12609903 C19.2234405,4.18361419 22.6420343,2.4 25.5,2.4 C29.5342574,2.4 34.1,5.39626857 34.1,8.5 C34.1,10.1673881 33.728366,11.3194534 33.1403264,12.0839049 C32.9562147,12.3232502 32.4620439,12.7073363 32.4800531,12.7001326 C31.9485313,12.9127413 31.6,13.4275336 31.6,14 L31.6137508,17.1482 L29.3595169,15.3949069 C28.9669259,15.0895584 28.4418075,15.0154196 27.9800257,15.2001436 L27.4800257,15.4001558 C26.7621348,15.6873297 26.4129697,16.5020956 26.7001436,17.2199865 C26.9873175,17.9378774 27.8020834,18.2870425 28.5199743,17.9998686 L32.1404831,21.1050931 Z" id="Path-129" fill="#363636" sketch:type="MSShapeGroup"></path>
            </g>
            <path d="M29.4424,814.1055 C29.4512,814.305 29.4541333,814.5045 29.4541333,814.7055 C29.4541333,820.8465 24.8854667,827.9265 16.5298667,827.9265 C13.9632,827.9265 11.5769333,827.1585 9.56613333,825.837 C9.92106667,825.8805 10.2818667,825.9015 10.6485333,825.9015 C12.7766667,825.9015 14.7361333,825.1605 16.2922667,823.9125 C14.3049333,823.878 12.6256,822.5325 12.0462667,820.6875 C12.3234667,820.743 12.6109333,820.773 12.9028,820.773 C13.3149333,820.773 13.7168,820.7145 14.0996,820.6095 C12.0198667,820.182 10.4534667,818.304 10.4534667,816.054 L10.4534667,815.9955 C11.0665333,816.3405 11.7676,816.552 12.5126667,816.576 C11.2924,815.7405 10.4901333,814.32 10.4901333,812.709 C10.4901333,811.857 10.7130667,811.059 11.1061333,810.3705 C13.3457333,813.183 16.6956,815.031 20.4708,815.2275 C20.3930667,814.887 20.3534667,814.53 20.3534667,814.167 C20.3534667,811.6005 22.3877333,809.52 24.8972,809.52 C26.204,809.52 27.3832,810.0855 28.2118667,810.9885 C29.2488,810.78 30.2197333,810.3945 31.0997333,809.8605 C30.7594667,810.945 30.0393333,811.8555 29.1006667,812.43 C30.0202667,812.322 30.8973333,812.07 31.7098667,811.701 C31.0982667,812.631 30.3297333,813.4485 29.4424,814.1055 L29.4424,814.1055 Z" id="twitter" fill="#FFFFFF" sketch:type="MSShapeGroup"></path>
            <path d="M22.25,863.5 L25,863.5 L25,860 L21.7183334,860 C16.5927078,860 16.7159831,863.539121 16.7159831,864.067432 L16.7159831,866.958426 L14,866.958426 L14,870.494044 L16.7159831,870.494044 L16.7159831,881 L21.3333333,881 L21.3333333,870.494019 L24.5391105,870.5 C24.5391105,870.5 24.842971,868.853292 24.9908331,867 C24.5645497,867 21.3333333,866.945793 21.3333333,866.945793 L21.3333333,864.375 C21.3333333,864.013451 21.8123123,863.680658 22.3392678,863.680658 L22.25,863.5 Z" id="facebook" fill="#FFFFFF" sketch:type="MSShapeGroup"></path>
        </g>
    </g>
</svg>