<?xml version="1.0" encoding="UTF-8" standalone="no"?>
<svg width="126px" height="121px" viewBox="0 0 126 121" version="1.1" xmlns="http://www.w3.org/2000/svg" xmlns:xlink="http://www.w3.org/1999/xlink" xmlns:sketch="http://www.bohemiancoding.com/sketch/ns">
    <!-- Generator: Sketch 3.1.1 (8761) - http://www.bohemiancoding.com/sketch -->
    <title>waystone-logo</title>
    <desc>Created with Sketch.</desc>
    <defs></defs>
    <g id="Page-1" stroke="none" stroke-width="1" fill="none" fill-rule="evenodd" sketch:type="MSPage">
        <g id="waystone-logo" sketch:type="MSArtboardGroup" transform="translate(-62.000000, 0.000000)">
            <g id="waystone" sketch:type="MSLayerGroup" transform="translate(63.000000, 11.000000)">
                <g id="left-front" transform="translate(5.166667, 64.189189)" sketch:type="MSShapeGroup">
                    <rect id="Rectangle-path" fill="#343434" x="15.5" y="4.49324324" width="3.875" height="5.13513514"></rect>
                    <rect id="Rectangle-path-2" fill="#343434" x="21.9583333" y="4.49324324" width="3.875" height="5.13513514"></rect>
                    <rect id="Rectangle-path-2" fill="#343434" x="15.5" y="11.5540541" width="3.875" height="5.13513514"></rect>
                    <rect id="Rectangle-path-3" fill="#343434" x="21.9583333" y="11.5540541" width="3.875" height="5.13513514"></rect>
                    <rect id="Rectangle-path" fill="#343434" x="15.5" y="0" width="10.3333333" height="2.56756757"></rect>
                    <rect id="Rectangle-path" fill="#343434" x="15.5" y="18.6148649" width="10.3333333" height="2.56756757"></rect>
                    <path d="M28.4166667,21.1824324 L28.4166667,0 L41.3333333,0 L41.3333333,21.1824324 L28.4166667,21.1824324 Z" id="Shape-3" fill="#343434" transform="translate(34.875000, 10.591216) scale(-1, 1) translate(-34.875000, -10.591216) "></path>
                    <path d="M0,21.1824324 L0,0 L12.9166667,0 L12.9166667,21.1824324 L0,21.1824324 Z" id="Shape-2" fill="#343434"></path>
                    <path d="M11.2505031,13.5979561 C11.9773352,15.2546071 12.448472,17.0443588 12.7105771,18.8365885 C12.8024369,19.4647101 12.8613634,20.0467184 12.8939328,20.5663611 C12.9051729,20.745697 12.9123367,20.9035352 12.9162655,21.0378571 C12.9181721,21.1100694 12.9181721,21.1100694 12.9188835,21.1540304 C12.9191901,21.1836397 15.5025228,21.1824324 15.5025228,21.1824324 C15.5022923,21.1436803 15.5022923,21.1436803 15.5019613,21.1179176 C15.500938,21.055123 15.500938,21.055123 15.4985079,20.9632479 C15.4937631,20.8010263 15.4853143,20.614874 15.4722683,20.4067263 C15.4354487,19.819273 15.3694751,19.1676601 15.2670458,18.4672665 C14.9740393,16.4637381 14.4459753,14.4577319 13.6184948,12.5716755 C11.2055927,7.07200523 6.77183019,3.70341533 0,3.70341533 L0,6.2709829 C5.66266859,6.2709829 9.22251253,8.97560549 11.2505031,13.5979561 Z" id="Path-80" fill="#FFFFFF"></path>
                    <path d="M37.7296698,13.5979561 C38.4565018,15.2546071 38.9276387,17.0443588 39.1897438,18.8365885 C39.2816036,19.4647101 39.34053,20.0467184 39.3730995,20.5663611 C39.3843396,20.745697 39.3915033,20.9035352 39.3954321,21.0378571 C39.3973388,21.1100694 39.3973388,21.1100694 39.3980502,21.1540304 C39.3983568,21.1836397 41.9816895,21.1824324 41.9816895,21.1824324 C41.981459,21.1436803 41.981459,21.1436803 41.981128,21.1179176 C41.9801047,21.055123 41.9801047,21.055123 41.9776746,20.9632479 C41.9729297,20.8010263 41.9644809,20.614874 41.951435,20.4067263 C41.9146154,19.819273 41.8486417,19.1676601 41.7462125,18.4672665 C41.453206,16.4637381 40.9251419,14.4577319 40.0976615,12.5716755 C37.6847594,7.07200523 33.2509969,3.70341533 26.4791667,3.70341533 L26.4791667,6.2709829 C32.1418353,6.2709829 35.7016792,8.97560549 37.7296698,13.5979561 Z" id="Path-81" fill="#FFFFFF" transform="translate(34.230428, 12.443743) scale(-1, 1) translate(-34.230428, -12.443743) "></path>
                    <rect id="Rectangle-path-4" fill="#343434" x="0" y="23.1081081" width="12.9166667" height="7.7027027"></rect>
                    <rect id="Rectangle-path-5" fill="#343434" x="28.4166667" y="23.1081081" width="12.9166667" height="7.7027027"></rect>
                    <rect id="Rectangle-path-5" fill="#343434" x="15.5" y="23.1081081" width="10.3333333" height="7.7027027"></rect>
                </g>
                <g id="left-front-2" transform="translate(77.500000, 64.189189)" sketch:type="MSShapeGroup">
                    <rect id="Rectangle-path" fill="#343434" x="15.5" y="4.49324324" width="3.875" height="5.13513514"></rect>
                    <rect id="Rectangle-path-2" fill="#343434" x="21.9583333" y="4.49324324" width="3.875" height="5.13513514"></rect>
                    <rect id="Rectangle-path-2" fill="#343434" x="15.5" y="11.5540541" width="3.875" height="5.13513514"></rect>
                    <rect id="Rectangle-path-3" fill="#343434" x="21.9583333" y="11.5540541" width="3.875" height="5.13513514"></rect>
                    <rect id="Rectangle-path" fill="#343434" x="15.5" y="0" width="10.3333333" height="2.56756757"></rect>
                    <rect id="Rectangle-path" fill="#343434" x="15.5" y="18.6148649" width="10.3333333" height="2.56756757"></rect>
                    <path d="M28.4166667,21.1824324 L28.4166667,0 L41.3333333,0 L41.3333333,21.1824324 L28.4166667,21.1824324 Z" id="Shape-3" fill="#343434" transform="translate(34.875000, 10.591216) scale(-1, 1) translate(-34.875000, -10.591216) "></path>
                    <path d="M0,21.1824324 L0,0 L12.9166667,0 L12.9166667,21.1824324 L0,21.1824324 Z" id="Shape-2" fill="#343434"></path>
                    <path d="M11.2505031,13.5979561 C11.9773352,15.2546071 12.448472,17.0443588 12.7105771,18.8365885 C12.8024369,19.4647101 12.8613634,20.0467184 12.8939328,20.5663611 C12.9051729,20.745697 12.9123367,20.9035352 12.9162655,21.0378571 C12.9181721,21.1100694 12.9181721,21.1100694 12.9188835,21.1540304 C12.9191901,21.1836397 15.5025228,21.1824324 15.5025228,21.1824324 C15.5022923,21.1436803 15.5022923,21.1436803 15.5019613,21.1179176 C15.500938,21.055123 15.500938,21.055123 15.4985079,20.9632479 C15.4937631,20.8010263 15.4853143,20.614874 15.4722683,20.4067263 C15.4354487,19.819273 15.3694751,19.1676601 15.2670458,18.4672665 C14.9740393,16.4637381 14.4459753,14.4577319 13.6184948,12.5716755 C11.2055927,7.07200523 6.77183019,3.70341533 0,3.70341533 L0,6.2709829 C5.66266859,6.2709829 9.22251253,8.97560549 11.2505031,13.5979561 Z" id="Path-80" fill="#FFFFFF"></path>
                    <path d="M37.7296698,13.5979561 C38.4565018,15.2546071 38.9276387,17.0443588 39.1897438,18.8365885 C39.2816036,19.4647101 39.34053,20.0467184 39.3730995,20.5663611 C39.3843396,20.745697 39.3915033,20.9035352 39.3954321,21.0378571 C39.3973388,21.1100694 39.3973388,21.1100694 39.3980502,21.1540304 C39.3983568,21.1836397 41.9816895,21.1824324 41.9816895,21.1824324 C41.981459,21.1436803 41.981459,21.1436803 41.981128,21.1179176 C41.9801047,21.055123 41.9801047,21.055123 41.9776746,20.9632479 C41.9729297,20.8010263 41.9644809,20.614874 41.951435,20.4067263 C41.9146154,19.819273 41.8486417,19.1676601 41.7462125,18.4672665 C41.453206,16.4637381 40.9251419,14.4577319 40.0976615,12.5716755 C37.6847594,7.07200523 33.2509969,3.70341533 26.4791667,3.70341533 L26.4791667,6.2709829 C32.1418353,6.2709829 35.7016792,8.97560549 37.7296698,13.5979561 Z" id="Path-81" fill="#FFFFFF" transform="translate(34.230428, 12.443743) scale(-1, 1) translate(-34.230428, -12.443743) "></path>
                    <rect id="Rectangle-path-4" fill="#343434" x="0" y="23.1081081" width="12.9166667" height="7.7027027"></rect>
                    <rect id="Rectangle-path-5" fill="#343434" x="28.4166667" y="23.1081081" width="12.9166667" height="7.7027027"></rect>
                    <rect id="Rectangle-path-5" fill="#343434" x="15.5" y="23.1081081" width="10.3333333" height="7.7027027"></rect>
                </g>
                <path d="M53.0037435,95 C53.0037435,95 52.9583333,88.0056978 52.9583333,74.972973 C52.9583333,66.2058518 61.9698842,66.2058518 61.9698842,66.2058518 C61.9698842,66.2058518 71.0416667,66.2058518 71.0416667,74.972973 L71.0416667,95 L74.9166667,95 L74.9166667,64.1891892 L49.0833333,64.1891892 L49.0833333,95 L53.0037435,95 Z" id="Shape" fill="#343434" sketch:type="MSShapeGroup"></path>
                <path d="M102.041667,12.8378378 L93.1488444,-1.42528632e-16 L83.3125,12.8378378 L40.0416667,12.8378378 L31,-1.42528632e-16 L21.9583333,12.8378378 L10.3333333,12.8378378 L-1.43403807e-16,61.6216216 L124,61.6216216 L113.666667,12.8378378 L102.041667,12.8378378 Z" id="Shape" fill="#343434" sketch:type="MSShapeGroup"></path>
                <g id="Group" transform="translate(15.500000, 3.851351)" sketch:type="MSShapeGroup">
                    <rect id="Rectangle-path-3" fill="#FFFFFF" x="0" y="25.6756757" width="7.33901515" height="10.2702703"></rect>
                    <rect id="Rectangle-path-4" fill="#FFFFFF" x="0" y="38.5135135" width="7.33901515" height="5.13513514"></rect>
                    <rect id="Rectangle-path-4" fill="#FFFFFF" x="23.6609848" y="25.6756757" width="7.33901515" height="10.2702703"></rect>
                    <rect id="Rectangle-path-5" fill="#FFFFFF" x="23.6609848" y="38.5135135" width="7.33901515" height="5.13513514"></rect>
                    <rect id="Rectangle-path-3" fill="#FFFFFF" x="10.2746212" y="30.8108108" width="3.93371212" height="5.13513514"></rect>
                    <rect id="Rectangle-path-4" fill="#FFFFFF" x="10.2746212" y="38.5135135" width="3.93371212" height="5.13513514"></rect>
                    <rect id="Rectangle-path-5" fill="#FFFFFF" x="16.7329545" y="38.5135135" width="3.93371212" height="5.13513514"></rect>
                    <rect id="Rectangle-path-6" fill="#FFFFFF" x="16.7329545" y="30.8108108" width="3.93371212" height="5.13513514"></rect>
                    <rect id="Rectangle-path-2" fill="#FFFFFF" x="10.2746212" y="25.6756757" width="10.3333333" height="2.56756757"></rect>
                    <path d="M0,23.1081081 L31,23.1081081 L15.5,0 L0,23.1081081 Z" id="Path-82" fill="#FFFFFF"></path>
                    <rect id="Rectangle-102" fill="#343434" x="14.2083333" y="0" width="2.58333333" height="23.1081081"></rect>
                    <path d="M19.1660334,12.101642 C16.0523977,14.1459251 14.2013957,17.7917968 14.2013957,23.2491488 L16.784729,23.2491488 C16.784729,18.6301615 18.2224157,15.7983865 20.5899277,14.243977 C21.4076092,13.7071215 22.2890183,13.3599037 23.1703781,13.1670157 C23.6890437,13.0535043 24.0770007,13.0171162 24.2628988,13.0171162 L24.2628988,10.4495487 C22.9360404,10.4495487 21.0554704,10.8611166 19.1660334,12.101642 Z" id="Path-83" fill="#343434"></path>
                    <path d="M11.4160334,12.101642 C8.30239768,14.1459251 6.45139567,17.7917968 6.45139567,23.2491488 L9.034729,23.2491488 C9.034729,18.6301615 10.4724157,15.7983865 12.8399277,14.243977 C13.6576092,13.7071215 14.5390183,13.3599037 15.4203781,13.1670157 C15.9390437,13.0535043 16.3270007,13.0171162 16.5128988,13.0171162 L16.5128988,10.4495487 C15.1860404,10.4495487 13.3054704,10.8611166 11.4160334,12.101642 Z" id="Path-84" fill="#343434" transform="translate(11.482147, 16.849349) scale(-1, 1) translate(-11.482147, -16.849349) "></path>
                </g>
                <g id="Group-2" transform="translate(77.500000, 3.851351)" sketch:type="MSShapeGroup">
                    <rect id="Rectangle-path-3" fill="#FFFFFF" x="0" y="25.4074223" width="7.65810277" height="10.4235579"></rect>
                    <rect id="Rectangle-path-4" fill="#FFFFFF" x="0" y="38.4368697" width="7.65810277" height="5.21177894"></rect>
                    <rect id="Rectangle-path-4" fill="#FFFFFF" x="23.3418972" y="25.4074223" width="7.65810277" height="10.4235579"></rect>
                    <rect id="Rectangle-path-5" fill="#FFFFFF" x="23.3418972" y="38.4368697" width="7.65810277" height="5.21177894"></rect>
                    <rect id="Rectangle-path-3" fill="#FFFFFF" x="10.0474308" y="30.6192013" width="4.10474308" height="5.21177894"></rect>
                    <rect id="Rectangle-path-4" fill="#FFFFFF" x="10.0474308" y="38.4368697" width="4.10474308" height="5.21177894"></rect>
                    <rect id="Rectangle-path-5" fill="#FFFFFF" x="16.7865613" y="38.4368697" width="4.10474308" height="5.21177894"></rect>
                    <rect id="Rectangle-path-6" fill="#FFFFFF" x="16.7865613" y="30.6192013" width="4.10474308" height="5.21177894"></rect>
                    <rect id="Rectangle-path-2" fill="#FFFFFF" x="10.0474308" y="25.4074223" width="10.7826087" height="2.60588947"></rect>
                    <path d="M0,22.8015329 L31,22.8015329 L15.5,0 L0,22.8015329 Z" id="Path-82" fill="#FFFFFF"></path>
                    <rect id="Rectangle-102" fill="#343434" x="14.1521739" y="0" width="2.69565217" height="23.4530052"></rect>
                    <path d="M19.9993392,12.2822635 C16.750328,14.3570583 14.8188477,18.057346 14.8188477,23.596151 L17.5144998,23.596151 C17.5144998,18.9082236 19.0146946,16.0341833 21.485142,14.4565737 C22.3383749,13.9117054 23.258106,13.5593052 24.1777859,13.3635383 C24.7190022,13.2483327 25.1238268,13.2114016 25.3178074,13.2114016 L25.3178074,10.6055121 C23.9332595,10.6055121 21.9709256,11.0232228 19.9993392,12.2822635 Z" id="Path-83" fill="#343434"></path>
                    <path d="M11.3764463,12.2822635 C14.6254575,14.3570583 16.5569378,18.057346 16.5569378,23.596151 L13.8612857,23.596151 C13.8612857,18.9082236 12.3610909,16.0341833 9.89064352,14.4565737 C9.03741064,13.9117054 8.11767946,13.5593052 7.19799961,13.3635383 C6.65678333,13.2483327 6.25195866,13.2114016 6.05797809,13.2114016 L6.05797809,10.6055121 C7.44252595,10.6055121 9.40485985,11.0232228 11.3764463,12.2822635 Z" id="Path-84" fill="#343434"></path>
                </g>
            </g>
        </g>
    </g>
</svg>