<?xml version="1.0" encoding="UTF-8" standalone="no"?>
<svg width="254px" height="235px" viewBox="0 0 254 235" version="1.1" xmlns="http://www.w3.org/2000/svg" xmlns:xlink="http://www.w3.org/1999/xlink" xmlns:sketch="http://www.bohemiancoding.com/sketch/ns">
    <!-- Generator: Sketch 3.1.1 (8761) - http://www.bohemiancoding.com/sketch -->
    <title>waystone-logo-large</title>
    <desc>Created with Sketch.</desc>
    <defs></defs>
    <g id="Page-1" stroke="none" stroke-width="1" fill="none" fill-rule="evenodd" sketch:type="MSPage">
        <g id="waystone-logo" sketch:type="MSArtboardGroup" transform="translate(2.000000, -234.000000)">
            <g id="waystone-2" sketch:type="MSLayerGroup" transform="translate(0.000000, 259.000000)">
                <g id="left-front" transform="translate(10.416667, 129.729730)" sketch:type="MSShapeGroup">
                    <rect id="Rectangle-path" fill="#343434" x="31.25" y="9.08108108" width="7.8125" height="10.3783784"></rect>
                    <rect id="Rectangle-path-2" fill="#343434" x="44.2708333" y="9.08108108" width="7.8125" height="10.3783784"></rect>
                    <rect id="Rectangle-path-2" fill="#343434" x="31.25" y="23.3513514" width="7.8125" height="10.3783784"></rect>
                    <rect id="Rectangle-path-3" fill="#343434" x="44.2708333" y="23.3513514" width="7.8125" height="10.3783784"></rect>
                    <rect id="Rectangle-path" fill="#343434" x="31.25" y="0" width="20.8333333" height="5.18918919"></rect>
                    <rect id="Rectangle-path" fill="#343434" x="31.25" y="37.6216216" width="20.8333333" height="5.18918919"></rect>
                    <path d="M57.2916667,42.8108108 L57.2916667,0 L83.3333333,0 L83.3333333,42.8108108 L57.2916667,42.8108108 Z" id="Shape-3" fill="#343434" transform="translate(70.312500, 21.405405) scale(-1, 1) translate(-70.312500, -21.405405) "></path>
                    <path d="M0,42.8108108 L0,0 L26.0416667,0 L26.0416667,42.8108108 L0,42.8108108 Z" id="Shape-2" fill="#343434"></path>
                    <path d="M22.6824659,27.4821849 C24.1478531,30.8303637 25.0977259,34.4475463 25.6261636,38.0697367 C25.8113648,39.3392036 25.9301681,40.515473 25.9958322,41.5656982 C26.0184938,41.9281455 26.0329368,42.2471447 26.0408578,42.5186164 C26.0447018,42.6645614 26.0447018,42.6645614 26.0461362,42.7534089 C26.0467543,42.8132508 31.2550863,42.8108108 31.2550863,42.8108108 C31.2546216,42.7324907 31.2546216,42.7324907 31.2539543,42.6804229 C31.2518912,42.5535117 31.2518912,42.5535117 31.2469917,42.3678274 C31.2374255,42.039969 31.2203917,41.6637453 31.1940893,41.243068 C31.1198563,40.0557939 30.9868449,38.7388498 30.7803343,37.3233175 C30.1895953,33.2740813 29.1249502,29.2198372 27.4566428,25.4080178 C22.5919209,14.2928948 13.6528835,7.4847973 0,7.4847973 L0,12.6739865 C11.4166705,12.6739865 18.5937753,18.1401711 22.6824659,27.4821849 Z" id="Path-80" fill="#FFFFFF"></path>
                    <path d="M76.0678826,27.4821849 C77.5332698,30.8303637 78.4831425,34.4475463 79.0115802,38.0697367 C79.1967815,39.3392036 79.3155848,40.515473 79.3812489,41.5656982 C79.4039105,41.9281455 79.4183535,42.2471447 79.4262744,42.5186164 C79.4301185,42.6645614 79.4301185,42.6645614 79.4315528,42.7534089 C79.4321709,42.8132508 84.6405029,42.8108108 84.6405029,42.8108108 C84.6400382,42.7324907 84.6400382,42.7324907 84.639371,42.6804229 C84.6373079,42.5535117 84.6373079,42.5535117 84.6324084,42.3678274 C84.6228422,42.039969 84.6058083,41.6637453 84.579506,41.243068 C84.505273,40.0557939 84.3722616,38.7388498 84.165751,37.3233175 C83.575012,33.2740813 82.5103668,29.2198372 80.8420595,25.4080178 C75.9773375,14.2928948 67.0383001,7.4847973 53.3854167,7.4847973 L53.3854167,12.6739865 C64.8020872,12.6739865 71.9791919,18.1401711 76.0678826,27.4821849 Z" id="Path-81" fill="#FFFFFF" transform="translate(69.012960, 25.149459) scale(-1, 1) translate(-69.012960, -25.149459) "></path>
                    <rect id="Rectangle-path-4" fill="#343434" x="0" y="46.7027027" width="26.0416667" height="15.5675676"></rect>
                    <rect id="Rectangle-path-5" fill="#343434" x="57.2916667" y="46.7027027" width="26.0416667" height="15.5675676"></rect>
                    <rect id="Rectangle-path-5" fill="#343434" x="31.25" y="46.7027027" width="20.8333333" height="15.5675676"></rect>
                </g>
                <g id="left-front-2" transform="translate(156.250000, 129.729730)" sketch:type="MSShapeGroup">
                    <rect id="Rectangle-path" fill="#343434" x="31.25" y="9.08108108" width="7.8125" height="10.3783784"></rect>
                    <rect id="Rectangle-path-2" fill="#343434" x="44.2708333" y="9.08108108" width="7.8125" height="10.3783784"></rect>
                    <rect id="Rectangle-path-2" fill="#343434" x="31.25" y="23.3513514" width="7.8125" height="10.3783784"></rect>
                    <rect id="Rectangle-path-3" fill="#343434" x="44.2708333" y="23.3513514" width="7.8125" height="10.3783784"></rect>
                    <rect id="Rectangle-path" fill="#343434" x="31.25" y="0" width="20.8333333" height="5.18918919"></rect>
                    <rect id="Rectangle-path" fill="#343434" x="31.25" y="37.6216216" width="20.8333333" height="5.18918919"></rect>
                    <path d="M57.2916667,42.8108108 L57.2916667,0 L83.3333333,0 L83.3333333,42.8108108 L57.2916667,42.8108108 Z" id="Shape-3" fill="#343434" transform="translate(70.312500, 21.405405) scale(-1, 1) translate(-70.312500, -21.405405) "></path>
                    <path d="M0,42.8108108 L0,0 L26.0416667,0 L26.0416667,42.8108108 L0,42.8108108 Z" id="Shape-2" fill="#343434"></path>
                    <path d="M22.6824659,27.4821849 C24.1478531,30.8303637 25.0977259,34.4475463 25.6261636,38.0697367 C25.8113648,39.3392036 25.9301681,40.515473 25.9958322,41.5656982 C26.0184938,41.9281455 26.0329368,42.2471447 26.0408578,42.5186164 C26.0447018,42.6645614 26.0447018,42.6645614 26.0461362,42.7534089 C26.0467543,42.8132508 31.2550863,42.8108108 31.2550863,42.8108108 C31.2546216,42.7324907 31.2546216,42.7324907 31.2539543,42.6804229 C31.2518912,42.5535117 31.2518912,42.5535117 31.2469917,42.3678274 C31.2374255,42.039969 31.2203917,41.6637453 31.1940893,41.243068 C31.1198563,40.0557939 30.9868449,38.7388498 30.7803343,37.3233175 C30.1895953,33.2740813 29.1249502,29.2198372 27.4566428,25.4080178 C22.5919209,14.2928948 13.6528835,7.4847973 0,7.4847973 L0,12.6739865 C11.4166705,12.6739865 18.5937753,18.1401711 22.6824659,27.4821849 Z" id="Path-80" fill="#FFFFFF"></path>
                    <path d="M76.0678826,27.4821849 C77.5332698,30.8303637 78.4831425,34.4475463 79.0115802,38.0697367 C79.1967815,39.3392036 79.3155848,40.515473 79.3812489,41.5656982 C79.4039105,41.9281455 79.4183535,42.2471447 79.4262744,42.5186164 C79.4301185,42.6645614 79.4301185,42.6645614 79.4315528,42.7534089 C79.4321709,42.8132508 84.6405029,42.8108108 84.6405029,42.8108108 C84.6400382,42.7324907 84.6400382,42.7324907 84.639371,42.6804229 C84.6373079,42.5535117 84.6373079,42.5535117 84.6324084,42.3678274 C84.6228422,42.039969 84.6058083,41.6637453 84.579506,41.243068 C84.505273,40.0557939 84.3722616,38.7388498 84.165751,37.3233175 C83.575012,33.2740813 82.5103668,29.2198372 80.8420595,25.4080178 C75.9773375,14.2928948 67.0383001,7.4847973 53.3854167,7.4847973 L53.3854167,12.6739865 C64.8020872,12.6739865 71.9791919,18.1401711 76.0678826,27.4821849 Z" id="Path-81" fill="#FFFFFF" transform="translate(69.012960, 25.149459) scale(-1, 1) translate(-69.012960, -25.149459) "></path>
                    <rect id="Rectangle-path-4" fill="#343434" x="0" y="46.7027027" width="26.0416667" height="15.5675676"></rect>
                    <rect id="Rectangle-path-5" fill="#343434" x="57.2916667" y="46.7027027" width="26.0416667" height="15.5675676"></rect>
                    <rect id="Rectangle-path-5" fill="#343434" x="31.25" y="46.7027027" width="20.8333333" height="15.5675676"></rect>
                </g>
                <path d="M106.862386,192 C106.862386,192 106.770833,177.864147 106.770833,151.524324 C106.770833,133.805511 124.939283,133.805511 124.939283,133.805511 C124.939283,133.805511 143.229167,133.805511 143.229167,151.524324 L143.229167,192 L151.041667,192 L151.041667,129.72973 L98.9583333,129.72973 L98.9583333,192 L106.862386,192 Z" id="Shape" fill="#343434" sketch:type="MSShapeGroup"></path>
                <path d="M205.729167,25.9459459 L187.80009,-2.88057866e-16 L167.96875,25.9459459 L80.7291667,25.9459459 L62.5,-2.88057866e-16 L44.2708333,25.9459459 L20.8333333,25.9459459 L-2.89120579e-16,124.540541 L250,124.540541 L229.166667,25.9459459 L205.729167,25.9459459 Z" id="Shape" fill="#343434" sketch:type="MSShapeGroup"></path>
                <g id="Group" transform="translate(31.250000, 7.783784)" sketch:type="MSShapeGroup">
                    <rect id="Rectangle-path-3" fill="#FFFFFF" x="0" y="51.8918919" width="14.7964015" height="20.7567568"></rect>
                    <rect id="Rectangle-path-4" fill="#FFFFFF" x="0" y="77.8378378" width="14.7964015" height="10.3783784"></rect>
                    <rect id="Rectangle-path-4" fill="#FFFFFF" x="47.7035985" y="51.8918919" width="14.7964015" height="20.7567568"></rect>
                    <rect id="Rectangle-path-5" fill="#FFFFFF" x="47.7035985" y="77.8378378" width="14.7964015" height="10.3783784"></rect>
                    <rect id="Rectangle-path-3" fill="#FFFFFF" x="20.7149621" y="62.2702703" width="7.93087121" height="10.3783784"></rect>
                    <rect id="Rectangle-path-4" fill="#FFFFFF" x="20.7149621" y="77.8378378" width="7.93087121" height="10.3783784"></rect>
                    <rect id="Rectangle-path-5" fill="#FFFFFF" x="33.7357955" y="77.8378378" width="7.93087121" height="10.3783784"></rect>
                    <rect id="Rectangle-path-6" fill="#FFFFFF" x="33.7357955" y="62.2702703" width="7.93087121" height="10.3783784"></rect>
                    <rect id="Rectangle-path-2" fill="#FFFFFF" x="20.7149621" y="51.8918919" width="20.8333333" height="5.18918919"></rect>
                    <path d="M0,46.7027027 L62.5,46.7027027 L31.25,0 L0,46.7027027 Z" id="Path-82" fill="#FFFFFF"></path>
                    <rect id="Rectangle-102" fill="#343434" x="28.6458333" y="0" width="5.20833333" height="46.7027027"></rect>
                    <path d="M38.6411963,24.4580554 C32.363705,28.5896591 28.6318461,35.9581578 28.6318461,46.9877534 L33.8401794,46.9877534 C33.8401794,37.6525369 36.7387412,31.9293707 41.5119511,28.7878272 C43.1605025,27.702814 44.9375369,27.0010685 46.7144721,26.6112317 C47.7601688,26.3818192 48.5423402,26.308277 48.9171346,26.308277 L48.9171346,21.1190878 C46.2420169,21.1190878 42.4505452,21.9508882 38.6411963,24.4580554 Z" id="Path-83" fill="#343434"></path>
                    <path d="M23.0161963,24.4580554 C16.738705,28.5896591 13.0068461,35.9581578 13.0068461,46.9877534 L18.2151794,46.9877534 C18.2151794,37.6525369 21.1137412,31.9293707 25.8869511,28.7878272 C27.5355025,27.702814 29.3125369,27.0010685 31.0894721,26.6112317 C32.1351688,26.3818192 32.9173402,26.308277 33.2921346,26.308277 L33.2921346,21.1190878 C30.6170169,21.1190878 26.8255452,21.9508882 23.0161963,24.4580554 Z" id="Path-84" fill="#343434" transform="translate(23.149490, 34.053421) scale(-1, 1) translate(-23.149490, -34.053421) "></path>
                </g>
                <g id="Group-2" transform="translate(156.250000, 7.783784)" sketch:type="MSShapeGroup">
                    <rect id="Rectangle-path-3" fill="#FFFFFF" x="0" y="51.3497378" width="15.4397233" height="21.0665591"></rect>
                    <rect id="Rectangle-path-4" fill="#FFFFFF" x="0" y="77.6829367" width="15.4397233" height="10.5332795"></rect>
                    <rect id="Rectangle-path-4" fill="#FFFFFF" x="47.0602767" y="51.3497378" width="15.4397233" height="21.0665591"></rect>
                    <rect id="Rectangle-path-5" fill="#FFFFFF" x="47.0602767" y="77.6829367" width="15.4397233" height="10.5332795"></rect>
                    <rect id="Rectangle-path-3" fill="#FFFFFF" x="20.256917" y="61.8830173" width="8.2756917" height="10.5332795"></rect>
                    <rect id="Rectangle-path-4" fill="#FFFFFF" x="20.256917" y="77.6829367" width="8.2756917" height="10.5332795"></rect>
                    <rect id="Rectangle-path-5" fill="#FFFFFF" x="33.8438735" y="77.6829367" width="8.2756917" height="10.5332795"></rect>
                    <rect id="Rectangle-path-6" fill="#FFFFFF" x="33.8438735" y="61.8830173" width="8.2756917" height="10.5332795"></rect>
                    <rect id="Rectangle-path-2" fill="#FFFFFF" x="20.256917" y="51.3497378" width="21.7391304" height="5.26663977"></rect>
                    <path d="M0,46.083098 L62.5,46.083098 L31.25,0 L0,46.083098 Z" id="Path-82" fill="#FFFFFF"></path>
                    <rect id="Rectangle-102" fill="#343434" x="28.5326087" y="0" width="5.43478261" height="47.399758"></rect>
                    <path d="M40.3212483,24.823101 C33.7708226,29.0163704 29.876709,36.4948467 29.876709,47.6890631 L35.3114916,47.6890631 C35.3114916,38.2145151 38.3360778,32.4059284 43.3168185,29.2174963 C45.0370461,28.1162888 46.8913428,27.4040695 48.7455361,27.0084142 C49.8366979,26.7755777 50.6528767,26.7009379 51.0439665,26.7009379 L51.0439665,21.4342981 C48.2525394,21.4342981 44.2962211,22.2785134 40.3212483,24.823101 Z" id="Path-83" fill="#343434"></path>
                    <path d="M22.9363837,24.823101 C29.4868094,29.0163704 33.3809231,36.4948467 33.3809231,47.6890631 L27.9461405,47.6890631 C27.9461405,38.2145151 24.9215542,32.4059284 19.9408136,29.2174963 C18.220586,28.1162888 16.3662892,27.4040695 14.512096,27.0084142 C13.4209341,26.7755777 12.6047554,26.7009379 12.2136655,26.7009379 L12.2136655,21.4342981 C15.0050926,21.4342981 18.961411,22.2785134 22.9363837,24.823101 Z" id="Path-84" fill="#343434"></path>
                </g>
            </g>
        </g>
    </g>
</svg>