<?xml version="1.0" encoding="UTF-8" standalone="no"?>
<svg width="335px" height="175px" viewBox="0 0 335 175" version="1.1" xmlns="http://www.w3.org/2000/svg" xmlns:xlink="http://www.w3.org/1999/xlink" xmlns:sketch="http://www.bohemiancoding.com/sketch/ns">
    <!-- Generator: Sketch 3.2.2 (9983) - http://www.bohemiancoding.com/sketch -->
    <title>pulse-logo</title>
    <desc>Created with Sketch.</desc>
    <defs></defs>
    <g id="Page-1" stroke="none" stroke-width="1" fill="none" fill-rule="evenodd" sketch:type="MSPage">
        <g id="Artboard-1" sketch:type="MSArtboardGroup" transform="translate(-327.000000, -1215.000000)">
            <g id="Pulse-+-logo-mark" sketch:type="MSLayerGroup" transform="translate(435.000000, 1212.000000)">
                <g id="logo-mark" sketch:type="MSShapeGroup">
                    <rect id="Rectangle-11" x="0" y="0" width="120" height="120"></rect>
                    <path d="M114.545455,60 C114.545455,29.8753773 90.1246227,5.45454545 60,5.45454545 C29.8753773,5.45454545 5.45454545,29.8753773 5.45454545,60 C5.45454545,90.1246227 29.8753773,114.545455 60,114.545455 C90.1246227,114.545455 114.545455,90.1246227 114.545455,60 Z M8.18181818,60 C8.18181818,31.3816084 31.3816084,8.18181818 60,8.18181818 C88.6183916,8.18181818 111.818182,31.3816084 111.818182,60 C111.818182,88.6183916 88.6183916,111.818182 60,111.818182 C31.3816084,111.818182 8.18181818,88.6183916 8.18181818,60 Z" id="outer-ring" fill="#4A4A4A"></path>
                    <path d="M92.1818182,60 C92.1818182,42.2264726 77.7735274,27.8181818 60,27.8181818 C42.2264726,27.8181818 27.8181818,42.2264726 27.8181818,60 C27.8181818,77.7735274 42.2264726,92.1818182 60,92.1818182 C77.7735274,92.1818182 92.1818182,77.7735274 92.1818182,60 Z M51.8181818,60 C51.8181818,55.4813066 55.4813066,51.8181818 60,51.8181818 C64.5186934,51.8181818 68.1818182,55.4813066 68.1818182,60 C68.1818182,64.5186934 64.5186934,68.1818182 60,68.1818182 C55.4813066,68.1818182 51.8181818,64.5186934 51.8181818,60 Z" id="inner-ring" fill="#B2B2B2"></path>
                    <circle id="node" fill="#C41515" cx="41.7272727" cy="10.0909091" r="6.81818182"></circle>
                    <circle id="node-2" fill="#C41515" cx="111.545455" cy="68.4545455" r="6.81818182"></circle>
                    <circle id="node-3" fill="#C41515" cx="24.8181818" cy="100.090909" r="6.81818182"></circle>
                </g>
                <path d="M11.1575,145.450105 L20.1575,145.450105 C21.7775081,145.450105 23.2474934,145.622603 24.5675,145.967605 C25.8875066,146.312606 27.0199953,146.837601 27.965,147.542605 C28.9100047,148.247608 29.6374975,149.132599 30.1475,150.197605 C30.6575026,151.26261 30.9125,152.515097 30.9125,153.955105 C30.9125,155.395112 30.6500026,156.647599 30.125,157.712605 C29.5999974,158.77761 28.8650047,159.662601 27.92,160.367605 C26.9749953,161.072608 25.8350067,161.605103 24.5,161.965105 C23.1649933,162.325106 21.6875081,162.505105 20.0675,162.505105 L14.3975,162.505105 L14.3975,177.310105 L11.1575,177.310105 L11.1575,145.450105 Z M14.3975,159.760105 L19.8875,159.760105 C22.4375128,159.760105 24.3724934,159.265109 25.6925,158.275105 C27.0125066,157.2851 27.6725,155.845114 27.6725,153.955105 C27.6725,151.975095 26.9900068,150.527609 25.625,149.612605 C24.2599932,148.6976 22.3475123,148.240105 19.8875,148.240105 L14.3975,148.240105 L14.3975,159.760105 Z M51.2175,177.310105 C51.1574997,176.740102 51.1125002,176.110108 51.0825,175.420105 C51.0524999,174.730101 51.0375,174.160107 51.0375,173.710105 L50.9475,173.710105 C50.347497,174.940111 49.3725068,175.937601 48.0225,176.702605 C46.6724933,177.467608 45.2475075,177.850105 43.7475,177.850105 C41.0774866,177.850105 39.0750067,177.055112 37.74,175.465105 C36.4049933,173.875097 35.7375,171.775118 35.7375,169.165105 L35.7375,156.250105 L38.7975,156.250105 L38.7975,167.905105 C38.7975,169.01511 38.8874991,170.0201 39.0675,170.920105 C39.2475009,171.820109 39.5549978,172.592601 39.99,173.237605 C40.4250022,173.882608 41.0099963,174.385103 41.745,174.745105 C42.4800037,175.105106 43.4024945,175.285105 44.5125,175.285105 C45.3225041,175.285105 46.1099962,175.120106 46.875,174.790105 C47.6400038,174.460103 48.322497,173.957608 48.9225,173.282605 C49.522503,172.607601 50.0024982,171.75261 50.3625,170.717605 C50.7225018,169.682599 50.9025,168.460112 50.9025,167.050105 L50.9025,156.250105 L53.9625,156.250105 L53.9625,172.675105 C53.9625,173.245107 53.9774999,173.9801 54.0075,174.880105 C54.0375001,175.780109 54.0824997,176.590101 54.1425,177.310105 L51.2175,177.310105 Z M65.2125,177.310105 L62.1525,177.310105 L62.1525,143.290105 L65.2125,143.290105 L65.2125,177.310105 Z M84.6075,161.245105 C84.1574978,160.3751 83.4750046,159.662607 82.56,159.107605 C81.6449954,158.552602 80.6025059,158.275105 79.4325,158.275105 C78.8924973,158.275105 78.3525027,158.335104 77.8125,158.455105 C77.2724973,158.575105 76.7925021,158.770103 76.3725,159.040105 C75.9524979,159.310106 75.6150013,159.655102 75.36,160.075105 C75.1049987,160.495107 74.9775,160.990102 74.9775,161.560105 C74.9775,162.550109 75.382496,163.307602 76.1925,163.832605 C77.0025041,164.357607 78.2774913,164.800103 80.0175,165.160105 C82.5075125,165.670107 84.3449941,166.4126 85.53,167.387605 C86.7150059,168.362609 87.3075,169.675096 87.3075,171.325105 C87.3075,172.525111 87.0750023,173.5376 86.61,174.362605 C86.1449977,175.187609 85.5375038,175.862602 84.7875,176.387605 C84.0374963,176.912607 83.1900047,177.287603 82.245,177.512605 C81.2999953,177.737606 80.3475048,177.850105 79.3875,177.850105 C77.7974921,177.850105 76.2525075,177.520108 74.7525,176.860105 C73.2524925,176.200101 72.0225048,175.165112 71.0625,173.755105 L73.4925,171.955105 C74.0325027,172.885109 74.8274948,173.665101 75.8775,174.295105 C76.9275053,174.925108 78.0824937,175.240105 79.3425,175.240105 C80.0025033,175.240105 80.632497,175.180105 81.2325,175.060105 C81.832503,174.940104 82.3574978,174.730106 82.8075,174.430105 C83.2575023,174.130103 83.6174987,173.747607 83.8875,173.282605 C84.1575014,172.817602 84.2925,172.240108 84.2925,171.550105 C84.2925,170.440099 83.7600053,169.607607 82.695,169.052605 C81.6299947,168.497602 80.0925101,167.980107 78.0825,167.500105 C77.4524969,167.350104 76.7850035,167.162606 76.08,166.937605 C75.3749965,166.712603 74.722503,166.382607 74.1225,165.947605 C73.522497,165.512602 73.027502,164.965108 72.6375,164.305105 C72.2474981,163.645101 72.0525,162.820109 72.0525,161.830105 C72.0525,160.750099 72.2624979,159.827608 72.6825,159.062605 C73.1025021,158.297601 73.6649965,157.667607 74.37,157.172605 C75.0750035,156.677602 75.8774955,156.310106 76.7775,156.070105 C77.6775045,155.830103 78.6074952,155.710105 79.5675,155.710105 C81.0375074,155.710105 82.4624931,156.040101 83.8425,156.700105 C85.2225069,157.360108 86.2574966,158.290099 86.9475,159.490105 L84.6075,161.245105 Z M109.4475,165.160105 C109.3575,163.180095 108.720006,161.537611 107.535,160.232605 C106.349994,158.927598 104.662511,158.275105 102.4725,158.275105 C101.452495,158.275105 100.507504,158.462603 99.6375,158.837605 C98.7674957,159.212606 98.0025033,159.722601 97.3425,160.367605 C96.6824967,161.012608 96.157502,161.7476 95.7675,162.572605 C95.3774981,163.397609 95.1525003,164.2601 95.0925,165.160105 L109.4475,165.160105 Z M112.5525,166.150105 L112.5525,166.825105 C112.5525,167.065106 112.5375,167.320103 112.5075,167.590105 L95.0475,167.590105 C95.0775001,168.64011 95.2874981,169.6301 95.6775,170.560105 C96.067502,171.490109 96.6074966,172.300101 97.2975,172.990105 C97.9875035,173.680108 98.7974954,174.227603 99.7275,174.632605 C100.657505,175.037607 101.662495,175.240105 102.7425,175.240105 C104.332508,175.240105 105.704994,174.872608 106.86,174.137605 C108.015006,173.402601 108.892497,172.555109 109.4925,171.595105 L111.7875,173.395105 C110.527494,174.985112 109.140008,176.125101 107.625,176.815105 C106.109992,177.505108 104.482509,177.850105 102.7425,177.850105 C101.182492,177.850105 99.7350067,177.572607 98.4,177.017605 C97.0649933,176.462602 95.9175048,175.690109 94.9575,174.700105 C93.9974952,173.7101 93.2400028,172.540111 92.685,171.190105 C92.1299972,169.840098 91.8525,168.370112 91.8525,166.780105 C91.8525,165.190097 92.1224973,163.720111 92.6625,162.370105 C93.2025027,161.020098 93.9524952,159.850109 94.9125,158.860105 C95.8725048,157.8701 96.9974936,157.097607 98.2875,156.542605 C99.5775064,155.987602 100.972492,155.710105 102.4725,155.710105 C104.122508,155.710105 105.577494,155.987602 106.8375,156.542605 C108.097506,157.097607 109.147496,157.8476 109.9875,158.792605 C110.827504,159.737609 111.464998,160.840098 111.9,162.100105 C112.335002,163.360111 112.5525,164.710097 112.5525,166.150105 L112.5525,166.150105 Z" id="Pulse" fill="#010101" sketch:type="MSShapeGroup"></path>
            </g>
        </g>
    </g>
</svg>