<?xml version="1.0" encoding="UTF-8" standalone="no"?>
<svg width="335px" height="175px" viewBox="0 0 335 175" version="1.1" xmlns="http://www.w3.org/2000/svg" xmlns:xlink="http://www.w3.org/1999/xlink" xmlns:sketch="http://www.bohemiancoding.com/sketch/ns">
    <!-- Generator: Sketch 3.2.2 (9983) - http://www.bohemiancoding.com/sketch -->
    <title>universal-player-logo</title>
    <desc>Created with Sketch.</desc>
    <defs></defs>
    <g id="Page-1" stroke="none" stroke-width="1" fill="none" fill-rule="evenodd" sketch:type="MSPage">
        <g id="Artboard-1" sketch:type="MSArtboardGroup" transform="translate(-327.000000, -1517.000000)">
            <g id="Group-+-UniversalPlayer" sketch:type="MSLayerGroup" transform="translate(352.000000, 1517.000000)">
                <g id="Group" transform="translate(64.000000, 0.000000)" sketch:type="MSShapeGroup">
                    <rect id="Rectangle-3-2" stroke="#4A4A4A" stroke-width="3" fill="#FFFFFF" x="0" y="0.840909091" width="160" height="90"></rect>
                    <rect id="Rectangle-2-2" fill="#B2B2B2" x="0" y="93.8409091" width="160" height="3"></rect>
                    <g id="buttons" transform="translate(30.000000, 41.000000)" fill="#444444">
                        <path d="M11.774359,5.22959184 L11.774359,0.178571429 L0.717948718,7.25 L11.774359,14.3214286 L11.774359,9.27040816 L19.6717949,14.3214286 L19.6717949,0.178571429 L11.774359,5.22959184 Z" id="rewind---dark"></path>
                        <path d="M93.4564103,5.22959184 L93.4564103,0.178571429 L82.4,7.25 L93.4564103,14.3214286 L93.4564103,9.27040816 L101.353846,14.3214286 L101.353846,0.178571429 L93.4564103,5.22959184 Z" id="forward---dark" transform="translate(91.876923, 7.250000) scale(-1, 1) translate(-91.876923, -7.250000) "></path>
                    </g>
                    <path d="M72.5333333,35 L72.5333333,61 L96.5333333,48 L72.5333333,35 Z" id="play---dark" fill="#C41515"></path>
                </g>
                <path d="M11.975,164.81 C9.574988,164.81 7.61000765,164.397504 6.08,163.5725 C4.54999235,162.747496 3.3350045,161.705006 2.435,160.445 C1.5349955,159.184994 0.912501725,157.812507 0.5675,156.3275 C0.222498275,154.842493 0.05,153.440007 0.05,152.12 L0.05,132.14 L3.29,132.14 L3.29,151.76 C3.29,153.050006 3.4399985,154.302494 3.74,155.5175 C4.0400015,156.732506 4.52749662,157.812495 5.2025,158.7575 C5.87750337,159.702505 6.76999445,160.467497 7.88,161.0525 C8.99000555,161.637503 10.3549919,161.93 11.975,161.93 C13.5950081,161.93 14.9599944,161.637503 16.07,161.0525 C17.1800055,160.467497 18.0724966,159.702505 18.7475,158.7575 C19.4225034,157.812495 19.9099985,156.732506 20.21,155.5175 C20.5100015,154.302494 20.66,153.050006 20.66,151.76 L20.66,132.14 L23.9,132.14 L23.9,152.12 C23.9,153.440007 23.7275017,154.842493 23.3825,156.3275 C23.0374983,157.812507 22.4150045,159.184994 21.515,160.445 C20.6149955,161.705006 19.3925077,162.747496 17.8475,163.5725 C16.3024923,164.397504 14.3450118,164.81 11.975,164.81 L11.975,164.81 Z M33.745,142.94 C33.8050003,143.510003 33.8499998,144.139997 33.88,144.83 C33.9100001,145.520003 33.925,146.089998 33.925,146.54 L34.015,146.54 C34.615003,145.309994 35.5899932,144.312504 36.94,143.5475 C38.2900067,142.782496 39.7149925,142.4 41.215,142.4 C43.8850133,142.4 45.8874933,143.194992 47.2225,144.785 C48.5575067,146.375008 49.225,148.474987 49.225,151.085 L49.225,164 L46.165,164 L46.165,152.345 C46.165,151.234994 46.0750009,150.230004 45.895,149.33 C45.7149991,148.429995 45.4075022,147.657503 44.9725,147.0125 C44.5374978,146.367497 43.9525037,145.865002 43.2175,145.505 C42.4824963,145.144998 41.5600055,144.965 40.45,144.965 C39.6399959,144.965 38.8525038,145.129998 38.0875,145.46 C37.3224962,145.790002 36.640003,146.292497 36.04,146.9675 C35.439997,147.642503 34.9600018,148.497495 34.6,149.5325 C34.2399982,150.567505 34.06,151.789993 34.06,153.2 L34.06,164 L31,164 L31,147.575 C31,147.004997 30.9850001,146.270004 30.955,145.37 C30.9249998,144.469996 30.8800003,143.660004 30.82,142.94 L33.745,142.94 Z M59.25,164 L56.19,164 L56.19,142.94 L59.25,142.94 L59.25,164 Z M59.88,134.84 C59.88,135.470003 59.6550022,135.987498 59.205,136.3925 C58.7549977,136.797502 58.2600027,137 57.72,137 C57.1799973,137 56.6850022,136.797502 56.235,136.3925 C55.7849977,135.987498 55.56,135.470003 55.56,134.84 C55.56,134.209997 55.7849977,133.692502 56.235,133.2875 C56.6850022,132.882498 57.1799973,132.68 57.72,132.68 C58.2600027,132.68 58.7549977,132.882498 59.205,133.2875 C59.6550022,133.692502 59.88,134.209997 59.88,134.84 L59.88,134.84 Z M76.035,164 L72.66,164 L64.065,142.94 L67.485,142.94 L74.325,160.76 L74.415,160.76 L81.3,142.94 L84.585,142.94 L76.035,164 Z M104.42,151.85 C104.33,149.86999 103.692506,148.227507 102.5075,146.9225 C101.322494,145.617493 99.6350109,144.965 97.445,144.965 C96.4249949,144.965 95.4800043,145.152498 94.61,145.5275 C93.7399956,145.902502 92.9750033,146.412497 92.315,147.0575 C91.6549967,147.702503 91.1300019,148.437496 90.74,149.2625 C90.349998,150.087504 90.1250003,150.949996 90.065,151.85 L104.42,151.85 Z M107.525,152.84 L107.525,153.515 C107.525,153.755001 107.51,154.009999 107.48,154.28 L90.02,154.28 C90.0500001,155.330005 90.259998,156.319995 90.65,157.25 C91.0400019,158.180005 91.5799965,158.989997 92.27,159.68 C92.9600034,160.370003 93.7699953,160.917498 94.7,161.3225 C95.6300046,161.727502 96.6349946,161.93 97.715,161.93 C99.3050079,161.93 100.677494,161.562504 101.8325,160.8275 C102.987506,160.092496 103.864997,159.245005 104.465,158.285 L106.76,160.085 C105.499994,161.675008 104.112508,162.814997 102.5975,163.505 C101.082492,164.195003 99.4550087,164.54 97.715,164.54 C96.1549922,164.54 94.7075067,164.262503 93.3725,163.7075 C92.0374933,163.152497 90.8900048,162.380005 89.93,161.39 C88.9699952,160.399995 88.2125028,159.230007 87.6575,157.88 C87.1024972,156.529993 86.825,155.060008 86.825,153.47 C86.825,151.879992 87.0949973,150.410007 87.635,149.06 C88.1750027,147.709993 88.9249952,146.540005 89.885,145.55 C90.8450048,144.559995 91.9699935,143.787503 93.26,143.2325 C94.5500064,142.677497 95.9449925,142.4 97.445,142.4 C99.0950082,142.4 100.549994,142.677497 101.81,143.2325 C103.070006,143.787503 104.119996,144.537495 104.96,145.4825 C105.800004,146.427505 106.437498,147.529994 106.8725,148.79 C107.307502,150.050006 107.525,151.399993 107.525,152.84 L107.525,152.84 Z M113.095,147.575 C113.095,147.004997 113.08,146.270004 113.05,145.37 C113.02,144.469996 112.975,143.660004 112.915,142.94 L115.84,142.94 C115.9,143.510003 115.945,144.139997 115.975,144.83 C116.005,145.520003 116.02,146.089998 116.02,146.54 L116.11,146.54 C116.710003,145.309994 117.609994,144.312504 118.81,143.5475 C120.010006,142.782496 121.359992,142.4 122.86,142.4 C123.250002,142.4 123.602498,142.415 123.9175,142.445 C124.232502,142.475 124.554998,142.535 124.885,142.625 L124.48,145.505 C124.299999,145.445 124.000002,145.385 123.58,145.325 C123.159998,145.265 122.740002,145.235 122.32,145.235 C121.509996,145.235 120.730004,145.384998 119.98,145.685 C119.229996,145.985001 118.577503,146.457497 118.0225,147.1025 C117.467497,147.747503 117.017502,148.572495 116.6725,149.5775 C116.327498,150.582505 116.155,151.789993 116.155,153.2 L116.155,164 L113.095,164 L113.095,147.575 Z M140.5,147.935 C140.049998,147.064996 139.367505,146.352503 138.4525,145.7975 C137.537495,145.242497 136.495006,144.965 135.325,144.965 C134.784997,144.965 134.245003,145.024999 133.705,145.145 C133.164997,145.265001 132.685002,145.459999 132.265,145.73 C131.844998,146.000001 131.507501,146.344998 131.2525,146.765 C130.997499,147.185002 130.87,147.679997 130.87,148.25 C130.87,149.240005 131.274996,149.997497 132.085,150.5225 C132.895004,151.047503 134.169991,151.489998 135.91,151.85 C138.400012,152.360003 140.237494,153.102495 141.4225,154.0775 C142.607506,155.052505 143.2,156.364992 143.2,158.015 C143.2,159.215006 142.967502,160.227496 142.5025,161.0525 C142.037498,161.877504 141.430004,162.552497 140.68,163.0775 C139.929996,163.602503 139.082505,163.977499 138.1375,164.2025 C137.192495,164.427501 136.240005,164.54 135.28,164.54 C133.689992,164.54 132.145007,164.210003 130.645,163.55 C129.144992,162.889997 127.915005,161.855007 126.955,160.445 L129.385,158.645 C129.925003,159.575005 130.719995,160.354997 131.77,160.985 C132.820005,161.615003 133.974994,161.93 135.235,161.93 C135.895003,161.93 136.524997,161.870001 137.125,161.75 C137.725003,161.629999 138.249998,161.420001 138.7,161.12 C139.150002,160.819999 139.509999,160.437502 139.78,159.9725 C140.050001,159.507498 140.185,158.930003 140.185,158.24 C140.185,157.129994 139.652505,156.297503 138.5875,155.7425 C137.522495,155.187497 135.98501,154.670002 133.975,154.19 C133.344997,154.039999 132.677504,153.852501 131.9725,153.6275 C131.267496,153.402499 130.615003,153.072502 130.015,152.6375 C129.414997,152.202498 128.920002,151.655003 128.53,150.995 C128.139998,150.334997 127.945,149.510005 127.945,148.52 C127.945,147.439995 128.154998,146.517504 128.575,145.7525 C128.995002,144.987496 129.557496,144.357502 130.2625,143.8625 C130.967504,143.367498 131.769995,143.000001 132.67,142.76 C133.570004,142.519999 134.499995,142.4 135.46,142.4 C136.930007,142.4 138.354993,142.729997 139.735,143.39 C141.115007,144.050003 142.149997,144.979994 142.84,146.18 L140.5,147.935 Z M162.55,150.41 C162.55,148.579991 162.070005,147.215005 161.11,146.315 C160.149995,145.414996 158.755009,144.965 156.925,144.965 C155.664994,144.965 154.495005,145.189998 153.415,145.64 C152.334995,146.090002 151.420004,146.689996 150.67,147.44 L148.96,145.415 C149.830004,144.544996 150.977493,143.825003 152.4025,143.255 C153.827507,142.684997 155.439991,142.4 157.24,142.4 C158.380006,142.4 159.444995,142.557498 160.435,142.8725 C161.425005,143.187502 162.294996,143.659997 163.045,144.29 C163.795004,144.920003 164.379998,145.714995 164.8,146.675 C165.220002,147.635005 165.43,148.759994 165.43,150.05 L165.43,159.275 C165.43,160.085004 165.46,160.924996 165.52,161.795 C165.58,162.665004 165.669999,163.399997 165.79,164 L163.045,164 C162.955,163.489997 162.88,162.935003 162.82,162.335 C162.76,161.734997 162.73,161.150003 162.73,160.58 L162.64,160.58 C161.679995,161.990007 160.592506,163.002497 159.3775,163.6175 C158.162494,164.232503 156.700009,164.54 154.99,164.54 C154.179996,164.54 153.347504,164.427501 152.4925,164.2025 C151.637496,163.977499 150.857504,163.610003 150.1525,163.1 C149.447496,162.589997 148.862502,161.930004 148.3975,161.12 C147.932498,160.309996 147.7,159.320006 147.7,158.15 C147.7,156.529992 148.112496,155.247505 148.9375,154.3025 C149.762504,153.357495 150.864993,152.652502 152.245,152.1875 C153.625007,151.722498 155.207491,151.422501 156.9925,151.2875 C158.777509,151.152499 160.62999,151.085 162.55,151.085 L162.55,150.41 Z M161.65,153.47 C160.389994,153.47 159.122506,153.522499 157.8475,153.6275 C156.572494,153.732501 155.417505,153.942498 154.3825,154.2575 C153.347495,154.572502 152.500003,155.029997 151.84,155.63 C151.179997,156.230003 150.85,157.024995 150.85,158.015 C150.85,158.765004 150.992499,159.394997 151.2775,159.905 C151.562501,160.415003 151.944998,160.827498 152.425,161.1425 C152.905002,161.457502 153.437497,161.682499 154.0225,161.8175 C154.607503,161.952501 155.199997,162.02 155.8,162.02 C156.880005,162.02 157.839996,161.832502 158.68,161.4575 C159.520004,161.082498 160.224997,160.572503 160.795,159.9275 C161.365003,159.282497 161.799998,158.540004 162.1,157.7 C162.400001,156.859996 162.55,155.975005 162.55,155.045 L162.55,153.47 L161.65,153.47 Z M176.455,164 L173.395,164 L173.395,129.98 L176.455,129.98 L176.455,164 Z M205.86,140.06 C205.86,141.410007 205.612502,142.602495 205.1175,143.6375 C204.622498,144.672505 203.955004,145.534997 203.115,146.225 C202.274996,146.915003 201.292506,147.439998 200.1675,147.8 C199.042494,148.160002 197.850006,148.34 196.59,148.34 L188.355,148.34 L188.355,164 L187.365,164 L187.365,132.14 L196.005,132.14 C197.145006,132.14 198.299994,132.267499 199.47,132.5225 C200.640006,132.777501 201.697495,133.204997 202.6425,133.805 C203.587505,134.405003 204.359997,135.214995 204.96,136.235 C205.560003,137.255005 205.86,138.529992 205.86,140.06 L205.86,140.06 Z M204.87,140.06 C204.87,138.709993 204.615003,137.585004 204.105,136.685 C203.594997,135.784995 202.935004,135.065003 202.125,134.525 C201.314996,133.984997 200.407505,133.595001 199.4025,133.355 C198.397495,133.114999 197.400005,132.995 196.41,132.995 L188.355,132.995 L188.355,147.485 L196.635,147.485 C197.625005,147.485 198.614995,147.350001 199.605,147.08 C200.595005,146.809999 201.479996,146.375003 202.26,145.775 C203.040004,145.174997 203.669998,144.402505 204.15,143.4575 C204.630002,142.512495 204.87,141.380007 204.87,140.06 L204.87,140.06 Z M211.925,164 L211.925,129.98 L212.915,129.98 L212.915,164 L211.925,164 Z M235.315,159.32 C235.315,160.100004 235.3525,160.932496 235.4275,161.8175 C235.5025,162.702504 235.585,163.429997 235.675,164 L234.73,164 C234.67,163.699998 234.625,163.332502 234.595,162.8975 C234.565,162.462498 234.5275,162.012502 234.4825,161.5475 C234.4375,161.082498 234.4075,160.625002 234.3925,160.175 C234.3775,159.724998 234.37,159.350001 234.37,159.05 L234.235,159.05 C233.634997,160.940009 232.600007,162.342495 231.13,163.2575 C229.659993,164.172505 228.085008,164.63 226.405,164.63 C225.564996,164.63 224.732504,164.510001 223.9075,164.27 C223.082496,164.029999 222.340003,163.670002 221.68,163.19 C221.019997,162.709998 220.487502,162.095004 220.0825,161.345 C219.677498,160.594996 219.475,159.710005 219.475,158.69 C219.475,157.219993 219.857496,156.035005 220.6225,155.135 C221.387504,154.234995 222.339994,153.537502 223.48,153.0425 C224.620006,152.547498 225.842493,152.225001 227.1475,152.075 C228.452507,151.924999 229.644995,151.85 230.725,151.85 L234.325,151.85 L234.325,150.185 C234.325,147.874988 233.710006,146.187505 232.48,145.1225 C231.249994,144.057495 229.64501,143.525 227.665,143.525 C226.434994,143.525 225.287505,143.749998 224.2225,144.2 C223.157495,144.650002 222.205004,145.249996 221.365,146 L220.825,145.235 C221.785005,144.394996 222.872494,143.757502 224.0875,143.3225 C225.302506,142.887498 226.494994,142.67 227.665,142.67 C230.035012,142.67 231.902493,143.277494 233.2675,144.4925 C234.632507,145.707506 235.315,147.619987 235.315,150.23 L235.315,159.32 Z M234.325,152.705 L231.13,152.705 C229.989994,152.705 228.790006,152.772499 227.53,152.9075 C226.269994,153.042501 225.115005,153.319998 224.065,153.74 C223.014995,154.160002 222.152503,154.759996 221.4775,155.54 C220.802497,156.320004 220.465,157.369993 220.465,158.69 C220.465,159.650005 220.652498,160.452497 221.0275,161.0975 C221.402502,161.742503 221.882497,162.259998 222.4675,162.65 C223.052503,163.040002 223.697496,163.324999 224.4025,163.505 C225.107504,163.685001 225.774997,163.775 226.405,163.775 C227.935008,163.775 229.209995,163.490003 230.23,162.92 C231.250005,162.349997 232.067497,161.622504 232.6825,160.7375 C233.297503,159.852496 233.724999,158.877505 233.965,157.8125 C234.205001,156.747495 234.325,155.705005 234.325,154.685 L234.325,152.705 Z M247.465,170.84 C246.984998,172.130006 246.347504,173.127496 245.5525,173.8325 C244.757496,174.537504 243.730006,174.89 242.47,174.89 C242.199999,174.89 241.885002,174.86 241.525,174.8 C241.164998,174.74 240.865001,174.665 240.625,174.575 L240.895,173.72 C241.075001,173.78 241.322498,173.84 241.6375,173.9 C241.952502,173.96 242.259998,173.99 242.56,173.99 C243.190003,173.99 243.737498,173.870001 244.2025,173.63 C244.667502,173.389999 245.064998,173.082502 245.395,172.7075 C245.725002,172.332498 246.002499,171.905002 246.2275,171.425 C246.452501,170.944998 246.654999,170.465002 246.835,169.985 L248.815,164.585 L240.625,143.3 L241.705,143.3 L249.31,163.46 L256.645,143.3 L257.725,143.3 L247.465,170.84 Z M262.585,153.425 C262.585,154.685006 262.772498,155.929994 263.1475,157.16 C263.522502,158.390006 264.092496,159.492495 264.8575,160.4675 C265.622504,161.442505 266.589994,162.229997 267.76,162.83 C268.930006,163.430003 270.309992,163.73 271.9,163.73 C273.520008,163.73 274.959994,163.407503 276.22,162.7625 C277.480006,162.117497 278.574995,161.180006 279.505,159.95 L280.225,160.58 C279.204995,161.900007 278.012507,162.904997 276.6475,163.595 C275.282493,164.285003 273.700009,164.63 271.9,164.63 C270.369992,164.63 268.975006,164.352503 267.715,163.7975 C266.454994,163.242497 265.367505,162.470005 264.4525,161.48 C263.537495,160.489995 262.832502,159.305007 262.3375,157.925 C261.842498,156.544993 261.595,155.045008 261.595,153.425 C261.595,151.864992 261.849997,150.425007 262.36,149.105 C262.870003,147.784993 263.567496,146.645005 264.4525,145.685 C265.337504,144.724995 266.379994,143.982503 267.58,143.4575 C268.780006,142.932497 270.069993,142.67 271.45,142.67 C273.070008,142.67 274.479994,142.954997 275.68,143.525 C276.880006,144.095003 277.877496,144.844995 278.6725,145.775 C279.467504,146.705005 280.059998,147.762494 280.45,148.9475 C280.840002,150.132506 281.035,151.339994 281.035,152.57 L281.035,153.425 L262.585,153.425 Z M280.09,152.57 C280.06,151.219993 279.827502,149.990006 279.3925,148.88 C278.957498,147.769994 278.365004,146.817504 277.615,146.0225 C276.864996,145.227496 275.965005,144.612502 274.915,144.1775 C273.864995,143.742498 272.695006,143.525 271.405,143.525 C269.844992,143.525 268.510006,143.847497 267.4,144.4925 C266.289994,145.137503 265.382504,145.932495 264.6775,146.8775 C263.972496,147.822505 263.455002,148.812495 263.125,149.8475 C262.794998,150.882505 262.63,151.789996 262.63,152.57 L280.09,152.57 Z M289.585,148.745 C290.185003,146.584989 291.144993,145.032505 292.465,144.0875 C293.785007,143.142495 295.209992,142.67 296.74,142.67 L297.145,142.67 C297.265001,142.67 297.399999,142.685 297.55,142.715 L297.55,143.57 C297.429999,143.54 297.317501,143.525 297.2125,143.525 L296.965,143.525 C295.644993,143.525 294.520005,143.817497 293.59,144.4025 C292.659995,144.987503 291.895003,145.752495 291.295,146.6975 C290.694997,147.642505 290.252501,148.692494 289.9675,149.8475 C289.682499,151.002506 289.54,152.149994 289.54,153.29 L289.54,164 L288.55,164 L288.55,148.52 C288.55,148.189998 288.5425,147.785002 288.5275,147.305 C288.5125,146.824998 288.4975,146.337502 288.4825,145.8425 C288.4675,145.347498 288.445,144.875002 288.415,144.425 C288.385,143.974998 288.355,143.600001 288.325,143.3 L289.315,143.3 C289.345,143.600001 289.3675,143.974998 289.3825,144.425 C289.3975,144.875002 289.4125,145.362497 289.4275,145.8875 C289.4425,146.412503 289.4575,146.922498 289.4725,147.4175 C289.4875,147.912502 289.495,148.354998 289.495,148.745 L289.585,148.745 Z" id="UniversalPlayer" fill="#000000" sketch:type="MSShapeGroup"></path>
            </g>
        </g>
    </g>
</svg>