<?xml version="1.0" encoding="UTF-8" standalone="no"?>
<svg width="300px" height="104px" viewBox="0 0 300 104" version="1.1" xmlns="http://www.w3.org/2000/svg" xmlns:xlink="http://www.w3.org/1999/xlink" xmlns:sketch="http://www.bohemiancoding.com/sketch/ns">
    <!-- Generator: Sketch 3.1.1 (8761) - http://www.bohemiancoding.com/sketch -->
    <title>logo-open-xchange</title>
    <desc>Created with Sketch.</desc>
    <defs></defs>
    <g id="Page-1" stroke="none" stroke-width="1" fill="none" fill-rule="evenodd" sketch:type="MSPage">
        <g id="Group" sketch:type="MSLayerGroup" fill="#325F96">
            <path d="M136.9625,75.0796242 L136.9625,32.9289128 C136.9625,17.1209128 124.213194,4.3002953 108.48125,4.3002953 L28.5083333,4.3002953 C12.7763889,4.3002953 0.025,17.1202148 0.025,32.9289128 L0.025,75.0796242 C0.025,90.8869262 12.7756944,103.70545 28.5083333,103.70545 L108.48125,103.70545 C124.213194,103.70545 136.9625,90.8876242 136.9625,75.0796242 M106.532639,26.573047 L106.532639,81.429906 C106.535417,82.4273289 106.911111,83.4219597 107.653472,84.1911409 C106.892361,83.4387114 105.900694,83.0638926 104.909722,83.0604027 L32.0743056,83.0604027 C31.0840278,83.0638926 30.0916667,83.4387114 29.3305556,84.1911409 C30.0722222,83.4212617 30.4479167,82.4273289 30.4520833,81.429906 L30.4520833,26.573047 C30.4486111,25.5742282 30.0722222,24.5782013 29.3305556,23.8125101 C30.0916667,24.5600537 31.0840278,24.9362685 32.0743056,24.9397584 L104.909722,24.9397584 C105.900694,24.9362685 106.892361,24.5600537 107.653472,23.8125101 C106.911806,24.5782013 106.535417,25.5749262 106.532639,26.573047" id="Shape" sketch:type="MSShapeGroup"></path>
            <path d="M205.417361,71.397047 C205.417361,72.542443 204.939583,73.5663893 204.171528,74.2908993 L177.276389,101.311356 C175.847917,102.782711 173.852083,103.697074 171.640972,103.70545 L133.020833,103.70545 L183.335417,53.1684295 C184.058333,52.4557852 185.040972,52.0139597 186.128472,52.0139597 C185.040972,52.0139597 184.058333,51.5749262 183.335417,50.8594899 L136.983333,4.30238926 L178.85625,4.30238926 L204.171528,29.7363221 C204.939583,30.4608322 205.417361,31.4854765 205.417361,32.6315705 C205.420139,31.4854765 205.900694,30.4608322 206.660417,29.7363221 L231.981944,4.30238926 L273.854167,4.30238926 L227.501389,50.8594899 C226.778472,51.5749262 225.796528,52.0139597 224.710417,52.0139597 C225.795833,52.0139597 226.778472,52.4557852 227.501389,53.1684295 L277.815278,103.70545 L239.195833,103.70545 C236.984722,103.697074 234.989583,102.783409 233.559028,101.311356 L206.661111,74.2908993 C205.900694,73.5663893 205.420139,72.542443 205.417361,71.397047" id="Shape" sketch:type="MSShapeGroup"></path>
            <g transform="translate(279.166667, 0.000000)" id="Shape" sketch:type="MSShapeGroup">
                <path d="M8.82361111,9.152 L9.57222222,9.152 C10.3048611,9.152 10.8451389,9.03055034 11.1986111,8.78346309 C11.5458333,8.53567785 11.7180556,8.15248322 11.7180556,7.62410738 C11.7180556,7.10271141 11.5416667,6.73277852 11.1833333,6.51151678 C10.8284722,6.29095302 10.2770833,6.18067114 9.52708333,6.18067114 L8.82291667,6.18067114 L8.82291667,9.152 L8.82361111,9.152 Z M8.82361111,11.0456376 L8.82361111,15.2649664 L6.50208333,15.2649664 L6.50208333,4.27028188 L9.69305556,4.27028188 C11.1798611,4.27028188 12.2805556,4.54249664 12.9930556,5.08483221 C13.7069444,5.62926174 14.0611111,6.45637584 14.0611111,7.56198658 C14.0611111,8.21111409 13.8840278,8.78834899 13.5319444,9.28950336 C13.1736111,9.79554362 12.6770833,10.1878121 12.0263889,10.4767785 C13.6715278,12.947651 14.7472222,14.5425503 15.2430556,15.2656644 L12.6729167,15.2656644 L10.0576389,11.0463356 L8.82361111,11.0463356 L8.82361111,11.0456376 Z"></path>
                <path d="M10.3722222,1.86502013 C5.92847222,1.86502013 2.30763889,5.50013423 2.30763889,9.97143624 C2.30763889,14.4427383 5.92847222,18.0792483 10.3722222,18.0792483 C14.8222222,18.0792483 18.4395833,14.4427383 18.4395833,9.97143624 C18.4395833,5.50083221 14.8222222,1.86502013 10.3722222,1.86502013 M10.3722222,20.1550604 C4.78402778,20.1550604 0.239583333,15.5888322 0.239583333,9.97143624 C0.239583333,4.35822819 4.78402778,-0.212187919 10.3722222,-0.212187919 C15.9611111,-0.212187919 20.5069444,4.35822819 20.5069444,9.97143624 C20.50625,15.5888322 15.9604167,20.1550604 10.3722222,20.1550604"></path>
            </g>
        </g>
    </g>
</svg>