<?xml version="1.0" encoding="UTF-8" standalone="no"?>
<svg width="880px" height="530px" viewBox="0 0 880 530" version="1.1" xmlns="http://www.w3.org/2000/svg" xmlns:xlink="http://www.w3.org/1999/xlink" xmlns:sketch="http://www.bohemiancoding.com/sketch/ns">
    <!-- Generator: Sketch 3.2.2 (9983) - http://www.bohemiancoding.com/sketch -->
    <title>indie-balloon-logo</title>
    <desc>Created with Sketch.</desc>
    <defs></defs>
    <g id="Page-1" stroke="none" stroke-width="1" fill="none" fill-rule="evenodd" sketch:type="MSPage">
        <g id="logo-without-tagline" sketch:type="MSArtboardGroup">
            <path d="M52.6704172,326.418592 C52.6704172,329.945303 51.9744801,333.239944 50.5825849,336.302614 C49.1906897,339.365284 47.3348573,342.010277 45.015032,344.237674 C42.6952067,346.46507 39.9114581,348.228399 36.6637027,349.527713 C33.4159473,350.827028 30.0290531,351.476676 26.5029187,351.476676 C19.0794777,351.476676 12.8624392,349.017296 7.85161655,344.098462 C2.84079391,339.179628 0.335420168,333.286397 0.335420168,326.418592 C0.335420168,323.077497 0.984961508,319.875663 2.28406368,316.812993 C3.58316584,313.750323 5.43899824,311.10533 7.85161655,308.877933 C10.2642349,306.650537 13.0479835,304.840805 16.2029459,303.448682 C19.3579083,302.056559 22.7911982,301.360508 26.5029187,301.360508 C30.0290531,301.360508 33.4159473,302.010156 36.6637027,303.30947 C39.9114581,304.608785 42.6952067,306.372114 45.015032,308.59951 C47.3348573,310.826907 49.1906897,313.4719 50.5825849,316.53457 C51.9744801,319.59724 52.6704172,322.891881 52.6704172,326.418592 Z M3.67595189,509.342602 L3.67595189,370.687873 L49.3298855,370.687873 L49.3298855,509.342602 L3.67595189,509.342602 Z M176.548469,509.342602 L176.548469,433.611505 C176.548469,429.713561 176.223698,426.00129 175.574147,422.474579 C174.924596,418.947868 173.857492,415.838841 172.372804,413.147403 C170.888116,410.455966 168.800304,408.32141 166.109307,406.743671 C163.41831,405.165932 160.031416,404.377074 155.948523,404.377074 C151.865631,404.377074 148.293153,405.165932 145.230984,406.743671 C142.168814,408.32141 139.617045,410.50237 137.575599,413.286615 C135.534152,416.07086 134.003091,419.272695 132.982367,422.892214 C131.961644,426.511733 131.45129,430.270408 131.45129,434.168351 L131.45129,509.342602 L85.5189792,509.342602 L85.5189792,370.687873 L129.781025,370.687873 L129.781025,389.89907 L130.33778,389.89907 C132.008054,386.929209 134.188657,384.005795 136.879654,381.128741 C139.570652,378.251687 142.725567,375.792308 146.344494,373.750528 C149.963422,371.708748 153.907066,370.038225 158.175544,368.738911 C162.444023,367.439596 166.990812,366.789949 171.816049,366.789949 C181.09535,366.789949 188.982638,368.460471 195.478149,371.801566 C201.973659,375.14266 207.216386,379.458176 211.206485,384.748242 C215.196585,390.038308 218.073125,396.117153 219.836192,402.984958 C221.59926,409.852764 222.48078,416.720466 222.48078,423.588272 L222.48078,509.342602 L176.548469,509.342602 Z M360.208119,509.342602 L360.208119,491.245097 L359.651364,491.245097 C355.197299,498.298519 348.841073,503.727716 340.582495,507.532852 C332.323917,511.337987 323.555109,513.240526 314.275808,513.240526 C303.882991,513.240526 294.603829,511.198777 286.438044,507.115217 C278.272259,503.031657 271.359283,497.60246 265.698909,490.827463 C260.038535,484.052465 255.723725,476.210292 252.754349,467.300706 C249.784972,458.391121 248.300306,449.110442 248.300306,439.458391 C248.300306,429.80634 249.831368,420.572065 252.893538,411.755288 C255.955707,402.938511 260.316913,395.189144 265.977287,388.506955 C271.637661,381.824766 278.50424,376.534779 286.577232,372.636835 C294.650225,368.738891 303.697407,366.789949 313.719053,366.789949 C323.926284,366.789949 332.555905,368.738891 339.608174,372.636835 C346.660443,376.534779 352.135148,380.803891 356.032455,385.4443 L356.58921,385.4443 L356.58921,298.8547 L402.243144,298.8547 L402.243144,509.342602 L360.208119,509.342602 Z M358.537853,439.736814 C358.537853,435.282022 357.749125,430.920103 356.171643,426.650926 C354.594162,422.38175 352.367163,418.576672 349.49058,415.235577 C346.613997,411.894483 343.134311,409.203086 339.051418,407.161306 C334.968526,405.119526 330.328945,404.098651 325.132536,404.098651 C319.750541,404.098651 315.018169,405.119526 310.935276,407.161306 C306.852384,409.203086 303.419094,411.848079 300.635304,415.096366 C297.851513,418.344652 295.763702,422.103327 294.371807,426.372503 C292.979911,430.641679 292.283974,435.003599 292.283974,439.458391 C292.283974,443.913184 292.979911,448.321506 294.371807,452.683491 C295.763702,457.045475 297.851513,460.896957 300.635304,464.238052 C303.419094,467.579146 306.852384,470.270543 310.935276,472.312323 C315.018169,474.354103 319.750541,475.374978 325.132536,475.374978 C330.328945,475.374978 334.968526,474.354103 339.051418,472.312323 C343.134311,470.270543 346.613997,467.579146 349.49058,464.238052 C352.367163,460.896957 354.594162,457.091879 356.171643,452.822702 C357.749125,448.553526 358.537853,444.191607 358.537853,439.736814 Z M487.009136,484.841365 C487.009136,492.637252 484.271783,499.133727 478.796996,504.330985 C473.322208,509.528244 466.780399,512.126834 459.171372,512.126834 C455.274065,512.126834 451.608796,511.430783 448.175455,510.03866 C444.742113,508.646537 441.726386,506.743998 439.128181,504.330985 C436.529977,501.917973 434.488561,499.087366 433.003873,495.839079 C431.519185,492.590793 430.776852,489.017732 430.776852,485.119788 C430.776852,481.407461 431.519185,477.880803 433.003873,474.539708 C434.488561,471.198614 436.529977,468.2752 439.128181,465.769379 C441.726386,463.263558 444.742113,461.268212 448.175455,459.783281 C451.608796,458.29835 455.274065,457.555896 459.171372,457.555896 C466.780399,457.555896 473.322208,460.154486 478.796996,465.351744 C484.271783,470.549002 487.009136,477.045478 487.009136,484.841365 Z M568.01703,326.418592 C568.01703,329.945303 567.321093,333.239944 565.929198,336.302614 C564.537303,339.365284 562.681471,342.010277 560.361645,344.237674 C558.04182,346.46507 555.258071,348.228399 552.010316,349.527713 C548.762561,350.827028 545.375666,351.476676 541.849532,351.476676 C534.426091,351.476676 528.209052,349.017296 523.19823,344.098462 C518.187407,339.179628 515.682033,333.286397 515.682033,326.418592 C515.682033,323.077497 516.331575,319.875663 517.630677,316.812993 C518.929779,313.750323 520.785611,311.10533 523.19823,308.877933 C525.610848,306.650537 528.394597,304.840805 531.549559,303.448682 C534.704522,302.056559 538.137811,301.360508 541.849532,301.360508 C545.375666,301.360508 548.762561,302.010156 552.010316,303.30947 C555.258071,304.608785 558.04182,306.372114 560.361645,308.59951 C562.681471,310.826907 564.537303,313.4719 565.929198,316.53457 C567.321093,319.59724 568.01703,322.891881 568.01703,326.418592 Z M519.022565,509.342602 L519.022565,370.687873 L564.676499,370.687873 L564.676499,509.342602 L519.022565,509.342602 Z M738.384149,447.254239 C738.384149,449.110403 738.291357,450.873732 738.105771,452.544279 L637.611441,452.544279 C637.982613,456.442223 639.142509,459.968881 641.091162,463.124359 C643.039815,466.279837 645.545189,469.017637 648.607358,471.337842 C651.669528,473.658047 655.102818,475.467779 658.907331,476.767093 C662.711845,478.066408 666.655489,478.716056 670.738381,478.716056 C677.976236,478.716056 684.100483,477.370357 689.111306,474.67892 C694.122128,471.987483 698.204959,468.507228 701.359922,464.238052 L733.094973,484.284519 C726.599462,493.750953 718.016238,501.036286 707.345041,506.140736 C696.673845,511.245186 684.286164,513.797373 670.181626,513.797373 C659.788808,513.797373 649.952897,512.173254 640.673596,508.924967 C631.394294,505.676681 623.275028,500.943535 616.315552,494.725387 C609.356076,488.507239 603.88137,480.850678 599.891271,471.755477 C595.901171,462.660275 593.906151,452.265915 593.906151,440.572084 C593.906151,429.249486 595.854775,418.994336 599.752082,409.806326 C603.649388,400.618316 608.938511,392.822545 615.619608,386.418781 C622.300704,380.015016 630.187992,375.049853 639.281707,371.523142 C648.375422,367.996432 658.211334,366.233103 668.789738,366.233103 C678.996969,366.233103 688.368922,367.950028 696.90588,371.383931 C705.442837,374.817834 712.773375,379.782997 718.897713,386.279569 C725.022052,392.776142 729.800821,400.664719 733.234162,409.945537 C736.667504,419.226355 738.384149,429.806329 738.384149,441.685776 L738.384149,447.254239 Z M696.437695,424.145118 C696.437695,416.90608 694.1643,410.688025 689.617443,405.490767 C685.070585,400.293509 678.250401,397.694919 669.156686,397.694919 C664.702621,397.694919 660.61979,398.39097 656.90807,399.783092 C653.196349,401.175215 649.948642,403.077754 647.164852,405.490767 C644.381062,407.90378 642.154063,410.734387 640.483789,413.982673 C638.813514,417.230959 637.885598,420.618407 637.700012,424.145118 L696.437695,424.145118 Z" id="ind.ie" fill="#343434" sketch:type="MSShapeGroup"></path>
            <g id="balloon" sketch:type="MSLayerGroup" transform="translate(686.000000, 18.000000)">
                <g id="strings-3" transform="translate(0.000000, 151.535133)" fill="#050505" sketch:type="MSShapeGroup">
                    <path d="M92.2971005,24.2407015 C87.6366879,30.1798369 82.1024036,35.4110008 67.8778095,47.7604092 C59.7793694,54.7912562 55.3483707,62.6618287 52.3261892,73.4085303 C51.5953213,76.0074542 51.1789779,77.7503597 50.0295781,82.8192945 C46.7894827,97.1083458 44.2675716,103.189252 37.4417896,109.378275 C29.1473511,116.898948 24.2417845,118.808707 14.4399252,120.203438 C10.0150426,120.833066 7.87951277,121.35321 5.32351486,122.708557 C3.67536321,123.582509 2.11964712,124.741944 0.592957452,126.261133 C0.0220592552,126.829227 0.0188213604,127.753533 0.585725411,128.325629 C1.15262946,128.897725 2.07500043,128.90097 2.64589862,128.332876 C3.97226567,127.013025 5.29654817,126.026072 6.68620179,125.289192 C8.85905211,124.137013 10.740236,123.678819 14.8495239,123.094098 C25.1784183,121.624374 30.6106242,119.509592 39.3965865,111.543248 C46.8001339,104.830358 49.5054445,98.3072334 52.870696,83.4662349 C54.0083887,78.4489293 54.4181734,76.7334797 55.1305047,74.2004712 C58.0095385,63.9627944 62.1634109,56.5844682 69.785586,49.9671016 C84.1597162,37.4878699 89.7691292,32.1856923 94.5873742,26.0454184 C100.220529,18.8666399 103.307983,11.7283387 105.008327,1.87523479 C105.145425,1.08078563 104.613884,0.325384596 103.821099,0.187999352 C103.028313,0.0506141076 102.274494,0.583269652 102.137396,1.37771881 C100.517805,10.7628788 97.6252025,17.4506763 92.2971005,24.2407015 Z" id="Path-152"></path>
                    <path d="M96.9456577,27.8515771 C96.199093,29.3202904 95.4148807,30.7577906 94.5040061,32.3502353 C94.020757,33.1950799 92.5717968,35.6749242 92.4162021,35.9450806 C86.5984995,46.0462609 85.5266795,51.4067697 86.955425,59.8062825 C87.8661281,65.1602539 87.8661281,68.4074759 87.3768443,70.0075914 C87.3250524,70.1769674 87.2789739,70.2855006 87.2463103,70.342513 C87.2582618,70.3216525 87.2980958,70.2694793 87.3713449,70.1974749 C86.7969952,70.762064 86.7881243,71.6863333 87.3515312,72.2618881 C87.9149382,72.8374429 88.8372721,72.8463324 89.4116219,72.2817433 C89.6893319,72.0087528 89.9528098,71.5488668 90.1625403,70.8629806 C90.8078831,68.7525018 90.8078831,65.0790575 89.8275418,59.3156872 C88.5166416,51.6089801 89.4514982,46.9334688 94.9396216,37.4045312 C95.0882503,37.1464697 96.5401819,34.6615401 97.031741,33.8021674 C97.9647666,32.170997 98.7711889,30.6927848 99.5417975,29.1767701 C104.287093,19.8413725 106.627311,11.0321375 105.623833,2.06508288 C105.534171,1.26386437 104.81333,0.687186477 104.013789,0.777036751 C103.214248,0.866887026 102.638777,1.589241 102.728439,2.3904595 C103.657362,10.6912875 101.455681,18.9790294 96.9456577,27.8515771 Z" id="Path-153"></path>
                </g>
                <path d="M121.763554,152.921652 C117.034736,155.607169 76.8649744,128.057281 58.6479327,106.235347 C40.4308909,84.4134123 29.8566267,44.3270758 58.6965652,29.8996943 C87.5365037,15.4723128 104.762197,41.2588282 110.416193,39.8461702 C116.070189,38.4335122 132.342524,7.28651455 161.430753,17.7975275 C190.518981,28.3085405 188.681986,68.5317443 175.941125,96.5753439 C163.200264,124.618944 127.445154,149.695047 121.763554,152.921652 Z" id="balloon-2" fill="#AD0B00" sketch:type="MSShapeGroup" transform="translate(112.794433, 84.236658) rotate(14.000000) translate(-112.794433, -84.236658) "></path>
            </g>
        </g>
    </g>
</svg>