<?xml version="1.0" encoding="UTF-8" standalone="no"?>
<svg width="500px" height="500px" viewBox="0 0 500 500" version="1.1" xmlns="http://www.w3.org/2000/svg" xmlns:xlink="http://www.w3.org/1999/xlink" xmlns:sketch="http://www.bohemiancoding.com/sketch/ns">
    <!-- Generator: Sketch 3.2.2 (9983) - http://www.bohemiancoding.com/sketch -->
    <title>indie-balloon-white-background</title>
    <desc>Created with Sketch.</desc>
    <defs></defs>
    <g id="Page-1" stroke="none" stroke-width="1" fill="none" fill-rule="evenodd" sketch:type="MSPage">
        <g id="balloon-with-white-background" sketch:type="MSArtboardGroup">
            <g id="logo" sketch:type="MSLayerGroup" transform="translate(100.000000, 68.000000)">
                <g id="strings" transform="translate(0.000000, 208.902004)" fill="#050505" sketch:type="MSShapeGroup">
                    <path d="M127.08244,33.4175385 C120.66559,41.6050609 113.045521,48.816594 93.4598986,65.8411356 C82.3092825,75.5336604 76.2083094,86.3838067 72.0471148,101.198902 C71.0407941,104.781705 70.4675374,107.184424 68.8849467,114.172313 C64.4237098,133.870791 60.9513297,142.253755 51.5530169,150.785765 C40.1325337,161.15355 33.3781354,163.786289 19.8821081,165.709025 C13.7895562,166.577012 10.8491784,167.294068 7.32986468,169.162511 C5.06055035,170.367315 2.9185091,171.96568 0.816433878,174.059991 C0.0303730449,174.843148 0.0259148379,176.117371 0.806476194,176.906046 C1.58703755,177.694721 2.85703576,177.699194 3.6430966,176.916037 C5.46935072,175.096528 7.29273467,173.735942 9.20612708,172.7201 C12.1978908,171.131739 14.7880636,170.500086 20.4460781,169.694007 C34.6677719,167.667887 42.1472917,164.752509 54.2445463,153.770335 C64.4383754,144.516136 68.1632754,135.523543 72.7968377,115.064167 C74.363309,108.147453 74.9275353,105.782583 75.9083331,102.29065 C79.8724298,88.1772809 85.5918321,78.0057311 96.0866863,68.8832186 C115.878202,51.6797063 123.601716,44.3702758 130.235882,35.9054697 C137.992085,26.0090107 142.243153,16.1683526 144.58433,2.5851451 C144.773097,1.48994019 144.041228,0.448565907 142.949654,0.259170535 C141.858079,0.0697751627 140.820157,0.804078877 140.63139,1.89928379 C138.4014,14.8373972 134.41862,24.0570038 127.08244,33.4175385 Z" id="string"></path>
                    <path d="M133.482966,38.3953885 C132.455033,40.4201146 131.375263,42.4018114 130.121094,44.5971101 C129.455716,45.7617887 127.460665,49.1804312 127.246429,49.5528611 C119.236125,63.4780597 117.760353,70.8679039 119.72757,82.4472323 C120.981503,89.8280643 120.981503,94.3045917 120.307816,96.5104653 C120.236504,96.7439622 120.17306,96.893583 120.128086,96.9721787 C120.144541,96.9434209 120.199388,96.8714965 120.300244,96.7722333 C119.509431,97.5505597 119.497216,98.8247308 120.272963,99.6181743 C121.048709,100.411618 122.318656,100.423873 123.109469,99.6455462 C123.491844,99.2692092 123.854623,98.6352235 124.143397,97.6896804 C125.03196,94.7802347 125.03196,89.7161293 123.682143,81.7709116 C121.877185,71.1466654 123.164374,64.7011392 130.720886,51.5648181 C130.925531,51.2090618 132.924673,47.7834088 133.601493,46.5987023 C134.886161,44.3500173 135.996511,42.3121962 137.05755,40.2222616 C143.591274,27.3527493 146.813484,15.2085895 145.431811,2.84686425 C145.308356,1.74232731 144.315841,0.947335643 143.214965,1.07120066 C142.11409,1.19506569 141.321734,2.19088223 141.445188,3.29541917 C142.724207,14.7387034 139.692747,26.1639477 133.482966,38.3953885 Z" id="string"></path>
                </g>
                <path d="M167.654341,210.81342 C161.143305,214.515597 105.834186,176.536109 80.7514249,146.453014 C55.6686638,116.369918 41.1091242,61.1080401 80.8183863,41.2188642 C120.527648,21.3296883 144.245437,56.8782417 152.030336,54.9307918 C159.815236,52.9833418 182.220359,10.0449808 222.271488,24.5351629 C262.322618,39.0253451 259.793288,94.4759047 242.250595,133.13601 C224.707901,171.796115 175.477247,206.365314 167.654341,210.81342 Z" id="balloon" fill="#AD0B00" sketch:type="MSShapeGroup" transform="translate(155.304897, 116.126249) rotate(14.000000) translate(-155.304897, -116.126249) "></path>
            </g>
        </g>
    </g>
</svg>