<svg xmlns="http://www.w3.org/2000/svg" xmlns:xlink="http://www.w3.org/1999/xlink" width="300" height="130" version="1.1" viewBox="0 0 300 130"><title>indie-balloon-logo</title><desc>Created with Sketch.</desc><g id="Page-1" fill="none" fill-rule="evenodd" stroke="none" stroke-width="1"><g id="logo-without-tagline-lighter"><g id="ind.ie" fill="#343434"><path d="M13.5387318,7.43175004 C13.5387318,8.34003775 13.3598438,9.18855696 13.0020624,9.97733313 C12.644281,10.7661093 12.1672463,11.4473149 11.570944,12.0209703 C10.9746416,12.5946257 10.2590896,13.0487627 9.42426631,13.383395 C8.58944304,13.7180273 7.7188547,13.885341 6.81247515,13.885341 C4.90430769,13.885341 3.30624142,13.2519393 2.01822838,11.985117 C0.730215345,10.7182946 0.0862184874,9.20052084 0.0862184874,7.43175004 C0.0862184874,6.57126694 0.253180636,5.74664968 0.587109941,4.95787351 C0.921039247,4.16909734 1.39807396,3.48789177 2.01822838,2.91423638 C2.63838281,2.34058098 3.35393487,1.87449296 4.16490604,1.51595834 C4.97587721,1.15742372 5.85839142,0.978159094 6.81247515,0.978159094 C7.7188547,0.978159094 8.58944304,1.14547274 9.42426631,1.48010506 C10.2590896,1.81473737 10.9746416,2.26887441 11.570944,2.84252981 C12.1672463,3.41618521 12.644281,4.09739077 13.0020624,4.88616694 C13.3598438,5.67494311 13.5387318,6.52346233 13.5387318,7.43175004 Z M0.944889551,54.5429639 L0.944889551,18.833094 L12.6800608,18.833094 L12.6800608,54.5429639 L0.944889551,54.5429639 Z M45.3811171,54.5429639 L45.3811171,35.038778 C45.3811171,34.034881 45.297636,33.078803 45.1306714,32.1705153 C44.9637067,31.2622276 44.6894118,30.4615123 44.3077783,29.7683454 C43.9261448,29.0751784 43.3894807,28.5254336 42.69777,28.1190943 C42.0060593,27.7127551 41.135471,27.5095885 40.0859789,27.5095885 C39.0364868,27.5095885 38.118195,27.7127551 37.3310759,28.1190943 C36.5439568,28.5254336 35.8880341,29.0871294 35.363288,29.8041986 C34.838542,30.5212679 34.4449883,31.3458852 34.1826153,32.2780752 C33.9202423,33.2102652 33.7890577,34.1782942 33.7890577,35.1821911 L33.7890577,54.5429639 L21.9823306,54.5429639 L21.9823306,18.833094 L33.3597222,18.833094 L33.3597222,23.7808471 L33.5028341,23.7808471 C33.9321717,23.0159732 34.4926875,22.2630618 35.1843982,21.5220903 C35.8761089,20.7811187 36.6870679,20.147717 37.6172996,19.6218663 C38.5475312,19.0960155 39.56123,18.6657804 40.6584263,18.3311481 C41.7556225,17.9965158 42.9243576,17.8292021 44.1646664,17.8292021 C46.5498758,17.8292021 48.5772733,18.2594372 50.2469198,19.1199203 C51.9165663,19.9804034 53.2641894,21.0918441 54.2898294,22.4542756 C55.3154694,23.8167072 56.0548732,25.3822849 56.508063,27.1510557 C56.9612527,28.9198265 57.1878442,30.6885708 57.1878442,32.4573416 L57.1878442,54.5429639 L45.3811171,54.5429639 Z M92.5901366,54.5429639 L92.5901366,49.8820371 L92.4470248,49.8820371 C91.3021243,51.6986126 89.6682804,53.0968766 87.5454441,54.0768712 C85.4226078,55.0568659 83.1686188,55.5468558 80.7834095,55.5468558 C78.1119751,55.5468558 75.7268015,55.021013 73.6278173,53.9693114 C71.5288331,52.9176098 69.7518788,51.5193458 68.2969011,49.7744773 C66.8419234,48.0296088 65.7328177,46.009894 64.9695508,43.7152725 C64.2062838,41.4206509 63.824656,39.0304559 63.824656,36.5446158 C63.824656,34.0587758 64.2182096,31.6805318 65.0053287,29.4098125 C65.7924478,27.1390933 66.9134794,25.1432805 68.368457,23.4223143 C69.8234347,21.7013481 71.5884632,20.3389369 73.6635953,19.33504 C75.7387274,18.3311431 78.0642716,17.8292021 80.6402977,17.8292021 C83.2640279,17.8292021 85.4822393,18.3311431 87.2949984,19.33504 C89.1077575,20.3389369 90.5150099,21.4384266 91.5167978,22.633542 L91.6599097,22.633542 L91.6599097,0.3328 L103.395081,0.3328 L103.395081,54.5429639 L92.5901366,54.5429639 Z M92.1608011,36.6163224 C92.1608011,35.4690116 91.9580614,34.34562 91.5525758,33.2461138 C91.1470902,32.1466076 90.5746485,31.1666277 89.8352336,30.3061446 C89.0958188,29.4456615 88.2013787,28.752505 87.1518866,28.2266542 C86.1023945,27.7008034 84.9098077,27.437882 83.5740905,27.437882 C82.1906691,27.437882 80.9742306,27.7008034 79.9247384,28.2266542 C78.8752463,28.752505 77.9927321,29.4337105 77.2771693,30.2702913 C76.5616065,31.1068721 76.0249425,32.0749011 75.6671611,33.1744072 C75.3093797,34.2739134 75.1304917,35.3973051 75.1304917,36.5446158 C75.1304917,37.6919266 75.3093797,38.8272693 75.6671611,39.9506777 C76.0249425,41.0740862 76.5616065,42.0660171 77.2771693,42.9265002 C77.9927321,43.7869833 78.8752463,44.4801399 79.9247384,45.0059906 C80.9742306,45.5318414 82.1906691,45.7947629 83.5740905,45.7947629 C84.9098077,45.7947629 86.1023945,45.5318414 87.1518866,45.0059906 C88.2013787,44.4801399 89.0958188,43.7869833 89.8352336,42.9265002 C90.5746485,42.0660171 91.1470902,41.0860372 91.5525758,39.986531 C91.9580614,38.8870248 92.1608011,37.7636332 92.1608011,36.6163224 Z M125.183859,48.2327861 C125.183859,50.24058 124.480233,51.9137165 123.072959,53.2522457 C121.665686,54.590775 119.984139,55.2600296 118.028267,55.2600296 C117.026479,55.2600296 116.084335,55.080765 115.201808,54.7222303 C114.319281,54.3636957 113.544099,53.8737057 112.876241,53.2522457 C112.208382,52.6307857 111.683644,51.9017763 111.30201,51.0651955 C110.920377,50.2286147 110.729563,49.3083896 110.729563,48.3044927 C110.729563,47.3484004 110.920377,46.4401263 111.30201,45.5796432 C111.683644,44.7191601 112.208382,43.9662487 112.876241,43.3208863 C113.544099,42.675524 114.319281,42.1616321 115.201808,41.7791952 C116.084335,41.3967582 117.026479,41.2055426 118.028267,41.2055426 C119.984139,41.2055426 121.665686,41.8747972 123.072959,43.2133265 C124.480233,44.5518557 125.183859,46.2249922 125.183859,48.2327861 Z M146.006632,7.43175004 C146.006632,8.34003775 145.827744,9.18855696 145.469963,9.97733313 C145.112182,10.7661093 144.635147,11.4473149 144.038845,12.0209703 C143.442542,12.5946257 142.72699,13.0487627 141.892167,13.383395 C141.057344,13.7180273 140.186755,13.885341 139.280376,13.885341 C137.372208,13.885341 135.774142,13.2519393 134.486129,11.985117 C133.198116,10.7182946 132.554119,9.20052084 132.554119,7.43175004 C132.554119,6.57126694 132.721081,5.74664968 133.055011,4.95787351 C133.38894,4.16909734 133.865975,3.48789177 134.486129,2.91423638 C135.106283,2.34058098 135.821835,1.87449296 136.632807,1.51595834 C137.443778,1.15742372 138.326292,0.978159094 139.280376,0.978159094 C140.186755,0.978159094 141.057344,1.14547274 141.892167,1.48010506 C142.72699,1.81473737 143.442542,2.26887441 144.038845,2.84252981 C144.635147,3.41618521 145.112182,4.09739077 145.469963,4.88616694 C145.827744,5.67494311 146.006632,6.52346233 146.006632,7.43175004 Z M133.41279,54.5429639 L133.41279,18.833094 L145.147961,18.833094 L145.147961,54.5429639 L133.41279,54.5429639 Z M189.798857,38.5523997 C189.798857,39.0304459 189.775005,39.4845829 189.727301,39.9148245 L163.895613,39.9148245 C163.991021,40.9187214 164.289168,41.8269955 164.790062,42.639674 C165.290956,43.4523524 165.934953,44.15746 166.722072,44.7550177 C167.509191,45.3525754 168.391705,45.8186634 169.369641,46.1532957 C170.347577,46.487928 171.361276,46.6552417 172.410768,46.6552417 C174.271231,46.6552417 175.845445,46.3086634 177.133458,45.6154965 C178.421472,44.9223295 179.470948,44.0260064 180.281919,42.9265002 L188.439294,48.089373 C186.769648,50.5274084 184.563362,52.4037115 181.820371,53.7183384 C179.077381,55.0329654 175.893174,55.690269 172.267656,55.690269 C169.596221,55.690269 167.067937,55.2719849 164.682728,54.4354041 C162.297519,53.5988233 160.210492,52.3798239 158.421585,50.7783692 C156.632678,49.1769146 155.225425,47.2050037 154.199785,44.8625775 C153.174145,42.5201513 152.661333,39.8431329 152.661333,36.8314421 C152.661333,33.9153605 153.16222,31.2741951 154.164008,28.9078666 C155.165795,26.5415381 156.525344,24.5337743 158.242695,22.884515 C159.960046,21.2352558 161.987443,19.9565014 164.324948,19.0482137 C166.662454,18.139926 169.190738,17.685789 171.909876,17.685789 C174.533606,17.685789 176.942632,18.127975 179.137024,19.0123605 C181.331417,19.8967459 183.215704,21.1755002 184.789942,22.8486617 C186.36418,24.5218233 187.592545,26.553489 188.475072,28.9437198 C189.3576,31.3339507 189.798857,34.0587729 189.798857,37.1182684 L189.798857,38.5523997 Z M179.0983,32.6007547 C179.0983,30.7363747 178.513932,29.1349441 177.345179,27.7964148 C176.176427,26.4578855 174.423324,25.7886309 172.085819,25.7886309 C170.940919,25.7886309 169.891442,25.9678956 168.937359,26.3264302 C167.983275,26.6849648 167.148464,27.1749548 166.432901,27.7964148 C165.717339,28.4178748 165.144897,29.1468843 164.715559,29.9834651 C164.286222,30.8200458 164.047704,31.692467 164,32.6007547 L179.0983,32.6007547 Z" transform="translate(54.000000, 73.000000)"/></g><g id="logo" transform="translate(231.000000, 1.000000)"><g id="strings" fill="#050505" transform="translate(0.000000, 38.966177)"><path id="string" d="M23.6540308,6.23332324 C22.4596537,7.7605295 21.0413195,9.10568592 17.3958205,12.2812481 C15.3203409,14.0891802 14.1847583,16.1130417 13.4102294,18.8764792 C13.2229215,19.5447739 13.1162205,19.9929496 12.8216507,21.29639 C11.9912745,24.9707175 11.3449555,26.5343791 9.59563453,28.1258422 C7.46992416,30.0597295 6.21271864,30.5508103 3.70068435,30.9094555 C2.56666921,31.0713598 2.01937262,31.2051111 1.36431788,31.553629 C0.941927256,31.7783593 0.543226146,32.0764999 0.15196397,32.4671486 C0.00565337696,32.6132298 0.00482356472,32.8509085 0.150110533,32.9980189 C0.2953975,33.1451294 0.531784029,33.1459637 0.678094622,32.9998825 C1.01801784,32.6604923 1.35740682,32.4067041 1.7135492,32.2172208 C2.27041034,31.9209462 2.75252279,31.8031249 3.80565687,31.6527681 C6.45276047,31.274839 7.84493385,30.731038 10.0966126,28.6825496 C11.9940042,26.9563777 12.687325,25.2790029 13.5497764,21.4627461 C13.8413458,20.1725818 13.9463661,19.7314662 14.1289233,19.0801212 C14.8667661,16.4475757 15.9313264,14.5502918 17.8847482,12.8486833 C21.5685705,9.63973797 23.0061587,8.27632087 24.2409854,6.69739331 C25.6846582,4.85142169 26.4759153,3.01585852 26.9116818,0.482203231 C26.9468174,0.277916305 26.8105935,0.0836703246 26.6074173,0.0483426904 C26.404241,0.0130150562 26.2110511,0.149983625 26.1759156,0.354270551 C25.7608445,2.76759741 25.0195242,4.48731677 23.6540308,6.23332324 Z"/><path id="string" d="M24.8453696,7.16183412 C24.6540389,7.53950325 24.4530599,7.90914616 24.2196197,8.31863193 C24.0957719,8.53587768 23.7244303,9.17355193 23.6845543,9.24302072 C22.1935853,11.8404671 21.9188978,13.2188836 22.2850587,15.3787584 C22.5184549,16.7554939 22.5184549,17.5904938 22.3930606,18.0019521 C22.3797873,18.0455059 22.3679782,18.0734144 22.3596072,18.0880748 C22.3626701,18.0827106 22.3728788,18.0692947 22.3916512,18.0507793 C22.2444561,18.1959593 22.2421826,18.4336286 22.3865733,18.5816284 C22.530964,18.7296282 22.7673411,18.731914 22.9145363,18.586734 C22.9857082,18.5165364 23.0532327,18.39828 23.1069827,18.2219093 C23.272372,17.6792148 23.272372,16.7346148 23.0211288,15.2526053 C22.6851695,13.2708806 22.9247558,12.0686063 24.3312598,9.61830803 C24.3693506,9.55194935 24.7414536,8.91296744 24.8674311,8.69198591 C25.1065482,8.27254209 25.3132193,7.89243037 25.5107119,7.50259802 C26.726843,5.10206722 27.3265974,2.83683535 27.0694246,0.531021311 C27.0464459,0.324993695 26.8617076,0.176705094 26.6568001,0.19980945 C26.4518926,0.222913807 26.3044103,0.408661971 26.327389,0.614689587 C26.5654546,2.74918821 26.0012047,4.88032185 24.8453696,7.16183412 Z"/></g><path id="balloon" fill="#C62C1F" d="M31.205735,39.3227105 C29.9938268,40.0132719 19.6990638,32.9290151 15.0303747,27.3176606 C10.3616856,21.706306 7.6516983,11.3983909 15.0428383,7.68849281 C22.4339783,3.97859471 26.8486032,10.609413 28.2976173,10.246158 C29.7466314,9.88290313 33.9169282,1.87367517 41.3717004,4.57650707 C48.8264726,7.27933897 48.3556849,17.6224485 45.0904391,24.8336599 C41.8251933,32.0448712 32.6618233,38.493012 31.205735,39.3227105 Z" transform="translate(28.907116, 21.660855) rotate(14.000000) translate(-28.907116, -21.660855)"/></g></g></g></svg>