<?xml version="1.0" encoding="UTF-8" standalone="no"?>
<svg width="520px" height="360px" viewBox="0 0 520 360" version="1.1" xmlns="http://www.w3.org/2000/svg" xmlns:xlink="http://www.w3.org/1999/xlink" xmlns:sketch="http://www.bohemiancoding.com/sketch/ns">
    <!-- Generator: Sketch 3.2.2 (9983) - http://www.bohemiancoding.com/sketch -->
    <title>logo-in-bounding-box</title>
    <desc>Created with Sketch.</desc>
    <defs></defs>
    <g id="Page-1" stroke="none" stroke-width="1" fill="none" fill-rule="evenodd" sketch:type="MSPage">
        <g id="logo-with-grid" sketch:type="MSArtboardGroup">
            <g id="logo-grid-system" sketch:type="MSLayerGroup" stroke="#00BCFF">
                <g id="grid" sketch:type="MSShapeGroup">
                    <rect id="space-box" stroke-width="2" x="40" y="40" width="440" height="280"></rect>
                    <rect id="space-box-2" stroke-width="2" x="0" y="0" width="520" height="360"></rect>
                    <g id="horizontal-lines" transform="translate(40.000000, 80.000000)">
                        <path d="M0.100042714,1.61777032 L438.787598,1.61777028" id="Path-29"></path>
                        <path d="M0.100042714,41.6177703 L438.787598,41.6177703" id="Path-30"></path>
                        <path d="M0.100042714,81.6177703 L438.787598,81.6177703" id="Path-32"></path>
                        <path d="M0.100042714,121.61777 L438.787598,121.61777" id="Path-31"></path>
                        <path d="M0.100042714,161.61777 L438.787598,161.61777" id="Path-34"></path>
                        <path d="M0.100042714,201.61777 L438.787598,201.61777" id="Path-33"></path>
                    </g>
                    <g id="vertical-lines" transform="translate(260.500000, 179.500000) rotate(-270.000000) translate(-260.500000, -179.500000) translate(120.000000, -2.000000)">
                        <path d="M1.06380857,160.61777 L280.864527,160.61777" id="Path-29"></path>
                        <path d="M1.06380857,200.61777 L280.864527,200.61777" id="Path-30"></path>
                        <path d="M1.06380857,240.61777 L280.864527,240.61777" id="Path-32"></path>
                        <path d="M1.06380857,280.61777 L280.864527,280.61777" id="Path-31"></path>
                        <path d="M1.06380857,320.61777 L280.864527,320.61777" id="Path-34"></path>
                        <path d="M1.06380857,360.61777 L280.864527,360.61777" id="Path-33"></path>
                        <path d="M1.06380857,1.61777032 L280.864527,1.61777028" id="Path-38"></path>
                        <path d="M1.06380857,41.6177703 L280.864527,41.6177703" id="Path-37"></path>
                        <path d="M1.06380857,81.6177703 L280.864527,81.6177703" id="Path-36"></path>
                        <path d="M1.06380857,121.61777 L280.864527,121.61777" id="Path-35"></path>
                    </g>
                </g>
            </g>
            <g id="ind.ie-+-balloon" sketch:type="MSLayerGroup" transform="translate(81.000000, 81.000000)">
                <path d="M22.2584588,122.958641 C22.2584588,124.444694 21.9643565,125.83296 21.3761432,127.12348 C20.7879299,128.414001 20.0036572,129.528524 19.0233017,130.467084 C18.0429461,131.405644 16.8665371,132.14866 15.4940393,132.696153 C14.1215416,133.243647 12.6902439,133.517389 11.2001035,133.517389 C8.06296573,133.517389 5.43565227,132.481078 3.31808428,130.408425 C1.2005163,128.335771 0.141748184,125.852534 0.141748184,122.958641 C0.141748184,121.5508 0.41624362,120.20164 0.965242728,118.91112 C1.51424184,117.6206 2.29851451,116.506076 3.31808428,115.567516 C4.33765406,114.628956 5.51406307,113.866387 6.84734662,113.279787 C8.18063016,112.693187 9.63153461,112.399892 11.2001035,112.399892 C12.6902439,112.399892 14.1215416,112.673634 15.4940393,113.221128 C16.8665371,113.768621 18.0429461,114.511637 19.0233017,115.450197 C20.0036572,116.388757 20.7879299,117.50328 21.3761432,118.793801 C21.9643565,120.084321 22.2584588,121.472587 22.2584588,122.958641 Z M1.55345312,200.037508 L1.55345312,141.61243 L20.8467539,141.61243 L20.8467539,200.037508 L1.55345312,200.037508 Z M74.6091834,200.037508 L74.6091834,168.126622 C74.6091834,166.484142 74.4719357,164.919898 74.1974361,163.433845 C73.9229366,161.947791 73.4719798,160.637737 72.8445522,159.503644 C72.2171247,158.36955 71.3348179,157.47011 70.1976055,156.805297 C69.0603931,156.140483 67.6290954,155.808082 65.9036696,155.808082 C64.1782439,155.808082 62.668519,156.140483 61.3744497,156.805297 C60.0803803,157.47011 59.0020054,158.389103 58.1392925,159.562304 C57.2765796,160.735504 56.6295547,162.084664 56.1981982,163.609824 C55.7668418,165.134984 55.5511668,166.718781 55.5511668,168.361261 L55.5511668,200.037508 L36.140224,200.037508 L36.140224,141.61243 L54.8453143,141.61243 L54.8453143,149.707471 L55.0805985,149.707471 C55.7864545,148.456058 56.7079749,147.224216 57.8451873,146.011909 C58.9823998,144.799602 60.3156633,143.763291 61.845018,142.902944 C63.3743726,142.042597 65.0409521,141.338688 66.8448063,140.791194 C68.6486605,140.243701 70.5701285,139.969958 72.6092681,139.969958 C76.5306903,139.969958 79.8638492,140.673868 82.6088447,142.081708 C85.3538402,143.489548 87.5694105,145.307981 89.2556221,147.537062 C90.9418336,149.766142 92.1574563,152.327591 92.9025265,155.221485 C93.6475967,158.115378 94.0201262,161.009229 94.0201262,163.903123 L94.0201262,200.037508 L74.6091834,200.037508 Z M152.223544,200.037508 L152.223544,192.411745 L151.98826,192.411745 C150.105977,195.383852 147.419843,197.671558 143.929778,199.274931 C140.439712,200.878305 136.734024,201.67998 132.812601,201.67998 C128.420609,201.67998 124.499245,200.819646 121.048394,199.098952 C117.597542,197.378259 114.676126,195.090553 112.284059,192.235765 C109.891991,189.380978 108.068557,186.076514 106.813702,182.322273 C105.558847,178.568033 104.931429,174.657424 104.931429,170.59033 C104.931429,166.523236 105.578454,162.632181 106.872523,158.917047 C108.166593,155.201913 110.009633,151.936554 112.401701,149.120874 C114.793768,146.305194 117.695577,144.076147 121.107215,142.433666 C124.518852,140.791186 128.342181,139.969958 132.577317,139.969958 C136.890882,139.969958 140.53775,140.791186 143.51803,142.433666 C146.498311,144.076147 148.811916,145.875027 150.458913,147.83036 L150.694197,147.83036 L150.694197,111.344017 L169.987498,111.344017 L169.987498,200.037508 L152.223544,200.037508 Z M151.517692,170.70765 C151.517692,168.830529 151.184376,166.992543 150.517734,165.193636 C149.851092,163.394729 148.909965,161.79138 147.694324,160.38354 C146.478683,158.975699 145.008172,157.841623 143.282746,156.981276 C141.557321,156.120929 139.596639,155.690762 137.400642,155.690762 C135.126218,155.690762 133.126322,156.120929 131.400896,156.981276 C129.675471,157.841623 128.224566,158.956146 127.04814,160.32488 C125.871713,161.693613 124.989406,163.27741 124.401193,165.076317 C123.812979,166.875224 123.518877,168.71321 123.518877,170.59033 C123.518877,172.46745 123.812979,174.32499 124.401193,176.163003 C124.989406,178.001017 125.871713,179.623919 127.04814,181.03176 C128.224566,182.4396 129.675471,183.573676 131.400896,184.434023 C133.126322,185.29437 135.126218,185.724537 137.400642,185.724537 C139.596639,185.724537 141.557321,185.29437 143.282746,184.434023 C145.008172,183.573676 146.478683,182.4396 147.694324,181.03176 C148.909965,179.623919 149.851092,178.02057 150.517734,176.221663 C151.184376,174.422756 151.517692,172.58477 151.517692,170.70765 Z M205.809511,189.713398 C205.809511,192.998358 204.652708,195.735784 202.339069,197.925758 C200.02543,200.115732 197.260869,201.210702 194.045303,201.210702 C192.398306,201.210702 190.849367,200.917406 189.398441,200.330806 C187.947515,199.744206 186.673071,198.942531 185.575073,197.925758 C184.477075,196.908984 183.614375,195.716249 182.986948,194.347515 C182.35952,192.978782 182.045811,191.473197 182.045811,189.830717 C182.045811,188.26645 182.35952,186.780419 182.986948,185.372579 C183.614375,183.964738 184.477075,182.732897 185.575073,181.677017 C186.673071,180.621136 187.947515,179.780356 189.398441,179.154649 C190.849367,178.528942 192.398306,178.216093 194.045303,178.216093 C197.260869,178.216093 200.02543,179.311064 202.339069,181.501037 C204.652708,183.691011 205.809511,186.428437 205.809511,189.713398 Z M240.043355,122.958641 C240.043355,124.444694 239.749253,125.83296 239.16104,127.12348 C238.572826,128.414001 237.788554,129.528524 236.808198,130.467084 C235.827843,131.405644 234.651434,132.14866 233.278936,132.696153 C231.906438,133.243647 230.47514,133.517389 228.985,133.517389 C225.847862,133.517389 223.220549,132.481078 221.102981,130.408425 C218.985413,128.335771 217.926645,125.852534 217.926645,122.958641 C217.926645,121.5508 218.20114,120.20164 218.750139,118.91112 C219.299138,117.6206 220.083411,116.506076 221.102981,115.567516 C222.122551,114.628956 223.29896,113.866387 224.632243,113.279787 C225.965527,112.693187 227.416431,112.399892 228.985,112.399892 C230.47514,112.399892 231.906438,112.673634 233.278936,113.221128 C234.651434,113.768621 235.827843,114.511637 236.808198,115.450197 C237.788554,116.388757 238.572826,117.50328 239.16104,118.793801 C239.749253,120.084321 240.043355,121.472587 240.043355,122.958641 Z M219.33835,200.037508 L219.33835,141.61243 L238.63165,141.61243 L238.63165,200.037508 L219.33835,200.037508 Z M312.040307,173.875274 C312.040307,174.657408 312.001093,175.400423 311.922665,176.104344 L269.453875,176.104344 C269.610732,177.746824 270.100902,179.232855 270.924401,180.562482 C271.747899,181.892109 272.806667,183.045738 274.100737,184.023405 C275.394806,185.001072 276.845711,185.763641 278.453494,186.311134 C280.061277,186.858628 281.727856,187.13237 283.453282,187.13237 C286.511991,187.13237 289.100091,186.565332 291.217659,185.431238 C293.335227,184.297145 295.060627,182.830667 296.39391,181.03176 L309.805107,189.478759 C307.060112,193.467639 303.432851,196.537467 298.923215,198.688334 C294.41358,200.839201 289.17856,201.914619 283.217998,201.914619 C278.826005,201.914619 274.66936,201.230262 270.747938,199.861529 C266.826515,198.492795 263.395322,196.498385 260.454256,193.878238 C257.513189,191.25809 255.199585,188.031838 253.513373,184.199384 C251.827162,180.36693 250.984068,175.987049 250.984068,171.059608 C250.984068,166.288594 251.807555,161.967371 253.454552,158.095811 C255.101549,154.22425 257.336727,150.939339 260.160151,148.240978 C262.983575,145.542618 266.316733,143.450442 270.159727,141.964389 C274.002721,140.478335 278.159366,139.735319 282.629787,139.735319 C286.943352,139.735319 290.903929,140.458782 294.511637,141.905729 C298.119346,143.352676 301.217223,145.444851 303.805361,148.182319 C306.3935,150.919786 308.413002,154.243803 309.863928,158.15447 C311.314855,162.065138 312.040307,166.523231 312.040307,171.528886 L312.040307,173.875274 Z M294.313783,164.137761 C294.313783,161.087441 293.353049,158.467333 291.431552,156.277359 C289.510055,154.087386 286.627853,152.992415 282.784859,152.992415 C280.902577,152.992415 279.177177,153.285711 277.608608,153.872311 C276.040039,154.458911 274.667562,155.260586 273.491135,156.277359 C272.314709,157.294133 271.373581,158.486869 270.667725,159.855602 C269.961869,161.224336 269.569733,162.651708 269.491305,164.137761 L294.313783,164.137761 Z" id="ind.ie" fill="#343434" sketch:type="MSShapeGroup"></path>
                <g id="balloon" transform="translate(289.902825, 0.000000)" sketch:type="MSShapeGroup">
                    <g id="strings-3" transform="translate(0.000000, 56.852506)" fill="#050505">
                        <path d="M39.0046504,10.2143279 C37.0351653,12.7169071 34.696383,14.9211677 28.6850856,20.1248499 C25.262694,23.0874447 23.3901589,26.4038754 22.1129884,30.9322235 C21.8041245,32.0273345 21.6281782,32.7617443 21.1424432,34.8976463 C19.7731825,40.9186377 18.7074257,43.480955 15.822858,46.0888297 C12.3176377,49.2578229 10.2445507,50.0625398 6.10229608,50.650239 C4.23234569,50.9155458 3.32987319,51.1347194 2.24971136,51.7058235 C1.55320434,52.0740812 0.895760477,52.5626336 0.250583149,53.2027759 C0.00932221633,53.4421541 0.00795388563,53.8316299 0.247526897,54.0726946 C0.487099908,54.3137592 0.876892836,54.3151265 1.11815377,54.0757483 C1.67867498,53.5196015 2.23831527,53.1037278 2.82558132,52.793228 C3.74382541,52.3077332 4.5388116,52.1146637 6.27539201,51.8682793 C10.6403711,51.2489801 12.9360152,50.3578725 16.6489529,47.0010865 C19.7776837,44.1724694 20.9209449,41.4238141 22.3430964,35.1702482 C22.823884,33.0561013 22.9970586,32.3332606 23.298089,31.2659244 C24.5147654,26.9520646 26.2701872,23.8430521 29.4913098,21.0546859 C35.565801,15.7963 37.9363326,13.5621163 39.9725175,10.9747832 C42.3530824,7.94985432 43.657837,4.94198143 44.3764004,0.790169497 C44.4343377,0.455411687 44.2097094,0.137107622 43.874679,0.0792174687 C43.5396487,0.0213273155 43.2210855,0.245772898 43.1631482,0.580530707 C42.4787108,4.53516467 41.2563002,7.35320837 39.0046504,10.2143279 Z" id="Path-152"></path>
                        <path d="M40.9691254,11.735846 C40.653628,12.3547191 40.3222208,12.96044 39.9372862,13.6314499 C39.7330657,13.9874429 39.1207367,15.0323773 39.0549826,15.1462134 C36.5964281,19.4025575 36.1434781,21.6613203 36.7472643,25.2006311 C37.1321264,27.4566393 37.1321264,28.8249243 36.9253557,29.4991665 C36.9034685,29.5705367 36.8839957,29.6162694 36.8701922,29.6402928 C36.8752428,29.6315028 36.8920766,29.6095185 36.9230316,29.579178 C36.6803121,29.8170794 36.6765633,30.2065396 36.9146584,30.4490617 C37.1527535,30.6915838 37.5425308,30.6953296 37.7852504,30.4574281 C37.9026103,30.3423978 38.0139558,30.1486152 38.1025876,29.8596027 C38.3753088,28.9703082 38.3753088,27.4224254 37.9610177,24.9939085 C37.4070327,21.7465259 37.8021021,19.7764012 40.1213768,15.7611835 C40.1841871,15.6524439 40.7977718,14.6053667 41.0055041,14.243252 C41.3997997,13.5559241 41.7405928,12.9330484 42.0662512,12.2942438 C44.0716078,8.36057834 45.0605813,4.64862244 44.6365126,0.87016597 C44.5986214,0.532555753 44.2939946,0.289560431 43.9561096,0.327420728 C43.6182245,0.365281025 43.3750313,0.669660017 43.4129225,1.00727023 C43.8054841,4.50499815 42.8750563,7.997212 40.9691254,11.735846 Z" id="Path-153"></path>
                    </g>
                    <path d="M44.5019209,57.4913495 C42.2793701,58.1072846 28.5692303,42.7485306 23.3091831,31.9695112 C18.0491359,21.1904917 17.8105037,3.72308616 31.1650472,0.764297598 C44.5195907,-2.19449097 48.9645301,10.1044082 51.4373233,10.1031986 C53.9101165,10.1019891 63.806768,-0.973816229 74.7036121,6.28887916 C85.6004562,13.5515745 80.7152493,29.8097492 72.5910898,39.9767108 C64.4669304,50.1436724 47.1722798,56.7513133 44.5019209,57.4913495 L44.5019209,57.4913495 Z" id="balloon-2" fill="#C62C1F"></path>
                </g>
            </g>
        </g>
    </g>
</svg>