<?xml version="1.0" encoding="UTF-8" standalone="no"?>
<svg width="275px" height="275px" viewBox="0 0 275 275" version="1.1" xmlns="http://www.w3.org/2000/svg" xmlns:xlink="http://www.w3.org/1999/xlink" xmlns:sketch="http://www.bohemiancoding.com/sketch/ns">
    <!-- Generator: Sketch 3.2.2 (9983) - http://www.bohemiancoding.com/sketch -->
    <title>logo-mark-in-bounding-box</title>
    <desc>Created with Sketch.</desc>
    <defs></defs>
    <g id="Page-1" stroke="none" stroke-width="1" fill="none" fill-rule="evenodd" sketch:type="MSPage">
        <g id="balloon-with-grid" sketch:type="MSArtboardGroup">
            <g id="bl" sketch:type="MSLayerGroup">
                <g id="logo-grid-system" transform="translate(49.000000, 38.000000)" sketch:type="MSShapeGroup">
                    <path d="M176,3.49955371e-08 L1,3.49955371e-08 L88.5,101 L176,3.49955371e-08 Z" id="shaded-area" fill-opacity="0.499037591" fill="#00BCFF"></path>
                    <path d="M88.5,201 L1,201 L88.5,101 L88.5,201 Z" id="shaded-area" fill-opacity="0.499037591" fill="#00BCFF"></path>
                    <g id="grid" stroke="#00BCFF">
                        <rect id="space-box" stroke-width="2" x="1" y="0.995024876" width="175" height="200"></rect>
                        <g id="vertical-lines" transform="translate(0.000000, 25.000000)">
                            <path d="M1.43741699,76.25 L175.993654,76.25" id="Path-25"></path>
                            <path d="M0.0878188653,0.416666667 L175.887683,0.416666667" id="Path-26"></path>
                            <path d="M1.43741699,25.25 L175.993654,25.25" id="Path-27" opacity="0.352028918"></path>
                            <path d="M0.263473054,49.4991708 L175.712405,49.4991708" id="Path-28" opacity="0.352028918"></path>
                            <path d="M1.43741699,101.25 L175.993654,101.25" id="Path-27" opacity="0.352028918"></path>
                            <path d="M1.43741699,126.25 L175.993654,126.25" id="Path-28" opacity="0.352028918"></path>
                            <path d="M0.263028384,150.416667 L175.887683,150.416667" id="Path-29"></path>
                        </g>
                        <g id="horizontal-lines" transform="translate(101.000000, 101.000000) rotate(-270.000000) translate(-101.000000, -101.000000) translate(0.000000, 25.000000)">
                            <path d="M1.5,88.9950249 L200.030699,88.9950249" id="Path-25"></path>
                            <path d="M0.100545545,1.41666667 L201.377266,1.41666667" id="Path-26"></path>
                            <path d="M1.5,26.9950249 L201.030699,26.9950249" id="Path-27" opacity="0.352028918"></path>
                            <path d="M1.5,75.9950249 L201.030699,75.9950249" id="Path-28" opacity="0.352028918"></path>
                            <path d="M1.5,51.9950249 L201.030699,51.9950249" id="Path-28" opacity="0.352028918"></path>
                            <path d="M1.5,101.995025 L201.030699,101.995025" id="Path-27" opacity="0.352028918"></path>
                            <path d="M1.5,126.995025 L201.030699,126.995025" id="Path-28" opacity="0.352028918"></path>
                            <path d="M0.301146366,151.416667 L201.377266,151.416667" id="Path-29"></path>
                        </g>
                        <path d="M176,1 L1.00000001,201" id="Path-27"></path>
                        <path d="M1.00000001,1 L176,201" id="Path-28"></path>
                    </g>
                </g>
                <rect id="logo-bounding/centring-box" stroke="#00BCFF" stroke-width="2" sketch:type="MSShapeGroup" x="0" y="0" width="275" height="275"></rect>
                <g id="balloon-logo-3" transform="translate(59.000000, 25.500000)" sketch:type="MSShapeGroup">
                    <g id="strings-3" transform="translate(0.000000, 114.733743)" fill="#050505">
                        <path d="M69.5706788,18.353674 C66.057805,22.850448 61.8862339,26.8111863 51.164178,36.1614527 C45.0598262,41.4848083 41.7198774,47.443956 39.4418512,55.5807444 C38.8909457,57.548501 38.577119,58.8681295 37.7107373,62.7060373 C35.2684543,73.5248904 33.3675163,78.1290052 28.2224545,82.8149799 C21.9703652,88.5092036 18.2727019,89.9551637 10.8843657,91.0111745 C7.54902709,91.4878926 5.93933124,91.8817159 4.01269964,92.9079075 C2.77037428,93.5696136 1.59772396,94.4474718 0.446952853,95.5977152 C0.0166275793,96.0278432 0.0141869551,96.7276751 0.441501566,97.1608336 C0.868816177,97.593992 1.56407067,97.5964487 1.99439595,97.1663207 C2.9941701,96.167005 3.99237299,95.41974 5.03985059,94.8618167 C6.67767747,93.9894526 8.09565528,93.6425344 11.1931084,93.1998172 C18.9787073,92.0870259 23.0733348,90.485834 29.6959195,84.4541738 C35.2764829,79.3715567 37.3156617,74.4326196 39.8522834,63.1958635 C40.7098407,59.3970465 41.0187237,58.0982061 41.5556568,56.1803568 C43.7257828,48.4289729 46.8568424,42.8425259 52.6022005,37.832234 C63.436972,28.3836729 67.6651728,24.369167 71.2970157,19.7201025 C75.5431124,14.2847416 77.8703392,8.88002787 79.1520054,1.41982062 C79.2553453,0.818309121 78.8546868,0.246362622 78.2571096,0.142342366 C77.6595324,0.0383221101 77.0913269,0.441618451 76.987987,1.04312995 C75.7671897,8.14903683 73.586836,13.2126549 69.5706788,18.353674 Z" id="Path-152"></path>
                        <path d="M73.0746164,21.0876227 C72.5118791,22.1996484 71.9207643,23.2880415 71.2341755,24.4937496 C70.8699173,25.1334176 69.7777363,27.011014 69.6604539,27.215561 C65.2752509,34.8635975 64.4673464,38.9222685 65.5442902,45.2818996 C66.2307498,49.3356208 66.2307498,51.7942317 65.8619429,53.0057478 C65.8229038,53.1339896 65.7881713,53.2161648 65.7635505,53.2593313 C65.7725591,53.2435369 65.8025847,53.2040343 65.8577977,53.1495167 C65.4248708,53.5769913 65.4181842,54.2767952 65.8428627,54.7125724 C66.2675413,55.1483496 66.9627679,55.1550802 67.3956949,54.7276057 C67.605024,54.5209128 67.8036255,54.1727134 67.9617138,53.6533996 C68.4481531,52.0554657 68.4481531,49.2741436 67.7092024,44.9104489 C66.7210867,39.0753707 67.4257524,35.5353407 71.5625289,28.3205736 C71.6745606,28.1251842 72.7689813,26.2437375 73.1395033,25.5930696 C73.8427889,24.3580406 74.4506449,23.2388228 75.0315057,22.0909831 C78.6083618,15.0227535 80.3723453,8.35290408 79.6159547,1.56356275 C79.5483702,0.95692588 79.0050223,0.520298332 78.4023533,0.588327826 C77.7996843,0.65635732 77.3659126,1.20328247 77.4334971,1.80991934 C78.1336901,8.09483194 76.4741316,14.3698366 73.0746164,21.0876227 Z" id="Path-153"></path>
                    </g>
                    <path d="M91.7815737,115.783536 C88.2171376,117.816856 57.9384229,96.9576556 44.2069844,80.4353339 C30.4755459,63.9130122 22.504995,33.5619288 44.2436421,22.6383399 C65.9822892,11.7147511 78.96648,31.2388271 83.2282863,30.1692431 C87.4900925,29.0996592 99.7556712,5.51693245 121.681472,13.4752708 C143.607272,21.4336092 142.222603,51.8883207 132.618939,73.1213318 C123.015274,94.3543429 96.0641863,113.340535 91.7815737,115.783536 Z" id="balloon-2" fill="#C62C1F" transform="translate(85.020929, 63.779184) rotate(14.000000) translate(-85.020929, -63.779184) "></path>
                </g>
            </g>
        </g>
    </g>
</svg>