<svg xmlns="http://www.w3.org/2000/svg" xmlns:xlink="http://www.w3.org/1999/xlink" width="254" height="235" version="1.1" viewBox="0 0 254 235"><title>waystone-logomark-mid-bg</title><desc>Created with Sketch.</desc><g id="Page-1" fill="none" fill-rule="evenodd" stroke="none" stroke-width="1"><g id="waystone-logomark-mid-bg" fill="#000" transform="translate(0.000000, -235.000000)"><path id="waystone" d="M183.832894,313.486486 L155.75,313.486486 L169.370851,293.130308 C169.780182,293.172884 170.320668,293.254862 170.959509,293.395015 C172.736444,293.784852 174.513478,294.486598 176.16203,295.571611 C180.886464,298.681052 183.774366,304.319624 183.832894,313.486486 L183.832894,313.486486 Z M172.547048,288.383525 L184.395833,270.675676 L184.395833,296.436895 C182.917074,294.338773 181.114961,292.612248 179.032784,291.241839 C176.789942,289.765686 174.553296,288.870306 172.547048,288.383525 L172.547048,288.383525 Z M201.376704,288.269573 L189.604167,270.675676 L189.604167,270.675676 L189.604167,295.659243 C190.966848,293.908096 192.572145,292.439069 194.391196,291.241839 C196.822136,289.641888 199.245795,288.724208 201.376704,288.269573 L201.376704,288.269573 Z M204.603981,293.092696 L218.25,313.486486 L189.591086,313.486486 C189.591086,313.486486 189.591086,313.486486 189.591086,313.486486 L189.604167,313.486486 L189.604167,312.663109 C189.826263,303.980331 192.680632,298.586859 197.261951,295.571611 C198.910502,294.486598 200.687537,293.784852 202.464472,293.395015 C203.454622,293.177789 204.2085,293.100314 204.603981,293.092696 L204.603981,293.092696 Z M59.3328943,313.486486 L31.25,313.486486 L44.8708512,293.130308 C45.280182,293.172884 45.8206679,293.254862 46.4595087,293.395015 C48.2364439,293.784852 50.0134782,294.486598 51.6620297,295.571611 C56.3864635,298.681052 59.2743665,304.319624 59.3328943,313.486486 Z M48.0470478,288.383525 L59.8958333,270.675676 L59.8958333,296.436895 C58.4170736,294.338773 56.6149615,292.612248 54.5327844,291.241839 C52.2899418,289.765686 50.0532964,288.870306 48.0470478,288.383525 L48.0470478,288.383525 Z M76.8767038,288.269573 L65.1041667,270.675676 L65.1041667,270.675676 L65.1041667,295.659243 C66.4668476,293.908096 68.0721452,292.439069 69.8911963,291.241839 C72.3221358,289.641888 74.7457952,288.724208 76.8767038,288.269573 L76.8767038,288.269573 Z M80.1039811,293.092696 L93.75,313.486486 L65.0910864,313.486486 C65.0910864,313.486486 65.0910864,313.486486 65.0910864,313.486486 L65.1041667,313.486486 L65.1041667,312.663109 C65.3262633,303.980331 68.1806323,298.586859 72.7619511,295.571611 C74.4105025,294.486598 76.1875369,293.784852 77.9644721,293.395015 C78.954622,293.177789 79.7084996,293.100314 80.1039811,293.092696 L80.1039811,293.092696 Z M182.291667,411.239412 L182.291667,388.72973 L156.25,388.72973 L156.25,431.540541 L182.291667,431.540541 L182.291667,431.279072 C182.291418,431.269598 182.291149,431.25939 182.290858,431.248346 C182.282937,430.976874 182.268494,430.657875 182.245832,430.295428 C182.180168,429.245203 182.061365,428.068933 181.876164,426.799466 C181.347726,423.177276 180.397853,419.560093 178.932466,416.211915 C174.843775,406.869901 167.666671,401.403716 156.25,401.403716 L156.25,396.214527 C168.672476,396.214527 177.192452,401.850817 182.291667,411.239412 L182.291667,411.239412 Z M239.583333,401.42821 L239.583333,431.540541 L213.541667,431.540541 L213.541667,431.524079 C214.28922,431.515566 214.844165,431.50267 214.844367,431.483139 C214.845801,431.394291 214.845801,431.394291 214.849645,431.248346 C214.857566,430.976874 214.872009,430.657875 214.894671,430.295428 C214.960335,429.245203 215.079138,428.068933 215.264339,426.799466 C215.792777,423.177276 216.74265,419.560093 218.208037,416.211915 C222.138412,407.231627 228.922663,401.832832 239.583333,401.42821 L239.583333,401.42821 Z M239.583333,396.235716 L239.583333,388.72973 L213.541667,388.72973 L213.541667,413.89363 C218.27116,403.279702 226.762884,396.655248 239.583333,396.235716 L239.583333,396.235716 Z M156.25,435.432432 L156.25,451 L182.291667,451 L182.291667,435.432432 L156.25,435.432432 Z M187.5,397.810811 L187.5,408.189189 L195.3125,408.189189 L195.3125,397.810811 L187.5,397.810811 Z M200.520833,397.810811 L200.520833,408.189189 L208.333333,408.189189 L208.333333,397.810811 L200.520833,397.810811 Z M187.5,412.081081 L187.5,422.459459 L195.3125,422.459459 L195.3125,412.081081 L187.5,412.081081 Z M200.520833,412.081081 L200.520833,422.459459 L208.333333,422.459459 L208.333333,412.081081 L200.520833,412.081081 Z M187.5,388.72973 L187.5,393.918919 L208.333333,393.918919 L208.333333,388.72973 L187.5,388.72973 Z M187.5,426.351351 L187.5,431.540541 L208.333333,431.540541 L208.333333,426.351351 L187.5,426.351351 Z M213.541667,435.432432 L213.541667,451 L239.583333,451 L239.583333,435.432432 L213.541667,435.432432 Z M187.5,435.432432 L187.5,451 L208.333333,451 L208.333333,435.432432 L187.5,435.432432 Z M106.862386,451 C106.862386,451 106.770833,436.864147 106.770833,410.524324 C106.770833,392.805511 124.939283,392.805511 124.939283,392.805511 C124.939283,392.805511 143.229167,392.805511 143.229167,410.524324 L143.229167,451 L151.041667,451 L151.041667,388.72973 L98.9583333,388.72973 L98.9583333,451 L106.862386,451 Z M205.729167,284.945946 L187.80009,259 L167.96875,284.945946 L80.7291667,284.945946 L62.5,259 L44.2708333,284.945946 L20.8333333,284.945946 L-2.89120579e-16,383.540541 L250,383.540541 L229.166667,284.945946 L205.729167,284.945946 Z M54.6875,397.810811 L54.6875,408.189189 L62.5,408.189189 L62.5,397.810811 L54.6875,397.810811 Z M41.6666667,412.081081 L41.6666667,422.459459 L49.4791667,422.459459 L49.4791667,412.081081 L41.6666667,412.081081 Z M54.6875,412.081081 L54.6875,422.459459 L62.5,422.459459 L62.5,412.081081 L54.6875,412.081081 Z M41.6666667,388.72973 L41.6666667,393.918919 L62.5,393.918919 L62.5,388.72973 L41.6666667,388.72973 Z M41.6666667,426.351351 L41.6666667,431.540541 L62.5,431.540541 L62.5,426.351351 L41.6666667,426.351351 Z M10.4166667,435.432432 L10.4166667,451 L36.4583333,451 L36.4583333,435.432432 L10.4166667,435.432432 Z M67.7083333,435.432432 L67.7083333,451 L93.75,451 L93.75,435.432432 L67.7083333,435.432432 Z M41.6666667,435.432432 L41.6666667,451 L62.5,451 L62.5,435.432432 L41.6666667,435.432432 Z M41.6666667,397.810811 L41.6666667,408.189189 L49.4791667,408.189189 L49.4791667,397.810811 L41.6666667,397.810811 Z M31.25,318.675676 L31.25,339.432432 L46.0464015,339.432432 L46.0464015,318.675676 L31.25,318.675676 Z M31.25,344.621622 L31.25,355 L46.0464015,355 L46.0464015,344.621622 L31.25,344.621622 Z M78.9535985,318.675676 L78.9535985,339.432432 L93.75,339.432432 L93.75,318.675676 L78.9535985,318.675676 Z M78.9535985,344.621622 L78.9535985,355 L93.75,355 L93.75,344.621622 L78.9535985,344.621622 Z M51.9649621,329.054054 L51.9649621,339.432432 L59.8958333,339.432432 L59.8958333,329.054054 L51.9649621,329.054054 Z M51.9649621,344.621622 L51.9649621,355 L59.8958333,355 L59.8958333,344.621622 L51.9649621,344.621622 Z M64.9857955,344.621622 L64.9857955,355 L72.9166667,355 L72.9166667,344.621622 L64.9857955,344.621622 Z M64.9857955,329.054054 L64.9857955,339.432432 L72.9166667,339.432432 L72.9166667,329.054054 L64.9857955,329.054054 Z M51.9649621,318.675676 L51.9649621,323.864865 L72.7982955,323.864865 L72.7982955,318.675676 L51.9649621,318.675676 Z M155.75,318.675676 L155.75,339.432432 L170.546402,339.432432 L170.546402,318.675676 L155.75,318.675676 Z M155.75,344.621622 L155.75,355 L170.546402,355 L170.546402,344.621622 L155.75,344.621622 Z M203.453598,318.675676 L203.453598,339.432432 L218.25,339.432432 L218.25,318.675676 L203.453598,318.675676 Z M203.453598,344.621622 L203.453598,355 L218.25,355 L218.25,344.621622 L203.453598,344.621622 Z M176.464962,329.054054 L176.464962,339.432432 L184.395833,339.432432 L184.395833,329.054054 L176.464962,329.054054 Z M176.464962,344.621622 L176.464962,355 L184.395833,355 L184.395833,344.621622 L176.464962,344.621622 Z M189.485795,344.621622 L189.485795,355 L197.416667,355 L197.416667,344.621622 L189.485795,344.621622 Z M189.485795,329.054054 L189.485795,339.432432 L197.416667,339.432432 L197.416667,329.054054 L189.485795,329.054054 Z M176.464962,318.675676 L176.464962,323.864865 L197.298295,323.864865 L197.298295,318.675676 L176.464962,318.675676 Z M93.7810059,388.712402 L93.7211914,396.205322 C93.7211914,396.205322 84.9699707,396.205322 77.8991699,401.045654 C70.8283691,405.885986 67.7722168,413.77832 67.7722168,413.77832 L67.7558594,388.741455 L93.7810059,388.712402 Z M93.7116699,431.521729 L93.8117676,401.4375 C93.8117676,401.4375 81.2388956,401.062012 74.6904297,411.944336 C68.1419638,422.82666 69.1850586,431.434326 69.1850586,431.434326 L93.7116699,431.521729 Z M10,388.712402 L10.0598145,396.205322 C10.0598145,396.205322 18.8110352,396.205322 25.8818359,401.045654 C32.9526367,405.885986 36.0087891,413.77832 36.0087891,413.77832 L36.0251465,388.741455 L10,388.712402 Z M10.2242669,431.521729 L10.1241692,401.4375 C10.1241692,401.4375 22.6970413,401.062012 29.2455071,411.944336 C35.793973,422.82666 34.7508782,431.434326 34.7508782,431.434326 L10.2242669,431.521729 Z"/></g></g></svg>